<?xml version="1.0" encoding="utf-8" standalone="no"?>
<!DOCTYPE svg PUBLIC "-//W3C//DTD SVG 1.1//EN"
  "http://www.w3.org/Graphics/SVG/1.1/DTD/svg11.dtd">
<svg xmlns:xlink="http://www.w3.org/1999/xlink" width="511.660937pt" height="396.265746pt" viewBox="0 0 511.660937 396.265746" xmlns="http://www.w3.org/2000/svg" version="1.1">
 <metadata>
  <rdf:RDF xmlns:dc="http://purl.org/dc/elements/1.1/" xmlns:cc="http://creativecommons.org/ns#" xmlns:rdf="http://www.w3.org/1999/02/22-rdf-syntax-ns#">
   <cc:Work>
    <dc:type rdf:resource="http://purl.org/dc/dcmitype/StillImage"/>
    <dc:date>2026-01-22T22:46:35.887718</dc:date>
    <dc:format>image/svg+xml</dc:format>
    <dc:creator>
     <cc:Agent>
      <dc:title>Matplotlib v3.10.3, https://matplotlib.org/</dc:title>
     </cc:Agent>
    </dc:creator>
   </cc:Work>
  </rdf:RDF>
 </metadata>
 <defs>
  <style type="text/css">*{stroke-linejoin: round; stroke-linecap: butt}</style>
 </defs>
 <g id="figure_1">
  <g id="patch_1">
   <path d="M -0 396.265746 
L 511.660937 396.265746 
L 511.660937 0 
L -0 0 
z
" style="fill: #ffffff"/>
  </g>
  <g id="axes_1">
   <g id="patch_2">
    <path d="M 84.360938 331.422465 
L 504.460937 331.422465 
L 504.460937 15.331552 
L 84.360938 15.331552 
z
" style="fill: #ffffff"/>
   </g>
   <g id="FillBetweenPolyCollection_1">
    <defs>
     <path id="mda1b4c222c" d="M 103.456392 -85.05283 
L 103.456392 -79.89917 
L 104.203768 -88.976275 
L 104.951144 -87.841351 
L 105.69852 -88.523443 
L 106.445896 -92.807502 
L 107.193272 -95.274757 
L 107.940648 -92.637864 
L 108.688023 -100.674461 
L 109.435399 -100.388029 
L 110.182775 -103.291041 
L 110.930151 -97.961144 
L 111.677527 -99.658121 
L 112.424903 -101.819772 
L 113.172279 -103.976345 
L 113.919655 -107.172487 
L 114.667031 -107.240205 
L 115.414407 -117.296642 
L 116.161783 -119.80608 
L 116.909158 -113.890637 
L 117.656534 -122.772116 
L 118.40391 -126.516946 
L 119.151286 -128.678405 
L 119.898662 -129.543505 
L 120.646038 -129.210361 
L 121.393414 -123.54295 
L 122.14079 -131.551309 
L 122.888166 -132.775431 
L 123.635542 -132.067066 
L 124.382918 -132.987492 
L 125.130293 -131.964072 
L 125.877669 -134.207999 
L 126.625045 -131.905986 
L 127.372421 -131.069155 
L 128.119797 -135.026569 
L 128.867173 -132.240234 
L 129.614549 -131.28651 
L 130.361925 -135.624891 
L 131.109301 -138.101483 
L 131.856677 -131.111265 
L 132.604053 -128.833036 
L 133.351429 -131.920062 
L 134.098804 -135.190012 
L 134.84618 -142.117516 
L 135.593556 -143.273862 
L 136.340932 -138.399216 
L 137.088308 -147.903139 
L 137.835684 -154.187526 
L 138.58306 -152.593073 
L 139.330436 -143.973416 
L 140.077812 -146.350852 
L 140.825188 -144.500605 
L 141.572564 -147.819086 
L 142.319939 -148.249911 
L 143.067315 -139.500952 
L 143.814691 -144.01168 
L 144.562067 -153.093699 
L 145.309443 -144.288433 
L 146.056819 -148.120405 
L 146.804195 -145.963939 
L 147.551571 -143.385357 
L 148.298947 -142.015202 
L 149.046323 -136.584802 
L 149.793699 -136.396844 
L 150.541074 -137.911376 
L 151.28845 -136.357351 
L 152.035826 -139.123507 
L 152.783202 -140.268018 
L 153.530578 -144.000696 
L 154.277954 -146.243189 
L 155.02533 -143.249014 
L 155.772706 -143.695206 
L 156.520082 -144.546497 
L 157.267458 -150.652237 
L 158.014834 -148.386989 
L 158.76221 -142.063257 
L 159.509585 -139.527621 
L 160.256961 -127.100304 
L 161.004337 -119.795591 
L 161.751713 -107.503802 
L 162.499089 -89.8663 
L 163.246465 -89.908927 
L 163.993841 -88.942558 
L 164.741217 -87.099807 
L 165.488593 -82.774901 
L 166.235969 -82.059216 
L 166.983345 -88.102194 
L 167.73072 -81.738037 
L 168.478096 -89.434486 
L 169.225472 -91.812602 
L 169.972848 -97.192628 
L 170.720224 -98.441349 
L 171.4676 -95.131286 
L 172.214976 -86.354904 
L 172.962352 -85.132161 
L 173.709728 -82.462014 
L 174.457104 -79.21105 
L 175.20448 -81.295001 
L 175.951855 -86.019314 
L 176.699231 -88.458223 
L 177.446607 -84.846489 
L 178.193983 -88.719252 
L 178.941359 -88.663512 
L 179.688735 -89.317469 
L 180.436111 -83.798748 
L 181.183487 -91.272365 
L 181.930863 -90.911006 
L 182.678239 -88.006728 
L 183.425615 -86.529671 
L 184.172991 -87.170523 
L 184.920366 -82.03021 
L 185.667742 -87.203257 
L 186.415118 -89.992111 
L 187.162494 -91.082443 
L 187.90987 -81.678018 
L 188.657246 -86.612388 
L 189.404622 -96.347027 
L 190.151998 -97.935751 
L 190.899374 -95.008153 
L 191.64675 -92.899188 
L 192.394126 -95.557399 
L 193.141501 -94.707276 
L 193.888877 -96.326856 
L 194.636253 -94.439372 
L 195.383629 -90.222503 
L 196.131005 -92.705354 
L 196.878381 -91.43929 
L 197.625757 -91.030263 
L 198.373133 -90.491821 
L 199.120509 -89.789655 
L 199.867885 -84.346105 
L 200.615261 -84.023953 
L 201.362636 -85.832043 
L 202.110012 -90.080705 
L 202.857388 -101.601461 
L 203.604764 -89.526904 
L 204.35214 -91.526511 
L 205.099516 -90.711808 
L 205.846892 -86.762899 
L 206.594268 -90.850814 
L 207.341644 -84.446522 
L 208.08902 -90.635921 
L 208.836396 -94.461658 
L 209.583772 -100.182615 
L 210.331147 -97.416291 
L 211.078523 -92.034073 
L 211.825899 -92.865767 
L 212.573275 -93.924609 
L 213.320651 -96.206273 
L 214.068027 -95.322357 
L 214.815403 -96.665189 
L 215.562779 -104.358729 
L 216.310155 -95.151133 
L 217.057531 -103.523419 
L 217.804907 -96.91461 
L 218.552282 -102.960805 
L 219.299658 -106.447188 
L 220.047034 -96.602278 
L 220.79441 -98.736259 
L 221.541786 -100.321052 
L 222.289162 -95.76909 
L 223.036538 -91.984473 
L 223.783914 -95.104575 
L 224.53129 -93.478436 
L 225.278666 -101.302311 
L 226.026042 -103.225571 
L 226.773417 -97.356986 
L 227.520793 -97.232748 
L 228.268169 -93.127958 
L 229.015545 -99.119823 
L 229.762921 -103.532353 
L 230.510297 -104.581152 
L 231.257673 -100.925629 
L 232.005049 -108.774928 
L 232.752425 -109.519271 
L 233.499801 -108.345536 
L 234.247177 -118.153055 
L 234.994553 -110.270719 
L 235.741928 -115.415637 
L 236.489304 -121.490438 
L 237.23668 -118.287142 
L 237.984056 -116.366642 
L 238.731432 -113.972702 
L 239.478808 -109.321208 
L 240.226184 -112.031912 
L 240.97356 -118.928882 
L 241.720936 -115.291441 
L 242.468312 -108.961787 
L 243.215688 -107.472986 
L 243.963063 -113.814671 
L 244.710439 -114.941216 
L 245.457815 -109.050889 
L 246.205191 -115.636544 
L 246.952567 -113.441234 
L 247.699943 -114.640962 
L 248.447319 -115.515318 
L 249.194695 -117.978527 
L 249.942071 -115.214607 
L 250.689447 -108.383882 
L 251.436823 -103.626984 
L 252.184198 -108.411756 
L 252.931574 -113.422139 
L 253.67895 -107.561954 
L 254.426326 -114.80816 
L 255.173702 -121.237936 
L 255.921078 -120.541392 
L 256.668454 -121.725124 
L 257.41583 -121.385993 
L 258.163206 -118.17788 
L 258.910582 -120.677827 
L 259.657958 -119.920376 
L 260.405334 -121.156536 
L 261.152709 -122.917515 
L 261.900085 -119.222006 
L 262.647461 -115.348575 
L 263.394837 -115.94405 
L 264.142213 -121.848745 
L 264.889589 -125.872359 
L 265.636965 -119.186571 
L 266.384341 -118.332354 
L 267.131717 -117.788055 
L 267.879093 -120.228533 
L 268.626469 -119.557909 
L 269.373844 -116.149403 
L 270.12122 -121.033808 
L 270.868596 -121.018603 
L 271.615972 -119.528549 
L 272.363348 -116.282048 
L 273.110724 -118.903433 
L 273.8581 -118.639513 
L 274.605476 -121.541817 
L 275.352852 -121.136547 
L 276.100228 -127.0645 
L 276.847604 -121.896726 
L 277.594979 -119.491067 
L 278.342355 -119.825131 
L 279.089731 -117.718666 
L 279.837107 -121.204541 
L 280.584483 -118.932257 
L 281.331859 -125.2941 
L 282.079235 -128.908824 
L 282.826611 -125.843835 
L 283.573987 -120.721805 
L 284.321363 -125.329798 
L 285.068739 -121.073495 
L 285.816115 -121.56244 
L 286.56349 -125.169652 
L 287.310866 -123.393219 
L 288.058242 -120.569943 
L 288.805618 -118.318148 
L 289.552994 -121.347291 
L 290.30037 -124.197269 
L 291.047746 -124.113812 
L 291.795122 -125.012677 
L 292.542498 -124.979591 
L 293.289874 -118.621807 
L 294.03725 -121.044089 
L 294.784625 -122.179591 
L 295.532001 -122.284272 
L 296.279377 -119.492042 
L 297.026753 -121.11647 
L 297.774129 -119.988536 
L 298.521505 -121.160826 
L 299.268881 -123.681373 
L 300.016257 -126.480846 
L 300.763633 -122.604679 
L 301.511009 -121.528966 
L 302.258385 -122.76691 
L 303.00576 -120.712092 
L 303.753136 -121.852295 
L 304.500512 -123.628062 
L 305.247888 -120.285552 
L 305.995264 -118.75472 
L 306.74264 -122.307132 
L 307.490016 -118.877009 
L 308.237392 -121.760087 
L 308.984768 -122.055323 
L 309.732144 -124.98494 
L 310.47952 -130.40982 
L 311.226896 -123.497082 
L 311.974271 -121.830919 
L 312.721647 -119.582743 
L 313.469023 -125.161164 
L 314.216399 -126.161631 
L 314.963775 -124.274175 
L 315.711151 -125.86339 
L 316.458527 -128.525827 
L 317.205903 -119.913835 
L 317.953279 -122.338974 
L 318.700655 -116.526289 
L 319.448031 -118.135798 
L 320.195406 -115.34325 
L 320.942782 -121.541193 
L 321.690158 -122.370165 
L 322.437534 -121.748363 
L 323.18491 -122.99333 
L 323.932286 -124.328411 
L 324.679662 -121.398277 
L 325.427038 -119.003634 
L 326.174414 -120.085977 
L 326.92179 -118.342363 
L 327.669166 -121.996229 
L 328.416541 -127.905278 
L 329.163917 -120.705301 
L 329.911293 -126.239998 
L 330.658669 -127.796284 
L 331.406045 -114.151497 
L 332.153421 -120.690868 
L 332.900797 -123.97225 
L 333.648173 -124.540546 
L 334.395549 -132.758317 
L 335.142925 -130.538133 
L 335.890301 -123.51592 
L 336.637677 -121.266256 
L 337.385052 -121.657981 
L 338.132428 -127.132586 
L 338.879804 -127.844644 
L 339.62718 -128.730954 
L 340.374556 -138.144167 
L 341.121932 -135.880708 
L 341.869308 -131.387455 
L 342.616684 -125.4664 
L 343.36406 -124.842504 
L 344.111436 -130.246947 
L 344.858812 -118.736949 
L 345.606187 -117.712998 
L 346.353563 -118.430919 
L 347.100939 -124.240109 
L 347.848315 -126.527001 
L 348.595691 -132.323377 
L 349.343067 -133.660196 
L 350.090443 -127.627281 
L 350.837819 -123.673135 
L 351.585195 -118.84291 
L 352.332571 -122.147813 
L 353.079947 -125.052656 
L 353.827322 -120.136103 
L 354.574698 -120.67418 
L 355.322074 -122.510003 
L 356.06945 -121.288862 
L 356.816826 -127.088294 
L 357.564202 -119.959421 
L 358.311578 -119.158348 
L 359.058954 -122.698848 
L 359.80633 -121.226504 
L 360.553706 -122.151054 
L 361.301082 -128.06162 
L 362.048458 -136.928587 
L 362.795833 -128.549223 
L 363.543209 -120.948756 
L 364.290585 -116.899249 
L 365.037961 -120.428205 
L 365.785337 -123.474679 
L 366.532713 -137.348803 
L 367.280089 -130.739682 
L 368.027465 -127.018003 
L 368.774841 -131.163698 
L 369.522217 -127.209608 
L 370.269593 -123.435107 
L 371.016968 -121.803371 
L 371.764344 -120.057251 
L 372.51172 -126.787316 
L 373.259096 -133.509786 
L 374.006472 -133.488877 
L 374.753848 -135.404389 
L 375.501224 -125.628293 
L 376.2486 -124.527644 
L 376.995976 -134.992855 
L 377.743352 -138.772805 
L 378.490728 -127.401032 
L 379.238103 -126.635944 
L 379.985479 -134.525536 
L 380.732855 -130.412668 
L 381.480231 -125.378255 
L 382.227607 -122.013227 
L 382.974983 -128.213611 
L 383.722359 -134.659059 
L 384.469735 -132.872119 
L 385.217111 -128.535965 
L 385.964487 -129.789036 
L 386.711863 -123.133903 
L 387.459239 -122.017859 
L 388.206614 -127.142737 
L 388.95399 -137.42987 
L 389.701366 -135.413117 
L 390.448742 -126.686759 
L 391.196118 -127.727958 
L 391.943494 -124.834506 
L 392.69087 -122.188333 
L 393.438246 -123.010763 
L 394.185622 -119.631524 
L 394.932998 -134.326817 
L 395.680374 -129.907026 
L 396.427749 -128.560582 
L 397.175125 -140.80217 
L 397.922501 -132.053599 
L 398.669877 -139.044816 
L 399.417253 -133.857108 
L 400.164629 -139.640438 
L 400.912005 -137.519947 
L 401.659381 -129.678872 
L 402.406757 -131.379605 
L 403.154133 -130.804911 
L 403.901509 -140.238173 
L 404.648884 -134.102126 
L 405.39626 -136.317603 
L 406.143636 -131.58236 
L 406.891012 -137.24587 
L 407.638388 -144.206474 
L 408.385764 -145.693778 
L 409.13314 -146.661833 
L 409.880516 -152.880353 
L 410.627892 -156.764642 
L 411.375268 -150.685424 
L 412.122644 -145.785907 
L 412.87002 -144.733816 
L 413.617395 -151.710559 
L 414.364771 -153.853212 
L 415.112147 -153.245182 
L 415.859523 -158.839034 
L 416.606899 -159.391894 
L 417.354275 -158.09057 
L 418.101651 -152.754564 
L 418.849027 -151.492876 
L 419.596403 -162.36369 
L 420.343779 -160.197433 
L 421.091155 -158.407312 
L 421.83853 -163.762734 
L 422.585906 -167.465103 
L 423.333282 -170.869684 
L 424.080658 -169.533919 
L 424.828034 -172.353456 
L 425.57541 -176.665788 
L 426.322786 -177.193685 
L 427.070162 -179.55268 
L 427.817538 -173.582811 
L 428.564914 -177.965115 
L 429.31229 -183.346231 
L 430.059665 -184.023456 
L 430.807041 -180.057397 
L 431.554417 -187.196163 
L 432.301793 -183.320555 
L 433.049169 -183.713778 
L 433.796545 -191.605955 
L 434.543921 -195.486407 
L 435.291297 -191.141243 
L 436.038673 -191.08109 
L 436.786049 -197.241163 
L 437.533425 -195.193149 
L 438.280801 -202.962468 
L 439.028176 -204.528194 
L 439.775552 -212.005577 
L 440.522928 -208.669257 
L 441.270304 -207.00951 
L 442.01768 -213.253867 
L 442.765056 -212.660307 
L 443.512432 -218.991241 
L 444.259808 -220.708034 
L 445.007184 -226.157652 
L 445.75456 -227.339789 
L 446.501936 -227.221157 
L 447.249311 -232.272226 
L 447.996687 -236.951347 
L 448.744063 -230.50669 
L 449.491439 -231.360555 
L 450.238815 -234.367448 
L 450.986191 -235.084421 
L 451.733567 -239.928672 
L 452.480943 -245.519648 
L 453.228319 -251.502535 
L 453.975695 -251.69272 
L 454.723071 -248.481071 
L 455.470446 -254.490548 
L 456.217822 -259.613891 
L 456.965198 -250.874765 
L 457.712574 -262.917074 
L 458.45995 -267.891968 
L 459.207326 -269.390357 
L 459.954702 -265.783746 
L 460.702078 -270.738132 
L 461.449454 -272.09336 
L 462.19683 -274.500091 
L 462.944206 -274.284313 
L 463.691582 -273.52039 
L 464.438957 -277.971399 
L 465.186333 -287.756038 
L 465.933709 -288.857376 
L 466.681085 -291.853266 
L 467.428461 -297.452416 
L 468.175837 -297.06892 
L 468.923213 -304.545295 
L 469.670589 -305.017884 
L 470.417965 -296.506869 
L 471.165341 -295.734458 
L 471.912717 -312.206179 
L 472.660092 -307.692465 
L 473.407468 -313.247142 
L 474.154844 -310.909884 
L 474.90222 -319.044299 
L 475.649596 -316.125741 
L 476.396972 -330.519159 
L 477.144348 -330.629498 
L 477.891724 -328.972729 
L 478.6391 -329.262417 
L 479.386476 -330.739319 
L 480.133852 -336.506464 
L 480.881227 -346.749046 
L 481.628603 -343.72185 
L 482.375979 -344.444777 
L 483.123355 -349.187343 
L 483.870731 -349.31817 
L 484.618107 -346.083203 
L 485.365483 -352.25167 
L 485.365483 -366.566425 
L 485.365483 -366.566425 
L 484.618107 -364.921213 
L 483.870731 -362.130597 
L 483.123355 -360.197232 
L 482.375979 -358.441884 
L 481.628603 -355.762458 
L 480.881227 -356.354095 
L 480.133852 -353.165319 
L 479.386476 -349.178892 
L 478.6391 -347.712161 
L 477.891724 -344.483387 
L 477.144348 -340.783672 
L 476.396972 -338.8011 
L 475.649596 -339.94654 
L 474.90222 -336.598885 
L 474.154844 -334.146351 
L 473.407468 -329.295277 
L 472.660092 -327.539837 
L 471.912717 -323.375613 
L 471.165341 -326.124752 
L 470.417965 -319.691226 
L 469.670589 -316.062851 
L 468.923213 -314.2666 
L 468.175837 -311.1551 
L 467.428461 -309.379967 
L 466.681085 -307.286094 
L 465.933709 -304.431239 
L 465.186333 -298.997071 
L 464.438957 -296.350911 
L 463.691582 -292.717284 
L 462.944206 -290.757272 
L 462.19683 -288.932433 
L 461.449454 -286.580215 
L 460.702078 -285.730713 
L 459.954702 -283.349408 
L 459.207326 -279.282709 
L 458.45995 -277.199432 
L 457.712574 -274.60993 
L 456.965198 -269.943753 
L 456.217822 -269.331332 
L 455.470446 -266.674151 
L 454.723071 -264.856764 
L 453.975695 -263.554737 
L 453.228319 -260.470753 
L 452.480943 -255.591627 
L 451.733567 -251.152693 
L 450.986191 -251.268487 
L 450.238815 -249.209083 
L 449.491439 -248.388576 
L 448.744063 -247.212827 
L 447.996687 -238.973546 
L 447.249311 -236.267936 
L 446.501936 -234.128963 
L 445.75456 -228.891341 
L 445.007184 -231.579348 
L 444.259808 -232.794538 
L 443.512432 -226.299806 
L 442.765056 -224.575774 
L 442.01768 -219.5934 
L 441.270304 -221.971164 
L 440.522928 -217.944305 
L 439.775552 -212.104534 
L 439.028176 -210.16968 
L 438.280801 -207.098048 
L 437.533425 -206.441894 
L 436.786049 -202.888945 
L 436.038673 -200.357757 
L 435.291297 -195.865021 
L 434.543921 -196.604314 
L 433.796545 -196.420683 
L 433.049169 -189.986289 
L 432.301793 -189.650954 
L 431.554417 -185.587102 
L 430.807041 -182.871488 
L 430.059665 -188.922608 
L 429.31229 -181.26447 
L 428.564914 -178.609426 
L 427.817538 -177.749051 
L 427.070162 -173.595552 
L 426.322786 -170.312155 
L 425.57541 -168.136883 
L 424.828034 -166.747686 
L 424.080658 -164.301208 
L 423.333282 -161.660697 
L 422.585906 -165.569081 
L 421.83853 -161.361134 
L 421.091155 -154.499917 
L 420.343779 -151.438382 
L 419.596403 -152.6875 
L 418.849027 -148.013987 
L 418.101651 -149.642972 
L 417.354275 -151.431133 
L 416.606899 -146.543071 
L 415.859523 -145.960537 
L 415.112147 -143.721838 
L 414.364771 -140.940917 
L 413.617395 -140.280704 
L 412.87002 -141.304003 
L 412.122644 -138.796895 
L 411.375268 -136.33811 
L 410.627892 -137.910517 
L 409.880516 -139.459665 
L 409.13314 -134.188121 
L 408.385764 -135.077019 
L 407.638388 -133.93695 
L 406.891012 -135.416154 
L 406.143636 -130.643253 
L 405.39626 -132.95442 
L 404.648884 -131.779434 
L 403.901509 -132.132627 
L 403.154133 -133.32904 
L 402.406757 -132.531809 
L 401.659381 -130.42987 
L 400.912005 -130.859489 
L 400.164629 -128.118065 
L 399.417253 -130.64476 
L 398.669877 -127.503008 
L 397.922501 -128.43085 
L 397.175125 -127.942858 
L 396.427749 -127.612196 
L 395.680374 -125.689644 
L 394.932998 -127.766707 
L 394.185622 -126.668263 
L 393.438246 -125.484692 
L 392.69087 -124.342201 
L 391.943494 -123.423656 
L 391.196118 -123.388069 
L 390.448742 -123.283185 
L 389.701366 -120.46676 
L 388.95399 -121.053307 
L 388.206614 -122.695709 
L 387.459239 -121.819976 
L 386.711863 -120.817836 
L 385.964487 -122.077883 
L 385.217111 -120.474096 
L 384.469735 -121.854879 
L 383.722359 -121.33915 
L 382.974983 -120.270444 
L 382.227607 -119.943292 
L 381.480231 -123.42809 
L 380.732855 -121.040299 
L 379.985479 -122.16379 
L 379.238103 -120.425334 
L 378.490728 -123.267195 
L 377.743352 -121.456603 
L 376.995976 -121.751322 
L 376.2486 -121.30543 
L 375.501224 -119.782498 
L 374.753848 -121.252346 
L 374.006472 -120.358446 
L 373.259096 -120.128961 
L 372.51172 -120.934263 
L 371.764344 -119.414595 
L 371.016968 -121.022024 
L 370.269593 -119.602918 
L 369.522217 -120.977931 
L 368.774841 -121.168205 
L 368.027465 -120.710428 
L 367.280089 -119.545881 
L 366.532713 -121.126788 
L 365.785337 -121.089375 
L 365.037961 -121.54044 
L 364.290585 -118.605354 
L 363.543209 -120.371861 
L 362.795833 -120.781472 
L 362.048458 -119.310446 
L 361.301082 -119.743088 
L 360.553706 -119.245194 
L 359.80633 -117.086296 
L 359.058954 -119.280869 
L 358.311578 -118.067398 
L 357.564202 -119.187889 
L 356.816826 -117.388924 
L 356.06945 -114.557671 
L 355.322074 -111.780825 
L 354.574698 -121.013282 
L 353.827322 -115.858341 
L 353.079947 -114.757539 
L 352.332571 -115.103983 
L 351.585195 -116.639771 
L 350.837819 -116.960258 
L 350.090443 -116.27405 
L 349.343067 -118.522022 
L 348.595691 -117.258365 
L 347.848315 -118.119595 
L 347.100939 -121.859913 
L 346.353563 -119.588527 
L 345.606187 -121.301418 
L 344.858812 -119.656035 
L 344.111436 -121.916294 
L 343.36406 -122.237973 
L 342.616684 -123.813426 
L 341.869308 -121.587944 
L 341.121932 -122.888811 
L 340.374556 -118.691432 
L 339.62718 -125.240174 
L 338.879804 -124.238806 
L 338.132428 -122.556287 
L 337.385052 -120.396386 
L 336.637677 -118.999427 
L 335.890301 -120.066265 
L 335.142925 -119.902134 
L 334.395549 -117.560706 
L 333.648173 -116.758191 
L 332.900797 -116.592775 
L 332.153421 -116.103287 
L 331.406045 -114.181604 
L 330.658669 -119.087956 
L 329.911293 -117.679468 
L 329.163917 -117.632888 
L 328.416541 -117.430734 
L 327.669166 -118.274873 
L 326.92179 -116.196501 
L 326.174414 -117.908921 
L 325.427038 -115.770779 
L 324.679662 -118.30648 
L 323.932286 -116.607984 
L 323.18491 -118.122336 
L 322.437534 -115.227271 
L 321.690158 -118.141743 
L 320.942782 -113.479553 
L 320.195406 -116.927481 
L 319.448031 -116.414438 
L 318.700655 -115.052838 
L 317.953279 -113.038172 
L 317.205903 -117.312009 
L 316.458527 -112.562671 
L 315.711151 -115.54123 
L 314.963775 -113.729557 
L 314.216399 -112.604161 
L 313.469023 -111.14944 
L 312.721647 -115.347498 
L 311.974271 -114.272714 
L 311.226896 -120.10752 
L 310.47952 -114.257648 
L 309.732144 -114.482131 
L 308.984768 -114.126406 
L 308.237392 -117.715143 
L 307.490016 -116.104813 
L 306.74264 -115.351167 
L 305.995264 -113.732978 
L 305.247888 -116.369286 
L 304.500512 -123.244912 
L 303.753136 -125.396774 
L 303.00576 -124.387704 
L 302.258385 -126.54308 
L 301.511009 -124.461351 
L 300.763633 -128.270047 
L 300.016257 -126.620111 
L 299.268881 -124.626786 
L 298.521505 -128.348058 
L 297.774129 -132.967933 
L 297.026753 -131.679404 
L 296.279377 -136.508829 
L 295.532001 -137.168483 
L 294.784625 -140.179647 
L 294.03725 -134.657288 
L 293.289874 -135.653854 
L 292.542498 -136.044927 
L 291.795122 -138.186364 
L 291.047746 -136.314446 
L 290.30037 -135.443078 
L 289.552994 -134.509712 
L 288.805618 -134.855421 
L 288.058242 -131.816667 
L 287.310866 -129.915689 
L 286.56349 -128.199345 
L 285.816115 -126.11322 
L 285.068739 -126.095052 
L 284.321363 -127.808609 
L 283.573987 -126.098293 
L 282.826611 -123.683144 
L 282.079235 -125.081766 
L 281.331859 -130.097008 
L 280.584483 -121.550485 
L 279.837107 -119.671193 
L 279.089731 -124.199372 
L 278.342355 -124.471716 
L 277.594979 -122.844797 
L 276.847604 -121.087447 
L 276.100228 -118.515319 
L 275.352852 -120.740703 
L 274.605476 -115.80654 
L 273.8581 -117.033128 
L 273.110724 -115.226989 
L 272.363348 -118.177963 
L 271.615972 -118.121559 
L 270.868596 -120.602446 
L 270.12122 -120.275738 
L 269.373844 -120.653478 
L 268.626469 -123.239027 
L 267.879093 -122.737116 
L 267.131717 -119.72523 
L 266.384341 -119.136533 
L 265.636965 -115.948465 
L 264.889589 -121.172606 
L 264.142213 -115.350778 
L 263.394837 -115.11511 
L 262.647461 -114.106812 
L 261.900085 -115.553702 
L 261.152709 -115.627026 
L 260.405334 -116.73289 
L 259.657958 -118.510631 
L 258.910582 -116.817581 
L 258.163206 -118.462673 
L 257.41583 -120.044783 
L 256.668454 -115.26167 
L 255.921078 -114.802374 
L 255.173702 -119.477388 
L 254.426326 -116.890836 
L 253.67895 -111.893729 
L 252.931574 -113.422179 
L 252.184198 -109.518022 
L 251.436823 -115.97485 
L 250.689447 -107.903407 
L 249.942071 -109.218187 
L 249.194695 -109.809221 
L 248.447319 -109.131235 
L 247.699943 -108.261378 
L 246.952567 -108.120442 
L 246.205191 -106.940208 
L 245.457815 -108.040226 
L 244.710439 -106.606458 
L 243.963063 -108.522583 
L 243.215688 -108.928909 
L 242.468312 -107.468955 
L 241.720936 -106.521841 
L 240.97356 -111.342884 
L 240.226184 -108.263616 
L 239.478808 -107.659057 
L 238.731432 -106.17934 
L 237.984056 -106.420123 
L 237.23668 -107.130569 
L 236.489304 -109.151088 
L 235.741928 -104.181832 
L 234.994553 -106.624903 
L 234.247177 -107.04585 
L 233.499801 -103.535901 
L 232.752425 -104.567069 
L 232.005049 -107.567071 
L 231.257673 -104.653438 
L 230.510297 -105.918512 
L 229.762921 -105.09905 
L 229.015545 -105.415824 
L 228.268169 -105.016263 
L 227.520793 -104.744539 
L 226.773417 -102.998622 
L 226.026042 -106.642688 
L 225.278666 -105.685907 
L 224.53129 -103.813804 
L 223.783914 -105.595918 
L 223.036538 -105.298125 
L 222.289162 -103.148344 
L 221.541786 -106.283522 
L 220.79441 -105.268335 
L 220.047034 -104.530439 
L 219.299658 -104.540309 
L 218.552282 -104.818575 
L 217.804907 -106.329143 
L 217.057531 -105.800749 
L 216.310155 -105.109636 
L 215.562779 -106.368222 
L 214.815403 -104.587685 
L 214.068027 -104.730915 
L 213.320651 -103.657601 
L 212.573275 -103.322696 
L 211.825899 -102.678085 
L 211.078523 -105.428921 
L 210.331147 -102.001833 
L 209.583772 -102.419095 
L 208.836396 -102.274576 
L 208.08902 -103.572736 
L 207.341644 -106.041779 
L 206.594268 -102.860333 
L 205.846892 -101.036343 
L 205.099516 -107.758732 
L 204.35214 -102.191618 
L 203.604764 -102.181448 
L 202.857388 -101.285172 
L 202.110012 -102.860976 
L 201.362636 -102.055107 
L 200.615261 -105.075487 
L 199.867885 -102.696546 
L 199.120509 -106.77291 
L 198.373133 -105.012121 
L 197.625757 -107.821369 
L 196.878381 -106.604431 
L 196.131005 -102.446414 
L 195.383629 -103.338525 
L 194.636253 -104.025839 
L 193.888877 -101.695962 
L 193.141501 -105.799639 
L 192.394126 -103.028865 
L 191.64675 -103.794533 
L 190.899374 -106.52412 
L 190.151998 -104.020893 
L 189.404622 -101.704366 
L 188.657246 -105.351524 
L 187.90987 -106.434415 
L 187.162494 -108.260148 
L 186.415118 -104.787153 
L 185.667742 -107.924721 
L 184.920366 -106.117858 
L 184.172991 -107.126041 
L 183.425615 -107.530555 
L 182.678239 -103.480965 
L 181.930863 -102.351593 
L 181.183487 -105.278973 
L 180.436111 -100.8102 
L 179.688735 -100.164186 
L 178.941359 -99.547789 
L 178.193983 -105.252886 
L 177.446607 -103.769417 
L 176.699231 -107.538335 
L 175.951855 -102.770709 
L 175.20448 -108.370478 
L 174.457104 -105.900435 
L 173.709728 -108.554032 
L 172.962352 -107.024053 
L 172.214976 -108.523295 
L 171.4676 -106.337258 
L 170.720224 -106.73761 
L 169.972848 -107.993902 
L 169.225472 -113.916927 
L 168.478096 -109.048247 
L 167.73072 -113.975985 
L 166.983345 -114.691286 
L 166.235969 -112.53614 
L 165.488593 -111.625463 
L 164.741217 -111.595192 
L 163.993841 -109.738835 
L 163.246465 -112.682429 
L 162.499089 -109.007281 
L 161.751713 -110.81217 
L 161.004337 -109.569528 
L 160.256961 -110.658256 
L 159.509585 -110.319525 
L 158.76221 -108.487941 
L 158.014834 -112.614925 
L 157.267458 -115.201045 
L 156.520082 -133.981533 
L 155.772706 -147.335458 
L 155.02533 -135.199979 
L 154.277954 -143.505422 
L 153.530578 -146.687333 
L 152.783202 -149.580776 
L 152.035826 -145.858103 
L 151.28845 -141.357115 
L 150.541074 -142.274745 
L 149.793699 -147.415942 
L 149.046323 -153.643259 
L 148.298947 -148.061219 
L 147.551571 -143.179772 
L 146.804195 -145.994903 
L 146.056819 -141.682174 
L 145.309443 -149.272254 
L 144.562067 -149.105774 
L 143.814691 -149.685766 
L 143.067315 -147.118889 
L 142.319939 -149.340238 
L 141.572564 -146.717766 
L 140.825188 -145.577521 
L 140.077812 -145.419834 
L 139.330436 -143.886002 
L 138.58306 -142.218544 
L 137.835684 -141.697892 
L 137.088308 -142.828923 
L 136.340932 -138.253285 
L 135.593556 -137.679118 
L 134.84618 -140.617296 
L 134.098804 -137.217046 
L 133.351429 -136.226227 
L 132.604053 -136.042606 
L 131.856677 -136.477957 
L 131.109301 -142.108543 
L 130.361925 -135.683505 
L 129.614549 -130.201693 
L 128.867173 -128.927149 
L 128.119797 -132.500646 
L 127.372421 -131.93174 
L 126.625045 -132.024142 
L 125.877669 -136.167623 
L 125.130293 -130.76312 
L 124.382918 -132.766846 
L 123.635542 -133.244913 
L 122.888166 -130.119383 
L 122.14079 -128.258735 
L 121.393414 -127.597986 
L 120.646038 -130.852235 
L 119.898662 -124.922729 
L 119.151286 -123.503665 
L 118.40391 -124.224373 
L 117.656534 -119.798535 
L 116.909158 -115.304059 
L 116.161783 -114.604693 
L 115.414407 -111.387676 
L 114.667031 -111.829679 
L 113.919655 -105.230227 
L 113.172279 -107.22902 
L 112.424903 -104.211065 
L 111.677527 -103.411146 
L 110.930151 -102.00045 
L 110.182775 -99.518713 
L 109.435399 -98.262325 
L 108.688023 -98.360779 
L 107.940648 -94.904586 
L 107.193272 -93.860446 
L 106.445896 -92.243843 
L 105.69852 -90.530523 
L 104.951144 -86.757527 
L 104.203768 -87.169235 
L 103.456392 -85.05283 
z
"/>
    </defs>
    <g clip-path="url(#pdc1712bcc6)">
     <use xlink:href="#mda1b4c222c" x="0" y="396.265746" style="fill-opacity: 0.08"/>
    </g>
   </g>
   <g id="matplotlib.axis_1">
    <g id="xtick_1">
     <g id="line2d_1">
      <defs>
       <path id="m28918377e0" d="M 0 0 
L 0 3.5 
" style="stroke: #000000; stroke-width: 0.8"/>
      </defs>
      <g>
       <use xlink:href="#m28918377e0" x="103.456392" y="331.422465" style="stroke: #000000; stroke-width: 0.8"/>
      </g>
     </g>
     <g id="text_1">
      <!-- 0 -->
      <g transform="translate(96.139517 355.898871) scale(0.23 -0.23)">
       <defs>
        <path id="DejaVuSans-30" d="M 2034 4250 
Q 1547 4250 1301 3770 
Q 1056 3291 1056 2328 
Q 1056 1369 1301 889 
Q 1547 409 2034 409 
Q 2525 409 2770 889 
Q 3016 1369 3016 2328 
Q 3016 3291 2770 3770 
Q 2525 4250 2034 4250 
z
M 2034 4750 
Q 2819 4750 3233 4129 
Q 3647 3509 3647 2328 
Q 3647 1150 3233 529 
Q 2819 -91 2034 -91 
Q 1250 -91 836 529 
Q 422 1150 422 2328 
Q 422 3509 836 4129 
Q 1250 4750 2034 4750 
z
" transform="scale(0.015625)"/>
       </defs>
       <use xlink:href="#DejaVuSans-30"/>
      </g>
     </g>
    </g>
    <g id="xtick_2">
     <g id="line2d_2">
      <g>
       <use xlink:href="#m28918377e0" x="206.009854" y="331.422465" style="stroke: #000000; stroke-width: 0.8"/>
      </g>
     </g>
     <g id="text_2">
      <!-- 100 -->
      <g transform="translate(184.059229 355.898871) scale(0.23 -0.23)">
       <defs>
        <path id="DejaVuSans-31" d="M 794 531 
L 1825 531 
L 1825 4091 
L 703 3866 
L 703 4441 
L 1819 4666 
L 2450 4666 
L 2450 531 
L 3481 531 
L 3481 0 
L 794 0 
L 794 531 
z
" transform="scale(0.015625)"/>
       </defs>
       <use xlink:href="#DejaVuSans-31"/>
       <use xlink:href="#DejaVuSans-30" transform="translate(63.623047 0)"/>
       <use xlink:href="#DejaVuSans-30" transform="translate(127.246094 0)"/>
      </g>
     </g>
    </g>
    <g id="xtick_3">
     <g id="line2d_3">
      <g>
       <use xlink:href="#m28918377e0" x="308.563315" y="331.422465" style="stroke: #000000; stroke-width: 0.8"/>
      </g>
     </g>
     <g id="text_3">
      <!-- 200 -->
      <g transform="translate(286.61269 355.898871) scale(0.23 -0.23)">
       <defs>
        <path id="DejaVuSans-32" d="M 1228 531 
L 3431 531 
L 3431 0 
L 469 0 
L 469 531 
Q 828 903 1448 1529 
Q 2069 2156 2228 2338 
Q 2531 2678 2651 2914 
Q 2772 3150 2772 3378 
Q 2772 3750 2511 3984 
Q 2250 4219 1831 4219 
Q 1534 4219 1204 4116 
Q 875 4013 500 3803 
L 500 4441 
Q 881 4594 1212 4672 
Q 1544 4750 1819 4750 
Q 2544 4750 2975 4387 
Q 3406 4025 3406 3419 
Q 3406 3131 3298 2873 
Q 3191 2616 2906 2266 
Q 2828 2175 2409 1742 
Q 1991 1309 1228 531 
z
" transform="scale(0.015625)"/>
       </defs>
       <use xlink:href="#DejaVuSans-32"/>
       <use xlink:href="#DejaVuSans-30" transform="translate(63.623047 0)"/>
       <use xlink:href="#DejaVuSans-30" transform="translate(127.246094 0)"/>
      </g>
     </g>
    </g>
    <g id="xtick_4">
     <g id="line2d_4">
      <g>
       <use xlink:href="#m28918377e0" x="411.116777" y="331.422465" style="stroke: #000000; stroke-width: 0.8"/>
      </g>
     </g>
     <g id="text_4">
      <!-- 300 -->
      <g transform="translate(389.166152 355.898871) scale(0.23 -0.23)">
       <defs>
        <path id="DejaVuSans-33" d="M 2597 2516 
Q 3050 2419 3304 2112 
Q 3559 1806 3559 1356 
Q 3559 666 3084 287 
Q 2609 -91 1734 -91 
Q 1441 -91 1130 -33 
Q 819 25 488 141 
L 488 750 
Q 750 597 1062 519 
Q 1375 441 1716 441 
Q 2309 441 2620 675 
Q 2931 909 2931 1356 
Q 2931 1769 2642 2001 
Q 2353 2234 1838 2234 
L 1294 2234 
L 1294 2753 
L 1863 2753 
Q 2328 2753 2575 2939 
Q 2822 3125 2822 3475 
Q 2822 3834 2567 4026 
Q 2313 4219 1838 4219 
Q 1578 4219 1281 4162 
Q 984 4106 628 3988 
L 628 4550 
Q 988 4650 1302 4700 
Q 1616 4750 1894 4750 
Q 2613 4750 3031 4423 
Q 3450 4097 3450 3541 
Q 3450 3153 3228 2886 
Q 3006 2619 2597 2516 
z
" transform="scale(0.015625)"/>
       </defs>
       <use xlink:href="#DejaVuSans-33"/>
       <use xlink:href="#DejaVuSans-30" transform="translate(63.623047 0)"/>
       <use xlink:href="#DejaVuSans-30" transform="translate(127.246094 0)"/>
      </g>
     </g>
    </g>
    <g id="text_5">
     <!-- Extension (Å) -->
     <g transform="translate(217.459766 384.282465) scale(0.23 -0.23)">
      <defs>
       <path id="DejaVuSans-45" d="M 628 4666 
L 3578 4666 
L 3578 4134 
L 1259 4134 
L 1259 2753 
L 3481 2753 
L 3481 2222 
L 1259 2222 
L 1259 531 
L 3634 531 
L 3634 0 
L 628 0 
L 628 4666 
z
" transform="scale(0.015625)"/>
       <path id="DejaVuSans-78" d="M 3513 3500 
L 2247 1797 
L 3578 0 
L 2900 0 
L 1881 1375 
L 863 0 
L 184 0 
L 1544 1831 
L 300 3500 
L 978 3500 
L 1906 2253 
L 2834 3500 
L 3513 3500 
z
" transform="scale(0.015625)"/>
       <path id="DejaVuSans-74" d="M 1172 4494 
L 1172 3500 
L 2356 3500 
L 2356 3053 
L 1172 3053 
L 1172 1153 
Q 1172 725 1289 603 
Q 1406 481 1766 481 
L 2356 481 
L 2356 0 
L 1766 0 
Q 1100 0 847 248 
Q 594 497 594 1153 
L 594 3053 
L 172 3053 
L 172 3500 
L 594 3500 
L 594 4494 
L 1172 4494 
z
" transform="scale(0.015625)"/>
       <path id="DejaVuSans-65" d="M 3597 1894 
L 3597 1613 
L 953 1613 
Q 991 1019 1311 708 
Q 1631 397 2203 397 
Q 2534 397 2845 478 
Q 3156 559 3463 722 
L 3463 178 
Q 3153 47 2828 -22 
Q 2503 -91 2169 -91 
Q 1331 -91 842 396 
Q 353 884 353 1716 
Q 353 2575 817 3079 
Q 1281 3584 2069 3584 
Q 2775 3584 3186 3129 
Q 3597 2675 3597 1894 
z
M 3022 2063 
Q 3016 2534 2758 2815 
Q 2500 3097 2075 3097 
Q 1594 3097 1305 2825 
Q 1016 2553 972 2059 
L 3022 2063 
z
" transform="scale(0.015625)"/>
       <path id="DejaVuSans-6e" d="M 3513 2113 
L 3513 0 
L 2938 0 
L 2938 2094 
Q 2938 2591 2744 2837 
Q 2550 3084 2163 3084 
Q 1697 3084 1428 2787 
Q 1159 2491 1159 1978 
L 1159 0 
L 581 0 
L 581 3500 
L 1159 3500 
L 1159 2956 
Q 1366 3272 1645 3428 
Q 1925 3584 2291 3584 
Q 2894 3584 3203 3211 
Q 3513 2838 3513 2113 
z
" transform="scale(0.015625)"/>
       <path id="DejaVuSans-73" d="M 2834 3397 
L 2834 2853 
Q 2591 2978 2328 3040 
Q 2066 3103 1784 3103 
Q 1356 3103 1142 2972 
Q 928 2841 928 2578 
Q 928 2378 1081 2264 
Q 1234 2150 1697 2047 
L 1894 2003 
Q 2506 1872 2764 1633 
Q 3022 1394 3022 966 
Q 3022 478 2636 193 
Q 2250 -91 1575 -91 
Q 1294 -91 989 -36 
Q 684 19 347 128 
L 347 722 
Q 666 556 975 473 
Q 1284 391 1588 391 
Q 1994 391 2212 530 
Q 2431 669 2431 922 
Q 2431 1156 2273 1281 
Q 2116 1406 1581 1522 
L 1381 1569 
Q 847 1681 609 1914 
Q 372 2147 372 2553 
Q 372 3047 722 3315 
Q 1072 3584 1716 3584 
Q 2034 3584 2315 3537 
Q 2597 3491 2834 3397 
z
" transform="scale(0.015625)"/>
       <path id="DejaVuSans-69" d="M 603 3500 
L 1178 3500 
L 1178 0 
L 603 0 
L 603 3500 
z
M 603 4863 
L 1178 4863 
L 1178 4134 
L 603 4134 
L 603 4863 
z
" transform="scale(0.015625)"/>
       <path id="DejaVuSans-6f" d="M 1959 3097 
Q 1497 3097 1228 2736 
Q 959 2375 959 1747 
Q 959 1119 1226 758 
Q 1494 397 1959 397 
Q 2419 397 2687 759 
Q 2956 1122 2956 1747 
Q 2956 2369 2687 2733 
Q 2419 3097 1959 3097 
z
M 1959 3584 
Q 2709 3584 3137 3096 
Q 3566 2609 3566 1747 
Q 3566 888 3137 398 
Q 2709 -91 1959 -91 
Q 1206 -91 779 398 
Q 353 888 353 1747 
Q 353 2609 779 3096 
Q 1206 3584 1959 3584 
z
" transform="scale(0.015625)"/>
       <path id="DejaVuSans-20" transform="scale(0.015625)"/>
       <path id="DejaVuSans-28" d="M 1984 4856 
Q 1566 4138 1362 3434 
Q 1159 2731 1159 2009 
Q 1159 1288 1364 580 
Q 1569 -128 1984 -844 
L 1484 -844 
Q 1016 -109 783 600 
Q 550 1309 550 2009 
Q 550 2706 781 3412 
Q 1013 4119 1484 4856 
L 1984 4856 
z
" transform="scale(0.015625)"/>
       <path id="DejaVuSans-c5" d="M 2663 5081 
Q 2663 5278 2523 5417 
Q 2384 5556 2188 5556 
Q 1988 5556 1852 5420 
Q 1716 5284 1716 5081 
Q 1716 4884 1853 4746 
Q 1991 4609 2188 4609 
Q 2384 4609 2523 4746 
Q 2663 4884 2663 5081 
z
M 2188 4044 
L 1338 1722 
L 3041 1722 
L 2188 4044 
z
M 1716 4366 
Q 1525 4494 1428 4673 
Q 1331 4853 1331 5081 
Q 1331 5441 1579 5691 
Q 1828 5941 2188 5941 
Q 2544 5941 2795 5689 
Q 3047 5438 3047 5081 
Q 3047 4863 2948 4678 
Q 2850 4494 2663 4366 
L 4325 0 
L 3669 0 
L 3244 1197 
L 1141 1197 
L 716 0 
L 50 0 
L 1716 4366 
z
" transform="scale(0.015625)"/>
       <path id="DejaVuSans-29" d="M 513 4856 
L 1013 4856 
Q 1481 4119 1714 3412 
Q 1947 2706 1947 2009 
Q 1947 1309 1714 600 
Q 1481 -109 1013 -844 
L 513 -844 
Q 928 -128 1133 580 
Q 1338 1288 1338 2009 
Q 1338 2731 1133 3434 
Q 928 4138 513 4856 
z
" transform="scale(0.015625)"/>
      </defs>
      <use xlink:href="#DejaVuSans-45"/>
      <use xlink:href="#DejaVuSans-78" transform="translate(63.183594 0)"/>
      <use xlink:href="#DejaVuSans-74" transform="translate(122.363281 0)"/>
      <use xlink:href="#DejaVuSans-65" transform="translate(161.572266 0)"/>
      <use xlink:href="#DejaVuSans-6e" transform="translate(223.095703 0)"/>
      <use xlink:href="#DejaVuSans-73" transform="translate(286.474609 0)"/>
      <use xlink:href="#DejaVuSans-69" transform="translate(338.574219 0)"/>
      <use xlink:href="#DejaVuSans-6f" transform="translate(366.357422 0)"/>
      <use xlink:href="#DejaVuSans-6e" transform="translate(427.539062 0)"/>
      <use xlink:href="#DejaVuSans-20" transform="translate(490.917969 0)"/>
      <use xlink:href="#DejaVuSans-28" transform="translate(522.705078 0)"/>
      <use xlink:href="#DejaVuSans-c5" transform="translate(561.71875 0)"/>
      <use xlink:href="#DejaVuSans-29" transform="translate(630.126953 0)"/>
     </g>
    </g>
   </g>
   <g id="matplotlib.axis_2">
    <g id="ytick_1">
     <g id="line2d_5">
      <path d="M 84.360938 318.903803 
L 504.460937 318.903803 
" clip-path="url(#pdc1712bcc6)" style="fill: none; stroke-dasharray: 1.85,0.8; stroke-dashoffset: 0; stroke: #b0b0b0; stroke-opacity: 0.6; stroke-width: 0.5"/>
     </g>
     <g id="line2d_6">
      <defs>
       <path id="m298af084f7" d="M 0 0 
L -3.5 0 
" style="stroke: #000000; stroke-width: 0.8"/>
      </defs>
      <g>
       <use xlink:href="#m298af084f7" x="84.360938" y="318.903803" style="stroke: #000000; stroke-width: 0.8"/>
      </g>
     </g>
     <g id="text_6">
      <!-- 0 -->
      <g transform="translate(62.727188 327.642006) scale(0.23 -0.23)">
       <use xlink:href="#DejaVuSans-30"/>
      </g>
     </g>
    </g>
    <g id="ytick_2">
     <g id="line2d_7">
      <path d="M 84.360938 258.310683 
L 504.460937 258.310683 
" clip-path="url(#pdc1712bcc6)" style="fill: none; stroke-dasharray: 1.85,0.8; stroke-dashoffset: 0; stroke: #b0b0b0; stroke-opacity: 0.6; stroke-width: 0.5"/>
     </g>
     <g id="line2d_8">
      <g>
       <use xlink:href="#m298af084f7" x="84.360938" y="258.310683" style="stroke: #000000; stroke-width: 0.8"/>
      </g>
     </g>
     <g id="text_7">
      <!-- 50 -->
      <g transform="translate(48.093438 267.048886) scale(0.23 -0.23)">
       <defs>
        <path id="DejaVuSans-35" d="M 691 4666 
L 3169 4666 
L 3169 4134 
L 1269 4134 
L 1269 2991 
Q 1406 3038 1543 3061 
Q 1681 3084 1819 3084 
Q 2600 3084 3056 2656 
Q 3513 2228 3513 1497 
Q 3513 744 3044 326 
Q 2575 -91 1722 -91 
Q 1428 -91 1123 -41 
Q 819 9 494 109 
L 494 744 
Q 775 591 1075 516 
Q 1375 441 1709 441 
Q 2250 441 2565 725 
Q 2881 1009 2881 1497 
Q 2881 1984 2565 2268 
Q 2250 2553 1709 2553 
Q 1456 2553 1204 2497 
Q 953 2441 691 2322 
L 691 4666 
z
" transform="scale(0.015625)"/>
       </defs>
       <use xlink:href="#DejaVuSans-35"/>
       <use xlink:href="#DejaVuSans-30" transform="translate(63.623047 0)"/>
      </g>
     </g>
    </g>
    <g id="ytick_3">
     <g id="line2d_9">
      <path d="M 84.360938 197.717563 
L 504.460937 197.717563 
" clip-path="url(#pdc1712bcc6)" style="fill: none; stroke-dasharray: 1.85,0.8; stroke-dashoffset: 0; stroke: #b0b0b0; stroke-opacity: 0.6; stroke-width: 0.5"/>
     </g>
     <g id="line2d_10">
      <g>
       <use xlink:href="#m298af084f7" x="84.360938" y="197.717563" style="stroke: #000000; stroke-width: 0.8"/>
      </g>
     </g>
     <g id="text_8">
      <!-- 100 -->
      <g transform="translate(33.459688 206.455766) scale(0.23 -0.23)">
       <use xlink:href="#DejaVuSans-31"/>
       <use xlink:href="#DejaVuSans-30" transform="translate(63.623047 0)"/>
       <use xlink:href="#DejaVuSans-30" transform="translate(127.246094 0)"/>
      </g>
     </g>
    </g>
    <g id="ytick_4">
     <g id="line2d_11">
      <path d="M 84.360938 137.124443 
L 504.460937 137.124443 
" clip-path="url(#pdc1712bcc6)" style="fill: none; stroke-dasharray: 1.85,0.8; stroke-dashoffset: 0; stroke: #b0b0b0; stroke-opacity: 0.6; stroke-width: 0.5"/>
     </g>
     <g id="line2d_12">
      <g>
       <use xlink:href="#m298af084f7" x="84.360938" y="137.124443" style="stroke: #000000; stroke-width: 0.8"/>
      </g>
     </g>
     <g id="text_9">
      <!-- 150 -->
      <g transform="translate(33.459688 145.862646) scale(0.23 -0.23)">
       <use xlink:href="#DejaVuSans-31"/>
       <use xlink:href="#DejaVuSans-35" transform="translate(63.623047 0)"/>
       <use xlink:href="#DejaVuSans-30" transform="translate(127.246094 0)"/>
      </g>
     </g>
    </g>
    <g id="ytick_5">
     <g id="line2d_13">
      <path d="M 84.360938 76.531323 
L 504.460937 76.531323 
" clip-path="url(#pdc1712bcc6)" style="fill: none; stroke-dasharray: 1.85,0.8; stroke-dashoffset: 0; stroke: #b0b0b0; stroke-opacity: 0.6; stroke-width: 0.5"/>
     </g>
     <g id="line2d_14">
      <g>
       <use xlink:href="#m298af084f7" x="84.360938" y="76.531323" style="stroke: #000000; stroke-width: 0.8"/>
      </g>
     </g>
     <g id="text_10">
      <!-- 200 -->
      <g transform="translate(33.459688 85.269526) scale(0.23 -0.23)">
       <use xlink:href="#DejaVuSans-32"/>
       <use xlink:href="#DejaVuSans-30" transform="translate(63.623047 0)"/>
       <use xlink:href="#DejaVuSans-30" transform="translate(127.246094 0)"/>
      </g>
     </g>
    </g>
    <g id="ytick_6">
     <g id="line2d_15">
      <path d="M 84.360938 15.938203 
L 504.460937 15.938203 
" clip-path="url(#pdc1712bcc6)" style="fill: none; stroke-dasharray: 1.85,0.8; stroke-dashoffset: 0; stroke: #b0b0b0; stroke-opacity: 0.6; stroke-width: 0.5"/>
     </g>
     <g id="line2d_16">
      <g>
       <use xlink:href="#m298af084f7" x="84.360938" y="15.938203" style="stroke: #000000; stroke-width: 0.8"/>
      </g>
     </g>
     <g id="text_11">
      <!-- 250 -->
      <g transform="translate(33.459688 24.676406) scale(0.23 -0.23)">
       <use xlink:href="#DejaVuSans-32"/>
       <use xlink:href="#DejaVuSans-35" transform="translate(63.623047 0)"/>
       <use xlink:href="#DejaVuSans-30" transform="translate(127.246094 0)"/>
      </g>
     </g>
    </g>
    <g id="text_12">
     <!-- Force (pN) -->
     <g transform="translate(24.676406 233.011696) rotate(-90) scale(0.23 -0.23)">
      <defs>
       <path id="DejaVuSans-46" d="M 628 4666 
L 3309 4666 
L 3309 4134 
L 1259 4134 
L 1259 2759 
L 3109 2759 
L 3109 2228 
L 1259 2228 
L 1259 0 
L 628 0 
L 628 4666 
z
" transform="scale(0.015625)"/>
       <path id="DejaVuSans-72" d="M 2631 2963 
Q 2534 3019 2420 3045 
Q 2306 3072 2169 3072 
Q 1681 3072 1420 2755 
Q 1159 2438 1159 1844 
L 1159 0 
L 581 0 
L 581 3500 
L 1159 3500 
L 1159 2956 
Q 1341 3275 1631 3429 
Q 1922 3584 2338 3584 
Q 2397 3584 2469 3576 
Q 2541 3569 2628 3553 
L 2631 2963 
z
" transform="scale(0.015625)"/>
       <path id="DejaVuSans-63" d="M 3122 3366 
L 3122 2828 
Q 2878 2963 2633 3030 
Q 2388 3097 2138 3097 
Q 1578 3097 1268 2742 
Q 959 2388 959 1747 
Q 959 1106 1268 751 
Q 1578 397 2138 397 
Q 2388 397 2633 464 
Q 2878 531 3122 666 
L 3122 134 
Q 2881 22 2623 -34 
Q 2366 -91 2075 -91 
Q 1284 -91 818 406 
Q 353 903 353 1747 
Q 353 2603 823 3093 
Q 1294 3584 2113 3584 
Q 2378 3584 2631 3529 
Q 2884 3475 3122 3366 
z
" transform="scale(0.015625)"/>
       <path id="DejaVuSans-70" d="M 1159 525 
L 1159 -1331 
L 581 -1331 
L 581 3500 
L 1159 3500 
L 1159 2969 
Q 1341 3281 1617 3432 
Q 1894 3584 2278 3584 
Q 2916 3584 3314 3078 
Q 3713 2572 3713 1747 
Q 3713 922 3314 415 
Q 2916 -91 2278 -91 
Q 1894 -91 1617 61 
Q 1341 213 1159 525 
z
M 3116 1747 
Q 3116 2381 2855 2742 
Q 2594 3103 2138 3103 
Q 1681 3103 1420 2742 
Q 1159 2381 1159 1747 
Q 1159 1113 1420 752 
Q 1681 391 2138 391 
Q 2594 391 2855 752 
Q 3116 1113 3116 1747 
z
" transform="scale(0.015625)"/>
       <path id="DejaVuSans-4e" d="M 628 4666 
L 1478 4666 
L 3547 763 
L 3547 4666 
L 4159 4666 
L 4159 0 
L 3309 0 
L 1241 3903 
L 1241 0 
L 628 0 
L 628 4666 
z
" transform="scale(0.015625)"/>
      </defs>
      <use xlink:href="#DejaVuSans-46"/>
      <use xlink:href="#DejaVuSans-6f" transform="translate(53.894531 0)"/>
      <use xlink:href="#DejaVuSans-72" transform="translate(115.076172 0)"/>
      <use xlink:href="#DejaVuSans-63" transform="translate(153.939453 0)"/>
      <use xlink:href="#DejaVuSans-65" transform="translate(208.919922 0)"/>
      <use xlink:href="#DejaVuSans-20" transform="translate(270.443359 0)"/>
      <use xlink:href="#DejaVuSans-28" transform="translate(302.230469 0)"/>
      <use xlink:href="#DejaVuSans-70" transform="translate(341.244141 0)"/>
      <use xlink:href="#DejaVuSans-4e" transform="translate(404.720703 0)"/>
      <use xlink:href="#DejaVuSans-29" transform="translate(479.525391 0)"/>
     </g>
    </g>
   </g>
   <g id="line2d_17">
    <path d="M 103.456392 316.366576 
L 104.203768 307.28947 
L 104.951144 308.424395 
L 105.69852 307.742303 
L 106.445896 303.458244 
L 107.193272 300.990989 
L 107.940648 303.627882 
L 108.688023 295.591285 
L 109.435399 295.877717 
L 110.182775 292.974705 
L 110.930151 298.304602 
L 111.677527 296.607625 
L 113.172279 292.289401 
L 113.919655 289.093259 
L 114.667031 289.025541 
L 115.414407 278.969104 
L 116.161783 276.459666 
L 116.909158 282.375109 
L 117.656534 273.49363 
L 118.40391 269.7488 
L 119.151286 267.58734 
L 119.898662 266.722241 
L 120.646038 267.055385 
L 121.393414 272.722796 
L 122.14079 264.714437 
L 122.888166 263.490315 
L 123.635542 264.19868 
L 124.382918 263.278254 
L 125.130293 264.301674 
L 125.877669 262.057747 
L 126.625045 264.35976 
L 127.372421 265.196591 
L 128.119797 261.239177 
L 128.867173 264.025511 
L 129.614549 264.979236 
L 130.361925 260.640855 
L 131.109301 258.164262 
L 131.856677 265.154481 
L 132.604053 267.432709 
L 134.098804 261.075734 
L 134.84618 254.14823 
L 135.593556 252.991884 
L 136.340932 257.86653 
L 137.088308 248.362607 
L 137.835684 242.07822 
L 138.58306 243.672673 
L 139.330436 252.29233 
L 140.077812 249.914894 
L 140.825188 251.76514 
L 141.572564 248.44666 
L 142.319939 248.015835 
L 143.067315 256.764794 
L 143.814691 252.254066 
L 144.562067 243.172047 
L 145.309443 251.977312 
L 146.056819 248.14534 
L 146.804195 250.301807 
L 147.551571 252.880389 
L 148.298947 254.250544 
L 149.046323 259.680944 
L 149.793699 259.868902 
L 150.541074 258.354369 
L 151.28845 259.908395 
L 152.035826 257.142239 
L 152.783202 255.997727 
L 153.530578 252.26505 
L 154.277954 250.022557 
L 155.02533 253.016732 
L 155.772706 252.57054 
L 156.520082 251.719249 
L 157.267458 245.613509 
L 158.014834 247.878757 
L 158.76221 254.202489 
L 159.509585 256.738125 
L 160.256961 269.165442 
L 161.004337 276.470155 
L 161.751713 288.761944 
L 162.499089 306.399445 
L 163.246465 306.356819 
L 163.993841 307.323187 
L 164.741217 309.165939 
L 165.488593 313.490845 
L 166.235969 314.20653 
L 166.983345 308.163552 
L 167.73072 314.527709 
L 168.478096 306.83126 
L 169.225472 304.453144 
L 169.972848 299.073118 
L 170.720224 297.824397 
L 171.4676 301.13446 
L 172.214976 309.910842 
L 172.962352 311.133585 
L 173.709728 313.803732 
L 174.457104 317.054696 
L 175.20448 314.970745 
L 175.951855 310.246431 
L 176.699231 307.807523 
L 177.446607 311.419257 
L 178.193983 307.546494 
L 178.941359 307.602234 
L 179.688735 306.948277 
L 180.436111 312.466998 
L 181.183487 304.993381 
L 181.930863 305.35474 
L 182.678239 308.259018 
L 183.425615 309.736075 
L 184.172991 309.095223 
L 184.920366 314.235536 
L 185.667742 309.062489 
L 186.415118 306.273635 
L 187.162494 305.183303 
L 187.90987 314.587728 
L 188.657246 309.653358 
L 189.404622 299.918719 
L 190.151998 298.329995 
L 190.899374 301.257593 
L 191.64675 303.366558 
L 192.394126 300.708346 
L 193.141501 301.55847 
L 193.888877 299.93889 
L 194.636253 301.826373 
L 195.383629 306.043243 
L 196.131005 303.560392 
L 196.878381 304.826456 
L 197.625757 305.235483 
L 198.373133 305.773925 
L 199.120509 306.476091 
L 199.867885 311.919641 
L 200.615261 312.241793 
L 201.362636 310.433702 
L 202.110012 306.18504 
L 202.857388 294.664285 
L 203.604764 306.738842 
L 204.35214 304.739234 
L 205.099516 305.553938 
L 205.846892 309.502847 
L 206.594268 305.414932 
L 207.341644 311.819224 
L 208.08902 305.629825 
L 208.836396 301.804088 
L 209.583772 296.083131 
L 210.331147 298.849455 
L 211.078523 304.231673 
L 211.825899 303.399979 
L 212.573275 302.341137 
L 213.320651 300.059473 
L 214.068027 300.943389 
L 214.815403 299.600557 
L 215.562779 291.907017 
L 216.310155 301.114613 
L 217.057531 292.742327 
L 217.804907 299.351136 
L 218.552282 293.304941 
L 219.299658 289.818558 
L 220.047034 299.663467 
L 220.79441 297.529487 
L 221.541786 295.944694 
L 222.289162 300.496656 
L 223.036538 304.281273 
L 223.783914 301.161171 
L 224.53129 302.78731 
L 225.278666 294.963435 
L 226.026042 293.040175 
L 226.773417 298.90876 
L 227.520793 299.032998 
L 228.268169 303.137787 
L 229.015545 297.145923 
L 229.762921 292.733393 
L 230.510297 291.684594 
L 231.257673 295.340117 
L 232.005049 287.490818 
L 232.752425 286.746475 
L 233.499801 287.92021 
L 234.247177 278.112691 
L 234.994553 285.995027 
L 235.741928 280.850108 
L 236.489304 274.775307 
L 237.23668 277.978604 
L 237.984056 279.899104 
L 238.731432 282.293044 
L 239.478808 286.944538 
L 240.226184 284.233834 
L 240.97356 277.336864 
L 241.720936 280.974305 
L 242.468312 287.303959 
L 243.215688 288.79276 
L 243.963063 282.451075 
L 244.710439 281.32453 
L 245.457815 287.214857 
L 246.205191 280.629201 
L 246.952567 282.824512 
L 247.699943 281.624784 
L 248.447319 280.750427 
L 249.194695 278.287219 
L 249.942071 281.051139 
L 250.689447 287.881863 
L 251.436823 292.638762 
L 252.931574 282.843606 
L 253.67895 288.703792 
L 255.173702 275.02781 
L 255.921078 275.724354 
L 256.668454 274.540622 
L 257.41583 274.879752 
L 258.163206 278.087866 
L 258.910582 275.587919 
L 259.657958 276.34537 
L 260.405334 275.109209 
L 261.152709 273.348231 
L 262.647461 280.91717 
L 263.394837 280.321696 
L 264.142213 274.417001 
L 264.889589 270.393387 
L 265.636965 277.079175 
L 266.384341 277.933392 
L 267.131717 278.477691 
L 267.879093 276.037213 
L 268.626469 276.707837 
L 269.373844 280.116343 
L 270.12122 275.231938 
L 270.868596 275.247143 
L 271.615972 276.737196 
L 272.363348 279.983698 
L 273.110724 277.362313 
L 273.8581 277.626233 
L 274.605476 274.723929 
L 275.352852 275.129199 
L 276.100228 269.201246 
L 276.847604 274.36902 
L 277.594979 276.774679 
L 278.342355 276.440615 
L 279.089731 278.54708 
L 279.837107 275.061205 
L 280.584483 277.333489 
L 281.331859 270.971646 
L 282.079235 267.356922 
L 282.826611 270.421911 
L 283.573987 275.543941 
L 284.321363 270.935948 
L 285.068739 275.19225 
L 285.816115 274.703306 
L 286.56349 271.096094 
L 287.310866 272.872527 
L 288.058242 275.695803 
L 288.805618 277.947598 
L 290.30037 272.068477 
L 291.047746 272.151934 
L 291.795122 271.253069 
L 292.542498 271.286155 
L 293.289874 277.643939 
L 294.03725 275.221657 
L 294.784625 274.086155 
L 295.532001 273.981474 
L 296.279377 276.773703 
L 297.026753 275.149276 
L 297.774129 276.27721 
L 298.521505 275.104919 
L 300.016257 269.7849 
L 300.763633 273.661067 
L 301.511009 274.73678 
L 302.258385 273.498836 
L 303.00576 275.553654 
L 303.753136 274.413451 
L 304.500512 272.637684 
L 305.247888 275.980194 
L 305.995264 277.511026 
L 306.74264 273.958614 
L 307.490016 277.388737 
L 308.237392 274.505659 
L 308.984768 274.210423 
L 309.732144 271.280806 
L 310.47952 265.855925 
L 311.226896 272.768664 
L 311.974271 274.434827 
L 312.721647 276.683002 
L 313.469023 271.104582 
L 314.216399 270.104115 
L 314.963775 271.991571 
L 315.711151 270.402356 
L 316.458527 267.739919 
L 317.205903 276.351911 
L 317.953279 273.926772 
L 318.700655 279.739457 
L 319.448031 278.129948 
L 320.195406 280.922496 
L 320.942782 274.724553 
L 321.690158 273.895581 
L 322.437534 274.517383 
L 323.932286 271.937335 
L 324.679662 274.867469 
L 325.427038 277.262112 
L 326.174414 276.179769 
L 326.92179 277.923383 
L 327.669166 274.269517 
L 328.416541 268.360468 
L 329.163917 275.560445 
L 329.911293 270.025748 
L 330.658669 268.469461 
L 331.406045 282.114249 
L 332.153421 275.574878 
L 332.900797 272.293496 
L 333.648173 271.7252 
L 334.395549 263.507429 
L 335.142925 265.727613 
L 335.890301 272.749826 
L 336.637677 274.99949 
L 337.385052 274.607765 
L 338.132428 269.13316 
L 338.879804 268.421101 
L 339.62718 267.534792 
L 340.374556 258.121579 
L 341.121932 260.385038 
L 341.869308 264.878291 
L 342.616684 270.799346 
L 343.36406 271.423242 
L 344.111436 266.018799 
L 344.858812 277.528797 
L 345.606187 278.552748 
L 346.353563 277.834827 
L 347.100939 272.025637 
L 347.848315 269.738745 
L 348.595691 263.942369 
L 349.343067 262.60555 
L 350.090443 268.638465 
L 350.837819 272.592611 
L 351.585195 277.422836 
L 353.079947 271.21309 
L 353.827322 276.129643 
L 354.574698 275.591566 
L 355.322074 273.755743 
L 356.06945 274.976884 
L 356.816826 269.177452 
L 357.564202 276.306325 
L 358.311578 277.107397 
L 359.058954 273.566898 
L 359.80633 275.039242 
L 360.553706 274.114692 
L 361.301082 268.204126 
L 362.048458 259.337159 
L 363.543209 275.31699 
L 364.290585 279.366497 
L 365.785337 272.791067 
L 366.532713 258.916943 
L 367.280089 265.526064 
L 368.027465 269.247743 
L 368.774841 265.102048 
L 370.269593 272.830639 
L 371.764344 276.208495 
L 373.259096 262.75596 
L 374.006472 262.776869 
L 374.753848 260.861357 
L 375.501224 270.637453 
L 376.2486 271.738102 
L 376.995976 261.272891 
L 377.743352 257.49294 
L 378.490728 268.864714 
L 379.238103 269.629802 
L 379.985479 261.74021 
L 380.732855 265.853078 
L 381.480231 270.887491 
L 382.227607 274.252519 
L 383.722359 261.606687 
L 384.469735 263.393627 
L 385.217111 267.729781 
L 385.964487 266.47671 
L 386.711863 273.131843 
L 387.459239 274.247887 
L 388.206614 269.123008 
L 388.95399 258.835876 
L 389.701366 260.852629 
L 390.448742 269.578987 
L 391.196118 268.537788 
L 392.69087 274.077413 
L 393.438246 273.254983 
L 394.185622 276.634222 
L 394.932998 261.938929 
L 395.680374 266.35872 
L 396.427749 267.705164 
L 397.175125 255.463576 
L 397.922501 264.212147 
L 398.669877 257.22093 
L 399.417253 262.408638 
L 400.164629 256.625308 
L 400.912005 258.745799 
L 401.659381 266.586873 
L 402.406757 264.886141 
L 403.154133 265.460835 
L 403.901509 256.027573 
L 404.648884 262.16362 
L 405.39626 259.948143 
L 406.143636 264.683385 
L 406.891012 259.019876 
L 407.638388 252.059272 
L 408.385764 250.571968 
L 409.13314 249.603912 
L 409.880516 243.385393 
L 410.627892 239.501103 
L 411.375268 245.580322 
L 412.122644 250.479839 
L 412.87002 251.53193 
L 413.617395 244.555187 
L 414.364771 242.412534 
L 415.112147 243.020564 
L 415.859523 237.426712 
L 416.606899 236.873851 
L 417.354275 238.175176 
L 418.101651 243.511182 
L 418.849027 244.772869 
L 419.596403 233.902055 
L 420.343779 236.068313 
L 421.091155 237.858434 
L 421.83853 232.503012 
L 423.333282 225.396061 
L 424.080658 226.731826 
L 424.828034 223.91229 
L 425.57541 219.599958 
L 426.322786 219.072061 
L 427.070162 216.713066 
L 427.817538 222.682935 
L 428.564914 218.300631 
L 429.31229 212.919515 
L 430.059665 212.24229 
L 430.807041 216.208348 
L 431.554417 209.069583 
L 432.301793 212.94519 
L 433.049169 212.551968 
L 433.796545 204.659791 
L 434.543921 200.779339 
L 435.291297 205.124503 
L 436.038673 205.184656 
L 436.786049 199.024583 
L 437.533425 201.072597 
L 438.280801 193.303278 
L 439.028176 191.737552 
L 439.775552 184.260169 
L 440.522928 187.596489 
L 441.270304 189.256235 
L 442.01768 183.011878 
L 442.765056 183.605439 
L 443.512432 177.274504 
L 444.259808 175.557712 
L 445.007184 170.108094 
L 445.75456 168.925957 
L 446.501936 169.044589 
L 447.996687 159.314399 
L 448.744063 165.759056 
L 449.491439 164.90519 
L 450.238815 161.898298 
L 450.986191 161.181325 
L 451.733567 156.337074 
L 453.228319 144.763211 
L 453.975695 144.573026 
L 454.723071 147.784675 
L 456.217822 136.651855 
L 456.965198 145.390981 
L 457.712574 133.348671 
L 458.45995 128.373778 
L 459.207326 126.875389 
L 459.954702 130.482 
L 460.702078 125.527614 
L 461.449454 124.172386 
L 462.19683 121.765655 
L 462.944206 121.981433 
L 463.691582 122.745356 
L 464.438957 118.294347 
L 465.186333 108.509708 
L 465.933709 107.40837 
L 466.681085 104.41248 
L 467.428461 98.81333 
L 468.175837 99.196826 
L 468.923213 91.720451 
L 469.670589 91.247862 
L 470.417965 99.758877 
L 471.165341 100.531288 
L 471.912717 84.059567 
L 472.660092 88.573281 
L 473.407468 83.018604 
L 474.154844 85.355862 
L 474.90222 77.221446 
L 475.649596 80.140005 
L 476.396972 65.746587 
L 477.144348 65.636248 
L 477.891724 67.293017 
L 478.6391 67.003329 
L 479.386476 65.526427 
L 480.133852 59.759281 
L 480.881227 49.516699 
L 481.628603 52.543896 
L 482.375979 51.820969 
L 483.123355 47.078403 
L 483.870731 46.947576 
L 484.618107 50.182543 
L 485.365483 44.014076 
L 485.365483 44.014076 
" clip-path="url(#pdc1712bcc6)" style="fill: none; stroke: #4c78a8; stroke-width: 1.6; stroke-linecap: square"/>
   </g>
   <g id="line2d_18">
    <path d="M 103.456392 311.212916 
L 104.203768 309.096511 
L 104.951144 309.508219 
L 105.69852 305.735223 
L 107.193272 302.4053 
L 107.940648 301.361159 
L 108.688023 297.904967 
L 109.435399 298.003421 
L 110.182775 296.747033 
L 110.930151 294.265295 
L 111.677527 292.8546 
L 112.424903 292.054681 
L 113.172279 289.036726 
L 113.919655 291.035519 
L 114.667031 284.436067 
L 115.414407 284.87807 
L 116.161783 281.661053 
L 116.909158 280.961686 
L 118.40391 272.041373 
L 119.151286 272.762081 
L 119.898662 271.343016 
L 120.646038 265.41351 
L 121.393414 268.66776 
L 122.14079 268.007011 
L 122.888166 266.146363 
L 123.635542 263.020833 
L 124.382918 263.4989 
L 125.130293 265.502626 
L 125.877669 260.098123 
L 126.625045 264.241604 
L 127.372421 264.334006 
L 128.119797 263.765099 
L 128.867173 267.338597 
L 129.614549 266.064053 
L 130.361925 260.582241 
L 131.109301 254.157203 
L 131.856677 259.787788 
L 132.604053 260.22314 
L 133.351429 260.039519 
L 134.098804 259.0487 
L 134.84618 255.64845 
L 135.593556 258.586628 
L 136.340932 258.012461 
L 137.088308 253.436823 
L 137.835684 254.567854 
L 138.58306 254.047201 
L 140.077812 250.845911 
L 140.825188 250.688225 
L 141.572564 249.54798 
L 142.319939 246.925508 
L 143.067315 249.146857 
L 143.814691 246.57998 
L 144.562067 247.159972 
L 145.309443 246.993492 
L 146.056819 254.583572 
L 146.804195 250.270843 
L 147.551571 253.085974 
L 149.046323 242.622487 
L 149.793699 248.849804 
L 150.541074 253.991001 
L 151.28845 254.90863 
L 152.035826 250.407643 
L 152.783202 246.68497 
L 154.277954 252.760323 
L 155.02533 261.065767 
L 155.772706 248.930288 
L 156.520082 262.284213 
L 157.267458 281.064701 
L 158.014834 283.650821 
L 158.76221 287.777805 
L 159.509585 285.946221 
L 160.256961 285.60749 
L 161.004337 286.696217 
L 161.751713 285.453576 
L 162.499089 287.258465 
L 163.246465 283.583317 
L 163.993841 286.526911 
L 164.741217 284.670553 
L 165.488593 284.640283 
L 166.235969 283.729606 
L 166.983345 281.57446 
L 167.73072 282.289761 
L 168.478096 287.217499 
L 169.225472 282.348819 
L 169.972848 288.271843 
L 170.720224 289.528136 
L 171.4676 289.928488 
L 172.214976 287.742451 
L 172.962352 289.241693 
L 173.709728 287.711713 
L 174.457104 290.365311 
L 175.20448 287.895268 
L 175.951855 293.495037 
L 176.699231 288.727411 
L 177.446607 292.496329 
L 178.193983 291.01286 
L 178.941359 296.717957 
L 180.436111 295.455546 
L 181.183487 290.986773 
L 181.930863 293.914152 
L 182.678239 292.784781 
L 183.425615 288.735191 
L 184.172991 289.139705 
L 184.920366 290.147888 
L 185.667742 288.341025 
L 186.415118 291.478593 
L 187.162494 288.005597 
L 187.90987 289.831331 
L 188.657246 290.914222 
L 189.404622 294.56138 
L 190.899374 289.741626 
L 191.64675 292.471213 
L 192.394126 293.236881 
L 193.141501 290.466107 
L 193.888877 294.569784 
L 194.636253 292.239906 
L 195.383629 292.927221 
L 196.131005 293.819332 
L 196.878381 289.661315 
L 197.625757 288.444377 
L 198.373133 291.253625 
L 199.120509 289.492836 
L 199.867885 293.569199 
L 200.615261 291.190259 
L 201.362636 294.210639 
L 202.110012 293.40477 
L 202.857388 294.980574 
L 203.604764 294.084298 
L 204.35214 294.074127 
L 205.099516 288.507014 
L 205.846892 295.229403 
L 206.594268 293.405413 
L 207.341644 290.223967 
L 208.08902 292.69301 
L 208.836396 293.99117 
L 209.583772 293.846651 
L 210.331147 294.263913 
L 211.078523 290.836825 
L 211.825899 293.587661 
L 212.573275 292.94305 
L 213.320651 292.608145 
L 214.068027 291.53483 
L 214.815403 291.678061 
L 215.562779 289.897524 
L 216.310155 291.15611 
L 217.057531 290.464997 
L 217.804907 289.936603 
L 218.552282 291.447171 
L 219.299658 291.725437 
L 220.047034 291.735307 
L 220.79441 290.99741 
L 221.541786 289.982224 
L 222.289162 293.117402 
L 223.036538 290.967621 
L 223.783914 290.669828 
L 224.53129 292.451942 
L 225.278666 290.579839 
L 226.026042 289.623058 
L 226.773417 293.267124 
L 227.520793 291.521207 
L 228.268169 291.249483 
L 229.015545 290.849922 
L 229.762921 291.166696 
L 230.510297 290.347234 
L 231.257673 291.612308 
L 232.005049 288.698675 
L 232.752425 291.698677 
L 233.499801 292.729845 
L 234.247177 289.219896 
L 234.994553 289.640842 
L 235.741928 292.083914 
L 236.489304 287.114658 
L 237.23668 289.135177 
L 237.984056 289.845622 
L 238.731432 290.086406 
L 239.478808 288.606688 
L 240.226184 288.00213 
L 240.97356 284.922861 
L 241.720936 289.743905 
L 242.468312 288.796791 
L 243.215688 287.336837 
L 243.963063 287.743163 
L 244.710439 289.659288 
L 245.457815 288.22552 
L 246.205191 289.325538 
L 246.952567 288.145303 
L 247.699943 288.004368 
L 248.447319 287.134511 
L 249.194695 286.456525 
L 249.942071 287.047559 
L 250.689447 288.362339 
L 251.436823 280.290896 
L 252.184198 286.747723 
L 252.931574 282.843567 
L 253.67895 284.372017 
L 254.426326 279.37491 
L 255.173702 276.788358 
L 255.921078 281.463372 
L 256.668454 281.004076 
L 257.41583 276.220963 
L 258.910582 279.448164 
L 259.657958 277.755115 
L 260.405334 279.532856 
L 261.152709 280.63872 
L 261.900085 280.712044 
L 262.647461 282.158934 
L 263.394837 281.150635 
L 264.142213 280.914968 
L 264.889589 275.09314 
L 265.636965 280.317281 
L 266.384341 277.129213 
L 267.131717 276.540516 
L 267.879093 273.52863 
L 268.626469 273.026719 
L 269.373844 275.612268 
L 270.12122 275.990008 
L 270.868596 275.6633 
L 271.615972 278.144186 
L 272.363348 278.087783 
L 273.110724 281.038757 
L 273.8581 279.232618 
L 274.605476 280.459206 
L 275.352852 275.525043 
L 276.100228 277.750427 
L 276.847604 275.178299 
L 278.342355 271.79403 
L 279.089731 272.066374 
L 279.837107 276.594553 
L 280.584483 274.715261 
L 281.331859 266.168738 
L 282.079235 271.18398 
L 282.826611 272.582602 
L 283.573987 270.167453 
L 284.321363 268.457137 
L 285.068739 270.170694 
L 285.816115 270.152526 
L 286.56349 268.066401 
L 288.058242 264.449079 
L 288.805618 261.410325 
L 289.552994 261.756034 
L 291.047746 259.9513 
L 291.795122 258.079382 
L 292.542498 260.220819 
L 293.289874 260.611892 
L 294.03725 261.608457 
L 294.784625 256.086099 
L 295.532001 259.097263 
L 296.279377 259.756917 
L 297.026753 264.586342 
L 297.774129 263.297813 
L 298.521505 267.917687 
L 299.268881 271.63896 
L 300.016257 269.645635 
L 300.763633 267.995699 
L 301.511009 271.804395 
L 302.258385 269.722666 
L 303.00576 271.878042 
L 303.753136 270.868972 
L 304.500512 273.020834 
L 305.247888 279.89646 
L 305.995264 282.532768 
L 306.74264 280.914579 
L 307.490016 280.160933 
L 308.237392 278.550603 
L 308.984768 282.13934 
L 309.732144 281.783615 
L 310.47952 282.008098 
L 311.226896 276.158226 
L 311.974271 281.993032 
L 312.721647 280.918248 
L 313.469023 285.116306 
L 314.216399 283.661585 
L 314.963775 282.536189 
L 315.711151 280.724516 
L 316.458527 283.703075 
L 317.205903 278.953737 
L 317.953279 283.227574 
L 318.700655 281.212908 
L 319.448031 279.851308 
L 320.195406 279.338265 
L 320.942782 282.786193 
L 321.690158 278.124003 
L 322.437534 281.038475 
L 323.18491 278.14341 
L 323.932286 279.657762 
L 324.679662 277.959266 
L 325.427038 280.494967 
L 326.174414 278.356825 
L 326.92179 280.069245 
L 327.669166 277.990873 
L 328.416541 278.835012 
L 329.163917 278.632858 
L 329.911293 278.586278 
L 330.658669 277.17779 
L 331.406045 282.084142 
L 332.153421 280.162458 
L 332.900797 279.672971 
L 333.648173 279.507555 
L 334.395549 278.70504 
L 335.142925 276.363612 
L 335.890301 276.199481 
L 336.637677 277.266318 
L 337.385052 275.86936 
L 338.132428 273.709459 
L 338.879804 272.02694 
L 339.62718 271.025572 
L 340.374556 277.574314 
L 341.121932 273.376935 
L 341.869308 274.677802 
L 342.616684 272.45232 
L 343.36406 274.027773 
L 344.111436 274.349452 
L 344.858812 276.609711 
L 345.606187 274.964328 
L 346.353563 276.677219 
L 347.100939 274.405832 
L 347.848315 278.146151 
L 348.595691 279.007381 
L 349.343067 277.743724 
L 350.090443 279.991696 
L 350.837819 279.305488 
L 351.585195 279.625975 
L 352.332571 281.161763 
L 353.079947 281.508207 
L 353.827322 280.407405 
L 354.574698 275.252463 
L 355.322074 284.484921 
L 356.816826 278.876822 
L 357.564202 277.077857 
L 358.311578 278.198348 
L 359.058954 276.984877 
L 359.80633 279.17945 
L 360.553706 277.020552 
L 361.301082 276.522658 
L 362.048458 276.9553 
L 362.795833 275.484274 
L 363.543209 275.893885 
L 364.290585 277.660392 
L 365.037961 274.725306 
L 365.785337 275.176371 
L 366.532713 275.138958 
L 367.280089 276.719865 
L 368.027465 275.555318 
L 368.774841 275.097541 
L 369.522217 275.287815 
L 370.269593 276.662828 
L 371.016968 275.243722 
L 371.764344 276.851151 
L 372.51172 275.331483 
L 373.259096 276.136785 
L 374.006472 275.9073 
L 374.753848 275.0134 
L 375.501224 276.483247 
L 376.2486 274.960315 
L 376.995976 274.514424 
L 377.743352 274.809142 
L 378.490728 272.998551 
L 379.238103 275.840412 
L 379.985479 274.101956 
L 380.732855 275.225447 
L 381.480231 272.837656 
L 382.227607 276.322454 
L 382.974983 275.995302 
L 383.722359 274.926596 
L 384.469735 274.410867 
L 385.217111 275.791649 
L 385.964487 274.187863 
L 386.711863 275.44791 
L 388.206614 273.570037 
L 388.95399 275.212439 
L 389.701366 275.798986 
L 390.448742 272.982561 
L 391.943494 272.84209 
L 392.69087 271.923545 
L 394.932998 268.499039 
L 395.680374 270.576102 
L 396.427749 268.653549 
L 397.175125 268.322888 
L 397.922501 267.834896 
L 398.669877 268.762737 
L 399.417253 265.620986 
L 400.164629 268.147681 
L 400.912005 265.406257 
L 401.659381 265.835876 
L 402.406757 263.733937 
L 403.154133 262.936706 
L 403.901509 264.133118 
L 404.648884 264.486312 
L 405.39626 263.311326 
L 406.143636 265.622493 
L 406.891012 260.849592 
L 407.638388 262.328796 
L 408.385764 261.188727 
L 409.13314 262.077625 
L 409.880516 256.806081 
L 411.375268 259.927635 
L 412.87002 254.961743 
L 413.617395 255.985042 
L 414.364771 255.324829 
L 415.112147 252.543908 
L 415.859523 250.305209 
L 416.606899 249.722674 
L 417.354275 244.834613 
L 418.849027 248.251759 
L 419.596403 243.578246 
L 420.343779 244.827364 
L 421.091155 241.765829 
L 421.83853 234.904612 
L 422.585906 230.696665 
L 423.333282 234.605049 
L 424.828034 229.51806 
L 425.57541 228.128863 
L 426.322786 225.953591 
L 427.070162 222.670194 
L 427.817538 218.516695 
L 428.564914 217.65632 
L 429.31229 215.001275 
L 430.059665 207.343138 
L 430.807041 213.394258 
L 431.554417 210.678644 
L 432.301793 206.614792 
L 433.049169 206.279457 
L 433.796545 199.845063 
L 434.543921 199.661432 
L 435.291297 200.400724 
L 436.038673 195.907989 
L 436.786049 193.376801 
L 437.533425 189.823852 
L 438.280801 189.167698 
L 439.028176 186.096066 
L 439.775552 184.161212 
L 440.522928 178.321441 
L 441.270304 174.294581 
L 442.01768 176.672345 
L 442.765056 171.689972 
L 443.512432 169.96594 
L 444.259808 163.471207 
L 445.007184 164.686398 
L 445.75456 167.374404 
L 446.501936 162.136783 
L 447.249311 159.99781 
L 447.996687 157.2922 
L 448.744063 149.052919 
L 449.491439 147.87717 
L 450.238815 147.056663 
L 450.986191 144.997259 
L 451.733567 145.113053 
L 453.228319 135.794993 
L 453.975695 132.711009 
L 454.723071 131.408982 
L 455.470446 129.591595 
L 456.217822 126.934414 
L 456.965198 126.321992 
L 457.712574 121.655815 
L 458.45995 119.066314 
L 459.207326 116.983037 
L 459.954702 112.916338 
L 460.702078 110.535033 
L 461.449454 109.685531 
L 462.19683 107.333313 
L 463.691582 103.548462 
L 464.438957 99.914835 
L 465.186333 97.268675 
L 465.933709 91.834507 
L 466.681085 88.979652 
L 468.175837 85.110645 
L 468.923213 81.999146 
L 469.670589 80.202895 
L 470.417965 76.574519 
L 471.165341 70.140994 
L 471.912717 72.890133 
L 472.660092 68.725909 
L 473.407468 66.970469 
L 474.154844 62.119395 
L 474.90222 59.666861 
L 475.649596 56.319205 
L 476.396972 57.464646 
L 477.144348 55.482074 
L 478.6391 48.553585 
L 479.386476 47.086854 
L 480.133852 43.100426 
L 480.881227 39.911651 
L 481.628603 40.503288 
L 482.375979 37.823862 
L 483.870731 34.135148 
L 484.618107 31.344533 
L 485.365483 29.699321 
L 485.365483 29.699321 
" clip-path="url(#pdc1712bcc6)" style="fill: none; stroke: #f58518; stroke-width: 1.6; stroke-linecap: square"/>
   </g>
   <g id="patch_3">
    <path d="M 84.360938 331.422465 
L 84.360938 15.331552 
" style="fill: none; stroke: #000000; stroke-width: 0.8; stroke-linejoin: miter; stroke-linecap: square"/>
   </g>
   <g id="patch_4">
    <path d="M 84.360938 331.422465 
L 504.460937 331.422465 
" style="fill: none; stroke: #000000; stroke-width: 0.8; stroke-linejoin: miter; stroke-linecap: square"/>
   </g>
   <g id="text_13">
    <g id="patch_5">
     <path d="M 142.65125 177.287008 
L 424.350937 177.287008 
L 424.350937 147.207321 
L 142.65125 147.207321 
z
" style="fill: #ffffff; opacity: 0.7"/>
    </g>
    <!-- Rel l2=0.374  R²=0.966 -->
    <g transform="translate(146.56125 168.593727) scale(0.23 -0.23)">
     <defs>
      <path id="DejaVuSans-52" d="M 2841 2188 
Q 3044 2119 3236 1894 
Q 3428 1669 3622 1275 
L 4263 0 
L 3584 0 
L 2988 1197 
Q 2756 1666 2539 1819 
Q 2322 1972 1947 1972 
L 1259 1972 
L 1259 0 
L 628 0 
L 628 4666 
L 2053 4666 
Q 2853 4666 3247 4331 
Q 3641 3997 3641 3322 
Q 3641 2881 3436 2590 
Q 3231 2300 2841 2188 
z
M 1259 4147 
L 1259 2491 
L 2053 2491 
Q 2509 2491 2742 2702 
Q 2975 2913 2975 3322 
Q 2975 3731 2742 3939 
Q 2509 4147 2053 4147 
L 1259 4147 
z
" transform="scale(0.015625)"/>
      <path id="DejaVuSans-6c" d="M 603 4863 
L 1178 4863 
L 1178 0 
L 603 0 
L 603 4863 
z
" transform="scale(0.015625)"/>
      <path id="DejaVuSans-3d" d="M 678 2906 
L 4684 2906 
L 4684 2381 
L 678 2381 
L 678 2906 
z
M 678 1631 
L 4684 1631 
L 4684 1100 
L 678 1100 
L 678 1631 
z
" transform="scale(0.015625)"/>
      <path id="DejaVuSans-2e" d="M 684 794 
L 1344 794 
L 1344 0 
L 684 0 
L 684 794 
z
" transform="scale(0.015625)"/>
      <path id="DejaVuSans-37" d="M 525 4666 
L 3525 4666 
L 3525 4397 
L 1831 0 
L 1172 0 
L 2766 4134 
L 525 4134 
L 525 4666 
z
" transform="scale(0.015625)"/>
      <path id="DejaVuSans-34" d="M 2419 4116 
L 825 1625 
L 2419 1625 
L 2419 4116 
z
M 2253 4666 
L 3047 4666 
L 3047 1625 
L 3713 1625 
L 3713 1100 
L 3047 1100 
L 3047 0 
L 2419 0 
L 2419 1100 
L 313 1100 
L 313 1709 
L 2253 4666 
z
" transform="scale(0.015625)"/>
      <path id="DejaVuSans-b2" d="M 838 2444 
L 2163 2444 
L 2163 2088 
L 294 2088 
L 294 2431 
Q 400 2528 597 2703 
Q 1672 3656 1672 3950 
Q 1672 4156 1509 4282 
Q 1347 4409 1081 4409 
Q 919 4409 728 4354 
Q 538 4300 313 4191 
L 313 4575 
Q 553 4663 761 4706 
Q 969 4750 1147 4750 
Q 1600 4750 1872 4544 
Q 2144 4338 2144 4000 
Q 2144 3566 1109 2678 
Q 934 2528 838 2444 
z
" transform="scale(0.015625)"/>
      <path id="DejaVuSans-39" d="M 703 97 
L 703 672 
Q 941 559 1184 500 
Q 1428 441 1663 441 
Q 2288 441 2617 861 
Q 2947 1281 2994 2138 
Q 2813 1869 2534 1725 
Q 2256 1581 1919 1581 
Q 1219 1581 811 2004 
Q 403 2428 403 3163 
Q 403 3881 828 4315 
Q 1253 4750 1959 4750 
Q 2769 4750 3195 4129 
Q 3622 3509 3622 2328 
Q 3622 1225 3098 567 
Q 2575 -91 1691 -91 
Q 1453 -91 1209 -44 
Q 966 3 703 97 
z
M 1959 2075 
Q 2384 2075 2632 2365 
Q 2881 2656 2881 3163 
Q 2881 3666 2632 3958 
Q 2384 4250 1959 4250 
Q 1534 4250 1286 3958 
Q 1038 3666 1038 3163 
Q 1038 2656 1286 2365 
Q 1534 2075 1959 2075 
z
" transform="scale(0.015625)"/>
      <path id="DejaVuSans-36" d="M 2113 2584 
Q 1688 2584 1439 2293 
Q 1191 2003 1191 1497 
Q 1191 994 1439 701 
Q 1688 409 2113 409 
Q 2538 409 2786 701 
Q 3034 994 3034 1497 
Q 3034 2003 2786 2293 
Q 2538 2584 2113 2584 
z
M 3366 4563 
L 3366 3988 
Q 3128 4100 2886 4159 
Q 2644 4219 2406 4219 
Q 1781 4219 1451 3797 
Q 1122 3375 1075 2522 
Q 1259 2794 1537 2939 
Q 1816 3084 2150 3084 
Q 2853 3084 3261 2657 
Q 3669 2231 3669 1497 
Q 3669 778 3244 343 
Q 2819 -91 2113 -91 
Q 1303 -91 875 529 
Q 447 1150 447 2328 
Q 447 3434 972 4092 
Q 1497 4750 2381 4750 
Q 2619 4750 2861 4703 
Q 3103 4656 3366 4563 
z
" transform="scale(0.015625)"/>
     </defs>
     <use xlink:href="#DejaVuSans-52"/>
     <use xlink:href="#DejaVuSans-65" transform="translate(64.982422 0)"/>
     <use xlink:href="#DejaVuSans-6c" transform="translate(126.505859 0)"/>
     <use xlink:href="#DejaVuSans-20" transform="translate(154.289062 0)"/>
     <use xlink:href="#DejaVuSans-6c" transform="translate(186.076172 0)"/>
     <use xlink:href="#DejaVuSans-32" transform="translate(213.859375 0)"/>
     <use xlink:href="#DejaVuSans-3d" transform="translate(277.482422 0)"/>
     <use xlink:href="#DejaVuSans-30" transform="translate(361.271484 0)"/>
     <use xlink:href="#DejaVuSans-2e" transform="translate(424.894531 0)"/>
     <use xlink:href="#DejaVuSans-33" transform="translate(456.681641 0)"/>
     <use xlink:href="#DejaVuSans-37" transform="translate(520.304688 0)"/>
     <use xlink:href="#DejaVuSans-34" transform="translate(583.927734 0)"/>
     <use xlink:href="#DejaVuSans-20" transform="translate(647.550781 0)"/>
     <use xlink:href="#DejaVuSans-20" transform="translate(679.337891 0)"/>
     <use xlink:href="#DejaVuSans-52" transform="translate(711.125 0)"/>
     <use xlink:href="#DejaVuSans-b2" transform="translate(780.607422 0)"/>
     <use xlink:href="#DejaVuSans-3d" transform="translate(820.695312 0)"/>
     <use xlink:href="#DejaVuSans-30" transform="translate(904.484375 0)"/>
     <use xlink:href="#DejaVuSans-2e" transform="translate(968.107422 0)"/>
     <use xlink:href="#DejaVuSans-39" transform="translate(999.894531 0)"/>
     <use xlink:href="#DejaVuSans-36" transform="translate(1063.517578 0)"/>
     <use xlink:href="#DejaVuSans-36" transform="translate(1127.140625 0)"/>
    </g>
   </g>
   <g id="legend_1">
    <g id="patch_6">
     <path d="M 100.460938 101.250927 
L 296.083125 101.250927 
Q 300.683125 101.250927 300.683125 96.650927 
L 300.683125 31.431552 
Q 300.683125 26.831552 296.083125 26.831552 
L 100.460938 26.831552 
Q 95.860938 26.831552 95.860938 31.431552 
L 95.860938 96.650927 
Q 95.860938 101.250927 100.460938 101.250927 
z
" style="fill: #ffffff; opacity: 0.8; stroke: #cccccc; stroke-linejoin: miter"/>
    </g>
    <g id="line2d_19">
     <path d="M 105.060938 45.457958 
L 128.060938 45.457958 
L 151.060938 45.457958 
" style="fill: none; stroke: #4c78a8; stroke-width: 1.6; stroke-linecap: square"/>
    </g>
    <g id="text_14">
     <!-- True -->
     <g transform="translate(169.460938 53.507958) scale(0.23 -0.23)">
      <defs>
       <path id="DejaVuSans-54" d="M -19 4666 
L 3928 4666 
L 3928 4134 
L 2272 4134 
L 2272 0 
L 1638 0 
L 1638 4134 
L -19 4134 
L -19 4666 
z
" transform="scale(0.015625)"/>
       <path id="DejaVuSans-75" d="M 544 1381 
L 544 3500 
L 1119 3500 
L 1119 1403 
Q 1119 906 1312 657 
Q 1506 409 1894 409 
Q 2359 409 2629 706 
Q 2900 1003 2900 1516 
L 2900 3500 
L 3475 3500 
L 3475 0 
L 2900 0 
L 2900 538 
Q 2691 219 2414 64 
Q 2138 -91 1772 -91 
Q 1169 -91 856 284 
Q 544 659 544 1381 
z
M 1991 3584 
L 1991 3584 
z
" transform="scale(0.015625)"/>
      </defs>
      <use xlink:href="#DejaVuSans-54"/>
      <use xlink:href="#DejaVuSans-72" transform="translate(46.333984 0)"/>
      <use xlink:href="#DejaVuSans-75" transform="translate(87.447266 0)"/>
      <use xlink:href="#DejaVuSans-65" transform="translate(150.826172 0)"/>
     </g>
    </g>
    <g id="line2d_20">
     <path d="M 105.060938 79.217646 
L 128.060938 79.217646 
L 151.060938 79.217646 
" style="fill: none; stroke: #f58518; stroke-width: 1.6; stroke-linecap: square"/>
    </g>
    <g id="text_15">
     <!-- Generated -->
     <g transform="translate(169.460938 87.267646) scale(0.23 -0.23)">
      <defs>
       <path id="DejaVuSans-47" d="M 3809 666 
L 3809 1919 
L 2778 1919 
L 2778 2438 
L 4434 2438 
L 4434 434 
Q 4069 175 3628 42 
Q 3188 -91 2688 -91 
Q 1594 -91 976 548 
Q 359 1188 359 2328 
Q 359 3472 976 4111 
Q 1594 4750 2688 4750 
Q 3144 4750 3555 4637 
Q 3966 4525 4313 4306 
L 4313 3634 
Q 3963 3931 3569 4081 
Q 3175 4231 2741 4231 
Q 1884 4231 1454 3753 
Q 1025 3275 1025 2328 
Q 1025 1384 1454 906 
Q 1884 428 2741 428 
Q 3075 428 3337 486 
Q 3600 544 3809 666 
z
" transform="scale(0.015625)"/>
       <path id="DejaVuSans-61" d="M 2194 1759 
Q 1497 1759 1228 1600 
Q 959 1441 959 1056 
Q 959 750 1161 570 
Q 1363 391 1709 391 
Q 2188 391 2477 730 
Q 2766 1069 2766 1631 
L 2766 1759 
L 2194 1759 
z
M 3341 1997 
L 3341 0 
L 2766 0 
L 2766 531 
Q 2569 213 2275 61 
Q 1981 -91 1556 -91 
Q 1019 -91 701 211 
Q 384 513 384 1019 
Q 384 1609 779 1909 
Q 1175 2209 1959 2209 
L 2766 2209 
L 2766 2266 
Q 2766 2663 2505 2880 
Q 2244 3097 1772 3097 
Q 1472 3097 1187 3025 
Q 903 2953 641 2809 
L 641 3341 
Q 956 3463 1253 3523 
Q 1550 3584 1831 3584 
Q 2591 3584 2966 3190 
Q 3341 2797 3341 1997 
z
" transform="scale(0.015625)"/>
       <path id="DejaVuSans-64" d="M 2906 2969 
L 2906 4863 
L 3481 4863 
L 3481 0 
L 2906 0 
L 2906 525 
Q 2725 213 2448 61 
Q 2172 -91 1784 -91 
Q 1150 -91 751 415 
Q 353 922 353 1747 
Q 353 2572 751 3078 
Q 1150 3584 1784 3584 
Q 2172 3584 2448 3432 
Q 2725 3281 2906 2969 
z
M 947 1747 
Q 947 1113 1208 752 
Q 1469 391 1925 391 
Q 2381 391 2643 752 
Q 2906 1113 2906 1747 
Q 2906 2381 2643 2742 
Q 2381 3103 1925 3103 
Q 1469 3103 1208 2742 
Q 947 2381 947 1747 
z
" transform="scale(0.015625)"/>
      </defs>
      <use xlink:href="#DejaVuSans-47"/>
      <use xlink:href="#DejaVuSans-65" transform="translate(77.490234 0)"/>
      <use xlink:href="#DejaVuSans-6e" transform="translate(139.013672 0)"/>
      <use xlink:href="#DejaVuSans-65" transform="translate(202.392578 0)"/>
      <use xlink:href="#DejaVuSans-72" transform="translate(263.916016 0)"/>
      <use xlink:href="#DejaVuSans-61" transform="translate(305.029297 0)"/>
      <use xlink:href="#DejaVuSans-74" transform="translate(366.308594 0)"/>
      <use xlink:href="#DejaVuSans-65" transform="translate(405.517578 0)"/>
      <use xlink:href="#DejaVuSans-64" transform="translate(467.041016 0)"/>
     </g>
    </g>
   </g>
  </g>
 </g>
 <defs>
  <clipPath id="pdc1712bcc6">
   <rect x="84.360938" y="15.331552" width="420.1" height="316.090913"/>
  </clipPath>
 </defs>
</svg>
