<?xml version="1.0" encoding="utf-8" standalone="no"?>
<!DOCTYPE svg PUBLIC "-//W3C//DTD SVG 1.1//EN"
  "http://www.w3.org/Graphics/SVG/1.1/DTD/svg11.dtd">
<svg xmlns:xlink="http://www.w3.org/1999/xlink" width="511.720937pt" height="396.375781pt" viewBox="0 0 511.720937 396.375781" xmlns="http://www.w3.org/2000/svg" version="1.1">
 <metadata>
  <rdf:RDF xmlns:dc="http://purl.org/dc/elements/1.1/" xmlns:cc="http://creativecommons.org/ns#" xmlns:rdf="http://www.w3.org/1999/02/22-rdf-syntax-ns#">
   <cc:Work>
    <dc:type rdf:resource="http://purl.org/dc/dcmitype/StillImage"/>
    <dc:date>2026-01-22T22:46:36.136811</dc:date>
    <dc:format>image/svg+xml</dc:format>
    <dc:creator>
     <cc:Agent>
      <dc:title>Matplotlib v3.10.3, https://matplotlib.org/</dc:title>
     </cc:Agent>
    </dc:creator>
   </cc:Work>
  </rdf:RDF>
 </metadata>
 <defs>
  <style type="text/css">*{stroke-linejoin: round; stroke-linecap: butt}</style>
 </defs>
 <g id="figure_1">
  <g id="patch_1">
   <path d="M 0 396.375781 
L 511.720938 396.375781 
L 511.720938 0 
L 0 0 
z
" style="fill: #ffffff"/>
  </g>
  <g id="axes_1">
   <g id="patch_2">
    <path d="M 84.360938 331.5325 
L 504.520937 331.5325 
L 504.520937 7.2 
L 84.360938 7.2 
z
" style="fill: #ffffff"/>
   </g>
   <g id="FillBetweenPolyCollection_1">
    <defs>
     <path id="m1656f10a91" d="M 103.459119 -79.585668 
L 103.459119 -82.318291 
L 104.206602 -87.638463 
L 104.954085 -88.353162 
L 105.701567 -86.301277 
L 106.44905 -90.951215 
L 107.196533 -91.603949 
L 107.944015 -93.039593 
L 108.691498 -92.797724 
L 109.438981 -96.07445 
L 110.186463 -98.671828 
L 110.933946 -104.421096 
L 111.681429 -103.704727 
L 112.428911 -107.071327 
L 113.176394 -106.595439 
L 113.923876 -109.271362 
L 114.671359 -111.526361 
L 115.418842 -114.009861 
L 116.166324 -117.354785 
L 116.913807 -117.554223 
L 117.66129 -120.857144 
L 118.408772 -122.842106 
L 119.156255 -124.989621 
L 119.903738 -128.062304 
L 120.65122 -129.510746 
L 121.398703 -133.474089 
L 122.146186 -134.000494 
L 122.893668 -136.535924 
L 123.641151 -139.969419 
L 124.388634 -141.19364 
L 125.136116 -143.824413 
L 125.883599 -144.520899 
L 126.631082 -148.980171 
L 127.378564 -150.923312 
L 128.126047 -150.193949 
L 128.87353 -154.832102 
L 129.621012 -158.720916 
L 130.368495 -156.461873 
L 131.115978 -161.992835 
L 131.86346 -164.306819 
L 132.610943 -168.078564 
L 133.358425 -173.918496 
L 134.105908 -175.348043 
L 134.853391 -177.273709 
L 135.600873 -179.184407 
L 136.348356 -179.049739 
L 137.095839 -182.716374 
L 137.843321 -182.330158 
L 138.590804 -188.837681 
L 139.338287 -190.081984 
L 140.085769 -196.354034 
L 140.833252 -194.03113 
L 141.580735 -200.016414 
L 142.328217 -200.155666 
L 143.0757 -200.730046 
L 143.823183 -204.284516 
L 144.570665 -207.711693 
L 145.318148 -206.861987 
L 146.065631 -213.464285 
L 146.813113 -213.872006 
L 147.560596 -220.003309 
L 148.308079 -126.082249 
L 149.055561 -88.801245 
L 149.803044 -92.831774 
L 150.550527 -89.514879 
L 151.298009 -88.606475 
L 152.045492 -90.737168 
L 152.792975 -89.495194 
L 153.540457 -87.87253 
L 154.28794 -89.573789 
L 155.035422 -90.127459 
L 155.782905 -88.695551 
L 156.530388 -90.952101 
L 157.27787 -85.86333 
L 158.025353 -91.621138 
L 158.772836 -88.317251 
L 159.520318 -89.332963 
L 160.267801 -91.672477 
L 161.015284 -89.607971 
L 161.762766 -91.35447 
L 162.510249 -89.831502 
L 163.257732 -88.236142 
L 164.005214 -90.66589 
L 164.752697 -91.854739 
L 165.50018 -92.334803 
L 166.247662 -94.018287 
L 166.995145 -93.081946 
L 167.742628 -92.260298 
L 168.49011 -92.071258 
L 169.237593 -92.298926 
L 169.985076 -96.997191 
L 170.732558 -93.691714 
L 171.480041 -93.367466 
L 172.227524 -95.955706 
L 172.975006 -95.866 
L 173.722489 -95.288343 
L 174.469971 -100.512463 
L 175.217454 -97.346845 
L 175.964937 -103.069272 
L 176.712419 -101.353229 
L 177.459902 -101.566396 
L 178.207385 -102.488499 
L 178.954867 -105.899144 
L 179.70235 -106.48735 
L 180.449833 -103.177379 
L 181.197315 -106.932179 
L 181.944798 -108.779055 
L 182.692281 -106.760555 
L 183.439763 -111.080742 
L 184.187246 -114.432587 
L 184.934729 -113.90367 
L 185.682211 -111.345292 
L 186.429694 -116.758009 
L 187.177177 -116.117005 
L 187.924659 -117.876466 
L 188.672142 -120.86419 
L 189.419625 -121.284234 
L 190.167107 -119.646097 
L 190.91459 -125.632561 
L 191.662073 -123.469963 
L 192.409555 -122.479211 
L 193.157038 -125.190029 
L 193.90452 -121.121841 
L 194.652003 -112.124515 
L 195.399486 -112.262773 
L 196.146968 -103.637471 
L 196.894451 -93.533092 
L 197.641934 -87.851391 
L 198.389416 -89.679791 
L 199.136899 -95.281565 
L 199.884382 -91.344124 
L 200.631864 -91.670543 
L 201.379347 -93.084321 
L 202.12683 -92.320982 
L 202.874312 -91.27939 
L 203.621795 -91.873181 
L 204.369278 -91.933798 
L 205.11676 -92.475687 
L 205.864243 -95.83663 
L 206.611726 -89.630532 
L 207.359208 -94.015031 
L 208.106691 -92.485251 
L 208.854174 -91.06607 
L 209.601656 -91.444182 
L 210.349139 -93.525484 
L 211.096622 -94.415638 
L 211.844104 -92.862678 
L 212.591587 -90.916898 
L 213.33907 -95.730089 
L 214.086552 -94.467921 
L 214.834035 -94.471508 
L 215.581517 -93.124039 
L 216.329 -92.560683 
L 217.076483 -97.657143 
L 217.823965 -97.71615 
L 218.571448 -92.815117 
L 219.318931 -92.097032 
L 220.066413 -92.028751 
L 220.813896 -93.574092 
L 221.561379 -90.894335 
L 222.308861 -89.833431 
L 223.056344 -89.148423 
L 223.803827 -89.087248 
L 224.551309 -90.660446 
L 225.298792 -88.538765 
L 226.046275 -88.306429 
L 226.793757 -89.032285 
L 227.54124 -89.202669 
L 228.288723 -87.98723 
L 229.036205 -93.032696 
L 229.783688 -92.795841 
L 230.531171 -93.888918 
L 231.278653 -91.23351 
L 232.026136 -89.784624 
L 232.773619 -91.975712 
L 233.521101 -91.06517 
L 234.268584 -97.048482 
L 235.016066 -93.646554 
L 235.763549 -96.165534 
L 236.511032 -96.069041 
L 237.258514 -95.426172 
L 238.005997 -96.576411 
L 238.75348 -95.673827 
L 239.500962 -97.565231 
L 240.248445 -97.881614 
L 240.995928 -98.429302 
L 241.74341 -95.362123 
L 242.490893 -91.559142 
L 243.238376 -92.072278 
L 243.985858 -99.028039 
L 244.733341 -91.330893 
L 245.480824 -93.899978 
L 246.228306 -95.063722 
L 246.975789 -98.30899 
L 247.723272 -100.834967 
L 248.470754 -99.517839 
L 249.218237 -98.456763 
L 249.96572 -95.952862 
L 250.713202 -99.883011 
L 251.460685 -96.013558 
L 252.208168 -98.920674 
L 252.95565 -100.528089 
L 253.703133 -100.702396 
L 254.450615 -102.764589 
L 255.198098 -99.856017 
L 255.945581 -104.833556 
L 256.693063 -102.216701 
L 257.440546 -106.965786 
L 258.188029 -105.077502 
L 258.935511 -103.618179 
L 259.682994 -103.816477 
L 260.430477 -109.607691 
L 261.177959 -107.437416 
L 261.925442 -105.231903 
L 262.672925 -106.051342 
L 263.420407 -108.326303 
L 264.16789 -105.523747 
L 264.915373 -114.23927 
L 265.662855 -113.621802 
L 266.410338 -112.773486 
L 267.157821 -114.965262 
L 267.905303 -115.578591 
L 268.652786 -116.1432 
L 269.400269 -116.948777 
L 270.147751 -117.597816 
L 270.895234 -116.339392 
L 271.642717 -118.460904 
L 272.390199 -123.144335 
L 273.137682 -123.39065 
L 273.885165 -121.316105 
L 274.632647 -123.430693 
L 275.38013 -127.38552 
L 276.127612 -129.683359 
L 276.875095 -130.570308 
L 277.622578 -132.081525 
L 278.37006 -134.332715 
L 279.117543 -137.658444 
L 279.865026 -139.311241 
L 280.612508 -137.647492 
L 281.359991 -139.030822 
L 282.107474 -141.92709 
L 282.854956 -145.882749 
L 283.602439 -143.207539 
L 284.349922 -124.703478 
L 285.097404 -97.363993 
L 285.844887 -94.244652 
L 286.59237 -93.060616 
L 287.339852 -92.020095 
L 288.087335 -90.052268 
L 288.834818 -93.735337 
L 289.5823 -90.458454 
L 290.329783 -88.328629 
L 291.077266 -92.97943 
L 291.824748 -91.891118 
L 292.572231 -91.779688 
L 293.319714 -92.118394 
L 294.067196 -95.225616 
L 294.814679 -92.378212 
L 295.562161 -88.942704 
L 296.309644 -90.54309 
L 297.057127 -90.786318 
L 297.804609 -90.160118 
L 298.552092 -86.680044 
L 299.299575 -89.056045 
L 300.047057 -89.461649 
L 300.79454 -88.120372 
L 301.542023 -86.818635 
L 302.289505 -89.497531 
L 303.036988 -91.380048 
L 303.784471 -87.410923 
L 304.531953 -89.218282 
L 305.279436 -88.779608 
L 306.026919 -88.23819 
L 306.774401 -86.194153 
L 307.521884 -85.938137 
L 308.269367 -86.959969 
L 309.016849 -89.694553 
L 309.764332 -89.144788 
L 310.511815 -90.160334 
L 311.259297 -88.929179 
L 312.00678 -89.258944 
L 312.754263 -90.737253 
L 313.501745 -90.222836 
L 314.249228 -88.883913 
L 314.99671 -85.379538 
L 315.744193 -89.078655 
L 316.491676 -87.456699 
L 317.239158 -89.621568 
L 317.986641 -89.261924 
L 318.734124 -88.230389 
L 319.481606 -88.544037 
L 320.229089 -89.024422 
L 320.976572 -88.35946 
L 321.724054 -90.540155 
L 322.471537 -90.677898 
L 323.21902 -89.231264 
L 323.966502 -90.230056 
L 324.713985 -90.075509 
L 325.461468 -91.502339 
L 326.20895 -88.781301 
L 326.956433 -91.523703 
L 327.703916 -92.105644 
L 328.451398 -90.968271 
L 329.198881 -91.867476 
L 329.946364 -92.183704 
L 330.693846 -93.909831 
L 331.441329 -93.571583 
L 332.188812 -92.816322 
L 332.936294 -94.074796 
L 333.683777 -93.831293 
L 334.43126 -88.612427 
L 335.178742 -88.794157 
L 335.926225 -92.49227 
L 336.673707 -94.496468 
L 337.42119 -94.301385 
L 338.168673 -92.101441 
L 338.916155 -90.0355 
L 339.663638 -90.234625 
L 340.411121 -94.761585 
L 341.158603 -93.955685 
L 341.906086 -93.275433 
L 342.653569 -94.030012 
L 343.401051 -97.23547 
L 344.148534 -93.514623 
L 344.896017 -96.68909 
L 345.643499 -94.816164 
L 346.390982 -94.83881 
L 347.138465 -89.436531 
L 347.885947 -93.331338 
L 348.63343 -96.012219 
L 349.380913 -90.081783 
L 350.128395 -94.472072 
L 350.875878 -95.066686 
L 351.623361 -97.086635 
L 352.370843 -97.428167 
L 353.118326 -93.449792 
L 353.865809 -96.788458 
L 354.613291 -96.921874 
L 355.360774 -95.974959 
L 356.108256 -96.388309 
L 356.855739 -99.542609 
L 357.603222 -95.690001 
L 358.350704 -99.219736 
L 359.098187 -100.635341 
L 359.84567 -101.255365 
L 360.593152 -99.352743 
L 361.340635 -96.181949 
L 362.088118 -98.057031 
L 362.8356 -95.142153 
L 363.583083 -97.258515 
L 364.330566 -98.586102 
L 365.078048 -97.993295 
L 365.825531 -98.792115 
L 366.573014 -100.573932 
L 367.320496 -98.355727 
L 368.067979 -101.392114 
L 368.815462 -100.06481 
L 369.562944 -100.09342 
L 370.310427 -99.444455 
L 371.05791 -101.592603 
L 371.805392 -103.894208 
L 372.552875 -99.971007 
L 373.300358 -97.841269 
L 374.04784 -102.490766 
L 374.795323 -103.239015 
L 375.542805 -101.970186 
L 376.290288 -100.538556 
L 377.037771 -102.070308 
L 377.785253 -103.214559 
L 378.532736 -106.925684 
L 379.280219 -108.082337 
L 380.027701 -103.015167 
L 380.775184 -103.594398 
L 381.522667 -108.167293 
L 382.270149 -105.84412 
L 383.017632 -109.015096 
L 383.765115 -108.03911 
L 384.512597 -107.160322 
L 385.26008 -108.006577 
L 386.007563 -107.561132 
L 386.755045 -113.723835 
L 387.502528 -113.463433 
L 388.250011 -111.52949 
L 388.997493 -117.506375 
L 389.744976 -113.355595 
L 390.492459 -115.982339 
L 391.239941 -117.987724 
L 391.987424 -117.450447 
L 392.734907 -119.509436 
L 393.482389 -117.482039 
L 394.229872 -121.221738 
L 394.977355 -119.58701 
L 395.724837 -122.97521 
L 396.47232 -120.504089 
L 397.219802 -123.389379 
L 397.967285 -124.747806 
L 398.714768 -129.513806 
L 399.46225 -127.917899 
L 400.209733 -125.464179 
L 400.957216 -126.632044 
L 401.704698 -127.441433 
L 402.452181 -129.580238 
L 403.199664 -133.657256 
L 403.947146 -132.238437 
L 404.694629 -133.600994 
L 405.442112 -138.751246 
L 406.189594 -138.63506 
L 406.937077 -142.608319 
L 407.68456 -140.302656 
L 408.432042 -147.617624 
L 409.179525 -142.451133 
L 409.927008 -143.337388 
L 410.67449 -144.966322 
L 411.421973 -148.460444 
L 412.169456 -150.570388 
L 412.916938 -149.874305 
L 413.664421 -152.011391 
L 414.411904 -155.271565 
L 415.159386 -155.214959 
L 415.906869 -157.518898 
L 416.654351 -164.075682 
L 417.401834 -162.193108 
L 418.149317 -165.287476 
L 418.896799 -163.818125 
L 419.644282 -167.443213 
L 420.391765 -170.555559 
L 421.139247 -168.801345 
L 421.88673 -170.933174 
L 422.634213 -175.997626 
L 423.381695 -176.151259 
L 424.129178 -179.697278 
L 424.876661 -181.585841 
L 425.624143 -182.752221 
L 426.371626 -185.267116 
L 427.119109 -186.73842 
L 427.866591 -190.862806 
L 428.614074 -188.52302 
L 429.361557 -190.414503 
L 430.109039 -194.077023 
L 430.856522 -194.586396 
L 431.604005 -196.258133 
L 432.351487 -198.09597 
L 433.09897 -202.017681 
L 433.846453 -203.338331 
L 434.593935 -205.081443 
L 435.341418 -207.707258 
L 436.0889 -211.766726 
L 436.836383 -214.076366 
L 437.583866 -217.376299 
L 438.331348 -215.101261 
L 439.078831 -218.743679 
L 439.826314 -223.690664 
L 440.573796 -221.708451 
L 441.321279 -226.160493 
L 442.068762 -226.722815 
L 442.816244 -231.123463 
L 443.563727 -231.282398 
L 444.31121 -231.650665 
L 445.058692 -236.166697 
L 445.806175 -236.400187 
L 446.553658 -239.982631 
L 447.30114 -243.649814 
L 448.048623 -241.693703 
L 448.796106 -247.805662 
L 449.543588 -247.777299 
L 450.291071 -249.54699 
L 451.038554 -253.269982 
L 451.786036 -255.567662 
L 452.533519 -259.300062 
L 453.281002 -259.160042 
L 454.028484 -263.620385 
L 454.775967 -265.613789 
L 455.52345 -268.629547 
L 456.270932 -267.945672 
L 457.018415 -270.995792 
L 457.765897 -274.380006 
L 458.51338 -279.793022 
L 459.260863 -277.058699 
L 460.008345 -280.799729 
L 460.755828 -281.359649 
L 461.503311 -291.68458 
L 462.250793 -299.734553 
L 462.998276 -291.826055 
L 463.745759 -302.836754 
L 464.493241 -300.521335 
L 465.240724 -298.996883 
L 465.988207 -315.537178 
L 466.735689 -310.208812 
L 467.483172 -305.308138 
L 468.230655 -309.891101 
L 468.978137 -310.700007 
L 469.72562 -316.648327 
L 470.473103 -317.129677 
L 471.220585 -325.308527 
L 471.968068 -319.741081 
L 472.715551 -321.315402 
L 473.463033 -322.570856 
L 474.210516 -330.701712 
L 474.957999 -328.917052 
L 475.705481 -330.221917 
L 476.452964 -333.844653 
L 477.200446 -335.494953 
L 477.947929 -338.865434 
L 478.695412 -341.636372 
L 479.442894 -339.81717 
L 480.190377 -340.742836 
L 480.93786 -342.486257 
L 481.685342 -348.665545 
L 482.432825 -350.135464 
L 483.180308 -353.560179 
L 483.92779 -353.623422 
L 484.675273 -355.785408 
L 485.422756 -359.796352 
L 485.422756 -372.813949 
L 485.422756 -372.813949 
L 484.675273 -374.433395 
L 483.92779 -371.207638 
L 483.180308 -373.327149 
L 482.432825 -371.726339 
L 481.685342 -366.860865 
L 480.93786 -367.932529 
L 480.190377 -362.705555 
L 479.442894 -360.274194 
L 478.695412 -359.795495 
L 477.947929 -357.997481 
L 477.200446 -354.414828 
L 476.452964 -351.006676 
L 475.705481 -347.905631 
L 474.957999 -348.179153 
L 474.210516 -345.443435 
L 473.463033 -346.295633 
L 472.715551 -340.24885 
L 471.968068 -340.247554 
L 471.220585 -336.97438 
L 470.473103 -332.800614 
L 469.72562 -331.120456 
L 468.978137 -326.979836 
L 468.230655 -324.276945 
L 467.483172 -323.688264 
L 466.735689 -321.836774 
L 465.988207 -320.708603 
L 465.240724 -318.904311 
L 464.493241 -314.852347 
L 463.745759 -309.387727 
L 462.998276 -310.474241 
L 462.250793 -308.465032 
L 461.503311 -304.4388 
L 460.755828 -300.142135 
L 460.008345 -301.922888 
L 459.260863 -297.93634 
L 458.51338 -295.61233 
L 457.765897 -300.387354 
L 457.018415 -290.237343 
L 456.270932 -286.341783 
L 455.52345 -286.694493 
L 454.775967 -286.819305 
L 454.028484 -287.926867 
L 453.281002 -279.961026 
L 452.533519 -275.858754 
L 451.786036 -273.922216 
L 451.038554 -268.522932 
L 450.291071 -267.262076 
L 449.543588 -264.487253 
L 448.796106 -265.962673 
L 448.048623 -265.328468 
L 447.30114 -258.608414 
L 446.553658 -257.826675 
L 445.806175 -257.158088 
L 445.058692 -252.639405 
L 444.31121 -248.952449 
L 443.563727 -247.769486 
L 442.816244 -245.100738 
L 442.068762 -243.583462 
L 441.321279 -237.976391 
L 440.573796 -238.301775 
L 439.826314 -234.294319 
L 439.078831 -235.52746 
L 438.331348 -231.237362 
L 437.583866 -229.482321 
L 436.836383 -226.874246 
L 436.0889 -220.278495 
L 435.341418 -218.019732 
L 434.593935 -215.581882 
L 433.846453 -215.303856 
L 433.09897 -213.93794 
L 432.351487 -211.097492 
L 431.604005 -209.998112 
L 430.856522 -209.722338 
L 430.109039 -201.7933 
L 429.361557 -202.588015 
L 428.614074 -199.432417 
L 427.866591 -197.939855 
L 427.119109 -193.409462 
L 426.371626 -192.647256 
L 425.624143 -194.583506 
L 424.876661 -191.592334 
L 424.129178 -185.824196 
L 423.381695 -183.716424 
L 422.634213 -180.759096 
L 421.88673 -179.940105 
L 421.139247 -177.523254 
L 420.391765 -173.950905 
L 419.644282 -173.321214 
L 418.896799 -172.808184 
L 418.149317 -170.966061 
L 417.401834 -167.318849 
L 416.654351 -166.683668 
L 415.906869 -164.214904 
L 415.159386 -161.007275 
L 414.411904 -161.382687 
L 413.664421 -157.842693 
L 412.916938 -155.74121 
L 412.169456 -154.541055 
L 411.421973 -155.090785 
L 410.67449 -152.37916 
L 409.927008 -149.579147 
L 409.179525 -147.352663 
L 408.432042 -145.86796 
L 407.68456 -142.69831 
L 406.937077 -142.682753 
L 406.189594 -137.749631 
L 405.442112 -136.3867 
L 404.694629 -137.772468 
L 403.947146 -134.305553 
L 403.199664 -135.794935 
L 402.452181 -138.110085 
L 401.704698 -135.515598 
L 400.957216 -132.619869 
L 400.209733 -130.364409 
L 399.46225 -129.568962 
L 398.714768 -130.669428 
L 397.967285 -129.102422 
L 397.219802 -125.777484 
L 396.47232 -124.783374 
L 395.724837 -127.426514 
L 394.977355 -128.243193 
L 394.229872 -122.715476 
L 393.482389 -122.740535 
L 392.734907 -121.434892 
L 391.987424 -120.06942 
L 391.239941 -117.144825 
L 390.492459 -116.62883 
L 389.744976 -115.541165 
L 388.997493 -114.937236 
L 388.250011 -117.114723 
L 387.502528 -116.151265 
L 386.755045 -113.862101 
L 386.007563 -113.528375 
L 385.26008 -115.026216 
L 384.512597 -115.326581 
L 383.765115 -115.162249 
L 383.017632 -113.204394 
L 382.270149 -115.359438 
L 381.522667 -112.610665 
L 380.775184 -113.532478 
L 380.027701 -113.891637 
L 379.280219 -110.644423 
L 378.532736 -109.039532 
L 377.785253 -109.541152 
L 377.037771 -105.747666 
L 376.290288 -106.795672 
L 375.542805 -105.870306 
L 374.795323 -106.888362 
L 374.04784 -106.495669 
L 373.300358 -108.376862 
L 372.552875 -107.44159 
L 371.805392 -104.525306 
L 371.05791 -104.645145 
L 370.310427 -106.302745 
L 369.562944 -106.756103 
L 368.815462 -109.52481 
L 368.067979 -106.486507 
L 367.320496 -105.983365 
L 366.573014 -105.906878 
L 365.825531 -105.492726 
L 365.078048 -104.163497 
L 364.330566 -108.320087 
L 363.583083 -105.689242 
L 362.8356 -102.480142 
L 362.088118 -102.869626 
L 361.340635 -106.970894 
L 360.593152 -103.623446 
L 359.84567 -100.791573 
L 359.098187 -99.621875 
L 358.350704 -99.423256 
L 357.603222 -97.436018 
L 356.855739 -97.123652 
L 356.108256 -95.311058 
L 355.360774 -95.014076 
L 354.613291 -95.757399 
L 353.865809 -94.713767 
L 353.118326 -93.275898 
L 352.370843 -93.034567 
L 351.623361 -93.449652 
L 350.875878 -92.632286 
L 350.128395 -91.538028 
L 349.380913 -92.441587 
L 348.63343 -90.887206 
L 347.885947 -90.509079 
L 347.138465 -88.634007 
L 346.390982 -90.572843 
L 345.643499 -88.441855 
L 344.896017 -89.245331 
L 344.148534 -87.957657 
L 343.401051 -89.363541 
L 342.653569 -88.927655 
L 341.906086 -89.527968 
L 341.158603 -86.870808 
L 340.411121 -89.415111 
L 339.663638 -87.387506 
L 338.916155 -87.011444 
L 338.168673 -88.132718 
L 337.42119 -86.045336 
L 336.673707 -85.336341 
L 335.926225 -86.391031 
L 335.178742 -84.549787 
L 334.43126 -85.335411 
L 333.683777 -84.799772 
L 332.936294 -88.127315 
L 332.188812 -86.170878 
L 331.441329 -86.69792 
L 330.693846 -86.605932 
L 329.946364 -88.719354 
L 329.198881 -88.898458 
L 328.451398 -89.033938 
L 327.703916 -89.284473 
L 326.956433 -88.230611 
L 326.20895 -86.836367 
L 325.461468 -92.270272 
L 324.713985 -91.154498 
L 323.966502 -91.624539 
L 323.21902 -90.648855 
L 322.471537 -91.941771 
L 321.724054 -94.208136 
L 320.976572 -95.323101 
L 320.229089 -93.943148 
L 319.481606 -93.585134 
L 318.734124 -91.891177 
L 317.986641 -92.886953 
L 317.239158 -92.430133 
L 316.491676 -92.328661 
L 315.744193 -91.967159 
L 314.99671 -93.264447 
L 314.249228 -91.588956 
L 313.501745 -91.729885 
L 312.754263 -91.032758 
L 312.00678 -90.77497 
L 311.259297 -90.127254 
L 310.511815 -90.58284 
L 309.764332 -91.242286 
L 309.016849 -90.268415 
L 308.269367 -89.93863 
L 307.521884 -91.582241 
L 306.774401 -91.349485 
L 306.026919 -90.204524 
L 305.279436 -89.929284 
L 304.531953 -95.408963 
L 303.784471 -97.045884 
L 303.036988 -94.923403 
L 302.289505 -96.029897 
L 301.542023 -96.573222 
L 300.79454 -97.096082 
L 300.047057 -96.409174 
L 299.299575 -95.977199 
L 298.552092 -96.677223 
L 297.804609 -95.555181 
L 297.057127 -95.839915 
L 296.309644 -94.618698 
L 295.562161 -95.868584 
L 294.814679 -93.636497 
L 294.067196 -93.602251 
L 293.319714 -91.910564 
L 292.572231 -167.136076 
L 291.824748 -164.199397 
L 291.077266 -144.048205 
L 290.329783 -143.69111 
L 289.5823 -159.538019 
L 288.834818 -157.693928 
L 288.087335 -162.811946 
L 287.339852 -160.262529 
L 286.59237 -157.692264 
L 285.844887 -156.810791 
L 285.097404 -159.072714 
L 284.349922 -156.746123 
L 283.602439 -159.257301 
L 282.854956 -157.037061 
L 282.107474 -157.20473 
L 281.359991 -158.711588 
L 280.612508 -177.447862 
L 279.865026 -176.530568 
L 279.117543 -169.302237 
L 278.37006 -167.227881 
L 277.622578 -167.422643 
L 276.875095 -163.083634 
L 276.127612 -160.277612 
L 275.38013 -156.720511 
L 274.632647 -155.07905 
L 273.885165 -153.235812 
L 273.137682 -151.552928 
L 272.390199 -147.82748 
L 271.642717 -145.654701 
L 270.895234 -144.738334 
L 270.147751 -140.949333 
L 269.400269 -140.510483 
L 268.652786 -140.909539 
L 267.905303 -137.98478 
L 267.157821 -135.861008 
L 266.410338 -133.956285 
L 265.662855 -133.337901 
L 264.915373 -131.208001 
L 264.16789 -130.714947 
L 263.420407 -127.836986 
L 262.672925 -127.262063 
L 261.925442 -125.935343 
L 261.177959 -125.368517 
L 260.430477 -125.030546 
L 259.682994 -125.732075 
L 258.935511 -125.182729 
L 258.188029 -126.180796 
L 257.440546 -124.80205 
L 256.693063 -123.283124 
L 255.945581 -122.740031 
L 255.198098 -123.270218 
L 254.450615 -122.701284 
L 253.703133 -123.754462 
L 252.95565 -121.126385 
L 252.208168 -120.536174 
L 251.460685 -120.03734 
L 250.713202 -118.155544 
L 249.96572 -117.676218 
L 249.218237 -116.115296 
L 248.470754 -115.520516 
L 247.723272 -114.950403 
L 246.975789 -112.55221 
L 246.228306 -111.915957 
L 245.480824 -109.585642 
L 244.733341 -109.293391 
L 243.985858 -107.594856 
L 243.238376 -106.903535 
L 242.490893 -106.543375 
L 241.74341 -106.038835 
L 240.995928 -104.486805 
L 240.248445 -103.507912 
L 239.500962 -104.741158 
L 238.75348 -112.513187 
L 238.005997 -126.688171 
L 237.258514 -152.792074 
L 236.511032 -151.5261 
L 235.763549 -142.603934 
L 235.016066 -142.605085 
L 234.268584 -142.457017 
L 233.521101 -140.011893 
L 232.773619 -135.593735 
L 232.026136 -134.047662 
L 231.278653 -135.195874 
L 230.531171 -131.838184 
L 229.783688 -127.032819 
L 229.036205 -125.379111 
L 228.288723 -124.523341 
L 227.54124 -123.62988 
L 226.793757 -120.049877 
L 226.046275 -119.117943 
L 225.298792 -115.676857 
L 224.551309 -114.700702 
L 223.803827 -112.454662 
L 223.056344 -111.563807 
L 222.308861 -109.6698 
L 221.561379 -107.549801 
L 220.813896 -105.344514 
L 220.066413 -105.707497 
L 219.318931 -102.28617 
L 218.571448 -101.26487 
L 217.823965 -100.907092 
L 217.076483 -100.096985 
L 216.329 -99.096384 
L 215.581517 -97.328816 
L 214.834035 -99.201723 
L 214.086552 -98.406072 
L 213.33907 -98.889342 
L 212.591587 -97.376995 
L 211.844104 -98.729124 
L 211.096622 -98.904868 
L 210.349139 -100.101041 
L 209.601656 -101.245073 
L 208.854174 -100.107292 
L 208.106691 -98.160593 
L 207.359208 -99.643595 
L 206.611726 -98.550631 
L 205.864243 -98.224098 
L 205.11676 -99.305462 
L 204.369278 -99.258967 
L 203.621795 -102.577506 
L 202.874312 -99.985308 
L 202.12683 -100.187263 
L 201.379347 -101.253619 
L 200.631864 -101.647759 
L 199.884382 -101.496555 
L 199.136899 -100.631263 
L 198.389416 -99.605899 
L 197.641934 -99.615596 
L 196.894451 -99.081627 
L 196.146968 -96.253387 
L 195.399486 -96.673102 
L 194.652003 -96.678149 
L 193.90452 -95.093759 
L 193.157038 -94.230569 
L 192.409555 -94.28345 
L 191.662073 -96.482329 
L 190.91459 -96.049349 
L 190.167107 -96.642996 
L 189.419625 -95.54608 
L 188.672142 -93.807481 
L 187.924659 -96.205731 
L 187.177177 -93.917762 
L 186.429694 -93.745459 
L 185.682211 -92.18861 
L 184.934729 -91.772397 
L 184.187246 -89.849116 
L 183.439763 -96.994292 
L 182.692281 -95.180202 
L 181.944798 -94.280234 
L 181.197315 -95.260375 
L 180.449833 -93.016863 
L 179.70235 -91.089475 
L 178.954867 -97.684831 
L 178.207385 -96.756995 
L 177.459902 -99.003321 
L 176.712419 -98.004093 
L 175.964937 -95.49422 
L 175.217454 -95.50713 
L 174.469971 -95.524323 
L 173.722489 -93.559974 
L 172.975006 -97.397493 
L 172.227524 -95.823329 
L 171.480041 -92.874564 
L 170.732558 -93.232403 
L 169.985076 -93.288391 
L 169.237593 -94.043436 
L 168.49011 -95.600187 
L 167.742628 -94.387731 
L 166.995145 -95.917257 
L 166.247662 -96.900004 
L 165.50018 -96.037181 
L 164.752697 -92.578606 
L 164.005214 -99.311698 
L 163.257732 -97.330742 
L 162.510249 -99.723147 
L 161.762766 -98.20901 
L 161.015284 -98.659184 
L 160.267801 -98.066842 
L 159.520318 -100.98429 
L 158.772836 -101.402371 
L 158.025353 -100.798915 
L 157.27787 -102.165063 
L 156.530388 -101.202399 
L 155.782905 -99.12164 
L 155.035422 -98.591192 
L 154.28794 -99.520358 
L 153.540457 -101.946467 
L 152.792975 -99.892678 
L 152.045492 -121.691348 
L 151.298009 -127.005488 
L 150.550527 -107.367175 
L 149.803044 -118.479722 
L 149.055561 -122.361933 
L 148.308079 -124.279656 
L 147.560596 -126.128595 
L 146.813113 -123.921943 
L 146.065631 -126.666476 
L 145.318148 -126.806665 
L 144.570665 -124.854958 
L 143.823183 -123.045474 
L 143.0757 -121.812114 
L 142.328217 -122.150927 
L 141.580735 -123.203592 
L 140.833252 -120.990182 
L 140.085769 -121.034177 
L 139.338287 -121.502027 
L 138.590804 -121.489166 
L 137.843321 -122.335738 
L 137.095839 -157.587473 
L 136.348356 -160.654833 
L 135.600873 -145.845238 
L 134.853391 -147.414715 
L 134.105908 -162.195151 
L 133.358425 -165.17555 
L 132.610943 -160.455363 
L 131.86346 -157.737249 
L 131.115978 -154.717864 
L 130.368495 -153.443161 
L 129.621012 -151.144594 
L 128.87353 -148.007099 
L 128.126047 -143.557688 
L 127.378564 -139.796656 
L 126.631082 -139.422798 
L 125.883599 -137.959427 
L 125.136116 -133.363518 
L 124.388634 -131.253265 
L 123.641151 -130.380872 
L 122.893668 -126.067764 
L 122.146186 -123.738672 
L 121.398703 -124.007146 
L 120.65122 -120.098809 
L 119.903738 -117.658892 
L 119.156255 -116.761672 
L 118.408772 -113.561504 
L 117.66129 -112.818086 
L 116.913807 -109.881734 
L 116.166324 -108.524488 
L 115.418842 -106.065643 
L 114.671359 -104.710894 
L 113.923876 -101.351578 
L 113.176394 -101.132589 
L 112.428911 -98.147688 
L 111.681429 -97.101532 
L 110.933946 -94.103877 
L 110.186463 -93.083358 
L 109.438981 -89.153067 
L 108.691498 -89.035697 
L 107.944015 -86.251146 
L 107.196533 -85.74134 
L 106.44905 -83.895138 
L 105.701567 -83.239347 
L 104.954085 -83.678003 
L 104.206602 -83.742824 
L 103.459119 -79.585668 
z
"/>
    </defs>
    <g clip-path="url(#p93a71625af)">
     <use xlink:href="#m1656f10a91" x="0" y="396.375781" style="fill-opacity: 0.08"/>
    </g>
   </g>
   <g id="matplotlib.axis_1">
    <g id="xtick_1">
     <g id="line2d_1">
      <defs>
       <path id="m97a7c72695" d="M 0 0 
L 0 3.5 
" style="stroke: #000000; stroke-width: 0.8"/>
      </defs>
      <g>
       <use xlink:href="#m97a7c72695" x="103.459119" y="331.5325" style="stroke: #000000; stroke-width: 0.8"/>
      </g>
     </g>
     <g id="text_1">
      <!-- 0 -->
      <g transform="translate(96.142244 356.008906) scale(0.23 -0.23)">
       <defs>
        <path id="DejaVuSans-30" d="M 2034 4250 
Q 1547 4250 1301 3770 
Q 1056 3291 1056 2328 
Q 1056 1369 1301 889 
Q 1547 409 2034 409 
Q 2525 409 2770 889 
Q 3016 1369 3016 2328 
Q 3016 3291 2770 3770 
Q 2525 4250 2034 4250 
z
M 2034 4750 
Q 2819 4750 3233 4129 
Q 3647 3509 3647 2328 
Q 3647 1150 3233 529 
Q 2819 -91 2034 -91 
Q 1250 -91 836 529 
Q 422 1150 422 2328 
Q 422 3509 836 4129 
Q 1250 4750 2034 4750 
z
" transform="scale(0.015625)"/>
       </defs>
       <use xlink:href="#DejaVuSans-30"/>
      </g>
     </g>
    </g>
    <g id="xtick_2">
     <g id="line2d_2">
      <g>
       <use xlink:href="#m97a7c72695" x="173.75055" y="331.5325" style="stroke: #000000; stroke-width: 0.8"/>
      </g>
     </g>
     <g id="text_2">
      <!-- 100 -->
      <g transform="translate(151.799925 356.008906) scale(0.23 -0.23)">
       <defs>
        <path id="DejaVuSans-31" d="M 794 531 
L 1825 531 
L 1825 4091 
L 703 3866 
L 703 4441 
L 1819 4666 
L 2450 4666 
L 2450 531 
L 3481 531 
L 3481 0 
L 794 0 
L 794 531 
z
" transform="scale(0.015625)"/>
       </defs>
       <use xlink:href="#DejaVuSans-31"/>
       <use xlink:href="#DejaVuSans-30" transform="translate(63.623047 0)"/>
       <use xlink:href="#DejaVuSans-30" transform="translate(127.246094 0)"/>
      </g>
     </g>
    </g>
    <g id="xtick_3">
     <g id="line2d_3">
      <g>
       <use xlink:href="#m97a7c72695" x="244.041981" y="331.5325" style="stroke: #000000; stroke-width: 0.8"/>
      </g>
     </g>
     <g id="text_3">
      <!-- 200 -->
      <g transform="translate(222.091356 356.008906) scale(0.23 -0.23)">
       <defs>
        <path id="DejaVuSans-32" d="M 1228 531 
L 3431 531 
L 3431 0 
L 469 0 
L 469 531 
Q 828 903 1448 1529 
Q 2069 2156 2228 2338 
Q 2531 2678 2651 2914 
Q 2772 3150 2772 3378 
Q 2772 3750 2511 3984 
Q 2250 4219 1831 4219 
Q 1534 4219 1204 4116 
Q 875 4013 500 3803 
L 500 4441 
Q 881 4594 1212 4672 
Q 1544 4750 1819 4750 
Q 2544 4750 2975 4387 
Q 3406 4025 3406 3419 
Q 3406 3131 3298 2873 
Q 3191 2616 2906 2266 
Q 2828 2175 2409 1742 
Q 1991 1309 1228 531 
z
" transform="scale(0.015625)"/>
       </defs>
       <use xlink:href="#DejaVuSans-32"/>
       <use xlink:href="#DejaVuSans-30" transform="translate(63.623047 0)"/>
       <use xlink:href="#DejaVuSans-30" transform="translate(127.246094 0)"/>
      </g>
     </g>
    </g>
    <g id="xtick_4">
     <g id="line2d_4">
      <g>
       <use xlink:href="#m97a7c72695" x="314.333412" y="331.5325" style="stroke: #000000; stroke-width: 0.8"/>
      </g>
     </g>
     <g id="text_4">
      <!-- 300 -->
      <g transform="translate(292.382787 356.008906) scale(0.23 -0.23)">
       <defs>
        <path id="DejaVuSans-33" d="M 2597 2516 
Q 3050 2419 3304 2112 
Q 3559 1806 3559 1356 
Q 3559 666 3084 287 
Q 2609 -91 1734 -91 
Q 1441 -91 1130 -33 
Q 819 25 488 141 
L 488 750 
Q 750 597 1062 519 
Q 1375 441 1716 441 
Q 2309 441 2620 675 
Q 2931 909 2931 1356 
Q 2931 1769 2642 2001 
Q 2353 2234 1838 2234 
L 1294 2234 
L 1294 2753 
L 1863 2753 
Q 2328 2753 2575 2939 
Q 2822 3125 2822 3475 
Q 2822 3834 2567 4026 
Q 2313 4219 1838 4219 
Q 1578 4219 1281 4162 
Q 984 4106 628 3988 
L 628 4550 
Q 988 4650 1302 4700 
Q 1616 4750 1894 4750 
Q 2613 4750 3031 4423 
Q 3450 4097 3450 3541 
Q 3450 3153 3228 2886 
Q 3006 2619 2597 2516 
z
" transform="scale(0.015625)"/>
       </defs>
       <use xlink:href="#DejaVuSans-33"/>
       <use xlink:href="#DejaVuSans-30" transform="translate(63.623047 0)"/>
       <use xlink:href="#DejaVuSans-30" transform="translate(127.246094 0)"/>
      </g>
     </g>
    </g>
    <g id="xtick_5">
     <g id="line2d_5">
      <g>
       <use xlink:href="#m97a7c72695" x="384.624844" y="331.5325" style="stroke: #000000; stroke-width: 0.8"/>
      </g>
     </g>
     <g id="text_5">
      <!-- 400 -->
      <g transform="translate(362.674219 356.008906) scale(0.23 -0.23)">
       <defs>
        <path id="DejaVuSans-34" d="M 2419 4116 
L 825 1625 
L 2419 1625 
L 2419 4116 
z
M 2253 4666 
L 3047 4666 
L 3047 1625 
L 3713 1625 
L 3713 1100 
L 3047 1100 
L 3047 0 
L 2419 0 
L 2419 1100 
L 313 1100 
L 313 1709 
L 2253 4666 
z
" transform="scale(0.015625)"/>
       </defs>
       <use xlink:href="#DejaVuSans-34"/>
       <use xlink:href="#DejaVuSans-30" transform="translate(63.623047 0)"/>
       <use xlink:href="#DejaVuSans-30" transform="translate(127.246094 0)"/>
      </g>
     </g>
    </g>
    <g id="xtick_6">
     <g id="line2d_6">
      <g>
       <use xlink:href="#m97a7c72695" x="454.916275" y="331.5325" style="stroke: #000000; stroke-width: 0.8"/>
      </g>
     </g>
     <g id="text_6">
      <!-- 500 -->
      <g transform="translate(432.96565 356.008906) scale(0.23 -0.23)">
       <defs>
        <path id="DejaVuSans-35" d="M 691 4666 
L 3169 4666 
L 3169 4134 
L 1269 4134 
L 1269 2991 
Q 1406 3038 1543 3061 
Q 1681 3084 1819 3084 
Q 2600 3084 3056 2656 
Q 3513 2228 3513 1497 
Q 3513 744 3044 326 
Q 2575 -91 1722 -91 
Q 1428 -91 1123 -41 
Q 819 9 494 109 
L 494 744 
Q 775 591 1075 516 
Q 1375 441 1709 441 
Q 2250 441 2565 725 
Q 2881 1009 2881 1497 
Q 2881 1984 2565 2268 
Q 2250 2553 1709 2553 
Q 1456 2553 1204 2497 
Q 953 2441 691 2322 
L 691 4666 
z
" transform="scale(0.015625)"/>
       </defs>
       <use xlink:href="#DejaVuSans-35"/>
       <use xlink:href="#DejaVuSans-30" transform="translate(63.623047 0)"/>
       <use xlink:href="#DejaVuSans-30" transform="translate(127.246094 0)"/>
      </g>
     </g>
    </g>
    <g id="text_7">
     <!-- Extension (Å) -->
     <g transform="translate(217.489766 384.3925) scale(0.23 -0.23)">
      <defs>
       <path id="DejaVuSans-45" d="M 628 4666 
L 3578 4666 
L 3578 4134 
L 1259 4134 
L 1259 2753 
L 3481 2753 
L 3481 2222 
L 1259 2222 
L 1259 531 
L 3634 531 
L 3634 0 
L 628 0 
L 628 4666 
z
" transform="scale(0.015625)"/>
       <path id="DejaVuSans-78" d="M 3513 3500 
L 2247 1797 
L 3578 0 
L 2900 0 
L 1881 1375 
L 863 0 
L 184 0 
L 1544 1831 
L 300 3500 
L 978 3500 
L 1906 2253 
L 2834 3500 
L 3513 3500 
z
" transform="scale(0.015625)"/>
       <path id="DejaVuSans-74" d="M 1172 4494 
L 1172 3500 
L 2356 3500 
L 2356 3053 
L 1172 3053 
L 1172 1153 
Q 1172 725 1289 603 
Q 1406 481 1766 481 
L 2356 481 
L 2356 0 
L 1766 0 
Q 1100 0 847 248 
Q 594 497 594 1153 
L 594 3053 
L 172 3053 
L 172 3500 
L 594 3500 
L 594 4494 
L 1172 4494 
z
" transform="scale(0.015625)"/>
       <path id="DejaVuSans-65" d="M 3597 1894 
L 3597 1613 
L 953 1613 
Q 991 1019 1311 708 
Q 1631 397 2203 397 
Q 2534 397 2845 478 
Q 3156 559 3463 722 
L 3463 178 
Q 3153 47 2828 -22 
Q 2503 -91 2169 -91 
Q 1331 -91 842 396 
Q 353 884 353 1716 
Q 353 2575 817 3079 
Q 1281 3584 2069 3584 
Q 2775 3584 3186 3129 
Q 3597 2675 3597 1894 
z
M 3022 2063 
Q 3016 2534 2758 2815 
Q 2500 3097 2075 3097 
Q 1594 3097 1305 2825 
Q 1016 2553 972 2059 
L 3022 2063 
z
" transform="scale(0.015625)"/>
       <path id="DejaVuSans-6e" d="M 3513 2113 
L 3513 0 
L 2938 0 
L 2938 2094 
Q 2938 2591 2744 2837 
Q 2550 3084 2163 3084 
Q 1697 3084 1428 2787 
Q 1159 2491 1159 1978 
L 1159 0 
L 581 0 
L 581 3500 
L 1159 3500 
L 1159 2956 
Q 1366 3272 1645 3428 
Q 1925 3584 2291 3584 
Q 2894 3584 3203 3211 
Q 3513 2838 3513 2113 
z
" transform="scale(0.015625)"/>
       <path id="DejaVuSans-73" d="M 2834 3397 
L 2834 2853 
Q 2591 2978 2328 3040 
Q 2066 3103 1784 3103 
Q 1356 3103 1142 2972 
Q 928 2841 928 2578 
Q 928 2378 1081 2264 
Q 1234 2150 1697 2047 
L 1894 2003 
Q 2506 1872 2764 1633 
Q 3022 1394 3022 966 
Q 3022 478 2636 193 
Q 2250 -91 1575 -91 
Q 1294 -91 989 -36 
Q 684 19 347 128 
L 347 722 
Q 666 556 975 473 
Q 1284 391 1588 391 
Q 1994 391 2212 530 
Q 2431 669 2431 922 
Q 2431 1156 2273 1281 
Q 2116 1406 1581 1522 
L 1381 1569 
Q 847 1681 609 1914 
Q 372 2147 372 2553 
Q 372 3047 722 3315 
Q 1072 3584 1716 3584 
Q 2034 3584 2315 3537 
Q 2597 3491 2834 3397 
z
" transform="scale(0.015625)"/>
       <path id="DejaVuSans-69" d="M 603 3500 
L 1178 3500 
L 1178 0 
L 603 0 
L 603 3500 
z
M 603 4863 
L 1178 4863 
L 1178 4134 
L 603 4134 
L 603 4863 
z
" transform="scale(0.015625)"/>
       <path id="DejaVuSans-6f" d="M 1959 3097 
Q 1497 3097 1228 2736 
Q 959 2375 959 1747 
Q 959 1119 1226 758 
Q 1494 397 1959 397 
Q 2419 397 2687 759 
Q 2956 1122 2956 1747 
Q 2956 2369 2687 2733 
Q 2419 3097 1959 3097 
z
M 1959 3584 
Q 2709 3584 3137 3096 
Q 3566 2609 3566 1747 
Q 3566 888 3137 398 
Q 2709 -91 1959 -91 
Q 1206 -91 779 398 
Q 353 888 353 1747 
Q 353 2609 779 3096 
Q 1206 3584 1959 3584 
z
" transform="scale(0.015625)"/>
       <path id="DejaVuSans-20" transform="scale(0.015625)"/>
       <path id="DejaVuSans-28" d="M 1984 4856 
Q 1566 4138 1362 3434 
Q 1159 2731 1159 2009 
Q 1159 1288 1364 580 
Q 1569 -128 1984 -844 
L 1484 -844 
Q 1016 -109 783 600 
Q 550 1309 550 2009 
Q 550 2706 781 3412 
Q 1013 4119 1484 4856 
L 1984 4856 
z
" transform="scale(0.015625)"/>
       <path id="DejaVuSans-c5" d="M 2663 5081 
Q 2663 5278 2523 5417 
Q 2384 5556 2188 5556 
Q 1988 5556 1852 5420 
Q 1716 5284 1716 5081 
Q 1716 4884 1853 4746 
Q 1991 4609 2188 4609 
Q 2384 4609 2523 4746 
Q 2663 4884 2663 5081 
z
M 2188 4044 
L 1338 1722 
L 3041 1722 
L 2188 4044 
z
M 1716 4366 
Q 1525 4494 1428 4673 
Q 1331 4853 1331 5081 
Q 1331 5441 1579 5691 
Q 1828 5941 2188 5941 
Q 2544 5941 2795 5689 
Q 3047 5438 3047 5081 
Q 3047 4863 2948 4678 
Q 2850 4494 2663 4366 
L 4325 0 
L 3669 0 
L 3244 1197 
L 1141 1197 
L 716 0 
L 50 0 
L 1716 4366 
z
" transform="scale(0.015625)"/>
       <path id="DejaVuSans-29" d="M 513 4856 
L 1013 4856 
Q 1481 4119 1714 3412 
Q 1947 2706 1947 2009 
Q 1947 1309 1714 600 
Q 1481 -109 1013 -844 
L 513 -844 
Q 928 -128 1133 580 
Q 1338 1288 1338 2009 
Q 1338 2731 1133 3434 
Q 928 4138 513 4856 
z
" transform="scale(0.015625)"/>
      </defs>
      <use xlink:href="#DejaVuSans-45"/>
      <use xlink:href="#DejaVuSans-78" transform="translate(63.183594 0)"/>
      <use xlink:href="#DejaVuSans-74" transform="translate(122.363281 0)"/>
      <use xlink:href="#DejaVuSans-65" transform="translate(161.572266 0)"/>
      <use xlink:href="#DejaVuSans-6e" transform="translate(223.095703 0)"/>
      <use xlink:href="#DejaVuSans-73" transform="translate(286.474609 0)"/>
      <use xlink:href="#DejaVuSans-69" transform="translate(338.574219 0)"/>
      <use xlink:href="#DejaVuSans-6f" transform="translate(366.357422 0)"/>
      <use xlink:href="#DejaVuSans-6e" transform="translate(427.539062 0)"/>
      <use xlink:href="#DejaVuSans-20" transform="translate(490.917969 0)"/>
      <use xlink:href="#DejaVuSans-28" transform="translate(522.705078 0)"/>
      <use xlink:href="#DejaVuSans-c5" transform="translate(561.71875 0)"/>
      <use xlink:href="#DejaVuSans-29" transform="translate(630.126953 0)"/>
     </g>
    </g>
   </g>
   <g id="matplotlib.axis_2">
    <g id="ytick_1">
     <g id="line2d_7">
      <path d="M 84.360938 319.310649 
L 504.520937 319.310649 
" clip-path="url(#p93a71625af)" style="fill: none; stroke-dasharray: 1.85,0.8; stroke-dashoffset: 0; stroke: #b0b0b0; stroke-opacity: 0.6; stroke-width: 0.5"/>
     </g>
     <g id="line2d_8">
      <defs>
       <path id="mb3f0109c8a" d="M 0 0 
L -3.5 0 
" style="stroke: #000000; stroke-width: 0.8"/>
      </defs>
      <g>
       <use xlink:href="#mb3f0109c8a" x="84.360938" y="319.310649" style="stroke: #000000; stroke-width: 0.8"/>
      </g>
     </g>
     <g id="text_8">
      <!-- 0 -->
      <g transform="translate(62.727188 328.048852) scale(0.23 -0.23)">
       <use xlink:href="#DejaVuSans-30"/>
      </g>
     </g>
    </g>
    <g id="ytick_2">
     <g id="line2d_9">
      <path d="M 84.360938 253.998635 
L 504.520937 253.998635 
" clip-path="url(#p93a71625af)" style="fill: none; stroke-dasharray: 1.85,0.8; stroke-dashoffset: 0; stroke: #b0b0b0; stroke-opacity: 0.6; stroke-width: 0.5"/>
     </g>
     <g id="line2d_10">
      <g>
       <use xlink:href="#mb3f0109c8a" x="84.360938" y="253.998635" style="stroke: #000000; stroke-width: 0.8"/>
      </g>
     </g>
     <g id="text_9">
      <!-- 100 -->
      <g transform="translate(33.459688 262.736838) scale(0.23 -0.23)">
       <use xlink:href="#DejaVuSans-31"/>
       <use xlink:href="#DejaVuSans-30" transform="translate(63.623047 0)"/>
       <use xlink:href="#DejaVuSans-30" transform="translate(127.246094 0)"/>
      </g>
     </g>
    </g>
    <g id="ytick_3">
     <g id="line2d_11">
      <path d="M 84.360938 188.686621 
L 504.520937 188.686621 
" clip-path="url(#p93a71625af)" style="fill: none; stroke-dasharray: 1.85,0.8; stroke-dashoffset: 0; stroke: #b0b0b0; stroke-opacity: 0.6; stroke-width: 0.5"/>
     </g>
     <g id="line2d_12">
      <g>
       <use xlink:href="#mb3f0109c8a" x="84.360938" y="188.686621" style="stroke: #000000; stroke-width: 0.8"/>
      </g>
     </g>
     <g id="text_10">
      <!-- 200 -->
      <g transform="translate(33.459688 197.424824) scale(0.23 -0.23)">
       <use xlink:href="#DejaVuSans-32"/>
       <use xlink:href="#DejaVuSans-30" transform="translate(63.623047 0)"/>
       <use xlink:href="#DejaVuSans-30" transform="translate(127.246094 0)"/>
      </g>
     </g>
    </g>
    <g id="ytick_4">
     <g id="line2d_13">
      <path d="M 84.360938 123.374607 
L 504.520937 123.374607 
" clip-path="url(#p93a71625af)" style="fill: none; stroke-dasharray: 1.85,0.8; stroke-dashoffset: 0; stroke: #b0b0b0; stroke-opacity: 0.6; stroke-width: 0.5"/>
     </g>
     <g id="line2d_14">
      <g>
       <use xlink:href="#mb3f0109c8a" x="84.360938" y="123.374607" style="stroke: #000000; stroke-width: 0.8"/>
      </g>
     </g>
     <g id="text_11">
      <!-- 300 -->
      <g transform="translate(33.459688 132.11281) scale(0.23 -0.23)">
       <use xlink:href="#DejaVuSans-33"/>
       <use xlink:href="#DejaVuSans-30" transform="translate(63.623047 0)"/>
       <use xlink:href="#DejaVuSans-30" transform="translate(127.246094 0)"/>
      </g>
     </g>
    </g>
    <g id="ytick_5">
     <g id="line2d_15">
      <path d="M 84.360938 58.062593 
L 504.520937 58.062593 
" clip-path="url(#p93a71625af)" style="fill: none; stroke-dasharray: 1.85,0.8; stroke-dashoffset: 0; stroke: #b0b0b0; stroke-opacity: 0.6; stroke-width: 0.5"/>
     </g>
     <g id="line2d_16">
      <g>
       <use xlink:href="#mb3f0109c8a" x="84.360938" y="58.062593" style="stroke: #000000; stroke-width: 0.8"/>
      </g>
     </g>
     <g id="text_12">
      <!-- 400 -->
      <g transform="translate(33.459688 66.800796) scale(0.23 -0.23)">
       <use xlink:href="#DejaVuSans-34"/>
       <use xlink:href="#DejaVuSans-30" transform="translate(63.623047 0)"/>
       <use xlink:href="#DejaVuSans-30" transform="translate(127.246094 0)"/>
      </g>
     </g>
    </g>
    <g id="text_13">
     <!-- Force (pN) -->
     <g transform="translate(24.676406 229.000938) rotate(-90) scale(0.23 -0.23)">
      <defs>
       <path id="DejaVuSans-46" d="M 628 4666 
L 3309 4666 
L 3309 4134 
L 1259 4134 
L 1259 2759 
L 3109 2759 
L 3109 2228 
L 1259 2228 
L 1259 0 
L 628 0 
L 628 4666 
z
" transform="scale(0.015625)"/>
       <path id="DejaVuSans-72" d="M 2631 2963 
Q 2534 3019 2420 3045 
Q 2306 3072 2169 3072 
Q 1681 3072 1420 2755 
Q 1159 2438 1159 1844 
L 1159 0 
L 581 0 
L 581 3500 
L 1159 3500 
L 1159 2956 
Q 1341 3275 1631 3429 
Q 1922 3584 2338 3584 
Q 2397 3584 2469 3576 
Q 2541 3569 2628 3553 
L 2631 2963 
z
" transform="scale(0.015625)"/>
       <path id="DejaVuSans-63" d="M 3122 3366 
L 3122 2828 
Q 2878 2963 2633 3030 
Q 2388 3097 2138 3097 
Q 1578 3097 1268 2742 
Q 959 2388 959 1747 
Q 959 1106 1268 751 
Q 1578 397 2138 397 
Q 2388 397 2633 464 
Q 2878 531 3122 666 
L 3122 134 
Q 2881 22 2623 -34 
Q 2366 -91 2075 -91 
Q 1284 -91 818 406 
Q 353 903 353 1747 
Q 353 2603 823 3093 
Q 1294 3584 2113 3584 
Q 2378 3584 2631 3529 
Q 2884 3475 3122 3366 
z
" transform="scale(0.015625)"/>
       <path id="DejaVuSans-70" d="M 1159 525 
L 1159 -1331 
L 581 -1331 
L 581 3500 
L 1159 3500 
L 1159 2969 
Q 1341 3281 1617 3432 
Q 1894 3584 2278 3584 
Q 2916 3584 3314 3078 
Q 3713 2572 3713 1747 
Q 3713 922 3314 415 
Q 2916 -91 2278 -91 
Q 1894 -91 1617 61 
Q 1341 213 1159 525 
z
M 3116 1747 
Q 3116 2381 2855 2742 
Q 2594 3103 2138 3103 
Q 1681 3103 1420 2742 
Q 1159 2381 1159 1747 
Q 1159 1113 1420 752 
Q 1681 391 2138 391 
Q 2594 391 2855 752 
Q 3116 1113 3116 1747 
z
" transform="scale(0.015625)"/>
       <path id="DejaVuSans-4e" d="M 628 4666 
L 1478 4666 
L 3547 763 
L 3547 4666 
L 4159 4666 
L 4159 0 
L 3309 0 
L 1241 3903 
L 1241 0 
L 628 0 
L 628 4666 
z
" transform="scale(0.015625)"/>
      </defs>
      <use xlink:href="#DejaVuSans-46"/>
      <use xlink:href="#DejaVuSans-6f" transform="translate(53.894531 0)"/>
      <use xlink:href="#DejaVuSans-72" transform="translate(115.076172 0)"/>
      <use xlink:href="#DejaVuSans-63" transform="translate(153.939453 0)"/>
      <use xlink:href="#DejaVuSans-65" transform="translate(208.919922 0)"/>
      <use xlink:href="#DejaVuSans-20" transform="translate(270.443359 0)"/>
      <use xlink:href="#DejaVuSans-28" transform="translate(302.230469 0)"/>
      <use xlink:href="#DejaVuSans-70" transform="translate(341.244141 0)"/>
      <use xlink:href="#DejaVuSans-4e" transform="translate(404.720703 0)"/>
      <use xlink:href="#DejaVuSans-29" transform="translate(479.525391 0)"/>
     </g>
    </g>
   </g>
   <g id="line2d_17">
    <path d="M 103.459119 314.057491 
L 104.206602 308.737319 
L 104.954085 308.02262 
L 105.701567 310.074505 
L 106.44905 305.424566 
L 107.196533 304.771832 
L 107.944015 303.336188 
L 108.691498 303.578057 
L 109.438981 300.301331 
L 110.186463 297.703954 
L 110.933946 291.954686 
L 111.681429 292.671054 
L 112.428911 289.304454 
L 113.176394 289.780342 
L 113.923876 287.104419 
L 115.418842 282.36592 
L 116.166324 279.020996 
L 116.913807 278.821558 
L 117.66129 275.518638 
L 119.156255 271.38616 
L 119.903738 268.313477 
L 120.65122 266.865035 
L 121.398703 262.901692 
L 122.146186 262.375287 
L 122.893668 259.839858 
L 123.641151 256.406363 
L 124.388634 255.182141 
L 125.136116 252.551368 
L 125.883599 251.854882 
L 126.631082 247.39561 
L 127.378564 245.452469 
L 128.126047 246.181832 
L 128.87353 241.543679 
L 129.621012 237.654865 
L 130.368495 239.913908 
L 131.115978 234.382946 
L 131.86346 232.068962 
L 132.610943 228.297217 
L 133.358425 222.457285 
L 134.105908 221.027738 
L 135.600873 217.191375 
L 136.348356 217.326043 
L 137.095839 213.659407 
L 137.843321 214.045623 
L 138.590804 207.5381 
L 139.338287 206.293798 
L 140.085769 200.021747 
L 140.833252 202.344651 
L 141.580735 196.359367 
L 142.328217 196.220115 
L 143.0757 195.645735 
L 144.570665 188.664088 
L 145.318148 189.513794 
L 146.065631 182.911497 
L 146.813113 182.503775 
L 147.560596 176.372472 
L 148.308079 270.293532 
L 149.055561 307.574536 
L 149.803044 303.544008 
L 150.550527 306.860903 
L 151.298009 307.769306 
L 152.045492 305.638613 
L 152.792975 306.880587 
L 153.540457 308.503251 
L 154.28794 306.801992 
L 155.035422 306.248322 
L 155.782905 307.68023 
L 156.530388 305.42368 
L 157.27787 310.512451 
L 158.025353 304.754643 
L 158.772836 308.05853 
L 159.520318 307.042819 
L 160.267801 304.703304 
L 161.015284 306.767811 
L 161.762766 305.021311 
L 163.257732 308.13964 
L 164.005214 305.709891 
L 164.752697 304.521042 
L 165.50018 304.040978 
L 166.247662 302.357494 
L 167.742628 304.115483 
L 168.49011 304.304523 
L 169.237593 304.076855 
L 169.985076 299.37859 
L 170.732558 302.684067 
L 171.480041 303.008315 
L 172.227524 300.420075 
L 172.975006 300.509781 
L 173.722489 301.087439 
L 174.469971 295.863318 
L 175.217454 299.028936 
L 175.964937 293.306509 
L 176.712419 295.022552 
L 177.459902 294.809385 
L 178.207385 293.887283 
L 178.954867 290.476637 
L 179.70235 289.888432 
L 180.449833 293.198403 
L 181.197315 289.443602 
L 181.944798 287.596726 
L 182.692281 289.615226 
L 183.439763 285.29504 
L 184.187246 281.943195 
L 184.934729 282.472111 
L 185.682211 285.030489 
L 186.429694 279.617772 
L 187.177177 280.258776 
L 187.924659 278.499315 
L 188.672142 275.511592 
L 189.419625 275.091547 
L 190.167107 276.729684 
L 190.91459 270.74322 
L 191.662073 272.905818 
L 192.409555 273.89657 
L 193.157038 271.185752 
L 193.90452 275.25394 
L 194.652003 284.251267 
L 195.399486 284.113008 
L 196.146968 292.738311 
L 196.894451 302.842689 
L 197.641934 308.52439 
L 198.389416 306.695991 
L 199.136899 301.094217 
L 199.884382 305.031657 
L 200.631864 304.705238 
L 201.379347 303.29146 
L 202.12683 304.0548 
L 202.874312 305.096391 
L 203.621795 304.5026 
L 204.369278 304.441983 
L 205.11676 303.900094 
L 205.864243 300.539152 
L 206.611726 306.745249 
L 207.359208 302.360751 
L 208.854174 305.309711 
L 209.601656 304.931599 
L 210.349139 302.850297 
L 211.096622 301.960143 
L 211.844104 303.513104 
L 212.591587 305.458883 
L 213.33907 300.645692 
L 214.086552 301.90786 
L 214.834035 301.904274 
L 215.581517 303.251743 
L 216.329 303.815098 
L 217.076483 298.718639 
L 217.823965 298.659631 
L 218.571448 303.560664 
L 219.318931 304.278749 
L 220.066413 304.34703 
L 220.813896 302.80169 
L 221.561379 305.481446 
L 222.308861 306.54235 
L 223.056344 307.227358 
L 223.803827 307.288533 
L 224.551309 305.715335 
L 225.298792 307.837016 
L 226.046275 308.069352 
L 226.793757 307.343496 
L 227.54124 307.173112 
L 228.288723 308.388551 
L 229.036205 303.343086 
L 229.783688 303.579941 
L 230.531171 302.486863 
L 231.278653 305.142272 
L 232.026136 306.591158 
L 232.773619 304.400069 
L 233.521101 305.310612 
L 234.268584 299.327299 
L 235.016066 302.729227 
L 235.763549 300.210247 
L 236.511032 300.30674 
L 237.258514 300.949609 
L 238.005997 299.79937 
L 238.75348 300.701954 
L 239.500962 298.81055 
L 240.248445 298.494167 
L 240.995928 297.946479 
L 241.74341 301.013658 
L 242.490893 304.81664 
L 243.238376 304.303503 
L 243.985858 297.347743 
L 244.733341 305.044888 
L 245.480824 302.475804 
L 246.228306 301.31206 
L 246.975789 298.066792 
L 247.723272 295.540814 
L 248.470754 296.857942 
L 249.218237 297.919018 
L 249.96572 300.422919 
L 250.713202 296.49277 
L 251.460685 300.362223 
L 252.208168 297.455107 
L 252.95565 295.847692 
L 253.703133 295.673385 
L 254.450615 293.611192 
L 255.198098 296.519765 
L 255.945581 291.542225 
L 256.693063 294.159081 
L 257.440546 289.409995 
L 258.188029 291.298279 
L 258.935511 292.757602 
L 259.682994 292.559305 
L 260.430477 286.76809 
L 261.925442 291.143879 
L 262.672925 290.324439 
L 263.420407 288.049478 
L 264.16789 290.852035 
L 264.915373 282.136512 
L 265.662855 282.753979 
L 266.410338 283.602295 
L 267.157821 281.410519 
L 269.400269 279.427004 
L 270.147751 278.777965 
L 270.895234 280.036389 
L 271.642717 277.914877 
L 272.390199 273.231446 
L 273.137682 272.985131 
L 273.885165 275.059677 
L 274.632647 272.945088 
L 275.38013 268.990261 
L 276.127612 266.692422 
L 276.875095 265.805474 
L 277.622578 264.294256 
L 278.37006 262.043067 
L 279.117543 258.717337 
L 279.865026 257.06454 
L 280.612508 258.72829 
L 281.359991 257.344959 
L 282.107474 254.448691 
L 282.854956 250.493032 
L 283.602439 253.168243 
L 284.349922 271.672303 
L 285.097404 299.011788 
L 285.844887 302.131129 
L 287.339852 304.355687 
L 288.087335 306.323513 
L 288.834818 302.640444 
L 289.5823 305.917327 
L 290.329783 308.047152 
L 291.077266 303.396352 
L 291.824748 304.484663 
L 292.572231 304.596093 
L 293.319714 304.257387 
L 294.067196 301.150165 
L 294.814679 303.99757 
L 295.562161 307.433078 
L 296.309644 305.832691 
L 297.057127 305.589463 
L 297.804609 306.215663 
L 298.552092 309.695737 
L 299.299575 307.319736 
L 300.047057 306.914132 
L 301.542023 309.557146 
L 302.289505 306.878251 
L 303.036988 304.995733 
L 303.784471 308.964858 
L 304.531953 307.157499 
L 306.026919 308.137592 
L 306.774401 310.181629 
L 307.521884 310.437644 
L 308.269367 309.415812 
L 309.016849 306.681229 
L 309.764332 307.230993 
L 310.511815 306.215447 
L 311.259297 307.446603 
L 312.00678 307.116837 
L 312.754263 305.638528 
L 313.501745 306.152945 
L 314.249228 307.491869 
L 314.99671 310.996244 
L 315.744193 307.297126 
L 316.491676 308.919082 
L 317.239158 306.754213 
L 317.986641 307.113858 
L 318.734124 308.145392 
L 319.481606 307.831744 
L 320.229089 307.351359 
L 320.976572 308.016321 
L 321.724054 305.835626 
L 322.471537 305.697884 
L 323.21902 307.144517 
L 323.966502 306.145725 
L 324.713985 306.300273 
L 325.461468 304.873442 
L 326.20895 307.59448 
L 326.956433 304.852078 
L 327.703916 304.270137 
L 328.451398 305.407511 
L 329.198881 304.508306 
L 329.946364 304.192078 
L 330.693846 302.46595 
L 331.441329 302.804199 
L 332.188812 303.55946 
L 332.936294 302.300986 
L 333.683777 302.544488 
L 334.43126 307.763354 
L 335.178742 307.581625 
L 335.926225 303.883511 
L 336.673707 301.879313 
L 337.42119 302.074396 
L 338.916155 306.340282 
L 339.663638 306.141156 
L 340.411121 301.614196 
L 341.906086 303.100348 
L 342.653569 302.34577 
L 343.401051 299.140311 
L 344.148534 302.861158 
L 344.896017 299.686691 
L 345.643499 301.559617 
L 346.390982 301.536971 
L 347.138465 306.93925 
L 347.885947 303.044443 
L 348.63343 300.363562 
L 349.380913 306.293998 
L 350.128395 301.903709 
L 350.875878 301.309095 
L 351.623361 299.289146 
L 352.370843 298.947615 
L 353.118326 302.92599 
L 353.865809 299.587323 
L 354.613291 299.453907 
L 355.360774 300.400822 
L 356.108256 299.987472 
L 356.855739 296.833172 
L 357.603222 300.68578 
L 358.350704 297.156045 
L 359.098187 295.74044 
L 359.84567 295.120416 
L 360.593152 297.023039 
L 361.340635 300.193832 
L 362.088118 298.31875 
L 362.8356 301.233629 
L 363.583083 299.117267 
L 364.330566 297.78968 
L 365.078048 298.382487 
L 365.825531 297.583666 
L 366.573014 295.801849 
L 367.320496 298.020054 
L 368.067979 294.983668 
L 368.815462 296.310971 
L 369.562944 296.282361 
L 370.310427 296.931326 
L 371.805392 292.481574 
L 372.552875 296.404774 
L 373.300358 298.534513 
L 374.04784 293.885016 
L 374.795323 293.136767 
L 376.290288 295.837225 
L 377.037771 294.305474 
L 377.785253 293.161223 
L 378.532736 289.450097 
L 379.280219 288.293444 
L 380.027701 293.360614 
L 380.775184 292.781383 
L 381.522667 288.208488 
L 382.270149 290.531661 
L 383.017632 287.360686 
L 384.512597 289.21546 
L 385.26008 288.369204 
L 386.007563 288.814649 
L 386.755045 282.651947 
L 387.502528 282.912349 
L 388.250011 284.846291 
L 388.997493 278.869406 
L 389.744976 283.020186 
L 390.492459 280.393442 
L 391.239941 278.388057 
L 391.987424 278.925334 
L 392.734907 276.866346 
L 393.482389 278.893743 
L 394.229872 275.154043 
L 394.977355 276.788772 
L 395.724837 273.400571 
L 396.47232 275.871692 
L 397.219802 272.986402 
L 397.967285 271.627976 
L 398.714768 266.861975 
L 399.46225 268.457882 
L 400.209733 270.911602 
L 400.957216 269.743737 
L 401.704698 268.934348 
L 402.452181 266.795543 
L 403.199664 262.718525 
L 403.947146 264.137344 
L 404.694629 262.774787 
L 405.442112 257.624535 
L 406.189594 257.740722 
L 406.937077 253.767463 
L 407.68456 256.073125 
L 408.432042 248.758157 
L 409.179525 253.924649 
L 409.927008 253.038393 
L 410.67449 251.409459 
L 411.421973 247.915337 
L 412.169456 245.805393 
L 412.916938 246.501476 
L 413.664421 244.36439 
L 414.411904 241.104216 
L 415.159386 241.160822 
L 415.906869 238.856883 
L 416.654351 232.3001 
L 417.401834 234.182673 
L 418.149317 231.088305 
L 418.896799 232.557656 
L 420.391765 225.820222 
L 421.139247 227.574436 
L 421.88673 225.442607 
L 422.634213 220.378156 
L 423.381695 220.224522 
L 424.129178 216.678503 
L 424.876661 214.78994 
L 425.624143 213.62356 
L 426.371626 211.108665 
L 427.119109 209.637361 
L 427.866591 205.512975 
L 428.614074 207.852761 
L 429.361557 205.961278 
L 430.109039 202.298758 
L 430.856522 201.789385 
L 432.351487 198.279811 
L 433.09897 194.358101 
L 433.846453 193.03745 
L 434.593935 191.294338 
L 435.341418 188.668523 
L 436.0889 184.609055 
L 436.836383 182.299416 
L 437.583866 178.999483 
L 438.331348 181.274521 
L 439.078831 177.632102 
L 439.826314 172.685118 
L 440.573796 174.66733 
L 441.321279 170.215288 
L 442.068762 169.652966 
L 442.816244 165.252318 
L 443.563727 165.093383 
L 444.31121 164.725116 
L 445.058692 160.209084 
L 445.806175 159.975595 
L 447.30114 152.725967 
L 448.048623 154.682079 
L 448.796106 148.57012 
L 449.543588 148.598482 
L 450.291071 146.828791 
L 451.038554 143.105799 
L 451.786036 140.808119 
L 452.533519 137.075719 
L 453.281002 137.215739 
L 454.028484 132.755396 
L 454.775967 130.761992 
L 455.52345 127.746235 
L 456.270932 128.430109 
L 457.765897 121.995776 
L 458.51338 116.582759 
L 459.260863 119.317082 
L 460.008345 115.576052 
L 460.755828 115.016132 
L 461.503311 104.691201 
L 462.250793 96.641228 
L 462.998276 104.549726 
L 463.745759 93.539027 
L 464.493241 95.854447 
L 465.240724 97.378899 
L 465.988207 80.838603 
L 467.483172 91.067643 
L 468.230655 86.48468 
L 468.978137 85.675774 
L 469.72562 79.727454 
L 470.473103 79.246105 
L 471.220585 71.067254 
L 471.968068 76.6347 
L 472.715551 75.060379 
L 473.463033 73.804925 
L 474.210516 65.67407 
L 474.957999 67.458729 
L 475.705481 66.153864 
L 476.452964 62.531128 
L 477.200446 60.880828 
L 477.947929 57.510347 
L 478.695412 54.73941 
L 479.442894 56.558611 
L 480.190377 55.632945 
L 480.93786 53.889524 
L 481.685342 47.710236 
L 482.432825 46.240317 
L 483.180308 42.815602 
L 483.92779 42.752359 
L 484.675273 40.590374 
L 485.422756 36.579429 
L 485.422756 36.579429 
" clip-path="url(#p93a71625af)" style="fill: none; stroke: #4c78a8; stroke-width: 1.6; stroke-linecap: square"/>
   </g>
   <g id="line2d_18">
    <path d="M 103.459119 316.790114 
L 104.206602 312.632957 
L 104.954085 312.697778 
L 105.701567 313.136434 
L 106.44905 312.480643 
L 107.196533 310.634441 
L 107.944015 310.124635 
L 108.691498 307.340084 
L 109.438981 307.222714 
L 110.186463 303.292423 
L 110.933946 302.271904 
L 111.681429 299.27425 
L 112.428911 298.228094 
L 113.176394 295.243193 
L 113.923876 295.024204 
L 114.671359 291.664887 
L 115.418842 290.310138 
L 116.166324 287.851293 
L 116.913807 286.494048 
L 117.66129 283.557695 
L 118.408772 282.814277 
L 119.156255 279.61411 
L 119.903738 278.716889 
L 120.65122 276.276972 
L 121.398703 272.368635 
L 122.146186 272.63711 
L 122.893668 270.308017 
L 123.641151 265.994909 
L 124.388634 265.122516 
L 125.136116 263.012263 
L 125.883599 258.416354 
L 126.631082 256.952983 
L 127.378564 256.579125 
L 128.126047 252.818094 
L 128.87353 248.368683 
L 129.621012 245.231188 
L 130.368495 242.932621 
L 131.115978 241.657917 
L 132.610943 235.920419 
L 133.358425 231.200232 
L 134.105908 234.18063 
L 134.853391 248.961066 
L 135.600873 250.530544 
L 136.348356 235.720948 
L 137.095839 238.788308 
L 137.843321 274.040043 
L 138.590804 274.886615 
L 139.338287 274.873754 
L 140.085769 275.341605 
L 140.833252 275.385599 
L 141.580735 273.17219 
L 142.328217 274.224855 
L 143.0757 274.563668 
L 143.823183 273.330307 
L 145.318148 269.569116 
L 146.065631 269.709306 
L 146.813113 272.453838 
L 147.560596 270.247186 
L 149.055561 274.013848 
L 149.803044 277.896059 
L 150.550527 289.008607 
L 151.298009 269.370293 
L 152.045492 274.684433 
L 152.792975 296.483103 
L 153.540457 294.429314 
L 154.28794 296.855424 
L 155.035422 297.78459 
L 155.782905 297.254141 
L 156.530388 295.173382 
L 157.27787 294.210719 
L 158.025353 295.576866 
L 158.772836 294.97341 
L 159.520318 295.391492 
L 160.267801 298.308939 
L 161.015284 297.716598 
L 161.762766 298.166771 
L 162.510249 296.652634 
L 163.257732 299.045039 
L 164.005214 297.064083 
L 164.752697 303.797176 
L 165.50018 300.338601 
L 166.247662 299.475777 
L 166.995145 300.458524 
L 167.742628 301.98805 
L 168.49011 300.775594 
L 169.237593 302.332346 
L 169.985076 303.08739 
L 170.732558 303.143378 
L 171.480041 303.501217 
L 172.227524 300.552452 
L 172.975006 298.978288 
L 173.722489 302.815808 
L 174.469971 300.851458 
L 175.964937 300.881561 
L 176.712419 298.371689 
L 177.459902 297.37246 
L 178.207385 299.618787 
L 178.954867 298.69095 
L 179.70235 305.286306 
L 180.449833 303.358919 
L 181.197315 301.115407 
L 181.944798 302.095548 
L 182.692281 301.195579 
L 183.439763 299.381489 
L 184.187246 306.526665 
L 184.934729 304.603385 
L 185.682211 304.187171 
L 186.429694 302.630322 
L 187.177177 302.45802 
L 187.924659 300.17005 
L 188.672142 302.5683 
L 189.419625 300.829701 
L 190.167107 299.732786 
L 190.91459 300.326432 
L 191.662073 299.893452 
L 192.409555 302.092331 
L 193.157038 302.145212 
L 193.90452 301.282023 
L 194.652003 299.697633 
L 195.399486 299.702679 
L 196.146968 300.122395 
L 196.894451 297.294154 
L 197.641934 296.760185 
L 198.389416 296.769882 
L 199.884382 294.879226 
L 200.631864 294.728022 
L 201.379347 295.122163 
L 202.12683 296.188518 
L 202.874312 296.390473 
L 203.621795 293.798275 
L 204.369278 297.116815 
L 205.11676 297.070319 
L 205.864243 298.151683 
L 206.611726 297.82515 
L 207.359208 296.732186 
L 208.106691 298.215188 
L 208.854174 296.268489 
L 209.601656 295.130708 
L 211.096622 297.470913 
L 211.844104 297.646658 
L 212.591587 298.998787 
L 213.33907 297.48644 
L 214.086552 297.96971 
L 214.834035 297.174058 
L 215.581517 299.046965 
L 216.329 297.279397 
L 217.076483 296.278796 
L 217.823965 295.468689 
L 218.571448 295.110911 
L 219.318931 294.089611 
L 220.066413 290.668285 
L 220.813896 291.031267 
L 222.308861 286.705981 
L 223.056344 284.811974 
L 223.803827 283.921119 
L 224.551309 281.675079 
L 225.298792 280.698924 
L 226.046275 277.257838 
L 226.793757 276.325904 
L 227.54124 272.745902 
L 229.036205 270.996671 
L 229.783688 269.342962 
L 230.531171 264.537597 
L 231.278653 261.179907 
L 232.026136 262.328119 
L 232.773619 260.782046 
L 233.521101 256.363888 
L 234.268584 253.918764 
L 235.016066 253.770697 
L 235.763549 253.771848 
L 236.511032 244.849681 
L 237.258514 243.583708 
L 238.005997 269.68761 
L 238.75348 283.862595 
L 239.500962 291.634623 
L 240.248445 292.867869 
L 240.995928 291.888976 
L 241.74341 290.336946 
L 242.490893 289.832406 
L 243.238376 289.472246 
L 243.985858 288.780925 
L 244.733341 287.08239 
L 245.480824 286.79014 
L 246.228306 284.459824 
L 246.975789 283.823571 
L 247.723272 281.425378 
L 249.218237 280.260486 
L 249.96572 278.699564 
L 250.713202 278.220237 
L 251.460685 276.338441 
L 252.95565 275.249396 
L 253.703133 272.621319 
L 254.450615 273.674497 
L 255.198098 273.105563 
L 255.945581 273.63575 
L 256.693063 273.092657 
L 258.188029 270.194985 
L 258.935511 271.193052 
L 259.682994 270.643706 
L 260.430477 271.345235 
L 261.177959 271.007264 
L 261.925442 270.440438 
L 262.672925 269.113718 
L 263.420407 268.538795 
L 264.16789 265.660835 
L 264.915373 265.167781 
L 265.662855 263.03788 
L 266.410338 262.419496 
L 267.905303 258.391001 
L 268.652786 255.466242 
L 269.400269 255.865298 
L 270.147751 255.426448 
L 270.895234 251.637448 
L 271.642717 250.72108 
L 272.390199 248.548302 
L 273.137682 244.822853 
L 275.38013 239.65527 
L 276.127612 236.098169 
L 276.875095 233.292147 
L 277.622578 228.953138 
L 278.37006 229.1479 
L 279.117543 227.073544 
L 279.865026 219.845213 
L 280.612508 218.927919 
L 281.359991 237.664193 
L 282.107474 239.171051 
L 282.854956 239.338721 
L 283.602439 237.11848 
L 284.349922 239.629658 
L 285.097404 237.303067 
L 285.844887 239.56499 
L 286.59237 238.683518 
L 288.087335 233.563836 
L 288.834818 238.681853 
L 289.5823 236.837763 
L 290.329783 252.684671 
L 291.077266 252.327576 
L 291.824748 232.176384 
L 292.572231 229.239705 
L 293.319714 304.465217 
L 294.067196 302.77353 
L 294.814679 302.739284 
L 295.562161 300.507197 
L 296.309644 301.757083 
L 297.057127 300.535867 
L 297.804609 300.8206 
L 298.552092 299.698558 
L 299.299575 300.398582 
L 300.047057 299.966608 
L 300.79454 299.2797 
L 302.289505 300.345884 
L 303.036988 301.452378 
L 303.784471 299.329897 
L 304.531953 300.966819 
L 305.279436 306.446497 
L 306.026919 306.171258 
L 306.774401 305.026297 
L 307.521884 304.79354 
L 308.269367 306.437151 
L 309.016849 306.107367 
L 309.764332 305.133495 
L 310.511815 305.792941 
L 311.259297 306.248528 
L 312.00678 305.600811 
L 312.754263 305.343023 
L 313.501745 304.645896 
L 314.249228 304.786826 
L 314.99671 303.111334 
L 315.744193 304.408623 
L 316.491676 304.04712 
L 317.239158 303.945648 
L 317.986641 303.488828 
L 318.734124 304.484604 
L 319.481606 302.790648 
L 320.229089 302.432633 
L 320.976572 301.05268 
L 321.724054 302.167645 
L 322.471537 304.43401 
L 323.21902 305.726926 
L 323.966502 304.751243 
L 324.713985 305.221283 
L 325.461468 304.10551 
L 326.20895 309.539414 
L 326.956433 308.145171 
L 327.703916 307.091309 
L 329.198881 307.477324 
L 329.946364 307.656427 
L 330.693846 309.769849 
L 331.441329 309.677861 
L 332.188812 310.204904 
L 332.936294 308.248466 
L 333.683777 311.576009 
L 334.43126 311.04037 
L 335.178742 311.825994 
L 335.926225 309.984751 
L 336.673707 311.03944 
L 337.42119 310.330446 
L 338.168673 308.243064 
L 338.916155 309.364337 
L 339.663638 308.988275 
L 340.411121 306.96067 
L 341.158603 309.504973 
L 341.906086 306.847814 
L 342.653569 307.448126 
L 343.401051 307.01224 
L 344.148534 308.418125 
L 344.896017 307.130451 
L 345.643499 307.933926 
L 346.390982 305.802938 
L 347.138465 307.741774 
L 347.885947 305.866702 
L 348.63343 305.488575 
L 349.380913 303.934195 
L 350.128395 304.837753 
L 350.875878 303.743495 
L 351.623361 302.926129 
L 352.370843 303.341214 
L 353.118326 303.099883 
L 353.865809 301.662014 
L 354.613291 300.618382 
L 355.360774 301.361706 
L 356.108256 301.064723 
L 356.855739 299.252129 
L 357.603222 298.939763 
L 358.350704 296.952526 
L 359.098187 296.753907 
L 359.84567 295.584208 
L 360.593152 292.752335 
L 361.340635 289.404888 
L 362.088118 293.506155 
L 362.8356 293.895639 
L 363.583083 290.68654 
L 364.330566 288.055695 
L 365.078048 292.212285 
L 365.825531 290.883056 
L 366.573014 290.468903 
L 367.320496 290.392416 
L 368.067979 289.889274 
L 368.815462 286.850971 
L 369.562944 289.619678 
L 370.310427 290.073036 
L 371.05791 291.730636 
L 371.805392 291.850475 
L 372.552875 288.934192 
L 373.300358 287.998919 
L 374.04784 289.880113 
L 374.795323 289.487419 
L 375.542805 290.505476 
L 376.290288 289.580109 
L 377.037771 290.628115 
L 377.785253 286.83463 
L 378.532736 287.336249 
L 379.280219 285.731358 
L 380.027701 282.484145 
L 380.775184 282.843303 
L 381.522667 283.765116 
L 382.270149 281.016343 
L 383.017632 283.171388 
L 383.765115 281.213532 
L 384.512597 281.049201 
L 385.26008 281.349566 
L 386.007563 282.847406 
L 386.755045 282.513681 
L 387.502528 280.224516 
L 388.250011 279.261058 
L 388.997493 281.438545 
L 389.744976 280.834617 
L 390.492459 279.746952 
L 391.239941 279.230956 
L 391.987424 276.306361 
L 393.482389 273.635247 
L 394.229872 273.660306 
L 394.977355 268.132588 
L 395.724837 268.949267 
L 396.47232 271.592407 
L 397.219802 270.598297 
L 397.967285 267.27336 
L 398.714768 265.706354 
L 399.46225 266.80682 
L 400.209733 266.011373 
L 400.957216 263.755913 
L 402.452181 258.265696 
L 403.199664 260.580846 
L 403.947146 262.070229 
L 404.694629 258.603313 
L 405.442112 259.989081 
L 406.189594 258.62615 
L 406.937077 253.693028 
L 407.68456 253.677471 
L 408.432042 250.507822 
L 409.179525 249.023118 
L 409.927008 246.796634 
L 411.421973 241.284996 
L 412.169456 241.834726 
L 412.916938 240.634572 
L 413.664421 238.533089 
L 414.411904 234.993094 
L 415.159386 235.368506 
L 415.906869 232.160877 
L 416.654351 229.692114 
L 417.401834 229.056932 
L 418.149317 225.40972 
L 418.896799 223.567597 
L 420.391765 222.424876 
L 421.139247 218.852528 
L 421.88673 216.435676 
L 422.634213 215.616685 
L 423.381695 212.659357 
L 424.129178 210.551586 
L 424.876661 204.783447 
L 425.624143 201.792275 
L 426.371626 203.728525 
L 427.119109 202.966319 
L 427.866591 198.435926 
L 428.614074 196.943365 
L 429.361557 193.787767 
L 430.109039 194.582481 
L 430.856522 186.653444 
L 431.604005 186.377669 
L 432.351487 185.27829 
L 433.09897 182.437841 
L 433.846453 181.071925 
L 434.593935 180.793899 
L 436.0889 176.097286 
L 436.836383 169.501536 
L 437.583866 166.89346 
L 438.331348 165.138419 
L 439.078831 160.848322 
L 439.826314 162.081463 
L 440.573796 158.074006 
L 441.321279 158.39939 
L 442.068762 152.79232 
L 442.816244 151.275043 
L 443.563727 148.606295 
L 444.31121 147.423332 
L 445.058692 143.736377 
L 445.806175 139.217693 
L 447.30114 137.767367 
L 448.048623 131.047314 
L 448.796106 130.413109 
L 449.543588 131.888529 
L 450.291071 129.113705 
L 451.038554 127.852849 
L 451.786036 122.453566 
L 452.533519 120.517027 
L 453.281002 116.414756 
L 454.028484 108.448914 
L 454.775967 109.556476 
L 455.52345 109.681288 
L 456.270932 110.033998 
L 457.018415 106.138438 
L 457.765897 95.988427 
L 458.51338 100.763451 
L 459.260863 98.439442 
L 460.008345 94.452893 
L 460.755828 96.233646 
L 462.250793 87.910749 
L 462.998276 85.90154 
L 463.745759 86.988054 
L 464.493241 81.523435 
L 465.240724 77.471471 
L 465.988207 75.667178 
L 466.735689 74.539007 
L 467.483172 72.687517 
L 468.230655 72.098836 
L 468.978137 69.395945 
L 469.72562 65.255326 
L 470.473103 63.575168 
L 471.220585 59.401402 
L 471.968068 56.128227 
L 472.715551 56.126931 
L 473.463033 50.080149 
L 474.210516 50.932346 
L 474.957999 48.196628 
L 475.705481 48.47015 
L 477.200446 41.960953 
L 477.947929 38.3783 
L 478.695412 36.580286 
L 479.442894 36.101588 
L 480.190377 33.670226 
L 480.93786 28.443252 
L 481.685342 29.514917 
L 482.432825 24.649443 
L 483.180308 23.048633 
L 483.92779 25.168144 
L 484.675273 21.942386 
L 485.422756 23.561833 
L 485.422756 23.561833 
" clip-path="url(#p93a71625af)" style="fill: none; stroke: #f58518; stroke-width: 1.6; stroke-linecap: square"/>
   </g>
   <g id="patch_3">
    <path d="M 84.360938 331.5325 
L 84.360938 7.2 
" style="fill: none; stroke: #000000; stroke-width: 0.8; stroke-linejoin: miter; stroke-linecap: square"/>
   </g>
   <g id="patch_4">
    <path d="M 84.360938 331.5325 
L 504.520938 331.5325 
" style="fill: none; stroke: #000000; stroke-width: 0.8; stroke-linejoin: miter; stroke-linecap: square"/>
   </g>
   <g id="text_14">
    <g id="patch_5">
     <path d="M 142.69925 173.27625 
L 424.398937 173.27625 
L 424.398937 143.196562 
L 142.69925 143.196562 
z
" style="fill: #ffffff; opacity: 0.7"/>
    </g>
    <!-- Rel l2=0.524  R²=0.890 -->
    <g transform="translate(146.60925 164.582969) scale(0.23 -0.23)">
     <defs>
      <path id="DejaVuSans-52" d="M 2841 2188 
Q 3044 2119 3236 1894 
Q 3428 1669 3622 1275 
L 4263 0 
L 3584 0 
L 2988 1197 
Q 2756 1666 2539 1819 
Q 2322 1972 1947 1972 
L 1259 1972 
L 1259 0 
L 628 0 
L 628 4666 
L 2053 4666 
Q 2853 4666 3247 4331 
Q 3641 3997 3641 3322 
Q 3641 2881 3436 2590 
Q 3231 2300 2841 2188 
z
M 1259 4147 
L 1259 2491 
L 2053 2491 
Q 2509 2491 2742 2702 
Q 2975 2913 2975 3322 
Q 2975 3731 2742 3939 
Q 2509 4147 2053 4147 
L 1259 4147 
z
" transform="scale(0.015625)"/>
      <path id="DejaVuSans-6c" d="M 603 4863 
L 1178 4863 
L 1178 0 
L 603 0 
L 603 4863 
z
" transform="scale(0.015625)"/>
      <path id="DejaVuSans-3d" d="M 678 2906 
L 4684 2906 
L 4684 2381 
L 678 2381 
L 678 2906 
z
M 678 1631 
L 4684 1631 
L 4684 1100 
L 678 1100 
L 678 1631 
z
" transform="scale(0.015625)"/>
      <path id="DejaVuSans-2e" d="M 684 794 
L 1344 794 
L 1344 0 
L 684 0 
L 684 794 
z
" transform="scale(0.015625)"/>
      <path id="DejaVuSans-b2" d="M 838 2444 
L 2163 2444 
L 2163 2088 
L 294 2088 
L 294 2431 
Q 400 2528 597 2703 
Q 1672 3656 1672 3950 
Q 1672 4156 1509 4282 
Q 1347 4409 1081 4409 
Q 919 4409 728 4354 
Q 538 4300 313 4191 
L 313 4575 
Q 553 4663 761 4706 
Q 969 4750 1147 4750 
Q 1600 4750 1872 4544 
Q 2144 4338 2144 4000 
Q 2144 3566 1109 2678 
Q 934 2528 838 2444 
z
" transform="scale(0.015625)"/>
      <path id="DejaVuSans-38" d="M 2034 2216 
Q 1584 2216 1326 1975 
Q 1069 1734 1069 1313 
Q 1069 891 1326 650 
Q 1584 409 2034 409 
Q 2484 409 2743 651 
Q 3003 894 3003 1313 
Q 3003 1734 2745 1975 
Q 2488 2216 2034 2216 
z
M 1403 2484 
Q 997 2584 770 2862 
Q 544 3141 544 3541 
Q 544 4100 942 4425 
Q 1341 4750 2034 4750 
Q 2731 4750 3128 4425 
Q 3525 4100 3525 3541 
Q 3525 3141 3298 2862 
Q 3072 2584 2669 2484 
Q 3125 2378 3379 2068 
Q 3634 1759 3634 1313 
Q 3634 634 3220 271 
Q 2806 -91 2034 -91 
Q 1263 -91 848 271 
Q 434 634 434 1313 
Q 434 1759 690 2068 
Q 947 2378 1403 2484 
z
M 1172 3481 
Q 1172 3119 1398 2916 
Q 1625 2713 2034 2713 
Q 2441 2713 2670 2916 
Q 2900 3119 2900 3481 
Q 2900 3844 2670 4047 
Q 2441 4250 2034 4250 
Q 1625 4250 1398 4047 
Q 1172 3844 1172 3481 
z
" transform="scale(0.015625)"/>
      <path id="DejaVuSans-39" d="M 703 97 
L 703 672 
Q 941 559 1184 500 
Q 1428 441 1663 441 
Q 2288 441 2617 861 
Q 2947 1281 2994 2138 
Q 2813 1869 2534 1725 
Q 2256 1581 1919 1581 
Q 1219 1581 811 2004 
Q 403 2428 403 3163 
Q 403 3881 828 4315 
Q 1253 4750 1959 4750 
Q 2769 4750 3195 4129 
Q 3622 3509 3622 2328 
Q 3622 1225 3098 567 
Q 2575 -91 1691 -91 
Q 1453 -91 1209 -44 
Q 966 3 703 97 
z
M 1959 2075 
Q 2384 2075 2632 2365 
Q 2881 2656 2881 3163 
Q 2881 3666 2632 3958 
Q 2384 4250 1959 4250 
Q 1534 4250 1286 3958 
Q 1038 3666 1038 3163 
Q 1038 2656 1286 2365 
Q 1534 2075 1959 2075 
z
" transform="scale(0.015625)"/>
     </defs>
     <use xlink:href="#DejaVuSans-52"/>
     <use xlink:href="#DejaVuSans-65" transform="translate(64.982422 0)"/>
     <use xlink:href="#DejaVuSans-6c" transform="translate(126.505859 0)"/>
     <use xlink:href="#DejaVuSans-20" transform="translate(154.289062 0)"/>
     <use xlink:href="#DejaVuSans-6c" transform="translate(186.076172 0)"/>
     <use xlink:href="#DejaVuSans-32" transform="translate(213.859375 0)"/>
     <use xlink:href="#DejaVuSans-3d" transform="translate(277.482422 0)"/>
     <use xlink:href="#DejaVuSans-30" transform="translate(361.271484 0)"/>
     <use xlink:href="#DejaVuSans-2e" transform="translate(424.894531 0)"/>
     <use xlink:href="#DejaVuSans-35" transform="translate(456.681641 0)"/>
     <use xlink:href="#DejaVuSans-32" transform="translate(520.304688 0)"/>
     <use xlink:href="#DejaVuSans-34" transform="translate(583.927734 0)"/>
     <use xlink:href="#DejaVuSans-20" transform="translate(647.550781 0)"/>
     <use xlink:href="#DejaVuSans-20" transform="translate(679.337891 0)"/>
     <use xlink:href="#DejaVuSans-52" transform="translate(711.125 0)"/>
     <use xlink:href="#DejaVuSans-b2" transform="translate(780.607422 0)"/>
     <use xlink:href="#DejaVuSans-3d" transform="translate(820.695312 0)"/>
     <use xlink:href="#DejaVuSans-30" transform="translate(904.484375 0)"/>
     <use xlink:href="#DejaVuSans-2e" transform="translate(968.107422 0)"/>
     <use xlink:href="#DejaVuSans-38" transform="translate(999.894531 0)"/>
     <use xlink:href="#DejaVuSans-39" transform="translate(1063.517578 0)"/>
     <use xlink:href="#DejaVuSans-30" transform="translate(1127.140625 0)"/>
    </g>
   </g>
   <g id="legend_1">
    <g id="patch_6">
     <path d="M 100.460938 93.119375 
L 296.083125 93.119375 
Q 300.683125 93.119375 300.683125 88.519375 
L 300.683125 23.3 
Q 300.683125 18.7 296.083125 18.7 
L 100.460938 18.7 
Q 95.860938 18.7 95.860938 23.3 
L 95.860938 88.519375 
Q 95.860938 93.119375 100.460938 93.119375 
z
" style="fill: #ffffff; opacity: 0.8; stroke: #cccccc; stroke-linejoin: miter"/>
    </g>
    <g id="line2d_19">
     <path d="M 105.060938 37.326406 
L 128.060938 37.326406 
L 151.060938 37.326406 
" style="fill: none; stroke: #4c78a8; stroke-width: 1.6; stroke-linecap: square"/>
    </g>
    <g id="text_15">
     <!-- True -->
     <g transform="translate(169.460938 45.376406) scale(0.23 -0.23)">
      <defs>
       <path id="DejaVuSans-54" d="M -19 4666 
L 3928 4666 
L 3928 4134 
L 2272 4134 
L 2272 0 
L 1638 0 
L 1638 4134 
L -19 4134 
L -19 4666 
z
" transform="scale(0.015625)"/>
       <path id="DejaVuSans-75" d="M 544 1381 
L 544 3500 
L 1119 3500 
L 1119 1403 
Q 1119 906 1312 657 
Q 1506 409 1894 409 
Q 2359 409 2629 706 
Q 2900 1003 2900 1516 
L 2900 3500 
L 3475 3500 
L 3475 0 
L 2900 0 
L 2900 538 
Q 2691 219 2414 64 
Q 2138 -91 1772 -91 
Q 1169 -91 856 284 
Q 544 659 544 1381 
z
M 1991 3584 
L 1991 3584 
z
" transform="scale(0.015625)"/>
      </defs>
      <use xlink:href="#DejaVuSans-54"/>
      <use xlink:href="#DejaVuSans-72" transform="translate(46.333984 0)"/>
      <use xlink:href="#DejaVuSans-75" transform="translate(87.447266 0)"/>
      <use xlink:href="#DejaVuSans-65" transform="translate(150.826172 0)"/>
     </g>
    </g>
    <g id="line2d_20">
     <path d="M 105.060938 71.086094 
L 128.060938 71.086094 
L 151.060938 71.086094 
" style="fill: none; stroke: #f58518; stroke-width: 1.6; stroke-linecap: square"/>
    </g>
    <g id="text_16">
     <!-- Generated -->
     <g transform="translate(169.460938 79.136094) scale(0.23 -0.23)">
      <defs>
       <path id="DejaVuSans-47" d="M 3809 666 
L 3809 1919 
L 2778 1919 
L 2778 2438 
L 4434 2438 
L 4434 434 
Q 4069 175 3628 42 
Q 3188 -91 2688 -91 
Q 1594 -91 976 548 
Q 359 1188 359 2328 
Q 359 3472 976 4111 
Q 1594 4750 2688 4750 
Q 3144 4750 3555 4637 
Q 3966 4525 4313 4306 
L 4313 3634 
Q 3963 3931 3569 4081 
Q 3175 4231 2741 4231 
Q 1884 4231 1454 3753 
Q 1025 3275 1025 2328 
Q 1025 1384 1454 906 
Q 1884 428 2741 428 
Q 3075 428 3337 486 
Q 3600 544 3809 666 
z
" transform="scale(0.015625)"/>
       <path id="DejaVuSans-61" d="M 2194 1759 
Q 1497 1759 1228 1600 
Q 959 1441 959 1056 
Q 959 750 1161 570 
Q 1363 391 1709 391 
Q 2188 391 2477 730 
Q 2766 1069 2766 1631 
L 2766 1759 
L 2194 1759 
z
M 3341 1997 
L 3341 0 
L 2766 0 
L 2766 531 
Q 2569 213 2275 61 
Q 1981 -91 1556 -91 
Q 1019 -91 701 211 
Q 384 513 384 1019 
Q 384 1609 779 1909 
Q 1175 2209 1959 2209 
L 2766 2209 
L 2766 2266 
Q 2766 2663 2505 2880 
Q 2244 3097 1772 3097 
Q 1472 3097 1187 3025 
Q 903 2953 641 2809 
L 641 3341 
Q 956 3463 1253 3523 
Q 1550 3584 1831 3584 
Q 2591 3584 2966 3190 
Q 3341 2797 3341 1997 
z
" transform="scale(0.015625)"/>
       <path id="DejaVuSans-64" d="M 2906 2969 
L 2906 4863 
L 3481 4863 
L 3481 0 
L 2906 0 
L 2906 525 
Q 2725 213 2448 61 
Q 2172 -91 1784 -91 
Q 1150 -91 751 415 
Q 353 922 353 1747 
Q 353 2572 751 3078 
Q 1150 3584 1784 3584 
Q 2172 3584 2448 3432 
Q 2725 3281 2906 2969 
z
M 947 1747 
Q 947 1113 1208 752 
Q 1469 391 1925 391 
Q 2381 391 2643 752 
Q 2906 1113 2906 1747 
Q 2906 2381 2643 2742 
Q 2381 3103 1925 3103 
Q 1469 3103 1208 2742 
Q 947 2381 947 1747 
z
" transform="scale(0.015625)"/>
      </defs>
      <use xlink:href="#DejaVuSans-47"/>
      <use xlink:href="#DejaVuSans-65" transform="translate(77.490234 0)"/>
      <use xlink:href="#DejaVuSans-6e" transform="translate(139.013672 0)"/>
      <use xlink:href="#DejaVuSans-65" transform="translate(202.392578 0)"/>
      <use xlink:href="#DejaVuSans-72" transform="translate(263.916016 0)"/>
      <use xlink:href="#DejaVuSans-61" transform="translate(305.029297 0)"/>
      <use xlink:href="#DejaVuSans-74" transform="translate(366.308594 0)"/>
      <use xlink:href="#DejaVuSans-65" transform="translate(405.517578 0)"/>
      <use xlink:href="#DejaVuSans-64" transform="translate(467.041016 0)"/>
     </g>
    </g>
   </g>
  </g>
 </g>
 <defs>
  <clipPath id="p93a71625af">
   <rect x="84.360938" y="7.2" width="420.16" height="324.3325"/>
  </clipPath>
 </defs>
</svg>
