<?xml version="1.0" encoding="utf-8" standalone="no"?>
<!DOCTYPE svg PUBLIC "-//W3C//DTD SVG 1.1//EN"
  "http://www.w3.org/Graphics/SVG/1.1/DTD/svg11.dtd">
<svg xmlns:xlink="http://www.w3.org/1999/xlink" width="511.931399pt" height="396.338384pt" viewBox="0 0 511.931399 396.338384" xmlns="http://www.w3.org/2000/svg" version="1.1">
 <metadata>
  <rdf:RDF xmlns:dc="http://purl.org/dc/elements/1.1/" xmlns:cc="http://creativecommons.org/ns#" xmlns:rdf="http://www.w3.org/1999/02/22-rdf-syntax-ns#">
   <cc:Work>
    <dc:type rdf:resource="http://purl.org/dc/dcmitype/StillImage"/>
    <dc:date>2026-01-22T22:46:35.613289</dc:date>
    <dc:format>image/svg+xml</dc:format>
    <dc:creator>
     <cc:Agent>
      <dc:title>Matplotlib v3.10.3, https://matplotlib.org/</dc:title>
     </cc:Agent>
    </dc:creator>
   </cc:Work>
  </rdf:RDF>
 </metadata>
 <defs>
  <style type="text/css">*{stroke-linejoin: round; stroke-linecap: butt}</style>
 </defs>
 <g id="figure_1">
  <g id="patch_1">
   <path d="M -0 396.338384 
L 511.931399 396.338384 
L 511.931399 0 
L -0 0 
z
" style="fill: #ffffff"/>
  </g>
  <g id="axes_1">
   <g id="patch_2">
    <path d="M 84.360938 331.495103 
L 486.886105 331.495103 
L 486.886105 13.703857 
L 84.360938 13.703857 
z
" style="fill: #ffffff"/>
   </g>
   <g id="FillBetweenPolyCollection_1">
    <defs>
     <path id="m7c407cf8c7" d="M 102.657536 -83.245761 
L 102.657536 -79.288338 
L 103.373646 -82.274575 
L 104.089755 -82.074117 
L 104.805865 -85.694793 
L 105.521974 -89.352052 
L 106.238084 -88.022689 
L 106.954193 -86.989612 
L 107.670303 -86.9223 
L 108.386412 -88.956375 
L 109.102522 -97.267562 
L 109.818631 -99.000331 
L 110.534741 -101.874432 
L 111.25085 -98.304798 
L 111.96696 -96.81549 
L 112.683069 -99.8632 
L 113.399179 -102.198616 
L 114.115289 -104.332385 
L 114.831398 -103.16755 
L 115.547508 -106.717703 
L 116.263617 -102.378837 
L 116.979727 -107.259335 
L 117.695836 -112.324288 
L 118.411946 -111.406568 
L 119.128055 -113.725091 
L 119.844165 -115.940454 
L 120.560274 -117.160478 
L 121.276384 -126.217199 
L 121.992493 -122.143882 
L 122.708603 -121.395589 
L 123.424712 -120.461046 
L 124.140822 -124.989925 
L 124.856931 -130.481737 
L 125.573041 -131.126207 
L 126.289151 -133.701617 
L 127.00526 -133.245562 
L 127.72137 -136.887963 
L 128.437479 -142.213796 
L 129.153589 -137.901833 
L 129.869698 -137.499604 
L 130.585808 -136.317318 
L 131.301917 -139.597265 
L 132.018027 -144.420503 
L 132.734136 -154.090418 
L 133.450246 -148.867718 
L 134.166355 -153.656119 
L 134.882465 -151.325031 
L 135.598574 -157.227879 
L 136.314684 -159.057537 
L 137.030794 -153.14133 
L 137.746903 -153.124577 
L 138.463013 -155.981558 
L 139.179122 -162.032212 
L 139.895232 -164.262252 
L 140.611341 -161.205398 
L 141.327451 -162.182762 
L 142.04356 -172.233841 
L 142.75967 -176.57711 
L 143.475779 -174.699562 
L 144.191889 -170.791251 
L 144.907998 -174.245782 
L 145.624108 -170.479434 
L 146.340217 -174.524177 
L 147.056327 -176.157984 
L 147.772436 -180.97112 
L 148.488546 -186.70871 
L 149.204656 -182.827676 
L 149.920765 -187.609211 
L 150.636875 -186.466279 
L 151.352984 -187.056103 
L 152.069094 -195.250262 
L 152.785203 -193.445897 
L 153.501313 -192.956199 
L 154.217422 -193.772785 
L 154.933532 -194.222776 
L 155.649641 -201.220256 
L 156.365751 -184.450735 
L 157.08186 -133.624157 
L 157.79797 -108.96449 
L 158.514079 -100.951077 
L 159.230189 -110.255732 
L 159.946299 -106.307509 
L 160.662408 -106.443603 
L 161.378518 -105.798803 
L 162.094627 -104.959797 
L 162.810737 -112.188287 
L 163.526846 -107.554814 
L 164.242956 -101.918397 
L 164.959065 -103.438005 
L 165.675175 -107.97746 
L 166.391284 -106.962857 
L 167.107394 -112.693777 
L 167.823503 -108.208502 
L 168.539613 -99.958232 
L 169.255722 -95.389086 
L 169.971832 -99.084796 
L 170.687941 -96.936461 
L 171.404051 -97.59105 
L 172.120161 -99.431708 
L 172.83627 -99.563087 
L 173.55238 -100.247839 
L 174.268489 -98.710406 
L 174.984599 -93.80929 
L 175.700708 -95.695034 
L 176.416818 -101.478712 
L 177.132927 -105.890163 
L 177.849037 -106.456908 
L 178.565146 -99.932247 
L 179.281256 -99.447056 
L 179.997365 -101.950152 
L 180.713475 -103.44052 
L 181.429584 -106.541062 
L 182.145694 -114.001428 
L 182.861804 -110.820034 
L 183.577913 -119.239464 
L 184.294023 -114.566168 
L 185.010132 -113.76968 
L 185.726242 -114.481044 
L 186.442351 -109.641007 
L 187.158461 -112.171941 
L 187.87457 -115.08024 
L 188.59068 -119.690924 
L 189.306789 -128.714583 
L 190.022899 -123.85179 
L 190.739008 -128.446413 
L 191.455118 -123.016312 
L 192.171227 -122.75717 
L 192.887337 -124.931106 
L 193.603446 -126.179627 
L 194.319556 -121.252498 
L 195.035666 -118.229565 
L 195.751775 -123.771707 
L 196.467885 -129.121004 
L 197.183994 -128.784232 
L 197.900104 -131.395528 
L 198.616213 -134.504371 
L 199.332323 -132.655405 
L 200.048432 -130.276567 
L 200.764542 -133.125141 
L 201.480651 -134.709563 
L 202.196761 -124.36549 
L 202.91287 -133.063319 
L 203.62898 -133.940518 
L 204.345089 -135.207289 
L 205.061199 -127.842269 
L 205.777309 -130.425873 
L 206.493418 -132.184054 
L 207.209528 -137.016931 
L 207.925637 -138.793617 
L 208.641747 -132.40507 
L 209.357856 -130.517646 
L 210.073966 -120.649582 
L 210.790075 -113.372793 
L 211.506185 -100.979154 
L 212.222294 -94.675022 
L 212.938404 -100.159437 
L 213.654513 -109.918417 
L 214.370623 -116.105398 
L 215.086732 -113.704529 
L 215.802842 -109.832146 
L 216.518951 -107.191828 
L 217.235061 -118.24929 
L 217.951171 -121.328834 
L 218.66728 -121.804095 
L 219.38339 -119.504836 
L 220.099499 -119.248348 
L 220.815609 -119.288078 
L 221.531718 -126.893572 
L 222.247828 -129.135751 
L 222.963937 -123.979898 
L 223.680047 -125.900407 
L 224.396156 -129.439597 
L 225.112266 -125.31077 
L 225.828375 -114.254972 
L 226.544485 -110.700283 
L 227.260594 -108.667222 
L 227.976704 -109.583865 
L 228.692814 -109.664522 
L 229.408923 -106.711486 
L 230.125033 -102.88358 
L 230.841142 -104.864255 
L 231.557252 -107.63783 
L 232.273361 -106.533098 
L 232.989471 -110.001 
L 233.70558 -113.014048 
L 234.42169 -102.991434 
L 235.137799 -95.99611 
L 235.853909 -92.776455 
L 236.570018 -91.020948 
L 237.286128 -92.103038 
L 238.002237 -88.870757 
L 238.718347 -90.42445 
L 239.434456 -94.872861 
L 240.150566 -98.343076 
L 240.866676 -94.329718 
L 241.582785 -96.092591 
L 242.298895 -97.000279 
L 243.015004 -96.467291 
L 243.731114 -98.543141 
L 244.447223 -96.581664 
L 245.163333 -100.207404 
L 245.879442 -95.654442 
L 246.595552 -101.806678 
L 247.311661 -96.288335 
L 248.027771 -96.375402 
L 248.74388 -96.483843 
L 249.45999 -93.275331 
L 250.176099 -93.742829 
L 250.892209 -91.573692 
L 251.608319 -93.593986 
L 252.324428 -92.120376 
L 253.040538 -90.798415 
L 253.756647 -95.716747 
L 254.472757 -99.807062 
L 255.188866 -92.718817 
L 255.904976 -98.497274 
L 256.621085 -101.986533 
L 257.337195 -99.54119 
L 258.053304 -96.854148 
L 258.769414 -102.556021 
L 259.485523 -101.913085 
L 260.201633 -96.173854 
L 260.917742 -96.309349 
L 261.633852 -99.078033 
L 262.349961 -95.310546 
L 263.066071 -92.939611 
L 263.782181 -101.528583 
L 264.49829 -98.475051 
L 265.2144 -95.054855 
L 265.930509 -95.51887 
L 266.646619 -100.292995 
L 267.362728 -97.331033 
L 268.078838 -97.812576 
L 268.794947 -97.336099 
L 269.511057 -96.035668 
L 270.227166 -102.170911 
L 270.943276 -91.301957 
L 271.659385 -94.42626 
L 272.375495 -95.298925 
L 273.091604 -96.989512 
L 273.807714 -96.787551 
L 274.523823 -98.505502 
L 275.239933 -101.394715 
L 275.956043 -98.505858 
L 276.672152 -97.172089 
L 277.388262 -97.953606 
L 278.104371 -94.223288 
L 278.820481 -96.408069 
L 279.53659 -96.657482 
L 280.2527 -99.46242 
L 280.968809 -96.638469 
L 281.684919 -93.911681 
L 282.401028 -101.86536 
L 283.117138 -107.600871 
L 283.833247 -100.543429 
L 284.549357 -94.937719 
L 285.265466 -100.00715 
L 285.981576 -106.785587 
L 286.697686 -99.89612 
L 287.413795 -98.842756 
L 288.129905 -97.368035 
L 288.846014 -97.735424 
L 289.562124 -100.875238 
L 290.278233 -106.04111 
L 290.994343 -103.262899 
L 291.710452 -100.856914 
L 292.426562 -104.279208 
L 293.142671 -104.523423 
L 293.858781 -104.307506 
L 294.57489 -99.105862 
L 295.291 -101.992509 
L 296.007109 -106.4565 
L 296.723219 -103.235906 
L 297.439328 -98.725603 
L 298.155438 -103.2103 
L 298.871548 -101.110893 
L 299.587657 -109.934636 
L 300.303767 -106.28363 
L 301.019876 -101.319198 
L 301.735986 -97.441428 
L 302.452095 -102.617613 
L 303.168205 -105.921034 
L 303.884314 -101.411314 
L 304.600424 -98.437614 
L 305.316533 -103.855746 
L 306.032643 -109.6542 
L 306.748752 -102.245903 
L 307.464862 -105.570817 
L 308.180971 -109.283722 
L 308.897081 -104.360859 
L 309.613191 -104.230488 
L 310.3293 -101.61634 
L 311.04541 -104.182542 
L 311.761519 -105.966037 
L 312.477629 -111.409656 
L 313.193738 -108.838528 
L 313.909848 -112.165199 
L 314.625957 -111.358125 
L 315.342067 -109.17785 
L 316.058176 -103.878023 
L 316.774286 -105.642174 
L 317.490395 -110.780688 
L 318.206505 -105.735944 
L 318.922614 -101.526038 
L 319.638724 -105.396648 
L 320.354833 -108.837955 
L 321.070943 -105.923421 
L 321.787053 -110.169132 
L 322.503162 -111.909939 
L 323.219272 -102.627156 
L 323.935381 -103.06129 
L 324.651491 -107.958977 
L 325.3676 -111.967627 
L 326.08371 -112.577773 
L 326.799819 -105.051029 
L 327.515929 -110.249297 
L 328.232038 -110.846315 
L 328.948148 -110.742621 
L 329.664257 -113.014947 
L 330.380367 -108.171789 
L 331.096476 -107.875839 
L 331.812586 -109.176959 
L 332.528696 -113.489685 
L 333.244805 -113.823858 
L 333.960915 -106.268531 
L 334.677024 -110.796159 
L 335.393134 -115.51058 
L 336.109243 -110.117736 
L 336.825353 -106.17997 
L 337.541462 -117.58735 
L 338.257572 -121.257538 
L 338.973681 -115.369654 
L 339.689791 -117.165372 
L 340.4059 -117.980904 
L 341.12201 -109.546917 
L 341.838119 -110.0158 
L 342.554229 -112.270955 
L 343.270338 -113.208652 
L 343.986448 -110.504727 
L 344.702558 -112.589846 
L 345.418667 -115.73053 
L 346.134777 -112.432427 
L 346.850886 -115.778703 
L 347.566996 -112.12865 
L 348.283105 -95.587916 
L 348.999215 -111.543433 
L 349.715324 -116.312993 
L 350.431434 -112.730404 
L 351.147543 -117.354272 
L 351.863653 -120.015778 
L 352.579762 -121.343228 
L 353.295872 -117.360634 
L 354.011981 -118.057829 
L 354.728091 -114.167775 
L 355.444201 -116.738981 
L 356.16031 -116.981873 
L 356.87642 -122.580219 
L 357.592529 -129.516042 
L 358.308639 -122.17076 
L 359.024748 -119.339904 
L 359.740858 -123.927282 
L 360.456967 -124.701104 
L 361.173077 -129.25055 
L 361.889186 -123.641018 
L 362.605296 -122.581679 
L 363.321405 -123.878377 
L 364.037515 -127.100489 
L 364.753624 -128.588059 
L 365.469734 -129.328696 
L 366.185843 -127.949094 
L 366.901953 -132.221536 
L 367.618063 -130.751363 
L 368.334172 -126.535865 
L 369.050282 -131.789295 
L 369.766391 -136.859136 
L 370.482501 -136.690678 
L 371.19861 -135.297512 
L 371.91472 -130.93628 
L 372.630829 -135.527614 
L 373.346939 -135.91498 
L 374.063048 -130.771569 
L 374.779158 -134.638271 
L 375.495267 -140.609792 
L 376.211377 -146.942475 
L 376.927486 -145.133685 
L 377.643596 -143.763308 
L 378.359706 -140.808913 
L 379.075815 -140.645337 
L 379.791925 -143.280539 
L 380.508034 -151.052441 
L 381.224144 -154.604037 
L 381.940253 -159.860655 
L 382.656363 -153.849669 
L 383.372472 -159.604609 
L 384.088582 -159.907483 
L 384.804691 -160.009051 
L 385.520801 -160.999124 
L 386.23691 -161.055561 
L 386.95302 -156.31973 
L 387.669129 -154.16667 
L 388.385239 -158.366185 
L 389.101348 -163.398396 
L 389.817458 -167.235517 
L 390.533568 -171.573787 
L 391.249677 -173.209819 
L 391.965787 -167.49701 
L 392.681896 -172.149422 
L 393.398006 -174.661545 
L 394.114115 -177.847786 
L 394.830225 -179.877953 
L 395.546334 -175.394363 
L 396.262444 -178.355593 
L 396.978553 -178.899984 
L 397.694663 -185.562461 
L 398.410772 -188.088959 
L 399.126882 -185.014909 
L 399.842991 -188.931396 
L 400.559101 -195.547766 
L 401.275211 -195.161558 
L 401.99132 -194.155328 
L 402.70743 -199.94517 
L 403.423539 -204.482593 
L 404.139649 -203.655515 
L 404.855758 -200.908098 
L 405.571868 -200.175265 
L 406.287977 -203.076463 
L 407.004087 -205.858371 
L 407.720196 -204.574257 
L 408.436306 -209.353949 
L 409.152415 -209.199013 
L 409.868525 -210.944485 
L 410.584634 -215.411848 
L 411.300744 -217.008026 
L 412.016853 -220.837312 
L 412.732963 -218.504937 
L 413.449073 -217.148734 
L 414.165182 -220.667513 
L 414.881292 -219.538576 
L 415.597401 -224.979785 
L 416.313511 -226.081353 
L 417.02962 -229.526128 
L 417.74573 -233.152604 
L 418.461839 -231.759623 
L 419.177949 -240.718527 
L 419.894058 -246.345545 
L 420.610168 -250.358454 
L 421.326277 -245.211152 
L 422.042387 -241.274076 
L 422.758496 -243.044314 
L 423.474606 -245.878893 
L 424.190716 -248.258444 
L 424.906825 -243.631139 
L 425.622935 -248.545425 
L 426.339044 -252.888105 
L 427.055154 -263.001921 
L 427.771263 -257.638683 
L 428.487373 -254.975468 
L 429.203482 -259.038854 
L 429.919592 -262.275317 
L 430.635701 -265.758528 
L 431.351811 -272.42715 
L 432.06792 -274.58362 
L 432.78403 -273.764229 
L 433.500139 -270.598701 
L 434.216249 -268.130826 
L 434.932358 -274.158395 
L 435.648468 -278.292391 
L 436.364578 -275.701538 
L 437.080687 -285.655303 
L 437.796797 -291.404478 
L 438.512906 -294.57044 
L 439.229016 -295.315998 
L 439.945125 -293.908666 
L 440.661235 -286.50738 
L 441.377344 -295.587 
L 442.093454 -293.622972 
L 442.809563 -294.367956 
L 443.525673 -295.90276 
L 444.241782 -302.555776 
L 444.957892 -304.535473 
L 445.674001 -308.690036 
L 446.390111 -314.815213 
L 447.106221 -317.184349 
L 447.82233 -312.529163 
L 448.53844 -310.611133 
L 449.254549 -316.695984 
L 449.970659 -315.842404 
L 450.686768 -315.701122 
L 451.402878 -319.820938 
L 452.118987 -327.316437 
L 452.835097 -329.821198 
L 453.551206 -322.182464 
L 454.267316 -321.768786 
L 454.983425 -331.517122 
L 455.699535 -339.83457 
L 456.415644 -335.583159 
L 457.131754 -336.1543 
L 457.847863 -339.820405 
L 458.563973 -337.255758 
L 459.280083 -344.210494 
L 459.996192 -349.062585 
L 460.712302 -346.727994 
L 461.428411 -345.409467 
L 462.144521 -353.703776 
L 462.86063 -350.134659 
L 463.57674 -354.159052 
L 464.292849 -357.833805 
L 465.008959 -356.702311 
L 465.725068 -361.888048 
L 466.441178 -366.450384 
L 467.157287 -368.189471 
L 467.873397 -363.308336 
L 468.589506 -365.969939 
L 468.589506 -360.668895 
L 468.589506 -360.668895 
L 467.873397 -359.824397 
L 467.157287 -359.419242 
L 466.441178 -358.443288 
L 465.725068 -357.571947 
L 465.008959 -356.494665 
L 464.292849 -354.792402 
L 463.57674 -352.446095 
L 462.86063 -351.287851 
L 462.144521 -348.433171 
L 461.428411 -347.274276 
L 460.712302 -344.730056 
L 459.996192 -342.917539 
L 459.280083 -341.973418 
L 458.563973 -340.039085 
L 457.847863 -337.533363 
L 457.131754 -334.203957 
L 456.415644 -333.015847 
L 455.699535 -330.317436 
L 454.983425 -329.031207 
L 454.267316 -330.146816 
L 453.551206 -327.305232 
L 452.835097 -324.557164 
L 452.118987 -321.834653 
L 451.402878 -321.075984 
L 450.686768 -320.921653 
L 449.970659 -315.805038 
L 449.254549 -314.983756 
L 448.53844 -315.073956 
L 447.82233 -310.956914 
L 447.106221 -307.677196 
L 446.390111 -307.809116 
L 445.674001 -305.604463 
L 444.957892 -305.462716 
L 444.241782 -303.880084 
L 443.525673 -302.438377 
L 442.809563 -300.364312 
L 442.093454 -298.576483 
L 441.377344 -297.564899 
L 440.661235 -295.737689 
L 439.945125 -295.113947 
L 439.229016 -293.336285 
L 438.512906 -288.921911 
L 437.796797 -287.661518 
L 437.080687 -285.952125 
L 436.364578 -284.139562 
L 435.648468 -282.816261 
L 434.932358 -281.344891 
L 434.216249 -277.639544 
L 433.500139 -276.867547 
L 432.78403 -274.109948 
L 432.06792 -271.025026 
L 431.351811 -271.677191 
L 430.635701 -269.077597 
L 429.919592 -267.612518 
L 429.203482 -265.716543 
L 428.487373 -261.612179 
L 427.771263 -260.812362 
L 427.055154 -259.240657 
L 426.339044 -257.393377 
L 425.622935 -253.348325 
L 424.906825 -251.249787 
L 424.190716 -251.249539 
L 423.474606 -248.44901 
L 422.758496 -245.650759 
L 422.042387 -243.408073 
L 421.326277 -241.216733 
L 420.610168 -239.523862 
L 419.894058 -239.288785 
L 419.177949 -237.704975 
L 418.461839 -235.227088 
L 417.74573 -231.355538 
L 417.02962 -231.422754 
L 416.313511 -228.25735 
L 415.597401 -226.21845 
L 414.881292 -224.497667 
L 414.165182 -225.03733 
L 413.449073 -223.352301 
L 412.732963 -220.352651 
L 412.016853 -219.876081 
L 411.300744 -215.259129 
L 410.584634 -214.134546 
L 409.868525 -213.875137 
L 409.152415 -213.410516 
L 408.436306 -205.955203 
L 407.720196 -206.261014 
L 407.004087 -206.236481 
L 406.287977 -203.878767 
L 405.571868 -199.714905 
L 404.855758 -199.116271 
L 404.139649 -198.991131 
L 403.423539 -195.979694 
L 402.70743 -193.870874 
L 401.99132 -192.728685 
L 401.275211 -190.068531 
L 400.559101 -188.296046 
L 399.842991 -188.874378 
L 399.126882 -186.695072 
L 398.410772 -182.531954 
L 397.694663 -182.792665 
L 396.978553 -180.639257 
L 396.262444 -179.019653 
L 395.546334 -178.426296 
L 394.830225 -176.473055 
L 394.114115 -174.049923 
L 393.398006 -173.912927 
L 392.681896 -171.892725 
L 391.965787 -171.88744 
L 391.249677 -168.976254 
L 390.533568 -168.580235 
L 389.817458 -164.932411 
L 389.101348 -163.965368 
L 388.385239 -160.676102 
L 387.669129 -161.721884 
L 386.95302 -161.327082 
L 386.23691 -162.586971 
L 385.520801 -157.481453 
L 384.804691 -157.26836 
L 384.088582 -156.771387 
L 383.372472 -155.993779 
L 382.656363 -151.556606 
L 381.940253 -153.060941 
L 381.224144 -152.121911 
L 380.508034 -151.56141 
L 379.791925 -148.820007 
L 379.075815 -148.733558 
L 378.359706 -147.17119 
L 377.643596 -148.071164 
L 376.927486 -146.487191 
L 376.211377 -146.346235 
L 375.495267 -145.421177 
L 374.779158 -146.19639 
L 374.063048 -144.253525 
L 373.346939 -144.757884 
L 372.630829 -142.506348 
L 371.91472 -144.04939 
L 371.19861 -143.217414 
L 370.482501 -143.296122 
L 369.766391 -141.489571 
L 369.050282 -142.259392 
L 368.334172 -141.873005 
L 367.618063 -142.765277 
L 366.901953 -140.007879 
L 366.185843 -141.035729 
L 365.469734 -137.921675 
L 364.753624 -139.488084 
L 364.037515 -137.107084 
L 363.321405 -137.229784 
L 362.605296 -133.905519 
L 361.889186 -132.375534 
L 361.173077 -131.995193 
L 360.456967 -132.899037 
L 359.740858 -129.733219 
L 359.024748 -131.224559 
L 358.308639 -129.14923 
L 357.592529 -128.873118 
L 356.87642 -126.722352 
L 356.16031 -125.636775 
L 355.444201 -125.194161 
L 354.728091 -125.866009 
L 354.011981 -124.731717 
L 353.295872 -124.273462 
L 352.579762 -121.783463 
L 351.863653 -121.385767 
L 351.147543 -121.093009 
L 350.431434 -118.964727 
L 349.715324 -118.111573 
L 348.999215 -117.835302 
L 348.283105 -114.063902 
L 347.566996 -115.435344 
L 346.850886 -114.458355 
L 346.134777 -114.540205 
L 345.418667 -112.029849 
L 344.702558 -112.945139 
L 343.986448 -109.573938 
L 343.270338 -109.350024 
L 342.554229 -109.303343 
L 341.838119 -107.926741 
L 341.12201 -107.487964 
L 340.4059 -108.204058 
L 339.689791 -106.422398 
L 338.973681 -108.201787 
L 338.257572 -107.540724 
L 337.541462 -108.645064 
L 336.825353 -106.344153 
L 336.109243 -109.417197 
L 335.393134 -106.080115 
L 334.677024 -105.427857 
L 333.960915 -104.624309 
L 333.244805 -106.524318 
L 332.528696 -104.360091 
L 331.812586 -107.086748 
L 331.096476 -101.625205 
L 330.380367 -104.926346 
L 329.664257 -103.44625 
L 328.948148 -104.214214 
L 328.232038 -103.030611 
L 327.515929 -104.229891 
L 326.799819 -100.703034 
L 326.08371 -103.751771 
L 325.3676 -101.760065 
L 324.651491 -103.615336 
L 323.935381 -101.904896 
L 323.219272 -102.30177 
L 322.503162 -98.665129 
L 321.787053 -100.188576 
L 321.070943 -98.975766 
L 320.354833 -100.534517 
L 319.638724 -100.391909 
L 318.922614 -104.534526 
L 318.206505 -100.248099 
L 317.490395 -102.802377 
L 316.774286 -112.488782 
L 316.058176 -114.099184 
L 315.342067 -102.505971 
L 314.625957 -105.930331 
L 313.909848 -104.960863 
L 313.193738 -107.730882 
L 312.477629 -107.760638 
L 311.761519 -112.374099 
L 311.04541 -111.477717 
L 310.3293 -114.127545 
L 309.613191 -110.454532 
L 308.897081 -113.95338 
L 308.180971 -111.127845 
L 307.464862 -113.091605 
L 306.748752 -112.399249 
L 306.032643 -114.534533 
L 305.316533 -111.972366 
L 304.600424 -113.847864 
L 303.884314 -111.480379 
L 303.168205 -113.241717 
L 302.452095 -110.292262 
L 301.735986 -112.466174 
L 301.019876 -109.643215 
L 300.303767 -110.158582 
L 299.587657 -107.681245 
L 298.871548 -110.241222 
L 298.155438 -107.199397 
L 297.439328 -108.731552 
L 296.723219 -106.009722 
L 296.007109 -108.00374 
L 295.291 -105.028772 
L 294.57489 -106.410629 
L 293.858781 -104.250459 
L 293.142671 -104.522705 
L 292.426562 -102.563419 
L 291.710452 -103.944168 
L 290.994343 -101.778603 
L 290.278233 -102.270357 
L 289.562124 -100.525284 
L 288.846014 -102.806387 
L 288.129905 -100.075677 
L 287.413795 -101.693575 
L 286.697686 -99.315908 
L 285.981576 -100.324389 
L 285.265466 -98.476801 
L 284.549357 -99.48669 
L 283.833247 -97.789387 
L 283.117138 -98.961984 
L 282.401028 -96.849121 
L 281.684919 -97.810646 
L 280.968809 -97.17687 
L 280.2527 -99.000606 
L 279.53659 -96.901399 
L 278.820481 -99.407983 
L 278.104371 -97.697633 
L 277.388262 -98.197862 
L 276.672152 -97.673311 
L 275.956043 -99.186368 
L 275.239933 -96.856607 
L 274.523823 -98.208507 
L 273.807714 -97.845331 
L 273.091604 -98.493797 
L 272.375495 -96.104435 
L 271.659385 -96.358548 
L 270.943276 -96.048144 
L 270.227166 -95.895172 
L 269.511057 -93.984267 
L 268.794947 -95.291596 
L 268.078838 -95.075698 
L 267.362728 -95.45079 
L 266.646619 -94.82378 
L 265.930509 -95.771402 
L 265.2144 -93.710793 
L 264.49829 -95.080309 
L 263.782181 -93.138641 
L 263.066071 -96.277085 
L 262.349961 -94.850455 
L 261.633852 -94.855997 
L 260.917742 -94.205329 
L 260.201633 -97.91989 
L 259.485523 -94.007849 
L 258.769414 -94.770329 
L 258.053304 -94.467385 
L 257.337195 -95.208239 
L 256.621085 -93.261375 
L 255.904976 -93.703011 
L 255.188866 -93.164534 
L 254.472757 -94.755059 
L 253.756647 -91.813579 
L 253.040538 -92.705095 
L 252.324428 -91.679481 
L 251.608319 -92.591968 
L 250.892209 -90.211536 
L 250.176099 -91.014956 
L 249.45999 -89.292101 
L 248.74388 -90.048161 
L 248.027771 -89.926794 
L 247.311661 -91.605354 
L 246.595552 -89.048833 
L 245.879442 -90.696962 
L 245.163333 -89.481761 
L 244.447223 -89.016581 
L 243.731114 -88.158161 
L 243.015004 -90.691267 
L 242.298895 -92.023168 
L 241.582785 -94.577225 
L 240.866676 -92.912884 
L 240.150566 -95.506777 
L 239.434456 -94.149547 
L 238.718347 -96.982588 
L 238.002237 -95.817629 
L 237.286128 -97.236584 
L 236.570018 -96.547127 
L 235.853909 -97.02935 
L 235.137799 -94.712644 
L 234.42169 -96.405777 
L 233.70558 -95.949058 
L 232.989471 -97.72585 
L 232.273361 -93.890293 
L 231.557252 -94.416307 
L 230.841142 -94.187745 
L 230.125033 -94.842115 
L 229.408923 -93.081778 
L 228.692814 -92.797984 
L 227.976704 -94.134161 
L 227.260594 -94.849563 
L 226.544485 -94.460027 
L 225.828375 -95.249896 
L 225.112266 -93.093692 
L 224.396156 -94.578585 
L 223.680047 -94.260625 
L 222.963937 -96.790619 
L 222.247828 -94.94171 
L 221.531718 -96.001019 
L 220.815609 -95.573625 
L 220.099499 -97.449732 
L 219.38339 -101.407656 
L 218.66728 -102.951652 
L 217.951171 -100.937954 
L 217.235061 -105.361486 
L 216.518951 -103.155033 
L 215.802842 -106.150958 
L 215.086732 -131.190091 
L 214.370623 -131.764594 
L 213.654513 -121.13778 
L 212.938404 -130.002559 
L 212.222294 -133.117465 
L 211.506185 -133.150364 
L 210.790075 -130.676906 
L 210.073966 -131.036279 
L 209.357856 -129.044648 
L 208.641747 -129.354183 
L 207.925637 -128.651788 
L 207.209528 -129.510602 
L 206.493418 -126.323164 
L 205.777309 -125.293326 
L 205.061199 -125.572267 
L 204.345089 -127.285875 
L 203.62898 -122.839202 
L 202.91287 -122.386402 
L 202.196761 -120.07311 
L 201.480651 -119.099895 
L 200.764542 -117.023028 
L 200.048432 -114.943488 
L 199.332323 -112.000612 
L 198.616213 -112.777619 
L 197.900104 -109.635772 
L 197.183994 -107.445573 
L 196.467885 -106.208824 
L 195.751775 -109.539544 
L 195.035666 -103.141309 
L 194.319556 -102.408228 
L 193.603446 -102.840246 
L 192.887337 -101.629897 
L 192.171227 -99.823254 
L 191.455118 -100.221851 
L 190.739008 -98.109547 
L 190.022899 -98.174425 
L 189.306789 -96.423164 
L 188.59068 -95.887131 
L 187.87457 -95.049986 
L 187.158461 -96.49067 
L 186.442351 -93.675135 
L 185.726242 -93.895624 
L 185.010132 -93.157704 
L 184.294023 -94.596384 
L 183.577913 -93.850685 
L 182.861804 -97.04073 
L 182.145694 -98.696362 
L 181.429584 -99.19446 
L 180.713475 -96.484159 
L 179.997365 -97.441161 
L 179.281256 -101.161485 
L 178.565146 -101.04857 
L 177.849037 -95.666072 
L 177.132927 -98.262466 
L 176.416818 -101.263449 
L 175.700708 -100.248436 
L 174.984599 -99.554065 
L 174.268489 -99.827043 
L 173.55238 -96.615768 
L 172.83627 -93.733325 
L 172.120161 -91.765973 
L 171.404051 -91.240087 
L 170.687941 -91.661065 
L 169.971832 -92.175143 
L 169.255722 -84.095661 
L 168.539613 -86.467391 
L 167.823503 -95.446092 
L 167.107394 -96.198074 
L 166.391284 -88.881405 
L 165.675175 -88.93001 
L 164.959065 -98.174306 
L 164.242956 -98.075366 
L 163.526846 -103.571468 
L 162.810737 -112.765778 
L 162.094627 -122.78798 
L 161.378518 -130.725222 
L 160.662408 -136.974714 
L 159.946299 -137.91937 
L 159.230189 -133.192756 
L 158.514079 -135.488814 
L 157.79797 -125.251423 
L 157.08186 -127.358035 
L 156.365751 -153.347736 
L 155.649641 -154.562595 
L 154.933532 -143.062548 
L 154.217422 -151.365993 
L 153.501313 -159.049331 
L 152.785203 -176.060345 
L 152.069094 -170.074179 
L 151.352984 -175.787878 
L 150.636875 -167.473244 
L 149.920765 -179.05719 
L 149.204656 -176.273484 
L 148.488546 -183.90994 
L 147.772436 -183.004673 
L 147.056327 -185.29349 
L 146.340217 -179.560154 
L 145.624108 -178.926284 
L 144.907998 -172.478992 
L 144.191889 -172.65895 
L 143.475779 -167.725749 
L 142.75967 -167.234246 
L 142.04356 -163.038907 
L 141.327451 -162.118228 
L 140.611341 -161.012631 
L 139.895232 -160.998016 
L 139.179122 -161.16053 
L 138.463013 -161.328833 
L 137.746903 -157.757973 
L 137.030794 -157.958628 
L 136.314684 -157.443645 
L 135.598574 -157.215077 
L 134.882465 -154.261992 
L 134.166355 -154.816797 
L 133.450246 -154.255188 
L 132.734136 -154.971121 
L 132.018027 -152.830142 
L 131.301917 -152.596111 
L 130.585808 -149.107026 
L 129.869698 -148.008148 
L 129.153589 -144.150965 
L 128.437479 -142.319966 
L 127.72137 -139.505039 
L 127.00526 -139.176713 
L 126.289151 -136.836799 
L 125.573041 -136.153843 
L 124.856931 -132.601471 
L 124.140822 -132.230866 
L 123.424712 -127.151792 
L 122.708603 -125.918463 
L 121.992493 -122.229246 
L 121.276384 -120.626063 
L 120.560274 -117.685019 
L 119.844165 -115.476883 
L 119.128055 -112.71742 
L 118.411946 -110.830321 
L 117.695836 -107.83304 
L 116.979727 -107.066273 
L 116.263617 -104.371636 
L 115.547508 -102.357787 
L 114.831398 -100.666297 
L 114.115289 -99.744515 
L 113.399179 -98.009491 
L 112.683069 -96.08568 
L 111.96696 -95.299847 
L 111.25085 -93.719197 
L 110.534741 -92.607947 
L 109.818631 -92.104369 
L 109.102522 -90.446311 
L 108.386412 -89.962413 
L 107.670303 -88.109882 
L 106.954193 -86.154884 
L 106.238084 -85.899143 
L 105.521974 -86.688212 
L 104.805865 -84.965518 
L 104.089755 -84.588538 
L 103.373646 -84.270348 
L 102.657536 -83.245761 
z
"/>
    </defs>
    <g clip-path="url(#pc8e2a68471)">
     <use xlink:href="#m7c407cf8c7" x="0" y="396.338384" style="fill-opacity: 0.08"/>
    </g>
   </g>
   <g id="matplotlib.axis_1">
    <g id="xtick_1">
     <g id="line2d_1">
      <defs>
       <path id="m9f5e8041d2" d="M 0 0 
L 0 3.5 
" style="stroke: #000000; stroke-width: 0.8"/>
      </defs>
      <g>
       <use xlink:href="#m9f5e8041d2" x="102.657536" y="331.495103" style="stroke: #000000; stroke-width: 0.8"/>
      </g>
     </g>
     <g id="text_1">
      <!-- 0 -->
      <g transform="translate(95.340661 355.971509) scale(0.23 -0.23)">
       <defs>
        <path id="DejaVuSans-30" d="M 2034 4250 
Q 1547 4250 1301 3770 
Q 1056 3291 1056 2328 
Q 1056 1369 1301 889 
Q 1547 409 2034 409 
Q 2525 409 2770 889 
Q 3016 1369 3016 2328 
Q 3016 3291 2770 3770 
Q 2525 4250 2034 4250 
z
M 2034 4750 
Q 2819 4750 3233 4129 
Q 3647 3509 3647 2328 
Q 3647 1150 3233 529 
Q 2819 -91 2034 -91 
Q 1250 -91 836 529 
Q 422 1150 422 2328 
Q 422 3509 836 4129 
Q 1250 4750 2034 4750 
z
" transform="scale(0.015625)"/>
       </defs>
       <use xlink:href="#DejaVuSans-30"/>
      </g>
     </g>
    </g>
    <g id="xtick_2">
     <g id="line2d_2">
      <g>
       <use xlink:href="#m9f5e8041d2" x="229.365282" y="331.495103" style="stroke: #000000; stroke-width: 0.8"/>
      </g>
     </g>
     <g id="text_2">
      <!-- 100 -->
      <g transform="translate(207.414657 355.971509) scale(0.23 -0.23)">
       <defs>
        <path id="DejaVuSans-31" d="M 794 531 
L 1825 531 
L 1825 4091 
L 703 3866 
L 703 4441 
L 1819 4666 
L 2450 4666 
L 2450 531 
L 3481 531 
L 3481 0 
L 794 0 
L 794 531 
z
" transform="scale(0.015625)"/>
       </defs>
       <use xlink:href="#DejaVuSans-31"/>
       <use xlink:href="#DejaVuSans-30" transform="translate(63.623047 0)"/>
       <use xlink:href="#DejaVuSans-30" transform="translate(127.246094 0)"/>
      </g>
     </g>
    </g>
    <g id="xtick_3">
     <g id="line2d_3">
      <g>
       <use xlink:href="#m9f5e8041d2" x="356.073028" y="331.495103" style="stroke: #000000; stroke-width: 0.8"/>
      </g>
     </g>
     <g id="text_3">
      <!-- 200 -->
      <g transform="translate(334.122403 355.971509) scale(0.23 -0.23)">
       <defs>
        <path id="DejaVuSans-32" d="M 1228 531 
L 3431 531 
L 3431 0 
L 469 0 
L 469 531 
Q 828 903 1448 1529 
Q 2069 2156 2228 2338 
Q 2531 2678 2651 2914 
Q 2772 3150 2772 3378 
Q 2772 3750 2511 3984 
Q 2250 4219 1831 4219 
Q 1534 4219 1204 4116 
Q 875 4013 500 3803 
L 500 4441 
Q 881 4594 1212 4672 
Q 1544 4750 1819 4750 
Q 2544 4750 2975 4387 
Q 3406 4025 3406 3419 
Q 3406 3131 3298 2873 
Q 3191 2616 2906 2266 
Q 2828 2175 2409 1742 
Q 1991 1309 1228 531 
z
" transform="scale(0.015625)"/>
       </defs>
       <use xlink:href="#DejaVuSans-32"/>
       <use xlink:href="#DejaVuSans-30" transform="translate(63.623047 0)"/>
       <use xlink:href="#DejaVuSans-30" transform="translate(127.246094 0)"/>
      </g>
     </g>
    </g>
    <g id="xtick_4">
     <g id="line2d_4">
      <g>
       <use xlink:href="#m9f5e8041d2" x="482.780774" y="331.495103" style="stroke: #000000; stroke-width: 0.8"/>
      </g>
     </g>
     <g id="text_4">
      <!-- 300 -->
      <g transform="translate(460.830149 355.971509) scale(0.23 -0.23)">
       <defs>
        <path id="DejaVuSans-33" d="M 2597 2516 
Q 3050 2419 3304 2112 
Q 3559 1806 3559 1356 
Q 3559 666 3084 287 
Q 2609 -91 1734 -91 
Q 1441 -91 1130 -33 
Q 819 25 488 141 
L 488 750 
Q 750 597 1062 519 
Q 1375 441 1716 441 
Q 2309 441 2620 675 
Q 2931 909 2931 1356 
Q 2931 1769 2642 2001 
Q 2353 2234 1838 2234 
L 1294 2234 
L 1294 2753 
L 1863 2753 
Q 2328 2753 2575 2939 
Q 2822 3125 2822 3475 
Q 2822 3834 2567 4026 
Q 2313 4219 1838 4219 
Q 1578 4219 1281 4162 
Q 984 4106 628 3988 
L 628 4550 
Q 988 4650 1302 4700 
Q 1616 4750 1894 4750 
Q 2613 4750 3031 4423 
Q 3450 4097 3450 3541 
Q 3450 3153 3228 2886 
Q 3006 2619 2597 2516 
z
" transform="scale(0.015625)"/>
       </defs>
       <use xlink:href="#DejaVuSans-33"/>
       <use xlink:href="#DejaVuSans-30" transform="translate(63.623047 0)"/>
       <use xlink:href="#DejaVuSans-30" transform="translate(127.246094 0)"/>
      </g>
     </g>
    </g>
    <g id="text_5">
     <!-- Extension (Å) -->
     <g transform="translate(208.672349 384.355103) scale(0.23 -0.23)">
      <defs>
       <path id="DejaVuSans-45" d="M 628 4666 
L 3578 4666 
L 3578 4134 
L 1259 4134 
L 1259 2753 
L 3481 2753 
L 3481 2222 
L 1259 2222 
L 1259 531 
L 3634 531 
L 3634 0 
L 628 0 
L 628 4666 
z
" transform="scale(0.015625)"/>
       <path id="DejaVuSans-78" d="M 3513 3500 
L 2247 1797 
L 3578 0 
L 2900 0 
L 1881 1375 
L 863 0 
L 184 0 
L 1544 1831 
L 300 3500 
L 978 3500 
L 1906 2253 
L 2834 3500 
L 3513 3500 
z
" transform="scale(0.015625)"/>
       <path id="DejaVuSans-74" d="M 1172 4494 
L 1172 3500 
L 2356 3500 
L 2356 3053 
L 1172 3053 
L 1172 1153 
Q 1172 725 1289 603 
Q 1406 481 1766 481 
L 2356 481 
L 2356 0 
L 1766 0 
Q 1100 0 847 248 
Q 594 497 594 1153 
L 594 3053 
L 172 3053 
L 172 3500 
L 594 3500 
L 594 4494 
L 1172 4494 
z
" transform="scale(0.015625)"/>
       <path id="DejaVuSans-65" d="M 3597 1894 
L 3597 1613 
L 953 1613 
Q 991 1019 1311 708 
Q 1631 397 2203 397 
Q 2534 397 2845 478 
Q 3156 559 3463 722 
L 3463 178 
Q 3153 47 2828 -22 
Q 2503 -91 2169 -91 
Q 1331 -91 842 396 
Q 353 884 353 1716 
Q 353 2575 817 3079 
Q 1281 3584 2069 3584 
Q 2775 3584 3186 3129 
Q 3597 2675 3597 1894 
z
M 3022 2063 
Q 3016 2534 2758 2815 
Q 2500 3097 2075 3097 
Q 1594 3097 1305 2825 
Q 1016 2553 972 2059 
L 3022 2063 
z
" transform="scale(0.015625)"/>
       <path id="DejaVuSans-6e" d="M 3513 2113 
L 3513 0 
L 2938 0 
L 2938 2094 
Q 2938 2591 2744 2837 
Q 2550 3084 2163 3084 
Q 1697 3084 1428 2787 
Q 1159 2491 1159 1978 
L 1159 0 
L 581 0 
L 581 3500 
L 1159 3500 
L 1159 2956 
Q 1366 3272 1645 3428 
Q 1925 3584 2291 3584 
Q 2894 3584 3203 3211 
Q 3513 2838 3513 2113 
z
" transform="scale(0.015625)"/>
       <path id="DejaVuSans-73" d="M 2834 3397 
L 2834 2853 
Q 2591 2978 2328 3040 
Q 2066 3103 1784 3103 
Q 1356 3103 1142 2972 
Q 928 2841 928 2578 
Q 928 2378 1081 2264 
Q 1234 2150 1697 2047 
L 1894 2003 
Q 2506 1872 2764 1633 
Q 3022 1394 3022 966 
Q 3022 478 2636 193 
Q 2250 -91 1575 -91 
Q 1294 -91 989 -36 
Q 684 19 347 128 
L 347 722 
Q 666 556 975 473 
Q 1284 391 1588 391 
Q 1994 391 2212 530 
Q 2431 669 2431 922 
Q 2431 1156 2273 1281 
Q 2116 1406 1581 1522 
L 1381 1569 
Q 847 1681 609 1914 
Q 372 2147 372 2553 
Q 372 3047 722 3315 
Q 1072 3584 1716 3584 
Q 2034 3584 2315 3537 
Q 2597 3491 2834 3397 
z
" transform="scale(0.015625)"/>
       <path id="DejaVuSans-69" d="M 603 3500 
L 1178 3500 
L 1178 0 
L 603 0 
L 603 3500 
z
M 603 4863 
L 1178 4863 
L 1178 4134 
L 603 4134 
L 603 4863 
z
" transform="scale(0.015625)"/>
       <path id="DejaVuSans-6f" d="M 1959 3097 
Q 1497 3097 1228 2736 
Q 959 2375 959 1747 
Q 959 1119 1226 758 
Q 1494 397 1959 397 
Q 2419 397 2687 759 
Q 2956 1122 2956 1747 
Q 2956 2369 2687 2733 
Q 2419 3097 1959 3097 
z
M 1959 3584 
Q 2709 3584 3137 3096 
Q 3566 2609 3566 1747 
Q 3566 888 3137 398 
Q 2709 -91 1959 -91 
Q 1206 -91 779 398 
Q 353 888 353 1747 
Q 353 2609 779 3096 
Q 1206 3584 1959 3584 
z
" transform="scale(0.015625)"/>
       <path id="DejaVuSans-20" transform="scale(0.015625)"/>
       <path id="DejaVuSans-28" d="M 1984 4856 
Q 1566 4138 1362 3434 
Q 1159 2731 1159 2009 
Q 1159 1288 1364 580 
Q 1569 -128 1984 -844 
L 1484 -844 
Q 1016 -109 783 600 
Q 550 1309 550 2009 
Q 550 2706 781 3412 
Q 1013 4119 1484 4856 
L 1984 4856 
z
" transform="scale(0.015625)"/>
       <path id="DejaVuSans-c5" d="M 2663 5081 
Q 2663 5278 2523 5417 
Q 2384 5556 2188 5556 
Q 1988 5556 1852 5420 
Q 1716 5284 1716 5081 
Q 1716 4884 1853 4746 
Q 1991 4609 2188 4609 
Q 2384 4609 2523 4746 
Q 2663 4884 2663 5081 
z
M 2188 4044 
L 1338 1722 
L 3041 1722 
L 2188 4044 
z
M 1716 4366 
Q 1525 4494 1428 4673 
Q 1331 4853 1331 5081 
Q 1331 5441 1579 5691 
Q 1828 5941 2188 5941 
Q 2544 5941 2795 5689 
Q 3047 5438 3047 5081 
Q 3047 4863 2948 4678 
Q 2850 4494 2663 4366 
L 4325 0 
L 3669 0 
L 3244 1197 
L 1141 1197 
L 716 0 
L 50 0 
L 1716 4366 
z
" transform="scale(0.015625)"/>
       <path id="DejaVuSans-29" d="M 513 4856 
L 1013 4856 
Q 1481 4119 1714 3412 
Q 1947 2706 1947 2009 
Q 1947 1309 1714 600 
Q 1481 -109 1013 -844 
L 513 -844 
Q 928 -128 1133 580 
Q 1338 1288 1338 2009 
Q 1338 2731 1133 3434 
Q 928 4138 513 4856 
z
" transform="scale(0.015625)"/>
      </defs>
      <use xlink:href="#DejaVuSans-45"/>
      <use xlink:href="#DejaVuSans-78" transform="translate(63.183594 0)"/>
      <use xlink:href="#DejaVuSans-74" transform="translate(122.363281 0)"/>
      <use xlink:href="#DejaVuSans-65" transform="translate(161.572266 0)"/>
      <use xlink:href="#DejaVuSans-6e" transform="translate(223.095703 0)"/>
      <use xlink:href="#DejaVuSans-73" transform="translate(286.474609 0)"/>
      <use xlink:href="#DejaVuSans-69" transform="translate(338.574219 0)"/>
      <use xlink:href="#DejaVuSans-6f" transform="translate(366.357422 0)"/>
      <use xlink:href="#DejaVuSans-6e" transform="translate(427.539062 0)"/>
      <use xlink:href="#DejaVuSans-20" transform="translate(490.917969 0)"/>
      <use xlink:href="#DejaVuSans-28" transform="translate(522.705078 0)"/>
      <use xlink:href="#DejaVuSans-c5" transform="translate(561.71875 0)"/>
      <use xlink:href="#DejaVuSans-29" transform="translate(630.126953 0)"/>
     </g>
    </g>
   </g>
   <g id="matplotlib.axis_2">
    <g id="ytick_1">
     <g id="line2d_5">
      <path d="M 84.360938 320.645695 
L 486.886105 320.645695 
" clip-path="url(#pc8e2a68471)" style="fill: none; stroke-dasharray: 1.85,0.8; stroke-dashoffset: 0; stroke: #b0b0b0; stroke-opacity: 0.6; stroke-width: 0.5"/>
     </g>
     <g id="line2d_6">
      <defs>
       <path id="mcbc517227a" d="M 0 0 
L -3.5 0 
" style="stroke: #000000; stroke-width: 0.8"/>
      </defs>
      <g>
       <use xlink:href="#mcbc517227a" x="84.360938" y="320.645695" style="stroke: #000000; stroke-width: 0.8"/>
      </g>
     </g>
     <g id="text_6">
      <!-- 0 -->
      <g transform="translate(62.727188 329.383899) scale(0.23 -0.23)">
       <use xlink:href="#DejaVuSans-30"/>
      </g>
     </g>
    </g>
    <g id="ytick_2">
     <g id="line2d_7">
      <path d="M 84.360938 219.076531 
L 486.886105 219.076531 
" clip-path="url(#pc8e2a68471)" style="fill: none; stroke-dasharray: 1.85,0.8; stroke-dashoffset: 0; stroke: #b0b0b0; stroke-opacity: 0.6; stroke-width: 0.5"/>
     </g>
     <g id="line2d_8">
      <g>
       <use xlink:href="#mcbc517227a" x="84.360938" y="219.076531" style="stroke: #000000; stroke-width: 0.8"/>
      </g>
     </g>
     <g id="text_7">
      <!-- 100 -->
      <g transform="translate(33.459688 227.814734) scale(0.23 -0.23)">
       <use xlink:href="#DejaVuSans-31"/>
       <use xlink:href="#DejaVuSans-30" transform="translate(63.623047 0)"/>
       <use xlink:href="#DejaVuSans-30" transform="translate(127.246094 0)"/>
      </g>
     </g>
    </g>
    <g id="ytick_3">
     <g id="line2d_9">
      <path d="M 84.360938 117.507367 
L 486.886105 117.507367 
" clip-path="url(#pc8e2a68471)" style="fill: none; stroke-dasharray: 1.85,0.8; stroke-dashoffset: 0; stroke: #b0b0b0; stroke-opacity: 0.6; stroke-width: 0.5"/>
     </g>
     <g id="line2d_10">
      <g>
       <use xlink:href="#mcbc517227a" x="84.360938" y="117.507367" style="stroke: #000000; stroke-width: 0.8"/>
      </g>
     </g>
     <g id="text_8">
      <!-- 200 -->
      <g transform="translate(33.459688 126.24557) scale(0.23 -0.23)">
       <use xlink:href="#DejaVuSans-32"/>
       <use xlink:href="#DejaVuSans-30" transform="translate(63.623047 0)"/>
       <use xlink:href="#DejaVuSans-30" transform="translate(127.246094 0)"/>
      </g>
     </g>
    </g>
    <g id="ytick_4">
     <g id="line2d_11">
      <path d="M 84.360938 15.938203 
L 486.886105 15.938203 
" clip-path="url(#pc8e2a68471)" style="fill: none; stroke-dasharray: 1.85,0.8; stroke-dashoffset: 0; stroke: #b0b0b0; stroke-opacity: 0.6; stroke-width: 0.5"/>
     </g>
     <g id="line2d_12">
      <g>
       <use xlink:href="#mcbc517227a" x="84.360938" y="15.938203" style="stroke: #000000; stroke-width: 0.8"/>
      </g>
     </g>
     <g id="text_9">
      <!-- 300 -->
      <g transform="translate(33.459688 24.676406) scale(0.23 -0.23)">
       <use xlink:href="#DejaVuSans-33"/>
       <use xlink:href="#DejaVuSans-30" transform="translate(63.623047 0)"/>
       <use xlink:href="#DejaVuSans-30" transform="translate(127.246094 0)"/>
      </g>
     </g>
    </g>
    <g id="text_10">
     <!-- Force (pN) -->
     <g transform="translate(24.676406 232.234167) rotate(-90) scale(0.23 -0.23)">
      <defs>
       <path id="DejaVuSans-46" d="M 628 4666 
L 3309 4666 
L 3309 4134 
L 1259 4134 
L 1259 2759 
L 3109 2759 
L 3109 2228 
L 1259 2228 
L 1259 0 
L 628 0 
L 628 4666 
z
" transform="scale(0.015625)"/>
       <path id="DejaVuSans-72" d="M 2631 2963 
Q 2534 3019 2420 3045 
Q 2306 3072 2169 3072 
Q 1681 3072 1420 2755 
Q 1159 2438 1159 1844 
L 1159 0 
L 581 0 
L 581 3500 
L 1159 3500 
L 1159 2956 
Q 1341 3275 1631 3429 
Q 1922 3584 2338 3584 
Q 2397 3584 2469 3576 
Q 2541 3569 2628 3553 
L 2631 2963 
z
" transform="scale(0.015625)"/>
       <path id="DejaVuSans-63" d="M 3122 3366 
L 3122 2828 
Q 2878 2963 2633 3030 
Q 2388 3097 2138 3097 
Q 1578 3097 1268 2742 
Q 959 2388 959 1747 
Q 959 1106 1268 751 
Q 1578 397 2138 397 
Q 2388 397 2633 464 
Q 2878 531 3122 666 
L 3122 134 
Q 2881 22 2623 -34 
Q 2366 -91 2075 -91 
Q 1284 -91 818 406 
Q 353 903 353 1747 
Q 353 2603 823 3093 
Q 1294 3584 2113 3584 
Q 2378 3584 2631 3529 
Q 2884 3475 3122 3366 
z
" transform="scale(0.015625)"/>
       <path id="DejaVuSans-70" d="M 1159 525 
L 1159 -1331 
L 581 -1331 
L 581 3500 
L 1159 3500 
L 1159 2969 
Q 1341 3281 1617 3432 
Q 1894 3584 2278 3584 
Q 2916 3584 3314 3078 
Q 3713 2572 3713 1747 
Q 3713 922 3314 415 
Q 2916 -91 2278 -91 
Q 1894 -91 1617 61 
Q 1341 213 1159 525 
z
M 3116 1747 
Q 3116 2381 2855 2742 
Q 2594 3103 2138 3103 
Q 1681 3103 1420 2742 
Q 1159 2381 1159 1747 
Q 1159 1113 1420 752 
Q 1681 391 2138 391 
Q 2594 391 2855 752 
Q 3116 1113 3116 1747 
z
" transform="scale(0.015625)"/>
       <path id="DejaVuSans-4e" d="M 628 4666 
L 1478 4666 
L 3547 763 
L 3547 4666 
L 4159 4666 
L 4159 0 
L 3309 0 
L 1241 3903 
L 1241 0 
L 628 0 
L 628 4666 
z
" transform="scale(0.015625)"/>
      </defs>
      <use xlink:href="#DejaVuSans-46"/>
      <use xlink:href="#DejaVuSans-6f" transform="translate(53.894531 0)"/>
      <use xlink:href="#DejaVuSans-72" transform="translate(115.076172 0)"/>
      <use xlink:href="#DejaVuSans-63" transform="translate(153.939453 0)"/>
      <use xlink:href="#DejaVuSans-65" transform="translate(208.919922 0)"/>
      <use xlink:href="#DejaVuSans-20" transform="translate(270.443359 0)"/>
      <use xlink:href="#DejaVuSans-28" transform="translate(302.230469 0)"/>
      <use xlink:href="#DejaVuSans-70" transform="translate(341.244141 0)"/>
      <use xlink:href="#DejaVuSans-4e" transform="translate(404.720703 0)"/>
      <use xlink:href="#DejaVuSans-29" transform="translate(479.525391 0)"/>
     </g>
    </g>
   </g>
   <g id="line2d_13">
    <path d="M 102.657536 317.050046 
L 103.373646 314.063809 
L 104.089755 314.264267 
L 105.521974 306.986332 
L 106.238084 308.315694 
L 106.954193 309.348772 
L 107.670303 309.416084 
L 108.386412 307.382009 
L 109.102522 299.070822 
L 109.818631 297.338053 
L 110.534741 294.463952 
L 111.25085 298.033586 
L 111.96696 299.522894 
L 112.683069 296.475184 
L 114.115289 292.005999 
L 114.831398 293.170834 
L 115.547508 289.620681 
L 116.263617 293.959547 
L 117.695836 284.014096 
L 118.411946 284.931815 
L 119.844165 280.39793 
L 120.560274 279.177906 
L 121.276384 270.121185 
L 121.992493 274.194502 
L 122.708603 274.942795 
L 123.424712 275.877338 
L 124.140822 271.348459 
L 124.856931 265.856647 
L 125.573041 265.212177 
L 126.289151 262.636767 
L 127.00526 263.092822 
L 127.72137 259.450421 
L 128.437479 254.124588 
L 129.153589 258.436551 
L 129.869698 258.83878 
L 130.585808 260.021066 
L 131.301917 256.741119 
L 132.018027 251.917881 
L 132.734136 242.247965 
L 133.450246 247.470666 
L 134.166355 242.682264 
L 134.882465 245.013352 
L 135.598574 239.110505 
L 136.314684 237.280847 
L 137.030794 243.197054 
L 137.746903 243.213807 
L 138.463013 240.356826 
L 139.179122 234.306172 
L 139.895232 232.076132 
L 140.611341 235.132986 
L 141.327451 234.155622 
L 142.04356 224.104543 
L 142.75967 219.761274 
L 143.475779 221.638822 
L 144.191889 225.547133 
L 144.907998 222.092602 
L 145.624108 225.85895 
L 146.340217 221.814207 
L 147.056327 220.1804 
L 147.772436 215.367264 
L 148.488546 209.629674 
L 149.204656 213.510708 
L 149.920765 208.729173 
L 150.636875 209.872105 
L 151.352984 209.282281 
L 152.069094 201.088122 
L 152.785203 202.892487 
L 153.501313 203.382185 
L 154.217422 202.565599 
L 154.933532 202.115608 
L 155.649641 195.118128 
L 156.365751 211.887649 
L 157.08186 262.714227 
L 157.79797 287.373894 
L 158.514079 295.387307 
L 159.230189 286.082652 
L 159.946299 290.030875 
L 160.662408 289.894781 
L 161.378518 290.539581 
L 162.094627 291.378587 
L 162.810737 284.150097 
L 163.526846 288.78357 
L 164.242956 294.419987 
L 164.959065 292.900379 
L 165.675175 288.360924 
L 166.391284 289.375526 
L 167.107394 283.644607 
L 167.823503 288.129882 
L 168.539613 296.380152 
L 169.255722 300.949298 
L 169.971832 297.253588 
L 170.687941 299.401923 
L 171.404051 298.747334 
L 172.120161 296.906676 
L 172.83627 296.775297 
L 173.55238 296.090545 
L 174.268489 297.627978 
L 174.984599 302.529094 
L 175.700708 300.64335 
L 176.416818 294.859672 
L 177.132927 290.448221 
L 177.849037 289.881476 
L 178.565146 296.406137 
L 179.281256 296.891328 
L 179.997365 294.388231 
L 180.713475 292.897864 
L 181.429584 289.797322 
L 182.145694 282.336955 
L 182.861804 285.51835 
L 183.577913 277.09892 
L 184.294023 281.772216 
L 185.010132 282.568704 
L 185.726242 281.85734 
L 186.442351 286.697377 
L 187.87457 281.258143 
L 188.59068 276.64746 
L 189.306789 267.623801 
L 190.022899 272.486594 
L 190.739008 267.891971 
L 191.455118 273.322072 
L 192.171227 273.581214 
L 192.887337 271.407278 
L 193.603446 270.158757 
L 194.319556 275.085886 
L 195.035666 278.108819 
L 196.467885 267.21738 
L 197.183994 267.554152 
L 197.900104 264.942856 
L 198.616213 261.834013 
L 199.332323 263.682979 
L 200.048432 266.061817 
L 200.764542 263.213243 
L 201.480651 261.628821 
L 202.196761 271.972894 
L 202.91287 263.275065 
L 203.62898 262.397866 
L 204.345089 261.131095 
L 205.061199 268.496115 
L 205.777309 265.912511 
L 206.493418 264.15433 
L 207.209528 259.321453 
L 207.925637 257.544767 
L 208.641747 263.933314 
L 209.357856 265.820738 
L 210.073966 275.688802 
L 210.790075 282.965591 
L 211.506185 295.35923 
L 212.222294 301.663362 
L 212.938404 296.178947 
L 213.654513 286.419967 
L 214.370623 280.232986 
L 215.086732 282.633855 
L 215.802842 286.506237 
L 216.518951 289.146556 
L 217.235061 278.089094 
L 217.951171 275.00955 
L 218.66728 274.534289 
L 219.38339 276.833548 
L 220.099499 277.090035 
L 220.815609 277.050306 
L 221.531718 269.444812 
L 222.247828 267.202633 
L 222.963937 272.358486 
L 223.680047 270.437977 
L 224.396156 266.898787 
L 225.112266 271.027614 
L 225.828375 282.083412 
L 226.544485 285.638101 
L 227.260594 287.671161 
L 227.976704 286.754519 
L 228.692814 286.673862 
L 229.408923 289.626898 
L 230.125033 293.454804 
L 230.841142 291.474129 
L 231.557252 288.700554 
L 232.273361 289.805286 
L 233.70558 283.324336 
L 234.42169 293.34695 
L 235.137799 300.342273 
L 235.853909 303.561929 
L 236.570018 305.317436 
L 237.286128 304.235346 
L 238.002237 307.467627 
L 238.718347 305.913934 
L 239.434456 301.465523 
L 240.150566 297.995308 
L 240.866676 302.008666 
L 241.582785 300.245793 
L 242.298895 299.338105 
L 243.015004 299.871093 
L 243.731114 297.795243 
L 244.447223 299.75672 
L 245.163333 296.13098 
L 245.879442 300.683942 
L 246.595552 294.531706 
L 247.311661 300.050049 
L 248.74388 299.85454 
L 249.45999 303.063053 
L 250.176099 302.595555 
L 250.892209 304.764692 
L 251.608319 302.744398 
L 253.040538 305.539969 
L 253.756647 300.621637 
L 254.472757 296.531322 
L 255.188866 303.619567 
L 255.904976 297.84111 
L 256.621085 294.351851 
L 258.053304 299.484236 
L 258.769414 293.782363 
L 259.485523 294.425299 
L 260.201633 300.16453 
L 260.917742 300.029035 
L 261.633852 297.260351 
L 262.349961 301.027837 
L 263.066071 303.398773 
L 263.782181 294.809801 
L 265.2144 301.283529 
L 265.930509 300.819514 
L 266.646619 296.045389 
L 267.362728 299.007351 
L 268.078838 298.525808 
L 268.794947 299.002285 
L 269.511057 300.302716 
L 270.227166 294.167473 
L 270.943276 305.036427 
L 271.659385 301.912124 
L 272.375495 301.039459 
L 273.091604 299.348872 
L 273.807714 299.550833 
L 274.523823 297.832882 
L 275.239933 294.943668 
L 275.956043 297.832526 
L 276.672152 299.166295 
L 277.388262 298.384778 
L 278.104371 302.115096 
L 278.820481 299.930315 
L 279.53659 299.680902 
L 280.2527 296.875964 
L 281.684919 302.426703 
L 282.401028 294.473024 
L 283.117138 288.737513 
L 283.833247 295.794955 
L 284.549357 301.400665 
L 285.265466 296.331234 
L 285.981576 289.552797 
L 286.697686 296.442263 
L 287.413795 297.495627 
L 288.129905 298.970349 
L 288.846014 298.60296 
L 289.562124 295.463146 
L 290.278233 290.297274 
L 291.710452 295.48147 
L 292.426562 292.059176 
L 293.142671 291.814961 
L 293.858781 292.030878 
L 294.57489 297.232522 
L 295.291 294.345875 
L 296.007109 289.881884 
L 296.723219 293.102477 
L 297.439328 297.61278 
L 298.155438 293.128084 
L 298.871548 295.227491 
L 299.587657 286.403748 
L 300.303767 290.054754 
L 301.019876 295.019186 
L 301.735986 298.896956 
L 302.452095 293.720771 
L 303.168205 290.41735 
L 303.884314 294.92707 
L 304.600424 297.90077 
L 306.032643 286.684184 
L 306.748752 294.092481 
L 308.180971 287.054661 
L 308.897081 291.977525 
L 309.613191 292.107896 
L 310.3293 294.722044 
L 311.04541 292.155842 
L 311.761519 290.372347 
L 312.477629 284.928727 
L 313.193738 287.499856 
L 313.909848 284.173185 
L 314.625957 284.980259 
L 315.342067 287.160534 
L 316.058176 292.460361 
L 316.774286 290.69621 
L 317.490395 285.557696 
L 318.206505 290.602439 
L 318.922614 294.812346 
L 320.354833 287.500429 
L 321.070943 290.414963 
L 321.787053 286.169252 
L 322.503162 284.428445 
L 323.219272 293.711228 
L 323.935381 293.277094 
L 324.651491 288.379407 
L 325.3676 284.370756 
L 326.08371 283.760611 
L 326.799819 291.287354 
L 327.515929 286.089087 
L 328.232038 285.492069 
L 328.948148 285.595763 
L 329.664257 283.323437 
L 330.380367 288.166595 
L 331.096476 288.462545 
L 331.812586 287.161425 
L 332.528696 282.848699 
L 333.244805 282.514526 
L 333.960915 290.069853 
L 335.393134 280.827804 
L 336.109243 286.220648 
L 336.825353 290.158413 
L 337.541462 278.751034 
L 338.257572 275.080846 
L 338.973681 280.96873 
L 339.689791 279.173012 
L 340.4059 278.35748 
L 341.12201 286.791467 
L 341.838119 286.322583 
L 342.554229 284.067429 
L 343.270338 283.129732 
L 343.986448 285.833657 
L 344.702558 283.748538 
L 345.418667 280.607853 
L 346.134777 283.905957 
L 346.850886 280.559681 
L 347.566996 284.209734 
L 348.283105 300.750468 
L 348.999215 284.794951 
L 349.715324 280.025391 
L 350.431434 283.60798 
L 351.147543 278.984112 
L 351.863653 276.322606 
L 352.579762 274.995156 
L 353.295872 278.97775 
L 354.011981 278.280555 
L 354.728091 282.170609 
L 355.444201 279.599403 
L 356.16031 279.356511 
L 356.87642 273.758165 
L 357.592529 266.822342 
L 358.308639 274.167624 
L 359.024748 276.99848 
L 359.740858 272.411102 
L 360.456967 271.63728 
L 361.173077 267.087834 
L 361.889186 272.697366 
L 362.605296 273.756704 
L 363.321405 272.460007 
L 364.037515 269.237895 
L 364.753624 267.750325 
L 365.469734 267.009688 
L 366.185843 268.38929 
L 366.901953 264.116848 
L 367.618063 265.587021 
L 368.334172 269.802518 
L 369.766391 259.479248 
L 370.482501 259.647706 
L 371.19861 261.040872 
L 371.91472 265.402104 
L 372.630829 260.81077 
L 373.346939 260.423404 
L 374.063048 265.566815 
L 374.779158 261.700113 
L 376.211377 249.395909 
L 376.927486 251.204699 
L 377.643596 252.575076 
L 378.359706 255.529471 
L 379.075815 255.693047 
L 379.791925 253.057845 
L 380.508034 245.285943 
L 381.224144 241.734347 
L 381.940253 236.477729 
L 382.656363 242.488715 
L 383.372472 236.733775 
L 384.088582 236.430901 
L 384.804691 236.329333 
L 385.520801 235.33926 
L 386.23691 235.282823 
L 386.95302 240.018654 
L 387.669129 242.171714 
L 388.385239 237.972199 
L 389.101348 232.939988 
L 390.533568 224.764597 
L 391.249677 223.128565 
L 391.965787 228.841374 
L 392.681896 224.188962 
L 393.398006 221.676839 
L 394.114115 218.490598 
L 394.830225 216.460431 
L 395.546334 220.944021 
L 396.262444 217.982791 
L 396.978553 217.4384 
L 397.694663 210.775922 
L 398.410772 208.249425 
L 399.126882 211.323475 
L 399.842991 207.406988 
L 400.559101 200.790618 
L 401.275211 201.176826 
L 401.99132 202.183056 
L 402.70743 196.393214 
L 403.423539 191.855791 
L 404.139649 192.682869 
L 404.855758 195.430286 
L 405.571868 196.163119 
L 407.004087 190.480013 
L 407.720196 191.764126 
L 408.436306 186.984435 
L 409.152415 187.139371 
L 409.868525 185.393899 
L 410.584634 180.926536 
L 411.300744 179.330358 
L 412.016853 175.501072 
L 412.732963 177.833447 
L 413.449073 179.18965 
L 414.165182 175.670871 
L 414.881292 176.799808 
L 415.597401 171.358598 
L 416.313511 170.257031 
L 417.74573 163.18578 
L 418.461839 164.578761 
L 419.177949 155.619857 
L 419.894058 149.992839 
L 420.610168 145.97993 
L 421.326277 151.127232 
L 422.042387 155.064308 
L 422.758496 153.294069 
L 423.474606 150.459491 
L 424.190716 148.07994 
L 424.906825 152.707245 
L 426.339044 143.450279 
L 427.055154 133.336463 
L 427.771263 138.699701 
L 428.487373 141.362916 
L 429.203482 137.29953 
L 430.635701 130.579856 
L 431.351811 123.911234 
L 432.06792 121.754764 
L 432.78403 122.574155 
L 433.500139 125.739683 
L 434.216249 128.207558 
L 434.932358 122.179989 
L 435.648468 118.045993 
L 436.364578 120.636846 
L 437.080687 110.683081 
L 437.796797 104.933906 
L 438.512906 101.767944 
L 439.229016 101.022386 
L 439.945125 102.429718 
L 440.661235 109.831004 
L 441.377344 100.751384 
L 442.093454 102.715412 
L 442.809563 101.970428 
L 443.525673 100.435623 
L 444.241782 93.782608 
L 444.957892 91.802911 
L 445.674001 87.648348 
L 446.390111 81.523171 
L 447.106221 79.154035 
L 447.82233 83.809221 
L 448.53844 85.72725 
L 449.254549 79.6424 
L 449.970659 80.49598 
L 450.686768 80.637262 
L 451.402878 76.517446 
L 452.118987 69.021947 
L 452.835097 66.517186 
L 453.551206 74.15592 
L 454.267316 74.569598 
L 455.699535 56.503814 
L 456.415644 60.755225 
L 457.131754 60.184084 
L 457.847863 56.517979 
L 458.563973 59.082625 
L 459.280083 52.12789 
L 459.996192 47.275799 
L 460.712302 49.61039 
L 461.428411 50.928917 
L 462.144521 42.634608 
L 462.86063 46.203725 
L 464.292849 38.504579 
L 465.008959 39.636073 
L 466.441178 29.888 
L 467.157287 28.148913 
L 467.873397 33.030048 
L 468.589506 30.368445 
L 468.589506 30.368445 
" clip-path="url(#pc8e2a68471)" style="fill: none; stroke: #4c78a8; stroke-width: 1.6; stroke-linecap: square"/>
   </g>
   <g id="line2d_14">
    <path d="M 102.657536 313.092623 
L 103.373646 312.068035 
L 104.805865 311.372866 
L 105.521974 309.650172 
L 106.238084 310.439241 
L 106.954193 310.1835 
L 108.386412 306.375971 
L 109.102522 305.892073 
L 109.818631 304.234015 
L 110.534741 303.730437 
L 111.25085 302.619187 
L 111.96696 301.038537 
L 112.683069 300.252703 
L 114.115289 296.593869 
L 114.831398 295.672087 
L 115.547508 293.980597 
L 116.263617 291.966748 
L 116.979727 289.272111 
L 117.695836 288.505344 
L 118.411946 285.508063 
L 119.128055 283.620964 
L 119.844165 280.861501 
L 120.560274 278.653365 
L 121.276384 275.712321 
L 121.992493 274.109138 
L 122.708603 270.419921 
L 123.424712 269.186592 
L 124.140822 264.107518 
L 124.856931 263.736912 
L 125.573041 260.184541 
L 126.289151 259.501585 
L 127.00526 257.161671 
L 127.72137 256.833345 
L 128.437479 254.018418 
L 129.153589 252.187419 
L 129.869698 248.330236 
L 130.585808 247.231358 
L 131.301917 243.742273 
L 132.018027 243.508242 
L 132.734136 241.367263 
L 133.450246 242.083196 
L 134.166355 241.521587 
L 134.882465 242.076392 
L 135.598574 239.123306 
L 136.314684 238.894739 
L 137.030794 238.379756 
L 137.746903 238.580411 
L 138.463013 235.009551 
L 139.895232 235.340368 
L 140.611341 235.325753 
L 142.04356 233.299477 
L 142.75967 229.104138 
L 143.475779 228.612635 
L 144.191889 223.679434 
L 144.907998 223.859392 
L 145.624108 217.412099 
L 146.340217 216.77823 
L 147.056327 211.044894 
L 147.772436 213.333711 
L 148.488546 212.428444 
L 149.204656 220.0649 
L 149.920765 217.281194 
L 150.636875 228.86514 
L 151.352984 220.550505 
L 152.069094 226.264205 
L 152.785203 220.278039 
L 153.501313 237.289053 
L 154.933532 253.275836 
L 155.649641 241.775789 
L 156.365751 242.990648 
L 157.08186 268.980349 
L 157.79797 271.086961 
L 158.514079 260.84957 
L 159.230189 263.145628 
L 159.946299 258.419014 
L 160.662408 259.36367 
L 161.378518 265.613162 
L 162.094627 273.550404 
L 163.526846 292.766916 
L 164.242956 298.263018 
L 164.959065 298.164077 
L 165.675175 307.408374 
L 166.391284 307.456979 
L 167.107394 300.14031 
L 167.823503 300.892292 
L 168.539613 309.870993 
L 169.255722 312.242723 
L 169.971832 304.163241 
L 171.404051 305.098297 
L 172.120161 304.572411 
L 172.83627 302.605059 
L 174.268489 296.511341 
L 174.984599 296.784319 
L 175.700708 296.089948 
L 176.416818 295.074935 
L 177.849037 300.672312 
L 178.565146 295.289814 
L 179.281256 295.176899 
L 179.997365 298.897223 
L 180.713475 299.854225 
L 181.429584 297.143924 
L 182.145694 297.642022 
L 182.861804 299.297654 
L 183.577913 302.487699 
L 184.294023 301.742 
L 185.010132 303.18068 
L 185.726242 302.442759 
L 186.442351 302.663249 
L 187.158461 299.847714 
L 187.87457 301.288397 
L 188.59068 300.451253 
L 189.306789 299.91522 
L 190.022899 298.163959 
L 190.739008 298.228837 
L 191.455118 296.116533 
L 192.171227 296.51513 
L 192.887337 294.708487 
L 193.603446 293.498137 
L 194.319556 293.930156 
L 195.035666 293.197075 
L 195.751775 286.79884 
L 196.467885 290.12956 
L 197.183994 288.892811 
L 197.900104 286.702612 
L 198.616213 283.560765 
L 199.332323 284.337772 
L 200.048432 281.394896 
L 201.480651 277.238489 
L 202.196761 276.265274 
L 202.91287 273.951982 
L 203.62898 273.499182 
L 204.345089 269.052509 
L 205.061199 270.766117 
L 205.777309 271.045058 
L 206.493418 270.01522 
L 207.209528 266.827781 
L 207.925637 267.686596 
L 208.641747 266.984201 
L 209.357856 267.293736 
L 210.073966 265.302105 
L 210.790075 265.661478 
L 211.506185 263.18802 
L 212.222294 263.220918 
L 212.938404 266.335825 
L 213.654513 275.200604 
L 214.370623 264.573789 
L 215.086732 265.148293 
L 215.802842 290.187426 
L 216.518951 293.183351 
L 217.235061 290.976898 
L 217.951171 295.40043 
L 218.66728 293.386732 
L 219.38339 294.930727 
L 220.099499 298.888652 
L 220.815609 300.764759 
L 221.531718 300.337364 
L 222.247828 301.396674 
L 222.963937 299.547765 
L 223.680047 302.077759 
L 224.396156 301.759799 
L 225.112266 303.244692 
L 225.828375 301.088488 
L 226.544485 301.878357 
L 227.260594 301.488821 
L 227.976704 302.204222 
L 228.692814 303.5404 
L 229.408923 303.256606 
L 230.125033 301.496269 
L 230.841142 302.150639 
L 231.557252 301.922077 
L 232.273361 302.448091 
L 232.989471 298.612534 
L 233.70558 300.389326 
L 234.42169 299.932607 
L 235.137799 301.62574 
L 235.853909 299.309034 
L 236.570018 299.791257 
L 237.286128 299.101799 
L 238.002237 300.520755 
L 238.718347 299.355796 
L 239.434456 302.188837 
L 240.150566 300.831607 
L 240.866676 303.4255 
L 241.582785 301.761159 
L 242.298895 304.315216 
L 243.015004 305.647117 
L 243.731114 308.180223 
L 244.447223 307.321803 
L 245.163333 306.856623 
L 245.879442 305.641422 
L 246.595552 307.289551 
L 247.311661 304.73303 
L 248.027771 306.41159 
L 248.74388 306.290223 
L 249.45999 307.046283 
L 250.176099 305.323428 
L 250.892209 306.126848 
L 251.608319 303.746416 
L 252.324428 304.658903 
L 253.040538 303.633289 
L 253.756647 304.524805 
L 254.472757 301.583325 
L 255.188866 303.173849 
L 255.904976 302.635373 
L 256.621085 303.077009 
L 257.337195 301.130145 
L 258.053304 301.870999 
L 258.769414 301.568055 
L 259.485523 302.330535 
L 260.201633 298.418494 
L 260.917742 302.133055 
L 261.633852 301.482387 
L 262.349961 301.487929 
L 263.066071 300.061298 
L 263.782181 303.199743 
L 264.49829 301.258075 
L 265.2144 302.627591 
L 265.930509 300.566982 
L 266.646619 301.514604 
L 267.362728 300.887594 
L 268.078838 301.262686 
L 268.794947 301.046788 
L 269.511057 302.354117 
L 270.227166 300.443211 
L 270.943276 300.29024 
L 271.659385 299.979836 
L 272.375495 300.233949 
L 273.091604 297.844587 
L 273.807714 298.493052 
L 274.523823 298.129877 
L 275.239933 299.481777 
L 275.956043 297.152016 
L 276.672152 298.665073 
L 277.388262 298.140522 
L 278.104371 298.640751 
L 278.820481 296.930401 
L 279.53659 299.436985 
L 280.2527 297.337778 
L 280.968809 299.161514 
L 281.684919 298.527737 
L 282.401028 299.489263 
L 283.117138 297.3764 
L 283.833247 298.548997 
L 284.549357 296.851694 
L 285.265466 297.861583 
L 285.981576 296.013995 
L 286.697686 297.022476 
L 287.413795 294.644808 
L 288.129905 296.262707 
L 288.846014 293.531997 
L 289.562124 295.813099 
L 290.278233 294.068027 
L 290.994343 294.559781 
L 291.710452 292.394216 
L 292.426562 293.774965 
L 293.142671 291.815679 
L 293.858781 292.087925 
L 294.57489 289.927755 
L 295.291 291.309612 
L 296.007109 288.334644 
L 296.723219 290.328661 
L 297.439328 287.606832 
L 298.155438 289.138987 
L 298.871548 286.097162 
L 299.587657 288.657139 
L 300.303767 286.179802 
L 301.019876 286.695169 
L 301.735986 283.87221 
L 302.452095 286.046122 
L 303.168205 283.096667 
L 303.884314 284.858005 
L 304.600424 282.49052 
L 305.316533 284.366018 
L 306.032643 281.803851 
L 306.748752 283.939135 
L 307.464862 283.246779 
L 308.180971 285.210539 
L 308.897081 282.385004 
L 309.613191 285.883852 
L 310.3293 282.210839 
L 311.04541 284.860667 
L 311.761519 283.964285 
L 312.477629 288.577746 
L 313.193738 288.607502 
L 313.909848 291.377521 
L 314.625957 290.408053 
L 315.342067 293.832413 
L 316.058176 282.2392 
L 316.774286 283.849602 
L 317.490395 293.536007 
L 318.206505 296.090285 
L 318.922614 291.803858 
L 319.638724 295.946475 
L 320.354833 295.803866 
L 321.070943 297.362618 
L 321.787053 296.149808 
L 322.503162 297.673255 
L 323.219272 294.036614 
L 323.935381 294.433488 
L 324.651491 292.723048 
L 325.3676 294.578319 
L 326.08371 292.586613 
L 326.799819 295.63535 
L 327.515929 292.108493 
L 328.232038 293.307773 
L 328.948148 292.124169 
L 329.664257 292.892134 
L 330.380367 291.412038 
L 331.096476 294.713179 
L 331.812586 289.251636 
L 332.528696 291.978292 
L 333.244805 289.814066 
L 333.960915 291.714075 
L 335.393134 290.258268 
L 336.109243 286.921187 
L 336.825353 289.994231 
L 337.541462 287.69332 
L 338.257572 288.79766 
L 338.973681 288.136596 
L 339.689791 289.915986 
L 340.4059 288.134326 
L 341.12201 288.850419 
L 341.838119 288.411643 
L 342.554229 287.035041 
L 343.270338 286.98836 
L 343.986448 286.764446 
L 344.702558 283.393245 
L 345.418667 284.308535 
L 346.134777 281.798179 
L 346.850886 281.880029 
L 347.566996 280.90304 
L 348.283105 282.274482 
L 348.999215 278.503082 
L 349.715324 278.226811 
L 350.431434 277.373657 
L 351.147543 275.245375 
L 352.579762 274.554921 
L 353.295872 272.064922 
L 354.011981 271.606667 
L 354.728091 270.472375 
L 355.444201 271.144223 
L 356.16031 270.701609 
L 356.87642 269.616032 
L 357.592529 267.465266 
L 358.308639 267.189154 
L 359.024748 265.113825 
L 359.740858 266.605165 
L 360.456967 263.439347 
L 361.173077 264.343191 
L 361.889186 263.962849 
L 362.605296 262.432865 
L 363.321405 259.1086 
L 364.037515 259.2313 
L 364.753624 256.8503 
L 365.469734 258.416709 
L 366.185843 255.302655 
L 366.901953 256.330505 
L 367.618063 253.573107 
L 368.334172 254.465379 
L 369.050282 254.078992 
L 369.766391 254.848812 
L 370.482501 253.042262 
L 371.19861 253.12097 
L 371.91472 252.288994 
L 372.630829 253.832036 
L 373.346939 251.5805 
L 374.063048 252.084859 
L 374.779158 250.141994 
L 375.495267 250.917207 
L 376.211377 249.992149 
L 376.927486 249.851193 
L 377.643596 248.26722 
L 378.359706 249.167194 
L 379.075815 247.604826 
L 379.791925 247.518377 
L 380.508034 244.776974 
L 381.224144 244.216472 
L 381.940253 243.277443 
L 382.656363 244.781778 
L 383.372472 240.344605 
L 384.088582 239.566997 
L 384.804691 239.070024 
L 385.520801 238.856931 
L 386.23691 233.751413 
L 386.95302 235.011302 
L 387.669129 234.6165 
L 388.385239 235.662282 
L 389.101348 232.373016 
L 389.817458 231.405973 
L 390.533568 227.758148 
L 391.249677 227.36213 
L 391.965787 224.450944 
L 392.681896 224.445659 
L 393.398006 222.425457 
L 394.114115 222.288461 
L 394.830225 219.865329 
L 395.546334 217.912088 
L 396.262444 217.31873 
L 396.978553 215.699127 
L 397.694663 213.545719 
L 398.410772 213.80643 
L 399.126882 209.643312 
L 399.842991 207.464006 
L 400.559101 208.042338 
L 401.275211 206.269852 
L 401.99132 203.609698 
L 402.70743 202.46751 
L 403.423539 200.35869 
L 404.139649 197.347253 
L 404.855758 197.222113 
L 405.571868 196.623479 
L 406.287977 192.459617 
L 407.004087 190.101903 
L 407.720196 190.077369 
L 408.436306 190.38318 
L 409.152415 182.927868 
L 409.868525 182.463247 
L 410.584634 182.203837 
L 411.300744 181.079255 
L 412.016853 176.462303 
L 412.732963 175.985733 
L 413.449073 172.986082 
L 414.165182 171.301054 
L 414.881292 171.840717 
L 415.597401 170.119934 
L 416.313511 168.081034 
L 417.02962 164.91563 
L 417.74573 164.982846 
L 418.461839 161.111296 
L 419.177949 158.633409 
L 419.894058 157.049599 
L 420.610168 156.814522 
L 421.326277 155.121651 
L 422.758496 150.687625 
L 424.190716 145.088844 
L 424.906825 145.088596 
L 425.622935 142.990059 
L 426.339044 138.945007 
L 427.771263 135.526021 
L 428.487373 134.726205 
L 429.203482 130.621841 
L 429.919592 128.725866 
L 430.635701 127.260787 
L 431.351811 124.661193 
L 432.06792 125.313358 
L 433.500139 119.470837 
L 434.216249 118.69884 
L 434.932358 114.993493 
L 437.080687 110.386259 
L 437.796797 108.676866 
L 438.512906 107.416473 
L 439.229016 103.002098 
L 439.945125 101.224437 
L 440.661235 100.600695 
L 441.377344 98.773485 
L 442.093454 97.761901 
L 444.957892 90.875668 
L 445.674001 90.733921 
L 446.390111 88.529267 
L 447.106221 88.661188 
L 447.82233 85.38147 
L 448.53844 81.264428 
L 449.254549 81.354628 
L 449.970659 80.533346 
L 450.686768 75.416731 
L 451.402878 75.2624 
L 452.118987 74.503731 
L 454.267316 66.191568 
L 454.983425 67.307177 
L 455.699535 66.020948 
L 456.415644 63.322537 
L 457.131754 62.134427 
L 457.847863 58.805021 
L 458.563973 56.299299 
L 459.280083 54.364966 
L 459.996192 53.420845 
L 460.712302 51.608328 
L 461.428411 49.064108 
L 462.144521 47.905213 
L 462.86063 45.050533 
L 463.57674 43.892289 
L 464.292849 41.545981 
L 465.008959 39.843718 
L 465.725068 38.766437 
L 467.157287 36.919142 
L 467.873397 36.513987 
L 468.589506 35.669489 
L 468.589506 35.669489 
" clip-path="url(#pc8e2a68471)" style="fill: none; stroke: #f58518; stroke-width: 1.6; stroke-linecap: square"/>
   </g>
   <g id="patch_3">
    <path d="M 84.360938 331.495103 
L 84.360938 13.703857 
" style="fill: none; stroke: #000000; stroke-width: 0.8; stroke-linejoin: miter; stroke-linecap: square"/>
   </g>
   <g id="patch_4">
    <path d="M 84.360938 331.495103 
L 486.886105 331.495103 
" style="fill: none; stroke: #000000; stroke-width: 0.8; stroke-linejoin: miter; stroke-linecap: square"/>
   </g>
   <g id="text_11">
    <g id="patch_5">
     <path d="M 128.591384 176.50948 
L 410.291071 176.50948 
L 410.291071 146.429792 
L 128.591384 146.429792 
z
" style="fill: #ffffff; opacity: 0.7"/>
    </g>
    <!-- Rel l2=0.183  R²=0.976 -->
    <g transform="translate(132.501384 167.816198) scale(0.23 -0.23)">
     <defs>
      <path id="DejaVuSans-52" d="M 2841 2188 
Q 3044 2119 3236 1894 
Q 3428 1669 3622 1275 
L 4263 0 
L 3584 0 
L 2988 1197 
Q 2756 1666 2539 1819 
Q 2322 1972 1947 1972 
L 1259 1972 
L 1259 0 
L 628 0 
L 628 4666 
L 2053 4666 
Q 2853 4666 3247 4331 
Q 3641 3997 3641 3322 
Q 3641 2881 3436 2590 
Q 3231 2300 2841 2188 
z
M 1259 4147 
L 1259 2491 
L 2053 2491 
Q 2509 2491 2742 2702 
Q 2975 2913 2975 3322 
Q 2975 3731 2742 3939 
Q 2509 4147 2053 4147 
L 1259 4147 
z
" transform="scale(0.015625)"/>
      <path id="DejaVuSans-6c" d="M 603 4863 
L 1178 4863 
L 1178 0 
L 603 0 
L 603 4863 
z
" transform="scale(0.015625)"/>
      <path id="DejaVuSans-3d" d="M 678 2906 
L 4684 2906 
L 4684 2381 
L 678 2381 
L 678 2906 
z
M 678 1631 
L 4684 1631 
L 4684 1100 
L 678 1100 
L 678 1631 
z
" transform="scale(0.015625)"/>
      <path id="DejaVuSans-2e" d="M 684 794 
L 1344 794 
L 1344 0 
L 684 0 
L 684 794 
z
" transform="scale(0.015625)"/>
      <path id="DejaVuSans-38" d="M 2034 2216 
Q 1584 2216 1326 1975 
Q 1069 1734 1069 1313 
Q 1069 891 1326 650 
Q 1584 409 2034 409 
Q 2484 409 2743 651 
Q 3003 894 3003 1313 
Q 3003 1734 2745 1975 
Q 2488 2216 2034 2216 
z
M 1403 2484 
Q 997 2584 770 2862 
Q 544 3141 544 3541 
Q 544 4100 942 4425 
Q 1341 4750 2034 4750 
Q 2731 4750 3128 4425 
Q 3525 4100 3525 3541 
Q 3525 3141 3298 2862 
Q 3072 2584 2669 2484 
Q 3125 2378 3379 2068 
Q 3634 1759 3634 1313 
Q 3634 634 3220 271 
Q 2806 -91 2034 -91 
Q 1263 -91 848 271 
Q 434 634 434 1313 
Q 434 1759 690 2068 
Q 947 2378 1403 2484 
z
M 1172 3481 
Q 1172 3119 1398 2916 
Q 1625 2713 2034 2713 
Q 2441 2713 2670 2916 
Q 2900 3119 2900 3481 
Q 2900 3844 2670 4047 
Q 2441 4250 2034 4250 
Q 1625 4250 1398 4047 
Q 1172 3844 1172 3481 
z
" transform="scale(0.015625)"/>
      <path id="DejaVuSans-b2" d="M 838 2444 
L 2163 2444 
L 2163 2088 
L 294 2088 
L 294 2431 
Q 400 2528 597 2703 
Q 1672 3656 1672 3950 
Q 1672 4156 1509 4282 
Q 1347 4409 1081 4409 
Q 919 4409 728 4354 
Q 538 4300 313 4191 
L 313 4575 
Q 553 4663 761 4706 
Q 969 4750 1147 4750 
Q 1600 4750 1872 4544 
Q 2144 4338 2144 4000 
Q 2144 3566 1109 2678 
Q 934 2528 838 2444 
z
" transform="scale(0.015625)"/>
      <path id="DejaVuSans-39" d="M 703 97 
L 703 672 
Q 941 559 1184 500 
Q 1428 441 1663 441 
Q 2288 441 2617 861 
Q 2947 1281 2994 2138 
Q 2813 1869 2534 1725 
Q 2256 1581 1919 1581 
Q 1219 1581 811 2004 
Q 403 2428 403 3163 
Q 403 3881 828 4315 
Q 1253 4750 1959 4750 
Q 2769 4750 3195 4129 
Q 3622 3509 3622 2328 
Q 3622 1225 3098 567 
Q 2575 -91 1691 -91 
Q 1453 -91 1209 -44 
Q 966 3 703 97 
z
M 1959 2075 
Q 2384 2075 2632 2365 
Q 2881 2656 2881 3163 
Q 2881 3666 2632 3958 
Q 2384 4250 1959 4250 
Q 1534 4250 1286 3958 
Q 1038 3666 1038 3163 
Q 1038 2656 1286 2365 
Q 1534 2075 1959 2075 
z
" transform="scale(0.015625)"/>
      <path id="DejaVuSans-37" d="M 525 4666 
L 3525 4666 
L 3525 4397 
L 1831 0 
L 1172 0 
L 2766 4134 
L 525 4134 
L 525 4666 
z
" transform="scale(0.015625)"/>
      <path id="DejaVuSans-36" d="M 2113 2584 
Q 1688 2584 1439 2293 
Q 1191 2003 1191 1497 
Q 1191 994 1439 701 
Q 1688 409 2113 409 
Q 2538 409 2786 701 
Q 3034 994 3034 1497 
Q 3034 2003 2786 2293 
Q 2538 2584 2113 2584 
z
M 3366 4563 
L 3366 3988 
Q 3128 4100 2886 4159 
Q 2644 4219 2406 4219 
Q 1781 4219 1451 3797 
Q 1122 3375 1075 2522 
Q 1259 2794 1537 2939 
Q 1816 3084 2150 3084 
Q 2853 3084 3261 2657 
Q 3669 2231 3669 1497 
Q 3669 778 3244 343 
Q 2819 -91 2113 -91 
Q 1303 -91 875 529 
Q 447 1150 447 2328 
Q 447 3434 972 4092 
Q 1497 4750 2381 4750 
Q 2619 4750 2861 4703 
Q 3103 4656 3366 4563 
z
" transform="scale(0.015625)"/>
     </defs>
     <use xlink:href="#DejaVuSans-52"/>
     <use xlink:href="#DejaVuSans-65" transform="translate(64.982422 0)"/>
     <use xlink:href="#DejaVuSans-6c" transform="translate(126.505859 0)"/>
     <use xlink:href="#DejaVuSans-20" transform="translate(154.289062 0)"/>
     <use xlink:href="#DejaVuSans-6c" transform="translate(186.076172 0)"/>
     <use xlink:href="#DejaVuSans-32" transform="translate(213.859375 0)"/>
     <use xlink:href="#DejaVuSans-3d" transform="translate(277.482422 0)"/>
     <use xlink:href="#DejaVuSans-30" transform="translate(361.271484 0)"/>
     <use xlink:href="#DejaVuSans-2e" transform="translate(424.894531 0)"/>
     <use xlink:href="#DejaVuSans-31" transform="translate(456.681641 0)"/>
     <use xlink:href="#DejaVuSans-38" transform="translate(520.304688 0)"/>
     <use xlink:href="#DejaVuSans-33" transform="translate(583.927734 0)"/>
     <use xlink:href="#DejaVuSans-20" transform="translate(647.550781 0)"/>
     <use xlink:href="#DejaVuSans-20" transform="translate(679.337891 0)"/>
     <use xlink:href="#DejaVuSans-52" transform="translate(711.125 0)"/>
     <use xlink:href="#DejaVuSans-b2" transform="translate(780.607422 0)"/>
     <use xlink:href="#DejaVuSans-3d" transform="translate(820.695312 0)"/>
     <use xlink:href="#DejaVuSans-30" transform="translate(904.484375 0)"/>
     <use xlink:href="#DejaVuSans-2e" transform="translate(968.107422 0)"/>
     <use xlink:href="#DejaVuSans-39" transform="translate(999.894531 0)"/>
     <use xlink:href="#DejaVuSans-37" transform="translate(1063.517578 0)"/>
     <use xlink:href="#DejaVuSans-36" transform="translate(1127.140625 0)"/>
    </g>
   </g>
   <g id="legend_1">
    <g id="patch_6">
     <path d="M 100.460938 99.623232 
L 296.083125 99.623232 
Q 300.683125 99.623232 300.683125 95.023232 
L 300.683125 29.803857 
Q 300.683125 25.203857 296.083125 25.203857 
L 100.460938 25.203857 
Q 95.860938 25.203857 95.860938 29.803857 
L 95.860938 95.023232 
Q 95.860938 99.623232 100.460938 99.623232 
z
" style="fill: #ffffff; opacity: 0.8; stroke: #cccccc; stroke-linejoin: miter"/>
    </g>
    <g id="line2d_15">
     <path d="M 105.060938 43.830263 
L 128.060938 43.830263 
L 151.060938 43.830263 
" style="fill: none; stroke: #4c78a8; stroke-width: 1.6; stroke-linecap: square"/>
    </g>
    <g id="text_12">
     <!-- True -->
     <g transform="translate(169.460938 51.880263) scale(0.23 -0.23)">
      <defs>
       <path id="DejaVuSans-54" d="M -19 4666 
L 3928 4666 
L 3928 4134 
L 2272 4134 
L 2272 0 
L 1638 0 
L 1638 4134 
L -19 4134 
L -19 4666 
z
" transform="scale(0.015625)"/>
       <path id="DejaVuSans-75" d="M 544 1381 
L 544 3500 
L 1119 3500 
L 1119 1403 
Q 1119 906 1312 657 
Q 1506 409 1894 409 
Q 2359 409 2629 706 
Q 2900 1003 2900 1516 
L 2900 3500 
L 3475 3500 
L 3475 0 
L 2900 0 
L 2900 538 
Q 2691 219 2414 64 
Q 2138 -91 1772 -91 
Q 1169 -91 856 284 
Q 544 659 544 1381 
z
M 1991 3584 
L 1991 3584 
z
" transform="scale(0.015625)"/>
      </defs>
      <use xlink:href="#DejaVuSans-54"/>
      <use xlink:href="#DejaVuSans-72" transform="translate(46.333984 0)"/>
      <use xlink:href="#DejaVuSans-75" transform="translate(87.447266 0)"/>
      <use xlink:href="#DejaVuSans-65" transform="translate(150.826172 0)"/>
     </g>
    </g>
    <g id="line2d_16">
     <path d="M 105.060938 77.58995 
L 128.060938 77.58995 
L 151.060938 77.58995 
" style="fill: none; stroke: #f58518; stroke-width: 1.6; stroke-linecap: square"/>
    </g>
    <g id="text_13">
     <!-- Generated -->
     <g transform="translate(169.460938 85.63995) scale(0.23 -0.23)">
      <defs>
       <path id="DejaVuSans-47" d="M 3809 666 
L 3809 1919 
L 2778 1919 
L 2778 2438 
L 4434 2438 
L 4434 434 
Q 4069 175 3628 42 
Q 3188 -91 2688 -91 
Q 1594 -91 976 548 
Q 359 1188 359 2328 
Q 359 3472 976 4111 
Q 1594 4750 2688 4750 
Q 3144 4750 3555 4637 
Q 3966 4525 4313 4306 
L 4313 3634 
Q 3963 3931 3569 4081 
Q 3175 4231 2741 4231 
Q 1884 4231 1454 3753 
Q 1025 3275 1025 2328 
Q 1025 1384 1454 906 
Q 1884 428 2741 428 
Q 3075 428 3337 486 
Q 3600 544 3809 666 
z
" transform="scale(0.015625)"/>
       <path id="DejaVuSans-61" d="M 2194 1759 
Q 1497 1759 1228 1600 
Q 959 1441 959 1056 
Q 959 750 1161 570 
Q 1363 391 1709 391 
Q 2188 391 2477 730 
Q 2766 1069 2766 1631 
L 2766 1759 
L 2194 1759 
z
M 3341 1997 
L 3341 0 
L 2766 0 
L 2766 531 
Q 2569 213 2275 61 
Q 1981 -91 1556 -91 
Q 1019 -91 701 211 
Q 384 513 384 1019 
Q 384 1609 779 1909 
Q 1175 2209 1959 2209 
L 2766 2209 
L 2766 2266 
Q 2766 2663 2505 2880 
Q 2244 3097 1772 3097 
Q 1472 3097 1187 3025 
Q 903 2953 641 2809 
L 641 3341 
Q 956 3463 1253 3523 
Q 1550 3584 1831 3584 
Q 2591 3584 2966 3190 
Q 3341 2797 3341 1997 
z
" transform="scale(0.015625)"/>
       <path id="DejaVuSans-64" d="M 2906 2969 
L 2906 4863 
L 3481 4863 
L 3481 0 
L 2906 0 
L 2906 525 
Q 2725 213 2448 61 
Q 2172 -91 1784 -91 
Q 1150 -91 751 415 
Q 353 922 353 1747 
Q 353 2572 751 3078 
Q 1150 3584 1784 3584 
Q 2172 3584 2448 3432 
Q 2725 3281 2906 2969 
z
M 947 1747 
Q 947 1113 1208 752 
Q 1469 391 1925 391 
Q 2381 391 2643 752 
Q 2906 1113 2906 1747 
Q 2906 2381 2643 2742 
Q 2381 3103 1925 3103 
Q 1469 3103 1208 2742 
Q 947 2381 947 1747 
z
" transform="scale(0.015625)"/>
      </defs>
      <use xlink:href="#DejaVuSans-47"/>
      <use xlink:href="#DejaVuSans-65" transform="translate(77.490234 0)"/>
      <use xlink:href="#DejaVuSans-6e" transform="translate(139.013672 0)"/>
      <use xlink:href="#DejaVuSans-65" transform="translate(202.392578 0)"/>
      <use xlink:href="#DejaVuSans-72" transform="translate(263.916016 0)"/>
      <use xlink:href="#DejaVuSans-61" transform="translate(305.029297 0)"/>
      <use xlink:href="#DejaVuSans-74" transform="translate(366.308594 0)"/>
      <use xlink:href="#DejaVuSans-65" transform="translate(405.517578 0)"/>
      <use xlink:href="#DejaVuSans-64" transform="translate(467.041016 0)"/>
     </g>
    </g>
   </g>
  </g>
 </g>
 <defs>
  <clipPath id="pc8e2a68471">
   <rect x="84.360938" y="13.703857" width="402.525167" height="317.791246"/>
  </clipPath>
 </defs>
</svg>
