<?xml version="1.0" encoding="utf-8" standalone="no"?>
<!DOCTYPE svg PUBLIC "-//W3C//DTD SVG 1.1//EN"
  "http://www.w3.org/Graphics/SVG/1.1/DTD/svg11.dtd">
<svg xmlns:xlink="http://www.w3.org/1999/xlink" width="511.660937pt" height="396.375781pt" viewBox="0 0 511.660937 396.375781" xmlns="http://www.w3.org/2000/svg" version="1.1">
 <metadata>
  <rdf:RDF xmlns:dc="http://purl.org/dc/elements/1.1/" xmlns:cc="http://creativecommons.org/ns#" xmlns:rdf="http://www.w3.org/1999/02/22-rdf-syntax-ns#">
   <cc:Work>
    <dc:type rdf:resource="http://purl.org/dc/dcmitype/StillImage"/>
    <dc:date>2026-01-22T22:46:36.399580</dc:date>
    <dc:format>image/svg+xml</dc:format>
    <dc:creator>
     <cc:Agent>
      <dc:title>Matplotlib v3.10.3, https://matplotlib.org/</dc:title>
     </cc:Agent>
    </dc:creator>
   </cc:Work>
  </rdf:RDF>
 </metadata>
 <defs>
  <style type="text/css">*{stroke-linejoin: round; stroke-linecap: butt}</style>
 </defs>
 <g id="figure_1">
  <g id="patch_1">
   <path d="M -0 396.375781 
L 511.660937 396.375781 
L 511.660937 0 
L -0 0 
z
" style="fill: #ffffff"/>
  </g>
  <g id="axes_1">
   <g id="patch_2">
    <path d="M 84.360938 331.5325 
L 504.460937 331.5325 
L 504.460937 7.2 
L 84.360938 7.2 
z
" style="fill: #ffffff"/>
   </g>
   <g id="FillBetweenPolyCollection_1">
    <defs>
     <path id="ma35343c576" d="M 103.456392 -79.585668 
L 103.456392 -81.922059 
L 104.203768 -85.754925 
L 104.951144 -89.281075 
L 105.69852 -94.374489 
L 106.445896 -92.892153 
L 107.193272 -101.933472 
L 107.940648 -106.876738 
L 108.688023 -104.689111 
L 109.435399 -95.213693 
L 110.182775 -95.863495 
L 110.930151 -108.879904 
L 111.677527 -101.215858 
L 112.424903 -112.619062 
L 113.172279 -109.360972 
L 113.919655 -121.54389 
L 114.667031 -97.412816 
L 115.414407 -94.034855 
L 116.161783 -109.964907 
L 116.909158 -117.263398 
L 117.656534 -105.200225 
L 118.40391 -109.283693 
L 119.151286 -122.96179 
L 119.898662 -115.135737 
L 120.646038 -127.290347 
L 121.393414 -137.263964 
L 122.14079 -120.025044 
L 122.888166 -113.169384 
L 123.635542 -116.879809 
L 124.382918 -123.917162 
L 125.130293 -122.247155 
L 125.877669 -121.692788 
L 126.625045 -133.085272 
L 127.372421 -133.436478 
L 128.119797 -134.357177 
L 128.867173 -132.857646 
L 129.614549 -134.702297 
L 130.361925 -149.363999 
L 131.109301 -145.970242 
L 131.856677 -155.108202 
L 132.604053 -143.673812 
L 133.351429 -151.265594 
L 134.098804 -164.602173 
L 134.84618 -158.769362 
L 135.593556 -162.416539 
L 136.340932 -162.169038 
L 137.088308 -166.320946 
L 137.835684 -175.933533 
L 138.58306 -157.188336 
L 139.330436 -154.644553 
L 140.077812 -151.786952 
L 140.825188 -153.35079 
L 141.572564 -147.926578 
L 142.319939 -149.269708 
L 143.067315 -162.414753 
L 143.814691 -161.216314 
L 144.562067 -145.211522 
L 145.309443 -122.074171 
L 146.056819 -131.905431 
L 146.804195 -132.041628 
L 147.551571 -131.763166 
L 148.298947 -136.223857 
L 149.046323 -136.35002 
L 149.793699 -135.152518 
L 150.541074 -133.886769 
L 151.28845 -136.374769 
L 152.035826 -130.612683 
L 152.783202 -144.308681 
L 153.530578 -144.461216 
L 154.277954 -149.345516 
L 155.02533 -161.512183 
L 155.772706 -162.111713 
L 156.520082 -178.500817 
L 157.267458 -174.762202 
L 158.014834 -178.210342 
L 158.76221 -185.79321 
L 159.509585 -139.849732 
L 160.256961 -108.012174 
L 161.004337 -110.693752 
L 161.751713 -121.93184 
L 162.499089 -120.302894 
L 163.246465 -118.890777 
L 163.993841 -115.388964 
L 164.741217 -114.703855 
L 165.488593 -112.222973 
L 166.235969 -105.47668 
L 166.983345 -99.625479 
L 167.73072 -99.609244 
L 168.478096 -99.994308 
L 169.225472 -107.145039 
L 169.972848 -92.935873 
L 170.720224 -89.23757 
L 171.4676 -93.133088 
L 172.214976 -94.18018 
L 172.962352 -100.209393 
L 173.709728 -102.618866 
L 174.457104 -100.625073 
L 175.20448 -101.666029 
L 175.951855 -107.230038 
L 176.699231 -109.16531 
L 177.446607 -102.171782 
L 178.193983 -107.324783 
L 178.941359 -106.341843 
L 179.688735 -109.549468 
L 180.436111 -117.082971 
L 181.183487 -111.63318 
L 181.930863 -102.43331 
L 182.678239 -113.866301 
L 183.425615 -119.207634 
L 184.172991 -109.896007 
L 184.920366 -104.999248 
L 185.667742 -111.260916 
L 186.415118 -110.795162 
L 187.162494 -106.630873 
L 187.90987 -110.241254 
L 188.657246 -108.254553 
L 189.404622 -111.61917 
L 190.151998 -104.262925 
L 190.899374 -107.978551 
L 191.64675 -115.114189 
L 192.394126 -123.242235 
L 193.141501 -123.218717 
L 193.888877 -122.365438 
L 194.636253 -120.886992 
L 195.383629 -117.834599 
L 196.131005 -123.819298 
L 196.878381 -115.151484 
L 197.625757 -119.650894 
L 198.373133 -111.663484 
L 199.120509 -116.000884 
L 199.867885 -112.143527 
L 200.615261 -111.243186 
L 201.362636 -121.556542 
L 202.110012 -126.639976 
L 202.857388 -118.55524 
L 203.604764 -121.345772 
L 204.35214 -118.659702 
L 205.099516 -112.374572 
L 205.846892 -121.992084 
L 206.594268 -116.723679 
L 207.341644 -119.695768 
L 208.08902 -118.269349 
L 208.836396 -106.160439 
L 209.583772 -114.013478 
L 210.331147 -109.27129 
L 211.078523 -114.844631 
L 211.825899 -106.651095 
L 212.573275 -115.000244 
L 213.320651 -108.879944 
L 214.068027 -117.643516 
L 214.815403 -112.0086 
L 215.562779 -113.985135 
L 216.310155 -114.046116 
L 217.057531 -106.324471 
L 217.804907 -101.487121 
L 218.552282 -100.675082 
L 219.299658 -104.536298 
L 220.047034 -106.170493 
L 220.79441 -109.518512 
L 221.541786 -105.028886 
L 222.289162 -105.843307 
L 223.036538 -109.635367 
L 223.783914 -109.90584 
L 224.53129 -105.781596 
L 225.278666 -102.308312 
L 226.026042 -106.160319 
L 226.773417 -101.60576 
L 227.520793 -105.37488 
L 228.268169 -108.417845 
L 229.015545 -108.121385 
L 229.762921 -109.796475 
L 230.510297 -111.645171 
L 231.257673 -106.706414 
L 232.005049 -109.615045 
L 232.752425 -115.165861 
L 233.499801 -108.482152 
L 234.247177 -115.91625 
L 234.994553 -110.63958 
L 235.741928 -111.341549 
L 236.489304 -119.357324 
L 237.23668 -117.090632 
L 237.984056 -110.178015 
L 238.731432 -111.951266 
L 239.478808 -109.072401 
L 240.226184 -108.20397 
L 240.97356 -110.38112 
L 241.720936 -109.280186 
L 242.468312 -114.370314 
L 243.215688 -120.933363 
L 243.963063 -117.410694 
L 244.710439 -111.401544 
L 245.457815 -116.091656 
L 246.205191 -109.893586 
L 246.952567 -108.467539 
L 247.699943 -112.525689 
L 248.447319 -114.90713 
L 249.194695 -107.779982 
L 249.942071 -121.702713 
L 250.689447 -122.416196 
L 251.436823 -122.27531 
L 252.184198 -127.154925 
L 252.931574 -120.750422 
L 253.67895 -125.565222 
L 254.426326 -120.846268 
L 255.173702 -129.1397 
L 255.921078 -120.451892 
L 256.668454 -113.952769 
L 257.41583 -118.42536 
L 258.163206 -118.63603 
L 258.910582 -118.964677 
L 259.657958 -117.26409 
L 260.405334 -111.67308 
L 261.152709 -111.43299 
L 261.900085 -115.328913 
L 262.647461 -119.370212 
L 263.394837 -122.538029 
L 264.142213 -124.923607 
L 264.889589 -125.616685 
L 265.636965 -121.603018 
L 266.384341 -119.052655 
L 267.131717 -120.563849 
L 267.879093 -114.797976 
L 268.626469 -113.501765 
L 269.373844 -114.739351 
L 270.12122 -110.964014 
L 270.868596 -112.70771 
L 271.615972 -112.398375 
L 272.363348 -113.16934 
L 273.110724 -110.599438 
L 273.8581 -116.348251 
L 274.605476 -111.69648 
L 275.352852 -115.57342 
L 276.100228 -114.217266 
L 276.847604 -114.964976 
L 277.594979 -113.630414 
L 278.342355 -109.805555 
L 279.089731 -116.390016 
L 279.837107 -112.108351 
L 280.584483 -122.366248 
L 281.331859 -113.417577 
L 282.079235 -118.399636 
L 282.826611 -115.448023 
L 283.573987 -121.516441 
L 284.321363 -126.064888 
L 285.068739 -120.737451 
L 285.816115 -120.942994 
L 286.56349 -134.213134 
L 287.310866 -129.136697 
L 288.058242 -125.304215 
L 288.805618 -129.567589 
L 289.552994 -123.771872 
L 290.30037 -133.205266 
L 291.047746 -123.689191 
L 291.795122 -119.480383 
L 292.542498 -125.138791 
L 293.289874 -129.109234 
L 294.03725 -124.785405 
L 294.784625 -132.413953 
L 295.532001 -141.96496 
L 296.279377 -141.390082 
L 297.026753 -138.869725 
L 297.774129 -139.084348 
L 298.521505 -135.757337 
L 299.268881 -139.707878 
L 300.016257 -143.340862 
L 300.763633 -136.998049 
L 301.511009 -143.137945 
L 302.258385 -146.37668 
L 303.00576 -145.246108 
L 303.753136 -140.928224 
L 304.500512 -134.810883 
L 305.247888 -150.76813 
L 305.995264 -147.440182 
L 306.74264 -158.627447 
L 307.490016 -152.804162 
L 308.237392 -158.505969 
L 308.984768 -168.598332 
L 309.732144 -162.049914 
L 310.47952 -158.706022 
L 311.226896 -145.849132 
L 311.974271 -143.572358 
L 312.721647 -131.254867 
L 313.469023 -117.093198 
L 314.216399 -110.572737 
L 314.963775 -105.508352 
L 315.711151 -114.189913 
L 316.458527 -119.944552 
L 317.205903 -117.729069 
L 317.953279 -110.978956 
L 318.700655 -110.359537 
L 319.448031 -113.034465 
L 320.195406 -114.732556 
L 320.942782 -114.053427 
L 321.690158 -102.210301 
L 322.437534 -113.154679 
L 323.18491 -110.888578 
L 323.932286 -107.214201 
L 324.679662 -107.725039 
L 325.427038 -112.460016 
L 326.174414 -111.706138 
L 326.92179 -110.193115 
L 327.669166 -114.377375 
L 328.416541 -117.738749 
L 329.163917 -107.653703 
L 329.911293 -116.675426 
L 330.658669 -107.450079 
L 331.406045 -114.097455 
L 332.153421 -109.640625 
L 332.900797 -109.445593 
L 333.648173 -109.471055 
L 334.395549 -115.371278 
L 335.142925 -113.698902 
L 335.890301 -115.324114 
L 336.637677 -116.09448 
L 337.385052 -108.045919 
L 338.132428 -109.208888 
L 338.879804 -115.978609 
L 339.62718 -112.934408 
L 340.374556 -114.994759 
L 341.121932 -115.453149 
L 341.869308 -111.061449 
L 342.616684 -121.945429 
L 343.36406 -117.95645 
L 344.111436 -117.05479 
L 344.858812 -112.999604 
L 345.606187 -111.630176 
L 346.353563 -117.910525 
L 347.100939 -110.127179 
L 347.848315 -113.05748 
L 348.595691 -109.642735 
L 349.343067 -117.986675 
L 350.090443 -118.81313 
L 350.837819 -118.860788 
L 351.585195 -114.114945 
L 352.332571 -119.934478 
L 353.079947 -113.106294 
L 353.827322 -121.867463 
L 354.574698 -130.151613 
L 355.322074 -131.082998 
L 356.06945 -117.054585 
L 356.816826 -118.288992 
L 357.564202 -123.086206 
L 358.311578 -121.024029 
L 359.058954 -121.128684 
L 359.80633 -112.641498 
L 360.553706 -116.679948 
L 361.301082 -120.620009 
L 362.048458 -124.289321 
L 362.795833 -121.200661 
L 363.543209 -127.339787 
L 364.290585 -124.191509 
L 365.037961 -128.437468 
L 365.785337 -120.479648 
L 366.532713 -124.069181 
L 367.280089 -130.534559 
L 368.027465 -118.431577 
L 368.774841 -127.145801 
L 369.522217 -129.368998 
L 370.269593 -129.795193 
L 371.016968 -110.689168 
L 371.764344 -119.598573 
L 372.51172 -121.303599 
L 373.259096 -111.364612 
L 374.006472 -120.878757 
L 374.753848 -115.432021 
L 375.501224 -111.881031 
L 376.2486 -112.970407 
L 376.995976 -120.920251 
L 377.743352 -120.861569 
L 378.490728 -112.726338 
L 379.238103 -116.353613 
L 379.985479 -117.305313 
L 380.732855 -115.923807 
L 381.480231 -114.668459 
L 382.227607 -120.785428 
L 382.974983 -120.106067 
L 383.722359 -122.893836 
L 384.469735 -119.74273 
L 385.217111 -117.160241 
L 385.964487 -123.462392 
L 386.711863 -113.799551 
L 387.459239 -124.164357 
L 388.206614 -122.041192 
L 388.95399 -116.104124 
L 389.701366 -115.652275 
L 390.448742 -120.339559 
L 391.196118 -113.755951 
L 391.943494 -114.737236 
L 392.69087 -117.471805 
L 393.438246 -113.993265 
L 394.185622 -109.017485 
L 394.932998 -110.384618 
L 395.680374 -112.779276 
L 396.427749 -120.523655 
L 397.175125 -109.068431 
L 397.922501 -115.722081 
L 398.669877 -117.06433 
L 399.417253 -111.569669 
L 400.164629 -107.56579 
L 400.912005 -113.265037 
L 401.659381 -116.042365 
L 402.406757 -109.888862 
L 403.154133 -107.8124 
L 403.901509 -110.965161 
L 404.648884 -119.294233 
L 405.39626 -111.070643 
L 406.143636 -113.511886 
L 406.891012 -111.255956 
L 407.638388 -106.645415 
L 408.385764 -111.565151 
L 409.13314 -114.12346 
L 409.880516 -115.712292 
L 410.627892 -115.33952 
L 411.375268 -109.975396 
L 412.122644 -112.755123 
L 412.87002 -121.928972 
L 413.617395 -125.989018 
L 414.364771 -123.437981 
L 415.112147 -126.264324 
L 415.859523 -116.593086 
L 416.606899 -115.507011 
L 417.354275 -116.117652 
L 418.101651 -120.343998 
L 418.849027 -123.407086 
L 419.596403 -117.842098 
L 420.343779 -123.815389 
L 421.091155 -125.612386 
L 421.83853 -119.939136 
L 422.585906 -121.320262 
L 423.333282 -120.993804 
L 424.080658 -119.29672 
L 424.828034 -118.895628 
L 425.57541 -122.768995 
L 426.322786 -114.830994 
L 427.070162 -120.652519 
L 427.817538 -117.795439 
L 428.564914 -117.508457 
L 429.31229 -112.987459 
L 430.059665 -131.295209 
L 430.807041 -136.880572 
L 431.554417 -133.926262 
L 432.301793 -131.396939 
L 433.049169 -129.625001 
L 433.796545 -129.643174 
L 434.543921 -138.826637 
L 435.291297 -132.00667 
L 436.038673 -142.052575 
L 436.786049 -147.033815 
L 437.533425 -147.439263 
L 438.280801 -149.275127 
L 439.028176 -141.498934 
L 439.775552 -144.517867 
L 440.522928 -150.385841 
L 441.270304 -145.752887 
L 442.01768 -148.742168 
L 442.765056 -149.750649 
L 443.512432 -157.960567 
L 444.259808 -167.252716 
L 445.007184 -164.131739 
L 445.75456 -164.667711 
L 446.501936 -155.629078 
L 447.249311 -159.451407 
L 447.996687 -172.139555 
L 448.744063 -166.896861 
L 449.491439 -180.264331 
L 450.238815 -180.588718 
L 450.986191 -180.829285 
L 451.733567 -177.179717 
L 452.480943 -189.742044 
L 453.228319 -198.779039 
L 453.975695 -187.425632 
L 454.723071 -188.085744 
L 455.470446 -200.61176 
L 456.217822 -206.424591 
L 456.965198 -209.715694 
L 457.712574 -214.799942 
L 458.45995 -208.935093 
L 459.207326 -216.069802 
L 459.954702 -220.881454 
L 460.702078 -222.302265 
L 461.449454 -229.014811 
L 462.19683 -226.132317 
L 462.944206 -233.771127 
L 463.691582 -246.214811 
L 464.438957 -248.086741 
L 465.186333 -244.519522 
L 465.933709 -256.510845 
L 466.681085 -257.510605 
L 467.428461 -263.524504 
L 468.175837 -267.40541 
L 468.923213 -272.826241 
L 469.670589 -272.643787 
L 470.417965 -274.146185 
L 471.165341 -285.549693 
L 471.912717 -285.570427 
L 472.660092 -298.095593 
L 473.407468 -304.61362 
L 474.154844 -303.922293 
L 474.90222 -316.332565 
L 475.649596 -314.683069 
L 476.396972 -311.863687 
L 477.144348 -318.404951 
L 477.891724 -329.360072 
L 478.6391 -326.298241 
L 479.386476 -344.579955 
L 480.133852 -338.56124 
L 480.881227 -348.231948 
L 481.628603 -351.474483 
L 482.375979 -360.737764 
L 483.123355 -366.795741 
L 483.870731 -372.922136 
L 484.618107 -369.731541 
L 485.365483 -374.433395 
L 485.365483 -352.416209 
L 485.365483 -352.416209 
L 484.618107 -352.420815 
L 483.870731 -350.551792 
L 483.123355 -346.580001 
L 482.375979 -341.442964 
L 481.628603 -336.966153 
L 480.881227 -330.821791 
L 480.133852 -326.406008 
L 479.386476 -324.702435 
L 478.6391 -321.573569 
L 477.891724 -314.96837 
L 477.144348 -314.127949 
L 476.396972 -307.929843 
L 475.649596 -305.797515 
L 474.90222 -301.232007 
L 474.154844 -296.503448 
L 473.407468 -292.340114 
L 472.660092 -287.568178 
L 471.912717 -277.9575 
L 471.165341 -278.648861 
L 470.417965 -271.795311 
L 469.670589 -271.290729 
L 468.923213 -259.946586 
L 468.175837 -257.350057 
L 467.428461 -253.909763 
L 466.681085 -249.740387 
L 465.933709 -246.809473 
L 465.186333 -243.126099 
L 464.438957 -240.032291 
L 463.691582 -240.037475 
L 462.944206 -233.324771 
L 462.19683 -230.345315 
L 461.449454 -228.296692 
L 460.702078 -224.259652 
L 459.954702 -225.443337 
L 459.207326 -216.3022 
L 458.45995 -212.944701 
L 457.712574 -211.616527 
L 456.965198 -206.077772 
L 456.217822 -201.81343 
L 455.470446 -197.987388 
L 454.723071 -196.864486 
L 453.975695 -189.488343 
L 453.228319 -191.05169 
L 452.480943 -185.519064 
L 451.733567 -183.471965 
L 450.986191 -179.601532 
L 450.238815 -176.368672 
L 449.491439 -173.036329 
L 448.744063 -171.071298 
L 447.996687 -172.117026 
L 447.249311 -166.231198 
L 446.501936 -163.286923 
L 445.75456 -164.512391 
L 445.007184 -159.775995 
L 444.259808 -158.233609 
L 443.512432 -155.239373 
L 442.765056 -155.736862 
L 442.01768 -152.353184 
L 441.270304 -149.217269 
L 440.522928 -147.661951 
L 439.775552 -145.255153 
L 439.028176 -145.260651 
L 438.280801 -142.637781 
L 437.533425 -142.782476 
L 436.786049 -138.061832 
L 436.038673 -132.393324 
L 435.291297 -136.219764 
L 434.543921 -132.476894 
L 433.796545 -133.488321 
L 433.049169 -129.562112 
L 432.301793 -131.13918 
L 431.554417 -126.967252 
L 430.807041 -127.780692 
L 430.059665 -123.882774 
L 429.31229 -124.184605 
L 428.564914 -121.212363 
L 427.817538 -121.944602 
L 427.070162 -121.855918 
L 426.322786 -121.399861 
L 425.57541 -118.232259 
L 424.828034 -116.478415 
L 424.080658 -117.416897 
L 423.333282 -120.690813 
L 422.585906 -117.030961 
L 421.83853 -116.366401 
L 421.091155 -116.792553 
L 420.343779 -115.701452 
L 419.596403 -111.6032 
L 418.849027 -114.894745 
L 418.101651 -111.184421 
L 417.354275 -110.504665 
L 416.606899 -109.415972 
L 415.859523 -112.312559 
L 415.112147 -110.501176 
L 414.364771 -109.002145 
L 413.617395 -109.954211 
L 412.87002 -109.10521 
L 412.122644 -105.744563 
L 411.375268 -109.741856 
L 410.627892 -107.59966 
L 409.880516 -108.532463 
L 409.13314 -106.402337 
L 408.385764 -107.962646 
L 407.638388 -104.914933 
L 406.891012 -107.761958 
L 406.143636 -103.832873 
L 405.39626 -106.129601 
L 404.648884 -103.465913 
L 403.901509 -104.62019 
L 403.154133 -105.403569 
L 402.406757 -104.52719 
L 401.659381 -100.707369 
L 400.912005 -105.050299 
L 400.164629 -101.925714 
L 399.417253 -101.165619 
L 398.669877 -99.57769 
L 397.922501 -102.60132 
L 397.175125 -98.869381 
L 396.427749 -100.247195 
L 395.680374 -100.158789 
L 394.932998 -100.239851 
L 394.185622 -99.698337 
L 393.438246 -107.57956 
L 392.69087 -103.836106 
L 391.943494 -106.936706 
L 391.196118 -102.429215 
L 390.448742 -106.257715 
L 389.701366 -104.83821 
L 388.95399 -107.599169 
L 388.206614 -105.306364 
L 387.459239 -107.873026 
L 386.711863 -104.435387 
L 385.964487 -104.115291 
L 385.217111 -105.807078 
L 384.469735 -105.614563 
L 383.722359 -103.789505 
L 382.974983 -105.918572 
L 382.227607 -103.457046 
L 381.480231 -106.867988 
L 380.732855 -106.720682 
L 379.985479 -105.91591 
L 379.238103 -104.841608 
L 378.490728 -107.294037 
L 377.743352 -106.390547 
L 376.995976 -109.235553 
L 376.2486 -108.629119 
L 375.501224 -110.078991 
L 374.753848 -107.84161 
L 374.006472 -110.786516 
L 373.259096 -110.455654 
L 372.51172 -109.368498 
L 371.764344 -108.657068 
L 371.016968 -109.959128 
L 370.269593 -107.951771 
L 369.522217 -108.567246 
L 368.774841 -110.23073 
L 368.027465 -105.106916 
L 367.280089 -105.592743 
L 366.532713 -108.336333 
L 365.785337 -106.968582 
L 365.037961 -106.744185 
L 364.290585 -104.261078 
L 363.543209 -104.95662 
L 362.795833 -103.219524 
L 362.048458 -102.205704 
L 361.301082 -100.576629 
L 360.553706 -100.954308 
L 359.80633 -99.279111 
L 359.058954 -98.814132 
L 358.311578 -97.741979 
L 357.564202 -97.074006 
L 356.816826 -97.33773 
L 356.06945 -99.436128 
L 355.322074 -95.396743 
L 354.574698 -98.780921 
L 353.827322 -99.263119 
L 353.079947 -100.02002 
L 352.332571 -101.738374 
L 351.585195 -103.159045 
L 350.837819 -102.496654 
L 350.090443 -103.032805 
L 349.343067 -100.89984 
L 348.595691 -101.594973 
L 347.848315 -98.768619 
L 347.100939 -100.508079 
L 346.353563 -97.156968 
L 345.606187 -99.931761 
L 344.858812 -96.386721 
L 344.111436 -96.572819 
L 343.36406 -95.779654 
L 342.616684 -96.41313 
L 341.869308 -95.551183 
L 341.121932 -97.415902 
L 340.374556 -95.516328 
L 339.62718 -96.025599 
L 338.879804 -96.564694 
L 338.132428 -99.084893 
L 337.385052 -100.126239 
L 336.637677 -100.177308 
L 335.890301 -98.382206 
L 335.142925 -97.726866 
L 334.395549 -98.303237 
L 333.648173 -103.045361 
L 332.900797 -99.054898 
L 332.153421 -104.136889 
L 331.406045 -102.022385 
L 330.658669 -105.339822 
L 329.911293 -106.677715 
L 329.163917 -108.910725 
L 328.416541 -101.87944 
L 327.669166 -106.681189 
L 326.92179 -108.830582 
L 326.174414 -110.611114 
L 325.427038 -107.267813 
L 324.679662 -110.360588 
L 323.932286 -108.608648 
L 323.18491 -109.162911 
L 322.437534 -107.735373 
L 321.690158 -108.760098 
L 320.942782 -104.21308 
L 320.195406 -107.373623 
L 319.448031 -103.480363 
L 318.700655 -104.959063 
L 317.953279 -104.34382 
L 317.205903 -111.102269 
L 316.458527 -107.246834 
L 315.711151 -113.517512 
L 314.963775 -114.167918 
L 314.216399 -115.754827 
L 313.469023 -110.6166 
L 312.721647 -116.799531 
L 311.974271 -158.225781 
L 311.226896 -169.905816 
L 310.47952 -153.41821 
L 309.732144 -170.426526 
L 308.984768 -168.517262 
L 308.237392 -164.146186 
L 307.490016 -160.88818 
L 306.74264 -158.57345 
L 305.995264 -153.841669 
L 305.247888 -152.17488 
L 304.500512 -150.97391 
L 303.753136 -144.544467 
L 303.00576 -141.094476 
L 302.258385 -137.723304 
L 301.511009 -137.615879 
L 300.763633 -137.434856 
L 300.016257 -131.006468 
L 299.268881 -133.603421 
L 298.521505 -129.264037 
L 297.774129 -130.826986 
L 297.026753 -126.812309 
L 296.279377 -127.820216 
L 295.532001 -123.984009 
L 294.784625 -123.937357 
L 294.03725 -120.98419 
L 293.289874 -115.494534 
L 292.542498 -115.930973 
L 291.795122 -117.945811 
L 291.047746 -113.384353 
L 290.30037 -112.56587 
L 289.552994 -112.213233 
L 288.805618 -111.534011 
L 288.058242 -108.715719 
L 287.310866 -110.424186 
L 286.56349 -105.619435 
L 285.816115 -109.428751 
L 285.068739 -105.584961 
L 284.321363 -109.060082 
L 283.573987 -110.012105 
L 282.826611 -110.012744 
L 282.079235 -106.468641 
L 281.331859 -114.173785 
L 280.584483 -123.10254 
L 279.837107 -126.608424 
L 279.089731 -127.627684 
L 278.342355 -136.323271 
L 277.594979 -126.675805 
L 276.847604 -126.740638 
L 276.100228 -130.526394 
L 275.352852 -126.448661 
L 274.605476 -123.261319 
L 273.8581 -124.817044 
L 273.110724 -119.343892 
L 272.363348 -120.895818 
L 271.615972 -118.590504 
L 270.868596 -117.195479 
L 270.12122 -114.569925 
L 269.373844 -117.758379 
L 268.626469 -114.840236 
L 267.879093 -117.270977 
L 267.131717 -114.573874 
L 266.384341 -113.695943 
L 265.636965 -108.395391 
L 264.889589 -114.417039 
L 264.142213 -109.938709 
L 263.394837 -108.266435 
L 262.647461 -104.154572 
L 261.900085 -108.775806 
L 261.152709 -105.679428 
L 260.405334 -107.406547 
L 259.657958 -104.501531 
L 258.910582 -103.856076 
L 258.163206 -101.964301 
L 257.41583 -105.179198 
L 256.668454 -103.213633 
L 255.921078 -102.389303 
L 255.173702 -99.764345 
L 254.426326 -101.261426 
L 253.67895 -98.754947 
L 252.931574 -101.58275 
L 252.184198 -99.112706 
L 251.436823 -98.915223 
L 250.689447 -97.658971 
L 249.942071 -96.885285 
L 249.194695 -95.083139 
L 248.447319 -97.383 
L 247.699943 -97.966715 
L 246.952567 -99.819568 
L 246.205191 -97.828381 
L 245.457815 -97.755036 
L 244.710439 -98.717638 
L 243.963063 -104.024254 
L 243.215688 -108.179305 
L 242.468312 -117.463719 
L 241.720936 -104.387315 
L 240.97356 -109.563657 
L 240.226184 -110.776604 
L 239.478808 -112.670721 
L 238.731432 -112.146482 
L 237.984056 -112.31783 
L 237.23668 -109.481785 
L 236.489304 -109.502707 
L 235.741928 -110.349008 
L 234.994553 -110.318809 
L 234.247177 -108.655693 
L 233.499801 -112.280092 
L 232.752425 -106.619556 
L 232.005049 -111.864176 
L 231.257673 -113.453424 
L 230.510297 -115.127931 
L 229.762921 -113.190963 
L 229.015545 -110.117118 
L 228.268169 -108.974717 
L 227.520793 -108.221964 
L 226.773417 -109.351892 
L 226.026042 -107.740576 
L 225.278666 -104.195295 
L 224.53129 -106.42813 
L 223.783914 -106.115612 
L 223.036538 -105.752677 
L 222.289162 -103.156414 
L 221.541786 -106.972807 
L 220.79441 -109.967476 
L 220.047034 -111.070205 
L 219.299658 -111.844721 
L 218.552282 -111.491449 
L 217.804907 -114.331569 
L 217.057531 -128.037659 
L 216.310155 -130.481078 
L 215.562779 -135.840649 
L 214.815403 -132.787468 
L 214.068027 -138.003421 
L 213.320651 -134.035758 
L 212.573275 -130.844476 
L 211.825899 -133.546188 
L 211.078523 -131.143042 
L 210.331147 -129.39569 
L 209.583772 -128.39681 
L 208.836396 -126.053575 
L 208.08902 -122.628678 
L 207.341644 -121.097036 
L 206.594268 -120.094807 
L 205.846892 -115.914517 
L 205.099516 -111.504482 
L 204.35214 -110.697854 
L 203.604764 -108.377069 
L 202.857388 -108.120755 
L 202.110012 -104.31347 
L 201.362636 -104.857156 
L 200.615261 -104.779159 
L 199.867885 -105.159834 
L 199.120509 -102.336797 
L 198.373133 -100.492487 
L 197.625757 -104.854766 
L 196.878381 -104.785717 
L 196.131005 -101.196541 
L 195.383629 -101.667369 
L 194.636253 -105.761192 
L 193.888877 -104.082708 
L 193.141501 -103.829802 
L 192.394126 -102.90221 
L 191.64675 -107.687938 
L 190.899374 -103.292241 
L 190.151998 -101.141278 
L 189.404622 -102.282845 
L 188.657246 -98.652162 
L 187.90987 -98.276913 
L 187.162494 -98.067753 
L 186.415118 -97.502368 
L 185.667742 -94.234746 
L 184.920366 -93.463293 
L 184.172991 -96.880025 
L 183.425615 -99.127565 
L 182.678239 -96.836902 
L 181.930863 -96.481457 
L 181.183487 -96.065878 
L 180.436111 -97.545108 
L 179.688735 -95.022829 
L 178.941359 -97.462168 
L 178.193983 -100.664802 
L 177.446607 -103.976896 
L 176.699231 -99.381204 
L 175.951855 -102.489492 
L 175.20448 -104.43246 
L 174.457104 -102.463894 
L 173.709728 -101.727788 
L 172.962352 -102.818033 
L 172.214976 -101.071179 
L 171.4676 -101.810163 
L 170.720224 -98.023632 
L 169.972848 -98.846301 
L 169.225472 -96.666901 
L 168.478096 -97.702529 
L 167.73072 -102.49311 
L 166.983345 -102.877772 
L 166.235969 -104.007311 
L 165.488593 -102.701079 
L 164.741217 -106.774566 
L 163.993841 -109.266567 
L 163.246465 -110.489767 
L 162.499089 -113.670573 
L 161.751713 -114.228605 
L 161.004337 -116.385616 
L 160.256961 -135.125196 
L 159.509585 -170.199925 
L 158.76221 -171.64302 
L 158.014834 -160.222149 
L 157.267458 -155.828125 
L 156.520082 -160.732387 
L 155.772706 -154.232188 
L 155.02533 -151.428479 
L 154.277954 -148.849339 
L 153.530578 -144.904122 
L 152.783202 -148.377049 
L 152.035826 -145.941926 
L 151.28845 -141.008944 
L 150.541074 -163.424179 
L 149.793699 -184.593099 
L 149.046323 -174.676246 
L 148.298947 -174.078108 
L 147.551571 -168.032258 
L 146.804195 -163.597221 
L 146.056819 -162.547264 
L 145.309443 -154.887537 
L 144.562067 -151.567959 
L 143.814691 -147.411717 
L 143.067315 -143.587208 
L 142.319939 -139.715215 
L 141.572564 -137.753276 
L 140.825188 -136.237293 
L 140.077812 -136.533157 
L 139.330436 -136.872009 
L 138.58306 -136.804589 
L 137.835684 -134.528866 
L 137.088308 -135.456031 
L 136.340932 -132.569343 
L 135.593556 -133.435948 
L 134.84618 -133.502505 
L 134.098804 -131.725043 
L 133.351429 -126.889995 
L 132.604053 -125.067938 
L 131.856677 -124.751511 
L 131.109301 -124.621574 
L 130.361925 -128.46219 
L 129.614549 -127.422153 
L 128.867173 -128.455479 
L 128.119797 -128.122279 
L 127.372421 -127.537306 
L 126.625045 -130.3705 
L 125.877669 -130.864917 
L 125.130293 -134.798668 
L 124.382918 -128.814836 
L 123.635542 -128.33847 
L 122.888166 -127.046847 
L 122.14079 -126.377266 
L 121.393414 -124.549325 
L 120.646038 -124.063801 
L 119.898662 -119.873157 
L 119.151286 -119.659155 
L 118.40391 -117.478451 
L 117.656534 -118.808021 
L 116.909158 -116.538786 
L 116.161783 -118.577778 
L 115.414407 -116.258227 
L 114.667031 -112.75845 
L 113.919655 -111.682493 
L 113.172279 -110.591593 
L 112.424903 -106.853482 
L 111.677527 -106.766609 
L 110.930151 -101.930622 
L 110.182775 -101.601157 
L 109.435399 -99.610925 
L 108.688023 -101.13572 
L 107.940648 -96.658745 
L 107.193272 -94.014972 
L 106.445896 -90.964994 
L 105.69852 -88.223011 
L 104.951144 -85.817855 
L 104.203768 -84.205746 
L 103.456392 -79.585668 
z
"/>
    </defs>
    <g clip-path="url(#p0a7ff8e7bc)">
     <use xlink:href="#ma35343c576" x="0" y="396.375781" style="fill-opacity: 0.08"/>
    </g>
   </g>
   <g id="matplotlib.axis_1">
    <g id="xtick_1">
     <g id="line2d_1">
      <defs>
       <path id="mf0bc31cf9b" d="M 0 0 
L 0 3.5 
" style="stroke: #000000; stroke-width: 0.8"/>
      </defs>
      <g>
       <use xlink:href="#mf0bc31cf9b" x="103.456392" y="331.5325" style="stroke: #000000; stroke-width: 0.8"/>
      </g>
     </g>
     <g id="text_1">
      <!-- 0 -->
      <g transform="translate(96.139517 356.008906) scale(0.23 -0.23)">
       <defs>
        <path id="DejaVuSans-30" d="M 2034 4250 
Q 1547 4250 1301 3770 
Q 1056 3291 1056 2328 
Q 1056 1369 1301 889 
Q 1547 409 2034 409 
Q 2525 409 2770 889 
Q 3016 1369 3016 2328 
Q 3016 3291 2770 3770 
Q 2525 4250 2034 4250 
z
M 2034 4750 
Q 2819 4750 3233 4129 
Q 3647 3509 3647 2328 
Q 3647 1150 3233 529 
Q 2819 -91 2034 -91 
Q 1250 -91 836 529 
Q 422 1150 422 2328 
Q 422 3509 836 4129 
Q 1250 4750 2034 4750 
z
" transform="scale(0.015625)"/>
       </defs>
       <use xlink:href="#DejaVuSans-30"/>
      </g>
     </g>
    </g>
    <g id="xtick_2">
     <g id="line2d_2">
      <g>
       <use xlink:href="#mf0bc31cf9b" x="186.860867" y="331.5325" style="stroke: #000000; stroke-width: 0.8"/>
      </g>
     </g>
     <g id="text_2">
      <!-- 200 -->
      <g transform="translate(164.910242 356.008906) scale(0.23 -0.23)">
       <defs>
        <path id="DejaVuSans-32" d="M 1228 531 
L 3431 531 
L 3431 0 
L 469 0 
L 469 531 
Q 828 903 1448 1529 
Q 2069 2156 2228 2338 
Q 2531 2678 2651 2914 
Q 2772 3150 2772 3378 
Q 2772 3750 2511 3984 
Q 2250 4219 1831 4219 
Q 1534 4219 1204 4116 
Q 875 4013 500 3803 
L 500 4441 
Q 881 4594 1212 4672 
Q 1544 4750 1819 4750 
Q 2544 4750 2975 4387 
Q 3406 4025 3406 3419 
Q 3406 3131 3298 2873 
Q 3191 2616 2906 2266 
Q 2828 2175 2409 1742 
Q 1991 1309 1228 531 
z
" transform="scale(0.015625)"/>
       </defs>
       <use xlink:href="#DejaVuSans-32"/>
       <use xlink:href="#DejaVuSans-30" transform="translate(63.623047 0)"/>
       <use xlink:href="#DejaVuSans-30" transform="translate(127.246094 0)"/>
      </g>
     </g>
    </g>
    <g id="xtick_3">
     <g id="line2d_3">
      <g>
       <use xlink:href="#mf0bc31cf9b" x="270.265342" y="331.5325" style="stroke: #000000; stroke-width: 0.8"/>
      </g>
     </g>
     <g id="text_3">
      <!-- 400 -->
      <g transform="translate(248.314717 356.008906) scale(0.23 -0.23)">
       <defs>
        <path id="DejaVuSans-34" d="M 2419 4116 
L 825 1625 
L 2419 1625 
L 2419 4116 
z
M 2253 4666 
L 3047 4666 
L 3047 1625 
L 3713 1625 
L 3713 1100 
L 3047 1100 
L 3047 0 
L 2419 0 
L 2419 1100 
L 313 1100 
L 313 1709 
L 2253 4666 
z
" transform="scale(0.015625)"/>
       </defs>
       <use xlink:href="#DejaVuSans-34"/>
       <use xlink:href="#DejaVuSans-30" transform="translate(63.623047 0)"/>
       <use xlink:href="#DejaVuSans-30" transform="translate(127.246094 0)"/>
      </g>
     </g>
    </g>
    <g id="xtick_4">
     <g id="line2d_4">
      <g>
       <use xlink:href="#mf0bc31cf9b" x="353.669817" y="331.5325" style="stroke: #000000; stroke-width: 0.8"/>
      </g>
     </g>
     <g id="text_4">
      <!-- 600 -->
      <g transform="translate(331.719192 356.008906) scale(0.23 -0.23)">
       <defs>
        <path id="DejaVuSans-36" d="M 2113 2584 
Q 1688 2584 1439 2293 
Q 1191 2003 1191 1497 
Q 1191 994 1439 701 
Q 1688 409 2113 409 
Q 2538 409 2786 701 
Q 3034 994 3034 1497 
Q 3034 2003 2786 2293 
Q 2538 2584 2113 2584 
z
M 3366 4563 
L 3366 3988 
Q 3128 4100 2886 4159 
Q 2644 4219 2406 4219 
Q 1781 4219 1451 3797 
Q 1122 3375 1075 2522 
Q 1259 2794 1537 2939 
Q 1816 3084 2150 3084 
Q 2853 3084 3261 2657 
Q 3669 2231 3669 1497 
Q 3669 778 3244 343 
Q 2819 -91 2113 -91 
Q 1303 -91 875 529 
Q 447 1150 447 2328 
Q 447 3434 972 4092 
Q 1497 4750 2381 4750 
Q 2619 4750 2861 4703 
Q 3103 4656 3366 4563 
z
" transform="scale(0.015625)"/>
       </defs>
       <use xlink:href="#DejaVuSans-36"/>
       <use xlink:href="#DejaVuSans-30" transform="translate(63.623047 0)"/>
       <use xlink:href="#DejaVuSans-30" transform="translate(127.246094 0)"/>
      </g>
     </g>
    </g>
    <g id="xtick_5">
     <g id="line2d_5">
      <g>
       <use xlink:href="#mf0bc31cf9b" x="437.074292" y="331.5325" style="stroke: #000000; stroke-width: 0.8"/>
      </g>
     </g>
     <g id="text_5">
      <!-- 800 -->
      <g transform="translate(415.123667 356.008906) scale(0.23 -0.23)">
       <defs>
        <path id="DejaVuSans-38" d="M 2034 2216 
Q 1584 2216 1326 1975 
Q 1069 1734 1069 1313 
Q 1069 891 1326 650 
Q 1584 409 2034 409 
Q 2484 409 2743 651 
Q 3003 894 3003 1313 
Q 3003 1734 2745 1975 
Q 2488 2216 2034 2216 
z
M 1403 2484 
Q 997 2584 770 2862 
Q 544 3141 544 3541 
Q 544 4100 942 4425 
Q 1341 4750 2034 4750 
Q 2731 4750 3128 4425 
Q 3525 4100 3525 3541 
Q 3525 3141 3298 2862 
Q 3072 2584 2669 2484 
Q 3125 2378 3379 2068 
Q 3634 1759 3634 1313 
Q 3634 634 3220 271 
Q 2806 -91 2034 -91 
Q 1263 -91 848 271 
Q 434 634 434 1313 
Q 434 1759 690 2068 
Q 947 2378 1403 2484 
z
M 1172 3481 
Q 1172 3119 1398 2916 
Q 1625 2713 2034 2713 
Q 2441 2713 2670 2916 
Q 2900 3119 2900 3481 
Q 2900 3844 2670 4047 
Q 2441 4250 2034 4250 
Q 1625 4250 1398 4047 
Q 1172 3844 1172 3481 
z
" transform="scale(0.015625)"/>
       </defs>
       <use xlink:href="#DejaVuSans-38"/>
       <use xlink:href="#DejaVuSans-30" transform="translate(63.623047 0)"/>
       <use xlink:href="#DejaVuSans-30" transform="translate(127.246094 0)"/>
      </g>
     </g>
    </g>
    <g id="text_6">
     <!-- Extension (Å) -->
     <g transform="translate(217.459766 384.3925) scale(0.23 -0.23)">
      <defs>
       <path id="DejaVuSans-45" d="M 628 4666 
L 3578 4666 
L 3578 4134 
L 1259 4134 
L 1259 2753 
L 3481 2753 
L 3481 2222 
L 1259 2222 
L 1259 531 
L 3634 531 
L 3634 0 
L 628 0 
L 628 4666 
z
" transform="scale(0.015625)"/>
       <path id="DejaVuSans-78" d="M 3513 3500 
L 2247 1797 
L 3578 0 
L 2900 0 
L 1881 1375 
L 863 0 
L 184 0 
L 1544 1831 
L 300 3500 
L 978 3500 
L 1906 2253 
L 2834 3500 
L 3513 3500 
z
" transform="scale(0.015625)"/>
       <path id="DejaVuSans-74" d="M 1172 4494 
L 1172 3500 
L 2356 3500 
L 2356 3053 
L 1172 3053 
L 1172 1153 
Q 1172 725 1289 603 
Q 1406 481 1766 481 
L 2356 481 
L 2356 0 
L 1766 0 
Q 1100 0 847 248 
Q 594 497 594 1153 
L 594 3053 
L 172 3053 
L 172 3500 
L 594 3500 
L 594 4494 
L 1172 4494 
z
" transform="scale(0.015625)"/>
       <path id="DejaVuSans-65" d="M 3597 1894 
L 3597 1613 
L 953 1613 
Q 991 1019 1311 708 
Q 1631 397 2203 397 
Q 2534 397 2845 478 
Q 3156 559 3463 722 
L 3463 178 
Q 3153 47 2828 -22 
Q 2503 -91 2169 -91 
Q 1331 -91 842 396 
Q 353 884 353 1716 
Q 353 2575 817 3079 
Q 1281 3584 2069 3584 
Q 2775 3584 3186 3129 
Q 3597 2675 3597 1894 
z
M 3022 2063 
Q 3016 2534 2758 2815 
Q 2500 3097 2075 3097 
Q 1594 3097 1305 2825 
Q 1016 2553 972 2059 
L 3022 2063 
z
" transform="scale(0.015625)"/>
       <path id="DejaVuSans-6e" d="M 3513 2113 
L 3513 0 
L 2938 0 
L 2938 2094 
Q 2938 2591 2744 2837 
Q 2550 3084 2163 3084 
Q 1697 3084 1428 2787 
Q 1159 2491 1159 1978 
L 1159 0 
L 581 0 
L 581 3500 
L 1159 3500 
L 1159 2956 
Q 1366 3272 1645 3428 
Q 1925 3584 2291 3584 
Q 2894 3584 3203 3211 
Q 3513 2838 3513 2113 
z
" transform="scale(0.015625)"/>
       <path id="DejaVuSans-73" d="M 2834 3397 
L 2834 2853 
Q 2591 2978 2328 3040 
Q 2066 3103 1784 3103 
Q 1356 3103 1142 2972 
Q 928 2841 928 2578 
Q 928 2378 1081 2264 
Q 1234 2150 1697 2047 
L 1894 2003 
Q 2506 1872 2764 1633 
Q 3022 1394 3022 966 
Q 3022 478 2636 193 
Q 2250 -91 1575 -91 
Q 1294 -91 989 -36 
Q 684 19 347 128 
L 347 722 
Q 666 556 975 473 
Q 1284 391 1588 391 
Q 1994 391 2212 530 
Q 2431 669 2431 922 
Q 2431 1156 2273 1281 
Q 2116 1406 1581 1522 
L 1381 1569 
Q 847 1681 609 1914 
Q 372 2147 372 2553 
Q 372 3047 722 3315 
Q 1072 3584 1716 3584 
Q 2034 3584 2315 3537 
Q 2597 3491 2834 3397 
z
" transform="scale(0.015625)"/>
       <path id="DejaVuSans-69" d="M 603 3500 
L 1178 3500 
L 1178 0 
L 603 0 
L 603 3500 
z
M 603 4863 
L 1178 4863 
L 1178 4134 
L 603 4134 
L 603 4863 
z
" transform="scale(0.015625)"/>
       <path id="DejaVuSans-6f" d="M 1959 3097 
Q 1497 3097 1228 2736 
Q 959 2375 959 1747 
Q 959 1119 1226 758 
Q 1494 397 1959 397 
Q 2419 397 2687 759 
Q 2956 1122 2956 1747 
Q 2956 2369 2687 2733 
Q 2419 3097 1959 3097 
z
M 1959 3584 
Q 2709 3584 3137 3096 
Q 3566 2609 3566 1747 
Q 3566 888 3137 398 
Q 2709 -91 1959 -91 
Q 1206 -91 779 398 
Q 353 888 353 1747 
Q 353 2609 779 3096 
Q 1206 3584 1959 3584 
z
" transform="scale(0.015625)"/>
       <path id="DejaVuSans-20" transform="scale(0.015625)"/>
       <path id="DejaVuSans-28" d="M 1984 4856 
Q 1566 4138 1362 3434 
Q 1159 2731 1159 2009 
Q 1159 1288 1364 580 
Q 1569 -128 1984 -844 
L 1484 -844 
Q 1016 -109 783 600 
Q 550 1309 550 2009 
Q 550 2706 781 3412 
Q 1013 4119 1484 4856 
L 1984 4856 
z
" transform="scale(0.015625)"/>
       <path id="DejaVuSans-c5" d="M 2663 5081 
Q 2663 5278 2523 5417 
Q 2384 5556 2188 5556 
Q 1988 5556 1852 5420 
Q 1716 5284 1716 5081 
Q 1716 4884 1853 4746 
Q 1991 4609 2188 4609 
Q 2384 4609 2523 4746 
Q 2663 4884 2663 5081 
z
M 2188 4044 
L 1338 1722 
L 3041 1722 
L 2188 4044 
z
M 1716 4366 
Q 1525 4494 1428 4673 
Q 1331 4853 1331 5081 
Q 1331 5441 1579 5691 
Q 1828 5941 2188 5941 
Q 2544 5941 2795 5689 
Q 3047 5438 3047 5081 
Q 3047 4863 2948 4678 
Q 2850 4494 2663 4366 
L 4325 0 
L 3669 0 
L 3244 1197 
L 1141 1197 
L 716 0 
L 50 0 
L 1716 4366 
z
" transform="scale(0.015625)"/>
       <path id="DejaVuSans-29" d="M 513 4856 
L 1013 4856 
Q 1481 4119 1714 3412 
Q 1947 2706 1947 2009 
Q 1947 1309 1714 600 
Q 1481 -109 1013 -844 
L 513 -844 
Q 928 -128 1133 580 
Q 1338 1288 1338 2009 
Q 1338 2731 1133 3434 
Q 928 4138 513 4856 
z
" transform="scale(0.015625)"/>
      </defs>
      <use xlink:href="#DejaVuSans-45"/>
      <use xlink:href="#DejaVuSans-78" transform="translate(63.183594 0)"/>
      <use xlink:href="#DejaVuSans-74" transform="translate(122.363281 0)"/>
      <use xlink:href="#DejaVuSans-65" transform="translate(161.572266 0)"/>
      <use xlink:href="#DejaVuSans-6e" transform="translate(223.095703 0)"/>
      <use xlink:href="#DejaVuSans-73" transform="translate(286.474609 0)"/>
      <use xlink:href="#DejaVuSans-69" transform="translate(338.574219 0)"/>
      <use xlink:href="#DejaVuSans-6f" transform="translate(366.357422 0)"/>
      <use xlink:href="#DejaVuSans-6e" transform="translate(427.539062 0)"/>
      <use xlink:href="#DejaVuSans-20" transform="translate(490.917969 0)"/>
      <use xlink:href="#DejaVuSans-28" transform="translate(522.705078 0)"/>
      <use xlink:href="#DejaVuSans-c5" transform="translate(561.71875 0)"/>
      <use xlink:href="#DejaVuSans-29" transform="translate(630.126953 0)"/>
     </g>
    </g>
   </g>
   <g id="matplotlib.axis_2">
    <g id="ytick_1">
     <g id="line2d_6">
      <path d="M 84.360938 325.350706 
L 504.460937 325.350706 
" clip-path="url(#p0a7ff8e7bc)" style="fill: none; stroke-dasharray: 1.85,0.8; stroke-dashoffset: 0; stroke: #b0b0b0; stroke-opacity: 0.6; stroke-width: 0.5"/>
     </g>
     <g id="line2d_7">
      <defs>
       <path id="m78e7c1ad37" d="M 0 0 
L -3.5 0 
" style="stroke: #000000; stroke-width: 0.8"/>
      </defs>
      <g>
       <use xlink:href="#m78e7c1ad37" x="84.360938" y="325.350706" style="stroke: #000000; stroke-width: 0.8"/>
      </g>
     </g>
     <g id="text_7">
      <!-- 0 -->
      <g transform="translate(62.727188 334.088909) scale(0.23 -0.23)">
       <use xlink:href="#DejaVuSans-30"/>
      </g>
     </g>
    </g>
    <g id="ytick_2">
     <g id="line2d_8">
      <path d="M 84.360938 267.968398 
L 504.460937 267.968398 
" clip-path="url(#p0a7ff8e7bc)" style="fill: none; stroke-dasharray: 1.85,0.8; stroke-dashoffset: 0; stroke: #b0b0b0; stroke-opacity: 0.6; stroke-width: 0.5"/>
     </g>
     <g id="line2d_9">
      <g>
       <use xlink:href="#m78e7c1ad37" x="84.360938" y="267.968398" style="stroke: #000000; stroke-width: 0.8"/>
      </g>
     </g>
     <g id="text_8">
      <!-- 50 -->
      <g transform="translate(48.093438 276.706602) scale(0.23 -0.23)">
       <defs>
        <path id="DejaVuSans-35" d="M 691 4666 
L 3169 4666 
L 3169 4134 
L 1269 4134 
L 1269 2991 
Q 1406 3038 1543 3061 
Q 1681 3084 1819 3084 
Q 2600 3084 3056 2656 
Q 3513 2228 3513 1497 
Q 3513 744 3044 326 
Q 2575 -91 1722 -91 
Q 1428 -91 1123 -41 
Q 819 9 494 109 
L 494 744 
Q 775 591 1075 516 
Q 1375 441 1709 441 
Q 2250 441 2565 725 
Q 2881 1009 2881 1497 
Q 2881 1984 2565 2268 
Q 2250 2553 1709 2553 
Q 1456 2553 1204 2497 
Q 953 2441 691 2322 
L 691 4666 
z
" transform="scale(0.015625)"/>
       </defs>
       <use xlink:href="#DejaVuSans-35"/>
       <use xlink:href="#DejaVuSans-30" transform="translate(63.623047 0)"/>
      </g>
     </g>
    </g>
    <g id="ytick_3">
     <g id="line2d_10">
      <path d="M 84.360938 210.586091 
L 504.460937 210.586091 
" clip-path="url(#p0a7ff8e7bc)" style="fill: none; stroke-dasharray: 1.85,0.8; stroke-dashoffset: 0; stroke: #b0b0b0; stroke-opacity: 0.6; stroke-width: 0.5"/>
     </g>
     <g id="line2d_11">
      <g>
       <use xlink:href="#m78e7c1ad37" x="84.360938" y="210.586091" style="stroke: #000000; stroke-width: 0.8"/>
      </g>
     </g>
     <g id="text_9">
      <!-- 100 -->
      <g transform="translate(33.459688 219.324294) scale(0.23 -0.23)">
       <defs>
        <path id="DejaVuSans-31" d="M 794 531 
L 1825 531 
L 1825 4091 
L 703 3866 
L 703 4441 
L 1819 4666 
L 2450 4666 
L 2450 531 
L 3481 531 
L 3481 0 
L 794 0 
L 794 531 
z
" transform="scale(0.015625)"/>
       </defs>
       <use xlink:href="#DejaVuSans-31"/>
       <use xlink:href="#DejaVuSans-30" transform="translate(63.623047 0)"/>
       <use xlink:href="#DejaVuSans-30" transform="translate(127.246094 0)"/>
      </g>
     </g>
    </g>
    <g id="ytick_4">
     <g id="line2d_12">
      <path d="M 84.360938 153.203784 
L 504.460937 153.203784 
" clip-path="url(#p0a7ff8e7bc)" style="fill: none; stroke-dasharray: 1.85,0.8; stroke-dashoffset: 0; stroke: #b0b0b0; stroke-opacity: 0.6; stroke-width: 0.5"/>
     </g>
     <g id="line2d_13">
      <g>
       <use xlink:href="#m78e7c1ad37" x="84.360938" y="153.203784" style="stroke: #000000; stroke-width: 0.8"/>
      </g>
     </g>
     <g id="text_10">
      <!-- 150 -->
      <g transform="translate(33.459688 161.941987) scale(0.23 -0.23)">
       <use xlink:href="#DejaVuSans-31"/>
       <use xlink:href="#DejaVuSans-35" transform="translate(63.623047 0)"/>
       <use xlink:href="#DejaVuSans-30" transform="translate(127.246094 0)"/>
      </g>
     </g>
    </g>
    <g id="ytick_5">
     <g id="line2d_14">
      <path d="M 84.360938 95.821477 
L 504.460937 95.821477 
" clip-path="url(#p0a7ff8e7bc)" style="fill: none; stroke-dasharray: 1.85,0.8; stroke-dashoffset: 0; stroke: #b0b0b0; stroke-opacity: 0.6; stroke-width: 0.5"/>
     </g>
     <g id="line2d_15">
      <g>
       <use xlink:href="#m78e7c1ad37" x="84.360938" y="95.821477" style="stroke: #000000; stroke-width: 0.8"/>
      </g>
     </g>
     <g id="text_11">
      <!-- 200 -->
      <g transform="translate(33.459688 104.55968) scale(0.23 -0.23)">
       <use xlink:href="#DejaVuSans-32"/>
       <use xlink:href="#DejaVuSans-30" transform="translate(63.623047 0)"/>
       <use xlink:href="#DejaVuSans-30" transform="translate(127.246094 0)"/>
      </g>
     </g>
    </g>
    <g id="ytick_6">
     <g id="line2d_16">
      <path d="M 84.360938 38.439169 
L 504.460937 38.439169 
" clip-path="url(#p0a7ff8e7bc)" style="fill: none; stroke-dasharray: 1.85,0.8; stroke-dashoffset: 0; stroke: #b0b0b0; stroke-opacity: 0.6; stroke-width: 0.5"/>
     </g>
     <g id="line2d_17">
      <g>
       <use xlink:href="#m78e7c1ad37" x="84.360938" y="38.439169" style="stroke: #000000; stroke-width: 0.8"/>
      </g>
     </g>
     <g id="text_12">
      <!-- 250 -->
      <g transform="translate(33.459688 47.177372) scale(0.23 -0.23)">
       <use xlink:href="#DejaVuSans-32"/>
       <use xlink:href="#DejaVuSans-35" transform="translate(63.623047 0)"/>
       <use xlink:href="#DejaVuSans-30" transform="translate(127.246094 0)"/>
      </g>
     </g>
    </g>
    <g id="text_13">
     <!-- Force (pN) -->
     <g transform="translate(24.676406 229.000938) rotate(-90) scale(0.23 -0.23)">
      <defs>
       <path id="DejaVuSans-46" d="M 628 4666 
L 3309 4666 
L 3309 4134 
L 1259 4134 
L 1259 2759 
L 3109 2759 
L 3109 2228 
L 1259 2228 
L 1259 0 
L 628 0 
L 628 4666 
z
" transform="scale(0.015625)"/>
       <path id="DejaVuSans-72" d="M 2631 2963 
Q 2534 3019 2420 3045 
Q 2306 3072 2169 3072 
Q 1681 3072 1420 2755 
Q 1159 2438 1159 1844 
L 1159 0 
L 581 0 
L 581 3500 
L 1159 3500 
L 1159 2956 
Q 1341 3275 1631 3429 
Q 1922 3584 2338 3584 
Q 2397 3584 2469 3576 
Q 2541 3569 2628 3553 
L 2631 2963 
z
" transform="scale(0.015625)"/>
       <path id="DejaVuSans-63" d="M 3122 3366 
L 3122 2828 
Q 2878 2963 2633 3030 
Q 2388 3097 2138 3097 
Q 1578 3097 1268 2742 
Q 959 2388 959 1747 
Q 959 1106 1268 751 
Q 1578 397 2138 397 
Q 2388 397 2633 464 
Q 2878 531 3122 666 
L 3122 134 
Q 2881 22 2623 -34 
Q 2366 -91 2075 -91 
Q 1284 -91 818 406 
Q 353 903 353 1747 
Q 353 2603 823 3093 
Q 1294 3584 2113 3584 
Q 2378 3584 2631 3529 
Q 2884 3475 3122 3366 
z
" transform="scale(0.015625)"/>
       <path id="DejaVuSans-70" d="M 1159 525 
L 1159 -1331 
L 581 -1331 
L 581 3500 
L 1159 3500 
L 1159 2969 
Q 1341 3281 1617 3432 
Q 1894 3584 2278 3584 
Q 2916 3584 3314 3078 
Q 3713 2572 3713 1747 
Q 3713 922 3314 415 
Q 2916 -91 2278 -91 
Q 1894 -91 1617 61 
Q 1341 213 1159 525 
z
M 3116 1747 
Q 3116 2381 2855 2742 
Q 2594 3103 2138 3103 
Q 1681 3103 1420 2742 
Q 1159 2381 1159 1747 
Q 1159 1113 1420 752 
Q 1681 391 2138 391 
Q 2594 391 2855 752 
Q 3116 1113 3116 1747 
z
" transform="scale(0.015625)"/>
       <path id="DejaVuSans-4e" d="M 628 4666 
L 1478 4666 
L 3547 763 
L 3547 4666 
L 4159 4666 
L 4159 0 
L 3309 0 
L 1241 3903 
L 1241 0 
L 628 0 
L 628 4666 
z
" transform="scale(0.015625)"/>
      </defs>
      <use xlink:href="#DejaVuSans-46"/>
      <use xlink:href="#DejaVuSans-6f" transform="translate(53.894531 0)"/>
      <use xlink:href="#DejaVuSans-72" transform="translate(115.076172 0)"/>
      <use xlink:href="#DejaVuSans-63" transform="translate(153.939453 0)"/>
      <use xlink:href="#DejaVuSans-65" transform="translate(208.919922 0)"/>
      <use xlink:href="#DejaVuSans-20" transform="translate(270.443359 0)"/>
      <use xlink:href="#DejaVuSans-28" transform="translate(302.230469 0)"/>
      <use xlink:href="#DejaVuSans-70" transform="translate(341.244141 0)"/>
      <use xlink:href="#DejaVuSans-4e" transform="translate(404.720703 0)"/>
      <use xlink:href="#DejaVuSans-29" transform="translate(479.525391 0)"/>
     </g>
    </g>
   </g>
   <g id="line2d_18">
    <path d="M 103.456392 314.453723 
L 104.951144 307.094706 
L 105.69852 302.001292 
L 106.445896 303.483628 
L 107.193272 294.442309 
L 107.940648 289.499044 
L 108.688023 291.68667 
L 109.435399 301.162088 
L 110.182775 300.512286 
L 110.930151 287.495877 
L 111.677527 295.159923 
L 112.424903 283.75672 
L 113.172279 287.014809 
L 113.919655 274.831891 
L 114.667031 298.962965 
L 115.414407 302.340927 
L 116.161783 286.410875 
L 116.909158 279.112383 
L 117.656534 291.175556 
L 118.40391 287.092088 
L 119.151286 273.413991 
L 119.898662 281.240045 
L 120.646038 269.085434 
L 121.393414 259.111817 
L 122.14079 276.350737 
L 122.888166 283.206397 
L 123.635542 279.495972 
L 124.382918 272.458619 
L 125.130293 274.128626 
L 125.877669 274.682993 
L 126.625045 263.290509 
L 127.372421 262.939304 
L 128.119797 262.018605 
L 128.867173 263.518135 
L 129.614549 261.673484 
L 130.361925 247.011782 
L 131.109301 250.405539 
L 131.856677 241.26758 
L 132.604053 252.701969 
L 133.351429 245.110187 
L 134.098804 231.773608 
L 134.84618 237.606419 
L 135.593556 233.959242 
L 136.340932 234.206744 
L 137.088308 230.054836 
L 137.835684 220.442248 
L 138.58306 239.187445 
L 140.077812 244.588829 
L 140.825188 243.024992 
L 141.572564 248.449203 
L 142.319939 247.106074 
L 143.067315 233.961028 
L 143.814691 235.159467 
L 144.562067 251.164259 
L 145.309443 274.301611 
L 146.056819 264.470351 
L 146.804195 264.334154 
L 147.551571 264.612616 
L 148.298947 260.151924 
L 149.046323 260.025761 
L 150.541074 262.489012 
L 151.28845 260.001013 
L 152.035826 265.763099 
L 152.783202 252.067101 
L 153.530578 251.914565 
L 154.277954 247.030266 
L 155.02533 234.863598 
L 155.772706 234.264068 
L 156.520082 217.874965 
L 157.267458 221.613579 
L 158.014834 218.16544 
L 158.76221 210.582571 
L 159.509585 256.52605 
L 160.256961 288.363608 
L 161.004337 285.682029 
L 161.751713 274.443941 
L 163.246465 277.485004 
L 163.993841 280.986817 
L 164.741217 281.671927 
L 165.488593 284.152808 
L 166.983345 296.750302 
L 167.73072 296.766538 
L 168.478096 296.381473 
L 169.225472 289.230743 
L 169.972848 303.439908 
L 170.720224 307.138212 
L 171.4676 303.242693 
L 172.214976 302.195602 
L 172.962352 296.166388 
L 173.709728 293.756915 
L 174.457104 295.750708 
L 175.20448 294.709752 
L 175.951855 289.145743 
L 176.699231 287.210472 
L 177.446607 294.203999 
L 178.193983 289.050998 
L 178.941359 290.033938 
L 179.688735 286.826313 
L 180.436111 279.29281 
L 181.183487 284.742602 
L 181.930863 293.942471 
L 182.678239 282.50948 
L 183.425615 277.168147 
L 184.172991 286.479774 
L 184.920366 291.376533 
L 185.667742 285.114865 
L 186.415118 285.580619 
L 187.162494 289.744908 
L 187.90987 286.134527 
L 188.657246 288.121228 
L 189.404622 284.756611 
L 190.151998 292.112856 
L 190.899374 288.39723 
L 192.394126 273.133546 
L 193.141501 273.157064 
L 193.888877 274.010343 
L 194.636253 275.48879 
L 195.383629 278.541182 
L 196.131005 272.556483 
L 196.878381 281.224297 
L 197.625757 276.724887 
L 198.373133 284.712298 
L 199.120509 280.374897 
L 199.867885 284.232254 
L 200.615261 285.132596 
L 201.362636 274.819239 
L 202.110012 269.735805 
L 202.857388 277.820541 
L 203.604764 275.030009 
L 204.35214 277.71608 
L 205.099516 284.001209 
L 205.846892 274.383697 
L 206.594268 279.652102 
L 207.341644 276.680013 
L 208.08902 278.106433 
L 208.836396 290.215342 
L 209.583772 282.362303 
L 210.331147 287.104491 
L 211.078523 281.53115 
L 211.825899 289.724686 
L 212.573275 281.375537 
L 213.320651 287.495838 
L 214.068027 278.732265 
L 214.815403 284.367182 
L 215.562779 282.390646 
L 216.310155 282.329666 
L 217.057531 290.05131 
L 217.804907 294.88866 
L 218.552282 295.700699 
L 219.299658 291.839483 
L 220.047034 290.205288 
L 220.79441 286.85727 
L 221.541786 291.346895 
L 222.289162 290.532474 
L 223.036538 286.740414 
L 223.783914 286.469942 
L 224.53129 290.594185 
L 225.278666 294.067469 
L 226.026042 290.215462 
L 226.773417 294.770021 
L 227.520793 291.000901 
L 228.268169 287.957936 
L 229.015545 288.254396 
L 230.510297 284.73061 
L 231.257673 289.669367 
L 232.005049 286.760736 
L 232.752425 281.20992 
L 233.499801 287.893629 
L 234.247177 280.459531 
L 234.994553 285.736202 
L 235.741928 285.034232 
L 236.489304 277.018458 
L 237.23668 279.285149 
L 237.984056 286.197766 
L 238.731432 284.424515 
L 239.478808 287.30338 
L 240.226184 288.171811 
L 240.97356 285.994661 
L 241.720936 287.095595 
L 242.468312 282.005467 
L 243.215688 275.442419 
L 243.963063 278.965088 
L 244.710439 284.974237 
L 245.457815 280.284125 
L 246.205191 286.482195 
L 246.952567 287.908242 
L 247.699943 283.850092 
L 248.447319 281.468651 
L 249.194695 288.595799 
L 249.942071 274.673069 
L 250.689447 273.959586 
L 251.436823 274.100471 
L 252.184198 269.220856 
L 252.931574 275.625359 
L 253.67895 270.810559 
L 254.426326 275.529513 
L 255.173702 267.236081 
L 255.921078 275.923889 
L 256.668454 282.423012 
L 257.41583 277.950421 
L 258.163206 277.739751 
L 258.910582 277.411105 
L 259.657958 279.111691 
L 260.405334 284.702701 
L 261.152709 284.942791 
L 263.394837 273.837752 
L 264.142213 271.452174 
L 264.889589 270.759096 
L 265.636965 274.772763 
L 266.384341 277.323126 
L 267.131717 275.811933 
L 267.879093 281.577806 
L 268.626469 282.874017 
L 269.373844 281.63643 
L 270.12122 285.411767 
L 270.868596 283.668071 
L 271.615972 283.977406 
L 272.363348 283.206441 
L 273.110724 285.776343 
L 273.8581 280.027531 
L 274.605476 284.679301 
L 275.352852 280.802362 
L 276.100228 282.158515 
L 276.847604 281.410805 
L 277.594979 282.745367 
L 278.342355 286.570227 
L 279.089731 279.985765 
L 279.837107 284.267431 
L 280.584483 274.009533 
L 281.331859 282.958204 
L 282.079235 277.976146 
L 282.826611 280.927759 
L 283.573987 274.859341 
L 284.321363 270.310893 
L 285.068739 275.638331 
L 285.816115 275.432787 
L 286.56349 262.162647 
L 287.310866 267.239085 
L 288.058242 271.071566 
L 288.805618 266.808192 
L 289.552994 272.603909 
L 290.30037 263.170515 
L 291.047746 272.686591 
L 291.795122 276.895399 
L 292.542498 271.23699 
L 293.289874 267.266547 
L 294.03725 271.590376 
L 294.784625 263.961829 
L 295.532001 254.410821 
L 296.279377 254.9857 
L 297.026753 257.506056 
L 297.774129 257.291433 
L 298.521505 260.618444 
L 300.016257 253.034919 
L 300.763633 259.377732 
L 301.511009 253.237836 
L 302.258385 249.999101 
L 303.00576 251.129673 
L 303.753136 255.447557 
L 304.500512 261.564899 
L 305.247888 245.607651 
L 305.995264 248.935599 
L 306.74264 237.748334 
L 307.490016 243.571619 
L 308.237392 237.869813 
L 308.984768 227.777449 
L 309.732144 234.325867 
L 310.47952 237.669759 
L 311.226896 250.52665 
L 311.974271 252.803423 
L 312.721647 265.120914 
L 313.469023 279.282583 
L 314.216399 285.803044 
L 314.963775 290.867429 
L 315.711151 282.185868 
L 316.458527 276.431229 
L 317.205903 278.646712 
L 317.953279 285.396825 
L 318.700655 286.016244 
L 319.448031 283.341316 
L 320.195406 281.643225 
L 320.942782 282.322355 
L 321.690158 294.16548 
L 322.437534 283.221103 
L 323.18491 285.487203 
L 323.932286 289.16158 
L 324.679662 288.650742 
L 325.427038 283.915765 
L 326.174414 284.669643 
L 326.92179 286.182667 
L 327.669166 281.998406 
L 328.416541 278.637032 
L 329.163917 288.722078 
L 329.911293 279.700355 
L 330.658669 288.925702 
L 331.406045 282.278326 
L 332.153421 286.735156 
L 332.900797 286.930188 
L 333.648173 286.904726 
L 334.395549 281.004504 
L 335.142925 282.676879 
L 335.890301 281.051667 
L 336.637677 280.281301 
L 337.385052 288.329863 
L 338.132428 287.166894 
L 338.879804 280.397172 
L 339.62718 283.441373 
L 340.374556 281.381022 
L 341.121932 280.922632 
L 341.869308 285.314332 
L 342.616684 274.430352 
L 343.36406 278.419332 
L 344.111436 279.320991 
L 344.858812 283.376177 
L 345.606187 284.745605 
L 346.353563 278.465256 
L 347.100939 286.248603 
L 347.848315 283.318301 
L 348.595691 286.733046 
L 349.343067 278.389106 
L 350.090443 277.562651 
L 350.837819 277.514993 
L 351.585195 282.260836 
L 352.332571 276.441303 
L 353.079947 283.269487 
L 354.574698 266.224168 
L 355.322074 265.292783 
L 356.06945 279.321197 
L 356.816826 278.086789 
L 357.564202 273.289575 
L 358.311578 275.351752 
L 359.058954 275.247098 
L 359.80633 283.734283 
L 362.048458 272.086461 
L 362.795833 275.17512 
L 363.543209 269.035994 
L 364.290585 272.184272 
L 365.037961 267.938313 
L 365.785337 275.896133 
L 366.532713 272.3066 
L 367.280089 265.841223 
L 368.027465 277.944204 
L 368.774841 269.22998 
L 369.522217 267.006783 
L 370.269593 266.580588 
L 371.016968 285.686613 
L 371.764344 276.777208 
L 372.51172 275.072182 
L 373.259096 285.01117 
L 374.006472 275.497024 
L 374.753848 280.94376 
L 375.501224 284.49475 
L 376.2486 283.405374 
L 376.995976 275.45553 
L 377.743352 275.514212 
L 378.490728 283.649443 
L 379.238103 280.022168 
L 379.985479 279.070469 
L 381.480231 281.707322 
L 382.227607 275.590353 
L 382.974983 276.269715 
L 383.722359 273.481945 
L 384.469735 276.633052 
L 385.217111 279.21554 
L 385.964487 272.913389 
L 386.711863 282.57623 
L 387.459239 272.211424 
L 388.206614 274.33459 
L 388.95399 280.271657 
L 389.701366 280.723507 
L 390.448742 276.036222 
L 391.196118 282.61983 
L 391.943494 281.638545 
L 392.69087 278.903976 
L 393.438246 282.382516 
L 394.185622 287.358296 
L 394.932998 285.991163 
L 395.680374 283.596505 
L 396.427749 275.852126 
L 397.175125 287.307351 
L 397.922501 280.653701 
L 398.669877 279.311451 
L 399.417253 284.806112 
L 400.164629 288.809992 
L 400.912005 283.110744 
L 401.659381 280.333416 
L 402.406757 286.486919 
L 403.154133 288.563381 
L 403.901509 285.41062 
L 404.648884 277.081548 
L 405.39626 285.305138 
L 406.143636 282.863895 
L 406.891012 285.119825 
L 407.638388 289.730367 
L 408.385764 284.81063 
L 409.13314 282.252321 
L 409.880516 280.66349 
L 410.627892 281.036261 
L 411.375268 286.400385 
L 412.122644 283.620658 
L 412.87002 274.446809 
L 413.617395 270.386763 
L 414.364771 272.9378 
L 415.112147 270.111457 
L 415.859523 279.782695 
L 416.606899 280.86877 
L 417.354275 280.258129 
L 418.101651 276.031783 
L 418.849027 272.968695 
L 419.596403 278.533683 
L 420.343779 272.560393 
L 421.091155 270.763396 
L 421.83853 276.436645 
L 422.585906 275.05552 
L 423.333282 275.381977 
L 424.080658 277.079061 
L 424.828034 277.480153 
L 425.57541 273.606786 
L 426.322786 281.544787 
L 427.070162 275.723262 
L 427.817538 278.580343 
L 428.564914 278.867324 
L 429.31229 283.388322 
L 430.059665 265.080572 
L 430.807041 259.495209 
L 432.301793 264.978842 
L 433.049169 266.75078 
L 433.796545 266.732607 
L 434.543921 257.549144 
L 435.291297 264.369111 
L 436.038673 254.323206 
L 436.786049 249.341966 
L 437.533425 248.936518 
L 438.280801 247.100654 
L 439.028176 254.876847 
L 439.775552 251.857915 
L 440.522928 245.98994 
L 441.270304 250.622894 
L 442.01768 247.633613 
L 442.765056 246.625133 
L 444.259808 229.123065 
L 445.007184 232.244042 
L 445.75456 231.70807 
L 446.501936 240.746703 
L 447.249311 236.924374 
L 447.996687 224.236226 
L 448.744063 229.47892 
L 449.491439 216.11145 
L 450.986191 215.546496 
L 451.733567 219.196064 
L 452.480943 206.633738 
L 453.228319 197.596742 
L 453.975695 208.950149 
L 454.723071 208.290037 
L 455.470446 195.764021 
L 456.217822 189.951191 
L 456.965198 186.660087 
L 457.712574 181.575839 
L 458.45995 187.440688 
L 459.207326 180.305979 
L 459.954702 175.494327 
L 460.702078 174.073516 
L 461.449454 167.36097 
L 462.19683 170.243464 
L 462.944206 162.604655 
L 463.691582 150.16097 
L 464.438957 148.28904 
L 465.186333 151.856259 
L 465.933709 139.864937 
L 466.681085 138.865177 
L 467.428461 132.851277 
L 468.175837 128.970371 
L 468.923213 123.54954 
L 469.670589 123.731994 
L 470.417965 122.229596 
L 471.165341 110.826088 
L 471.912717 110.805355 
L 472.660092 98.280188 
L 473.407468 91.762162 
L 474.154844 92.453488 
L 474.90222 80.043216 
L 475.649596 81.692712 
L 476.396972 84.512094 
L 477.144348 77.97083 
L 477.891724 67.015709 
L 478.6391 70.07754 
L 479.386476 51.795826 
L 480.133852 57.814541 
L 480.881227 48.143833 
L 481.628603 44.901298 
L 482.375979 35.638017 
L 483.870731 23.453645 
L 484.618107 26.64424 
L 485.365483 21.942386 
L 485.365483 21.942386 
" clip-path="url(#p0a7ff8e7bc)" style="fill: none; stroke: #4c78a8; stroke-width: 1.6; stroke-linecap: square"/>
   </g>
   <g id="line2d_19">
    <path d="M 103.456392 316.790114 
L 104.203768 312.170035 
L 104.951144 310.557926 
L 106.445896 305.410787 
L 107.940648 299.717036 
L 108.688023 295.240061 
L 109.435399 296.764856 
L 110.182775 294.774624 
L 110.930151 294.445159 
L 111.677527 289.609173 
L 112.424903 289.522299 
L 113.172279 285.784188 
L 114.667031 283.617331 
L 115.414407 280.117554 
L 116.161783 277.798004 
L 116.909158 279.836995 
L 117.656534 277.56776 
L 118.40391 278.897331 
L 119.151286 276.716626 
L 119.898662 276.502624 
L 120.646038 272.311981 
L 121.393414 271.826456 
L 122.14079 269.998516 
L 122.888166 269.328934 
L 123.635542 268.037311 
L 124.382918 267.560945 
L 125.130293 261.577113 
L 125.877669 265.510865 
L 126.625045 266.005281 
L 127.372421 268.838476 
L 128.119797 268.253502 
L 128.867173 267.920303 
L 129.614549 268.953628 
L 130.361925 267.913591 
L 131.109301 271.754207 
L 131.856677 271.62427 
L 132.604053 271.307843 
L 133.351429 269.485786 
L 134.098804 264.650739 
L 134.84618 262.873276 
L 135.593556 262.939833 
L 136.340932 263.806439 
L 137.088308 260.91975 
L 137.835684 261.846916 
L 138.58306 259.571193 
L 139.330436 259.503773 
L 140.825188 260.138488 
L 141.572564 258.622506 
L 142.319939 256.660566 
L 145.309443 241.488245 
L 146.056819 233.828517 
L 146.804195 232.77856 
L 147.551571 228.343523 
L 148.298947 222.297673 
L 149.046323 221.699535 
L 149.793699 211.782682 
L 151.28845 255.366837 
L 152.035826 250.433855 
L 152.783202 247.998732 
L 153.530578 251.471659 
L 154.277954 247.526442 
L 155.772706 242.143593 
L 156.520082 235.643394 
L 157.267458 240.547657 
L 158.014834 236.153632 
L 158.76221 224.732761 
L 159.509585 226.175856 
L 160.256961 261.250586 
L 161.004337 279.990165 
L 161.751713 282.147176 
L 162.499089 282.705208 
L 163.246465 285.886014 
L 163.993841 287.109215 
L 164.741217 289.601216 
L 165.488593 293.674702 
L 166.235969 292.36847 
L 166.983345 293.498009 
L 167.73072 293.882671 
L 168.478096 298.673252 
L 169.225472 299.70888 
L 169.972848 297.52948 
L 170.720224 298.352149 
L 171.4676 294.565618 
L 172.214976 295.304603 
L 172.962352 293.557748 
L 173.709728 294.647993 
L 174.457104 293.911887 
L 175.20448 291.943321 
L 175.951855 293.886289 
L 176.699231 296.994577 
L 177.446607 292.398886 
L 178.941359 298.913613 
L 179.688735 301.352952 
L 180.436111 298.830673 
L 181.183487 300.309903 
L 182.678239 299.538879 
L 183.425615 297.248216 
L 184.172991 299.495756 
L 184.920366 302.912489 
L 185.667742 302.141035 
L 186.415118 298.873413 
L 187.162494 298.308028 
L 187.90987 298.098869 
L 188.657246 297.723619 
L 189.404622 294.092936 
L 190.151998 295.234503 
L 190.899374 293.08354 
L 191.64675 288.687843 
L 192.394126 293.473571 
L 193.141501 292.545979 
L 193.888877 292.293073 
L 194.636253 290.614589 
L 195.383629 294.708413 
L 196.131005 295.179241 
L 196.878381 291.590064 
L 197.625757 291.521016 
L 198.373133 295.883294 
L 199.120509 294.038984 
L 199.867885 291.215947 
L 200.615261 291.596622 
L 201.362636 291.518625 
L 202.110012 292.062311 
L 202.857388 288.255026 
L 203.604764 287.998712 
L 204.35214 285.677927 
L 205.099516 284.871299 
L 206.594268 276.280975 
L 207.341644 275.278746 
L 208.08902 273.747103 
L 208.836396 270.322206 
L 209.583772 267.978971 
L 210.331147 266.980091 
L 211.078523 265.23274 
L 211.825899 262.829593 
L 212.573275 265.531305 
L 213.320651 262.340023 
L 214.068027 258.37236 
L 214.815403 263.588313 
L 215.562779 260.535132 
L 216.310155 265.894703 
L 217.057531 268.338123 
L 217.804907 282.044212 
L 218.552282 284.884332 
L 219.299658 284.53106 
L 220.047034 285.305576 
L 220.79441 286.408305 
L 221.541786 289.402975 
L 222.289162 293.219367 
L 223.036538 290.623104 
L 224.53129 289.947652 
L 225.278666 292.180486 
L 226.026042 288.635205 
L 226.773417 287.023889 
L 227.520793 288.153818 
L 228.268169 287.401064 
L 229.015545 286.258663 
L 229.762921 283.184818 
L 230.510297 281.24785 
L 232.005049 284.511605 
L 232.752425 289.756225 
L 233.499801 284.095689 
L 234.247177 287.720088 
L 234.994553 286.056972 
L 235.741928 286.026773 
L 236.489304 286.873074 
L 237.23668 286.893996 
L 237.984056 284.057951 
L 238.731432 284.229299 
L 239.478808 283.70506 
L 240.226184 285.599177 
L 240.97356 286.812124 
L 241.720936 291.988466 
L 242.468312 278.912062 
L 243.215688 288.196476 
L 243.963063 292.351527 
L 244.710439 297.658143 
L 245.457815 298.620745 
L 246.205191 298.5474 
L 246.952567 296.556213 
L 247.699943 298.409066 
L 248.447319 298.992781 
L 249.194695 301.292642 
L 249.942071 299.490496 
L 250.689447 298.71681 
L 251.436823 297.460559 
L 252.184198 297.263075 
L 252.931574 294.793031 
L 253.67895 297.620834 
L 254.426326 295.114356 
L 255.173702 296.611437 
L 255.921078 293.986478 
L 256.668454 293.162148 
L 257.41583 291.196583 
L 258.163206 294.41148 
L 258.910582 292.519705 
L 259.657958 291.874251 
L 260.405334 288.969234 
L 261.152709 290.696353 
L 261.900085 287.599975 
L 262.647461 292.22121 
L 263.394837 288.109347 
L 264.142213 286.437072 
L 264.889589 281.958742 
L 265.636965 287.980391 
L 266.384341 282.679838 
L 267.131717 281.801907 
L 267.879093 279.104805 
L 268.626469 281.535546 
L 269.373844 278.617402 
L 270.12122 281.805856 
L 270.868596 279.180302 
L 271.615972 277.785277 
L 272.363348 275.479964 
L 273.110724 277.031889 
L 273.8581 271.558737 
L 274.605476 273.114463 
L 275.352852 269.92712 
L 276.100228 265.849388 
L 276.847604 269.635144 
L 277.594979 269.699976 
L 278.342355 260.05251 
L 279.089731 268.748098 
L 279.837107 269.767357 
L 280.584483 273.273241 
L 282.079235 289.907141 
L 282.826611 286.363037 
L 283.573987 286.363676 
L 284.321363 287.315699 
L 285.068739 290.79082 
L 285.816115 286.94703 
L 286.56349 290.756346 
L 287.310866 285.951596 
L 288.058242 287.660062 
L 288.805618 284.84177 
L 289.552994 284.162549 
L 290.30037 283.809911 
L 291.047746 282.991428 
L 291.795122 278.42997 
L 292.542498 280.444808 
L 293.289874 280.881248 
L 294.03725 275.391591 
L 294.784625 272.438424 
L 295.532001 272.391773 
L 296.279377 268.555565 
L 297.026753 269.563473 
L 297.774129 265.548795 
L 298.521505 267.111744 
L 299.268881 262.77236 
L 300.016257 265.369313 
L 300.763633 258.940925 
L 302.258385 258.652477 
L 303.753136 251.831314 
L 304.500512 245.401871 
L 305.247888 244.200902 
L 305.995264 242.534113 
L 306.74264 237.802331 
L 307.490016 235.487601 
L 308.237392 232.229595 
L 308.984768 227.858519 
L 309.732144 225.949255 
L 310.47952 242.957572 
L 311.226896 226.469965 
L 311.974271 238.15 
L 312.721647 279.57625 
L 313.469023 285.759181 
L 314.216399 280.620954 
L 314.963775 282.207863 
L 315.711151 282.858269 
L 316.458527 289.128947 
L 317.205903 285.273512 
L 317.953279 292.031961 
L 318.700655 291.416718 
L 319.448031 292.895419 
L 320.195406 289.002158 
L 320.942782 292.162701 
L 321.690158 287.615683 
L 322.437534 288.640408 
L 323.18491 287.212871 
L 323.932286 287.767133 
L 324.679662 286.015194 
L 325.427038 289.107968 
L 326.174414 285.764667 
L 326.92179 287.545199 
L 327.669166 289.694592 
L 328.416541 294.496342 
L 329.163917 287.465057 
L 329.911293 289.698066 
L 330.658669 291.035959 
L 331.406045 294.353396 
L 332.153421 292.238892 
L 332.900797 297.320883 
L 333.648173 293.33042 
L 334.395549 298.072544 
L 335.142925 298.648915 
L 335.890301 297.993575 
L 336.637677 296.198474 
L 337.385052 296.249542 
L 338.132428 297.290888 
L 338.879804 299.811087 
L 340.374556 300.859453 
L 341.121932 298.959879 
L 341.869308 300.824598 
L 342.616684 299.962651 
L 343.36406 300.596128 
L 344.111436 299.802962 
L 344.858812 299.989061 
L 345.606187 296.44402 
L 346.353563 299.218813 
L 347.100939 295.867702 
L 347.848315 297.607162 
L 348.595691 294.780808 
L 349.343067 295.475941 
L 350.090443 293.342976 
L 350.837819 293.879127 
L 351.585195 293.216736 
L 352.332571 294.637407 
L 353.079947 296.355761 
L 353.827322 297.112663 
L 354.574698 297.59486 
L 355.322074 300.979038 
L 356.06945 296.939654 
L 356.816826 299.038051 
L 357.564202 299.301775 
L 358.311578 298.633803 
L 359.058954 297.561649 
L 359.80633 297.09667 
L 360.553706 295.421473 
L 361.301082 295.799152 
L 362.048458 294.170077 
L 362.795833 293.156257 
L 363.543209 291.419161 
L 364.290585 292.114704 
L 365.037961 289.631596 
L 365.785337 289.407199 
L 366.532713 288.039449 
L 367.280089 290.783038 
L 368.027465 291.268865 
L 368.774841 286.145052 
L 369.522217 287.808535 
L 370.269593 288.42401 
L 371.016968 286.416653 
L 371.764344 287.718713 
L 372.51172 287.007283 
L 373.259096 285.920127 
L 374.006472 285.589266 
L 374.753848 288.534171 
L 375.501224 286.29679 
L 376.2486 287.746662 
L 376.995976 287.140228 
L 377.743352 289.985234 
L 378.490728 289.081745 
L 379.238103 291.534174 
L 379.985479 290.459871 
L 380.732855 289.655099 
L 381.480231 289.507793 
L 382.227607 292.918735 
L 382.974983 290.457209 
L 383.722359 292.586276 
L 384.469735 290.761219 
L 385.217111 290.568704 
L 385.964487 292.260491 
L 386.711863 291.940394 
L 387.459239 288.502755 
L 388.206614 291.069418 
L 388.95399 288.776612 
L 389.701366 291.537571 
L 390.448742 290.118067 
L 391.196118 293.946567 
L 391.943494 289.439075 
L 392.69087 292.539675 
L 393.438246 288.796221 
L 394.185622 296.677445 
L 394.932998 296.135931 
L 395.680374 296.216992 
L 396.427749 296.128587 
L 397.175125 297.5064 
L 397.922501 293.774462 
L 398.669877 296.798091 
L 399.417253 295.210162 
L 400.164629 294.450067 
L 400.912005 291.325482 
L 401.659381 295.668412 
L 402.406757 291.848592 
L 403.154133 290.972212 
L 403.901509 291.755591 
L 404.648884 292.909868 
L 405.39626 290.24618 
L 406.143636 292.542908 
L 406.891012 288.613823 
L 407.638388 291.460848 
L 408.385764 288.413135 
L 409.13314 289.973444 
L 409.880516 287.843318 
L 410.627892 288.776122 
L 411.375268 286.633925 
L 412.122644 290.631218 
L 412.87002 287.270572 
L 413.617395 286.42157 
L 414.364771 287.373637 
L 415.112147 285.874605 
L 415.859523 284.063222 
L 416.606899 286.959809 
L 417.354275 285.871116 
L 418.101651 285.191361 
L 418.849027 281.481036 
L 419.596403 284.772582 
L 420.343779 280.674329 
L 421.091155 279.583228 
L 421.83853 280.00938 
L 422.585906 279.34482 
L 423.333282 275.684969 
L 424.080658 278.958884 
L 424.828034 279.897366 
L 425.57541 278.143522 
L 426.322786 274.97592 
L 427.070162 274.519863 
L 427.817538 274.43118 
L 428.564914 275.163418 
L 429.31229 272.191176 
L 430.059665 272.493008 
L 430.807041 268.595089 
L 431.554417 269.408529 
L 432.301793 265.236601 
L 433.049169 266.813669 
L 433.796545 262.88746 
L 434.543921 263.898887 
L 435.291297 260.156017 
L 436.038673 263.982457 
L 436.786049 258.31395 
L 437.533425 253.593306 
L 438.280801 253.738 
L 439.028176 251.11513 
L 439.775552 251.120629 
L 440.522928 248.713831 
L 441.270304 247.158512 
L 442.765056 240.638919 
L 443.512432 241.136408 
L 444.259808 238.142172 
L 445.007184 236.599786 
L 445.75456 231.86339 
L 446.501936 233.088859 
L 447.249311 230.144583 
L 447.996687 224.258755 
L 448.744063 225.304483 
L 449.491439 223.339453 
L 451.733567 212.903816 
L 452.480943 210.856717 
L 453.228319 205.324091 
L 453.975695 206.887438 
L 454.723071 199.511295 
L 455.470446 198.388393 
L 456.965198 190.29801 
L 457.712574 184.759255 
L 458.45995 183.43108 
L 459.207326 180.073582 
L 459.954702 170.932444 
L 460.702078 172.116129 
L 461.449454 168.079089 
L 462.19683 166.030467 
L 462.944206 163.05101 
L 463.691582 156.338306 
L 464.438957 156.34349 
L 465.186333 153.249682 
L 465.933709 149.566308 
L 466.681085 146.635394 
L 467.428461 142.466018 
L 468.175837 139.025724 
L 468.923213 136.429195 
L 469.670589 125.085052 
L 470.417965 124.580471 
L 471.165341 117.72692 
L 471.912717 118.418282 
L 472.660092 108.807603 
L 474.90222 95.143774 
L 475.649596 90.578266 
L 476.396972 88.445938 
L 477.144348 82.247833 
L 477.891724 81.407412 
L 478.6391 74.802212 
L 479.386476 71.673346 
L 480.133852 69.969773 
L 480.881227 65.553991 
L 481.628603 59.409629 
L 483.870731 45.823989 
L 484.618107 43.954967 
L 485.365483 43.959572 
L 485.365483 43.959572 
" clip-path="url(#p0a7ff8e7bc)" style="fill: none; stroke: #f58518; stroke-width: 1.6; stroke-linecap: square"/>
   </g>
   <g id="patch_3">
    <path d="M 84.360938 331.5325 
L 84.360938 7.2 
" style="fill: none; stroke: #000000; stroke-width: 0.8; stroke-linejoin: miter; stroke-linecap: square"/>
   </g>
   <g id="patch_4">
    <path d="M 84.360938 331.5325 
L 504.460937 331.5325 
" style="fill: none; stroke: #000000; stroke-width: 0.8; stroke-linejoin: miter; stroke-linecap: square"/>
   </g>
   <g id="text_14">
    <g id="patch_5">
     <path d="M 142.65125 173.27625 
L 424.350937 173.27625 
L 424.350937 143.196562 
L 142.65125 143.196562 
z
" style="fill: #ffffff; opacity: 0.7"/>
    </g>
    <!-- Rel l2=0.208  R²=0.926 -->
    <g transform="translate(146.56125 164.582969) scale(0.23 -0.23)">
     <defs>
      <path id="DejaVuSans-52" d="M 2841 2188 
Q 3044 2119 3236 1894 
Q 3428 1669 3622 1275 
L 4263 0 
L 3584 0 
L 2988 1197 
Q 2756 1666 2539 1819 
Q 2322 1972 1947 1972 
L 1259 1972 
L 1259 0 
L 628 0 
L 628 4666 
L 2053 4666 
Q 2853 4666 3247 4331 
Q 3641 3997 3641 3322 
Q 3641 2881 3436 2590 
Q 3231 2300 2841 2188 
z
M 1259 4147 
L 1259 2491 
L 2053 2491 
Q 2509 2491 2742 2702 
Q 2975 2913 2975 3322 
Q 2975 3731 2742 3939 
Q 2509 4147 2053 4147 
L 1259 4147 
z
" transform="scale(0.015625)"/>
      <path id="DejaVuSans-6c" d="M 603 4863 
L 1178 4863 
L 1178 0 
L 603 0 
L 603 4863 
z
" transform="scale(0.015625)"/>
      <path id="DejaVuSans-3d" d="M 678 2906 
L 4684 2906 
L 4684 2381 
L 678 2381 
L 678 2906 
z
M 678 1631 
L 4684 1631 
L 4684 1100 
L 678 1100 
L 678 1631 
z
" transform="scale(0.015625)"/>
      <path id="DejaVuSans-2e" d="M 684 794 
L 1344 794 
L 1344 0 
L 684 0 
L 684 794 
z
" transform="scale(0.015625)"/>
      <path id="DejaVuSans-b2" d="M 838 2444 
L 2163 2444 
L 2163 2088 
L 294 2088 
L 294 2431 
Q 400 2528 597 2703 
Q 1672 3656 1672 3950 
Q 1672 4156 1509 4282 
Q 1347 4409 1081 4409 
Q 919 4409 728 4354 
Q 538 4300 313 4191 
L 313 4575 
Q 553 4663 761 4706 
Q 969 4750 1147 4750 
Q 1600 4750 1872 4544 
Q 2144 4338 2144 4000 
Q 2144 3566 1109 2678 
Q 934 2528 838 2444 
z
" transform="scale(0.015625)"/>
      <path id="DejaVuSans-39" d="M 703 97 
L 703 672 
Q 941 559 1184 500 
Q 1428 441 1663 441 
Q 2288 441 2617 861 
Q 2947 1281 2994 2138 
Q 2813 1869 2534 1725 
Q 2256 1581 1919 1581 
Q 1219 1581 811 2004 
Q 403 2428 403 3163 
Q 403 3881 828 4315 
Q 1253 4750 1959 4750 
Q 2769 4750 3195 4129 
Q 3622 3509 3622 2328 
Q 3622 1225 3098 567 
Q 2575 -91 1691 -91 
Q 1453 -91 1209 -44 
Q 966 3 703 97 
z
M 1959 2075 
Q 2384 2075 2632 2365 
Q 2881 2656 2881 3163 
Q 2881 3666 2632 3958 
Q 2384 4250 1959 4250 
Q 1534 4250 1286 3958 
Q 1038 3666 1038 3163 
Q 1038 2656 1286 2365 
Q 1534 2075 1959 2075 
z
" transform="scale(0.015625)"/>
     </defs>
     <use xlink:href="#DejaVuSans-52"/>
     <use xlink:href="#DejaVuSans-65" transform="translate(64.982422 0)"/>
     <use xlink:href="#DejaVuSans-6c" transform="translate(126.505859 0)"/>
     <use xlink:href="#DejaVuSans-20" transform="translate(154.289062 0)"/>
     <use xlink:href="#DejaVuSans-6c" transform="translate(186.076172 0)"/>
     <use xlink:href="#DejaVuSans-32" transform="translate(213.859375 0)"/>
     <use xlink:href="#DejaVuSans-3d" transform="translate(277.482422 0)"/>
     <use xlink:href="#DejaVuSans-30" transform="translate(361.271484 0)"/>
     <use xlink:href="#DejaVuSans-2e" transform="translate(424.894531 0)"/>
     <use xlink:href="#DejaVuSans-32" transform="translate(456.681641 0)"/>
     <use xlink:href="#DejaVuSans-30" transform="translate(520.304688 0)"/>
     <use xlink:href="#DejaVuSans-38" transform="translate(583.927734 0)"/>
     <use xlink:href="#DejaVuSans-20" transform="translate(647.550781 0)"/>
     <use xlink:href="#DejaVuSans-20" transform="translate(679.337891 0)"/>
     <use xlink:href="#DejaVuSans-52" transform="translate(711.125 0)"/>
     <use xlink:href="#DejaVuSans-b2" transform="translate(780.607422 0)"/>
     <use xlink:href="#DejaVuSans-3d" transform="translate(820.695312 0)"/>
     <use xlink:href="#DejaVuSans-30" transform="translate(904.484375 0)"/>
     <use xlink:href="#DejaVuSans-2e" transform="translate(968.107422 0)"/>
     <use xlink:href="#DejaVuSans-39" transform="translate(999.894531 0)"/>
     <use xlink:href="#DejaVuSans-32" transform="translate(1063.517578 0)"/>
     <use xlink:href="#DejaVuSans-36" transform="translate(1127.140625 0)"/>
    </g>
   </g>
   <g id="legend_1">
    <g id="patch_6">
     <path d="M 100.460938 93.119375 
L 296.083125 93.119375 
Q 300.683125 93.119375 300.683125 88.519375 
L 300.683125 23.3 
Q 300.683125 18.7 296.083125 18.7 
L 100.460938 18.7 
Q 95.860938 18.7 95.860938 23.3 
L 95.860938 88.519375 
Q 95.860938 93.119375 100.460938 93.119375 
z
" style="fill: #ffffff; opacity: 0.8; stroke: #cccccc; stroke-linejoin: miter"/>
    </g>
    <g id="line2d_20">
     <path d="M 105.060938 37.326406 
L 128.060938 37.326406 
L 151.060938 37.326406 
" style="fill: none; stroke: #4c78a8; stroke-width: 1.6; stroke-linecap: square"/>
    </g>
    <g id="text_15">
     <!-- True -->
     <g transform="translate(169.460938 45.376406) scale(0.23 -0.23)">
      <defs>
       <path id="DejaVuSans-54" d="M -19 4666 
L 3928 4666 
L 3928 4134 
L 2272 4134 
L 2272 0 
L 1638 0 
L 1638 4134 
L -19 4134 
L -19 4666 
z
" transform="scale(0.015625)"/>
       <path id="DejaVuSans-75" d="M 544 1381 
L 544 3500 
L 1119 3500 
L 1119 1403 
Q 1119 906 1312 657 
Q 1506 409 1894 409 
Q 2359 409 2629 706 
Q 2900 1003 2900 1516 
L 2900 3500 
L 3475 3500 
L 3475 0 
L 2900 0 
L 2900 538 
Q 2691 219 2414 64 
Q 2138 -91 1772 -91 
Q 1169 -91 856 284 
Q 544 659 544 1381 
z
M 1991 3584 
L 1991 3584 
z
" transform="scale(0.015625)"/>
      </defs>
      <use xlink:href="#DejaVuSans-54"/>
      <use xlink:href="#DejaVuSans-72" transform="translate(46.333984 0)"/>
      <use xlink:href="#DejaVuSans-75" transform="translate(87.447266 0)"/>
      <use xlink:href="#DejaVuSans-65" transform="translate(150.826172 0)"/>
     </g>
    </g>
    <g id="line2d_21">
     <path d="M 105.060938 71.086094 
L 128.060938 71.086094 
L 151.060938 71.086094 
" style="fill: none; stroke: #f58518; stroke-width: 1.6; stroke-linecap: square"/>
    </g>
    <g id="text_16">
     <!-- Generated -->
     <g transform="translate(169.460938 79.136094) scale(0.23 -0.23)">
      <defs>
       <path id="DejaVuSans-47" d="M 3809 666 
L 3809 1919 
L 2778 1919 
L 2778 2438 
L 4434 2438 
L 4434 434 
Q 4069 175 3628 42 
Q 3188 -91 2688 -91 
Q 1594 -91 976 548 
Q 359 1188 359 2328 
Q 359 3472 976 4111 
Q 1594 4750 2688 4750 
Q 3144 4750 3555 4637 
Q 3966 4525 4313 4306 
L 4313 3634 
Q 3963 3931 3569 4081 
Q 3175 4231 2741 4231 
Q 1884 4231 1454 3753 
Q 1025 3275 1025 2328 
Q 1025 1384 1454 906 
Q 1884 428 2741 428 
Q 3075 428 3337 486 
Q 3600 544 3809 666 
z
" transform="scale(0.015625)"/>
       <path id="DejaVuSans-61" d="M 2194 1759 
Q 1497 1759 1228 1600 
Q 959 1441 959 1056 
Q 959 750 1161 570 
Q 1363 391 1709 391 
Q 2188 391 2477 730 
Q 2766 1069 2766 1631 
L 2766 1759 
L 2194 1759 
z
M 3341 1997 
L 3341 0 
L 2766 0 
L 2766 531 
Q 2569 213 2275 61 
Q 1981 -91 1556 -91 
Q 1019 -91 701 211 
Q 384 513 384 1019 
Q 384 1609 779 1909 
Q 1175 2209 1959 2209 
L 2766 2209 
L 2766 2266 
Q 2766 2663 2505 2880 
Q 2244 3097 1772 3097 
Q 1472 3097 1187 3025 
Q 903 2953 641 2809 
L 641 3341 
Q 956 3463 1253 3523 
Q 1550 3584 1831 3584 
Q 2591 3584 2966 3190 
Q 3341 2797 3341 1997 
z
" transform="scale(0.015625)"/>
       <path id="DejaVuSans-64" d="M 2906 2969 
L 2906 4863 
L 3481 4863 
L 3481 0 
L 2906 0 
L 2906 525 
Q 2725 213 2448 61 
Q 2172 -91 1784 -91 
Q 1150 -91 751 415 
Q 353 922 353 1747 
Q 353 2572 751 3078 
Q 1150 3584 1784 3584 
Q 2172 3584 2448 3432 
Q 2725 3281 2906 2969 
z
M 947 1747 
Q 947 1113 1208 752 
Q 1469 391 1925 391 
Q 2381 391 2643 752 
Q 2906 1113 2906 1747 
Q 2906 2381 2643 2742 
Q 2381 3103 1925 3103 
Q 1469 3103 1208 2742 
Q 947 2381 947 1747 
z
" transform="scale(0.015625)"/>
      </defs>
      <use xlink:href="#DejaVuSans-47"/>
      <use xlink:href="#DejaVuSans-65" transform="translate(77.490234 0)"/>
      <use xlink:href="#DejaVuSans-6e" transform="translate(139.013672 0)"/>
      <use xlink:href="#DejaVuSans-65" transform="translate(202.392578 0)"/>
      <use xlink:href="#DejaVuSans-72" transform="translate(263.916016 0)"/>
      <use xlink:href="#DejaVuSans-61" transform="translate(305.029297 0)"/>
      <use xlink:href="#DejaVuSans-74" transform="translate(366.308594 0)"/>
      <use xlink:href="#DejaVuSans-65" transform="translate(405.517578 0)"/>
      <use xlink:href="#DejaVuSans-64" transform="translate(467.041016 0)"/>
     </g>
    </g>
   </g>
  </g>
 </g>
 <defs>
  <clipPath id="p0a7ff8e7bc">
   <rect x="84.360938" y="7.2" width="420.1" height="324.3325"/>
  </clipPath>
 </defs>
</svg>
